<?xml version="1.0" standalone="no"?>
<!DOCTYPE svg PUBLIC "-//W3C//DTD SVG 1.1//EN" "http://www.w3.org/Graphics/SVG/1.1/DTD/svg11.dtd" >
<svg xmlns="http://www.w3.org/2000/svg" xmlns:xlink="http://www.w3.org/1999/xlink" version="1.1">
<metadata>
Created by FontForge 20170731 at Fri Jun  8 02:15:09 2018
 By Aleksey,,,
Copyright (c) 2018 by Jorge Cisterna. All rights reserved.
</metadata>
<defs>
<font id="Recoleta-SemiBold" horiz-adv-x="600" >
  <font-face 
    font-family="Recoleta SemiBold"
    font-weight="600"
    font-stretch="normal"
    units-per-em="1000"
    panose-1="0 0 7 0 0 0 0 0 0 0"
    ascent="800"
    descent="-200"
    x-height="480"
    cap-height="710"
    bbox="-712 -323.2 1351 961"
    underline-thickness="50"
    underline-position="-250"
    unicode-range="U+0020-FB02"
  />
<missing-glyph horiz-adv-x="530" 
d="M50 730h430v-730h-430v730zM115 695l150 -287l150 287h-300zM243 365l-153 292v-584zM288 365l152 -292v584zM265 322l-150 -287h300z" />
    <glyph glyph-name="fi" unicode="fi" horiz-adv-x="683" 
d="M338 689q-49 0 -77 -51t-23 -126v-32h120q8 0 14 -6t6 -14v-19q0 -8 -6 -13.5t-14 -5.5h-120v-325q0 -18 13 -32t25.5 -24t12.5 -20v-4q0 -17 -20 -17h-193q-21 0 -21 17v4q0 10 20 31t20 45v325h-71q-21 0 -21 19v19q0 8 6 14t15 6h71v41q0 96 72 154t190 58
q101 0 160.5 -42.5t59.5 -96.5q0 -23 -16 -38.5t-41 -15.5q-29 0 -50 15.5t-33.5 37t-24 43.5t-30 37.5t-44.5 15.5zM617 97q0 -24 21 -45t21 -31v-4q0 -17 -23 -17h-185q-23 0 -23 17v4q0 10 19.5 31t19.5 45v226q0 25 -19.5 47t-19.5 30v3q0 10 21 21l127 62q19 8 30 1.5
t11 -21.5v-369z" />
    <glyph glyph-name="fl" unicode="fl" horiz-adv-x="683" 
d="M617 96q0 -23 21 -44t21 -31v-4q0 -17 -23 -17h-185q-23 0 -23 17v4q0 10 19.5 31t19.5 44v460q-19 14 -36 49.5t-37.5 59.5t-55.5 24q-49 1 -77 -50.5t-23 -126.5v-32h120q8 0 14 -6t6 -14v-19q0 -8 -6 -13.5t-14 -5.5h-120v-325q0 -18 13 -32t25.5 -24t12.5 -20v-4
q0 -17 -20 -17h-193q-21 0 -21 17v4q0 10 20 31t20 45v325h-71q-21 0 -21 19v19q0 8 6 14t15 6h71v41q0 96 72 154t190 58q74 0 132 -25l87 42q19 9 30 2.5t11 -20.5v-636z" />
    <glyph glyph-name=".notdef" horiz-adv-x="530" 
d="M50 730h430v-730h-430v730zM115 695l150 -287l150 287h-300zM243 365l-153 292v-584zM288 365l152 -292v584zM265 322l-150 -287h300z" />
    <glyph glyph-name=".null" horiz-adv-x="0" 
 />
    <glyph glyph-name="nonmarkingreturn" horiz-adv-x="333" 
 />
    <glyph glyph-name="space" unicode=" " horiz-adv-x="205" 
 />
    <glyph glyph-name="exclam" unicode="!" horiz-adv-x="268" 
d="M103 224q-20 104 -32 236.5t-13 207.5q0 20 16 34t38 17.5t44.5 0.5t38.5 -16.5t16 -34.5q-1 -82 -13 -211.5t-35 -233.5q-4 -16 -29.5 -16t-30.5 16zM135 -13q-40 0 -66 21.5t-26 61.5q0 41 26 62.5t66 21.5q39 0 65 -21.5t26 -62.5q0 -40 -26 -61.5t-65 -21.5z" />
    <glyph glyph-name="quotedbl" unicode="&#x22;" horiz-adv-x="431" 
d="M70 427q-34 138 -35 221q0 36 21.5 55.5t52.5 19.5t53 -19t22 -56q-1 -42 -14.5 -114t-23.5 -107q-9 -27 -38.5 -26.5t-37.5 26.5zM284 427q-34 138 -35 221q0 36 21.5 55.5t52.5 19.5t53 -19t22 -56q-1 -42 -14.5 -114t-23.5 -107q-9 -27 -39 -26.5t-37 26.5z" />
    <glyph glyph-name="numbersign" unicode="#" horiz-adv-x="685" 
d="M635 480q21 0 21 -15v-44q0 -14 -21 -14h-107l-31 -118h107q21 0 21 -14v-44q0 -15 -21 -15h-127l-53 -203q-3 -13 -23 -13h-56q-20 0 -13 23l51 193h-153l-53 -203q-4 -13 -22 -13h-57q-20 0 -13 23l51 193h-86q-21 0 -21 15v44q0 14 21 14h106l31 118h-106
q-20 0 -20 14v44q0 15 20 15h126l48 182q3 14 19 14h57q20 0 14 -24l-45 -172h154l48 182q3 14 18 14h58q21 0 14 -24l-45 -172h88zM403 289l31 118h-153l-31 -118h153z" />
    <glyph glyph-name="dollar" unicode="$" horiz-adv-x="567" 
d="M536 200q0 -85 -63 -142t-168 -64v-95q0 -21 -16 -21h-26q-16 0 -16 21v95q-97 8 -156 53.5t-59 94.5q0 35 19 54t46 19q35 0 61 -26.5t39.5 -58t37 -58t54.5 -26.5q39 0 64 28t25 75q0 34 -18.5 60t-48 42.5t-65.5 31.5t-72 32.5t-65.5 41t-48 62t-18.5 89.5
q0 82 59 137t153 62v59q0 20 17 20h25q17 0 17 -20v-59q93 -8 149 -49t56 -91q0 -33 -18 -52.5t-50 -19.5q-31 0 -52.5 26t-31 56.5t-30.5 56.5t-52 26q-37 0 -58.5 -26t-21.5 -69q0 -40 18.5 -69t47.5 -45.5t64.5 -30t71 -29.5t64.5 -38t47.5 -61t18.5 -92z" />
    <glyph glyph-name="percent" unicode="%" horiz-adv-x="892" 
d="M212 341q-77 0 -131.5 53t-54.5 135q0 84 51 137.5t133 53.5q77 0 131.5 -55t54.5 -137q0 -83 -54.5 -135t-129.5 -52zM233 0q-11 0 -14.5 6.5t1.5 16.5l363 674q6 13 18 13h53q11 0 14.5 -6.5t-1.5 -16.5l-360 -674q-9 -13 -23 -13h-51zM226 380q29 0 43 27.5t14 70.5
q0 72 -26.5 137t-67.5 65q-29 0 -43.5 -29t-14.5 -74q0 -74 27 -135.5t68 -61.5zM683 -10q-77 0 -131.5 53.5t-54.5 135.5q0 84 51 137t133 53q78 0 132 -54.5t54 -136.5q0 -83 -54.5 -135.5t-129.5 -52.5zM697 29q29 0 43 27.5t14 70.5q0 73 -26.5 138t-67.5 65
q-29 0 -43.5 -29.5t-14.5 -74.5q0 -74 27 -135.5t68 -61.5z" />
    <glyph glyph-name="ampersand" unicode="&#x26;" horiz-adv-x="745" 
d="M718 81q25 0 25 -18v-7q0 -22 -35 -44t-78 -22q-77 0 -135 60q-87 -60 -201 -60q-127 0 -195 50t-68 141q0 114 161 201q-39 44 -59 82t-20 83q0 76 56.5 124t155.5 48q96 0 145.5 -45t49.5 -106q0 -62 -43.5 -105t-105.5 -69l161 -173q40 98 40 217q0 22 25 31.5t50 0.5
t25 -33q0 -163 -77 -282l8 -9q62 -65 89 -65h26zM316 668q-27 0 -43 -23t-16 -59q0 -67 64 -138q64 47 64 122q0 43 -17.5 70.5t-51.5 27.5zM185 172q0 -57 34 -94t99 -37q73 0 133 57l-207 226q-59 -61 -59 -152z" />
    <glyph glyph-name="quotesingle" unicode="'" horiz-adv-x="217" 
d="M70 427q-34 138 -35 221q0 36 21.5 55.5t52.5 19.5t53 -19t22 -56q-1 -42 -14.5 -114t-23.5 -107q-9 -27 -38.5 -26.5t-37.5 26.5z" />
    <glyph glyph-name="parenleft" unicode="(" horiz-adv-x="274" 
d="M203 -105q-74 66 -122.5 179t-48.5 263t48.5 263t122.5 179q19 16 36 5t5 -34q-38 -65 -60.5 -175.5t-22.5 -237.5t22.5 -237.5t60.5 -175.5q12 -23 -5 -34t-36 5z" />
    <glyph glyph-name="parenright" unicode=")" horiz-adv-x="274" 
d="M72 -105q-20 -16 -37.5 -5.5t-5.5 34.5q39 64 61.5 174.5t22.5 238.5t-22.5 238.5t-61.5 174.5q-12 23 5 34t37 -5q75 -65 122.5 -178t47.5 -264q0 -149 -48 -262t-121 -180z" />
    <glyph glyph-name="asterisk" unicode="*" horiz-adv-x="401" 
d="M162 428q-15 -36 -50 -27q-28 8 -35 32q-6 23 14 40l81 72l-98 9q-39 2 -43 35q-3 29 21 44q19 12 41 -1l89 -49l-23 97q-7 26 6 42t39 17q27 1 39.5 -15t3.5 -44l-25 -97l87 49q34 19 52 -9q17 -26 2 -50q-10 -18 -34 -19l-95 -9l81 -74q27 -24 3 -51q-21 -24 -48 -18
q-20 5 -29 28l-38 93z" />
    <glyph glyph-name="plus" unicode="+" 
d="M269 63q-15 0 -15 22v155h-155q-20 0 -22 15l1 61q0 15 21 15h155v155q0 22 15 22h62q15 0 15 -22v-155l156 1q21 0 21 -15v-62q0 -15 -21 -15h-155v-155q0 -22 -16 -22h-62z" />
    <glyph glyph-name="comma" unicode="," horiz-adv-x="249" 
d="M82 -146q-15 -9 -27.5 4t-0.5 26q29 28 41.5 46.5t15.5 40.5q3 19 -11 19q-27 0 -46 23t-19 59q0 42 24 67.5t64 25.5q38 0 65 -28.5t27 -77.5q0 -122 -133 -205z" />
    <glyph glyph-name="hyphen" unicode="-" horiz-adv-x="460" 
d="M70 292q-20 0 -20 22v32q0 21 20 21h320q20 0 20 -21v-32q0 -22 -20 -22h-320z" />
    <glyph glyph-name="period" unicode="." horiz-adv-x="255" 
d="M128 -10q-40 0 -66 21.5t-26 61.5t26 61.5t66 21.5q39 0 65 -21.5t26 -61.5t-26 -61.5t-65 -21.5z" />
    <glyph glyph-name="slash" unicode="/" horiz-adv-x="384" 
d="M38 -96q-21 0 -14 23l250 854q3 14 22 14h49q21 0 14 -24l-247 -853q-5 -14 -23 -14h-51z" />
    <glyph glyph-name="zero" unicode="0" horiz-adv-x="689" 
d="M347 -10q-134 0 -222.5 99.5t-88.5 265.5q0 167 82.5 266t225.5 99q133 0 221.5 -102.5t88.5 -265.5q0 -164 -88 -263t-219 -99zM370 48q56 0 91 62t35 174q0 92 -21 177t-61.5 141.5t-91.5 56.5q-58 0 -93 -64.5t-35 -184.5q0 -94 21.5 -176t62 -134t92.5 -52z" />
    <glyph glyph-name="one" unicode="1" horiz-adv-x="340" 
d="M70 0q-22 0 -22 17v3q0 10 27 34.5t27 49.5v435q0 21 -11 32.5t-23.5 14t-23.5 9t-11 17.5v5q0 15 27 27l140 61q32 12 50.5 3.5t18.5 -28.5q0 -11 -11.5 -33t-11.5 -52v-491q0 -15 9 -28.5t19.5 -21t19.5 -17t9 -17.5v-3q0 -17 -21 -17h-212z" />
    <glyph glyph-name="two" unicode="2" horiz-adv-x="605" 
d="M560 187q10 0 15 -6.5t3 -15.5l-30 -142q-7 -23 -25 -23h-468q-9 0 -16.5 6.5t-7.5 15.5v12q0 58 36.5 115t88.5 103.5t104 92t88.5 96t36.5 99.5q0 54 -27.5 87t-63.5 33q-34 0 -57.5 -29t-34 -63t-34 -63t-57.5 -29q-32 0 -53 19t-21 52q0 68 74 120.5t182 52.5
q114 0 181.5 -48.5t67.5 -145.5q0 -42 -18.5 -79.5t-48.5 -67t-67 -57t-76 -53t-73 -50.5t-59.5 -54t-34.5 -59h281q24 0 42 12.5t25.5 28t17 28t18.5 12.5h11z" />
    <glyph glyph-name="three" unicode="3" horiz-adv-x="582" 
d="M324 417q103 -3 164 -59.5t61 -145.5q0 -94 -74 -158t-195 -64q-122 0 -187 43t-65 97q0 34 18 54.5t49 20.5q24 0 42.5 -16t31 -38.5t25.5 -45.5t35 -39t51 -16q51 0 82 39t31 100q0 71 -34.5 111.5t-91.5 40.5h-16q-22 0 -29.5 17t5.5 35l146 188h-300q-30 0 -30 29v73
q0 27 29 27h439q24 0 24 -21v-13q0 -17 -22 -43z" />
    <glyph glyph-name="four" unicode="4" horiz-adv-x="582" 
d="M542 234q18 0 18 -18v-29q0 -18 -18 -18h-67v-71q0 -26 22 -47t22 -31v-3q0 -17 -22 -17h-191q-22 0 -22 17v3q0 10 20 31t20 47v71h-281q-40 0 -40 32v5q0 27 14 49l278 417q25 38 67 38h90q23 0 23 -23v-453h67zM84 234h240l1 359z" />
    <glyph glyph-name="five" unicode="5" horiz-adv-x="580" 
d="M310 448q98 0 169 -58.5t71 -157.5q0 -106 -75.5 -174t-197.5 -68q-117 0 -182.5 41t-65.5 101q0 36 21 53t51 17q27 0 47 -23.5t31 -51.5t36.5 -51.5t62.5 -23.5q53 0 86.5 40t33.5 116q0 87 -35 133t-99 46q-57 0 -120 -47q-23 -19 -52.5 -6.5t-25.5 38.5l38 319
q3 19 24 19h377q21 0 21 -22v-76q0 -22 -21 -22h-337l-32 -198q71 56 174 56z" />
    <glyph glyph-name="six" unicode="6" horiz-adv-x="607" 
d="M336 462q97 0 164 -62.5t67 -180.5q0 -101 -73.5 -165t-181.5 -64q-119 0 -197.5 97.5t-78.5 253.5q0 104 32 188.5t99.5 137.5t160.5 53q107 0 171 -49t64 -110q0 -36 -20 -53.5t-52 -17.5q-30 0 -51 17.5t-32 42.5t-21 50t-27 42.5t-42 17.5q-53 0 -87 -65t-41 -189
q56 56 146 56zM330 50q42 0 66.5 32.5t24.5 88.5q0 88 -35 160t-92 72q-44 0 -72.5 -31t-30.5 -76q9 -109 45 -177.5t94 -68.5z" />
    <glyph glyph-name="seven" unicode="7" horiz-adv-x="532" 
d="M504 710q23 0 23 -20v-13q0 -15 -13 -49l-237 -603q-9 -25 -37 -25h-92q-16 0 -23 12.5t-1 24.5l289 557h-270q-18 0 -32 -14t-21.5 -30.5t-19 -30.5t-24.5 -14h-13q-25 0 -22 26l21 151q4 28 32 28h440z" />
    <glyph glyph-name="eight" unicode="8" horiz-adv-x="609" 
d="M419 380q75 -36 116.5 -78t41.5 -111q0 -101 -77 -151t-196 -50q-134 0 -203 53t-69 123q0 38 15.5 69.5t43 54t52.5 36.5t57 28q-66 35 -103 75.5t-37 98.5q0 89 67.5 140t184.5 51q113 0 171.5 -51.5t58.5 -127.5q0 -103 -123 -160zM304 663q-45 0 -72.5 -25t-27.5 -63
q0 -54 33 -88.5t95 -65.5q33 23 57 61t24 81q0 40 -29.5 70t-79.5 30zM314 50q52 0 85.5 27t33.5 70q0 32 -13 57.5t-41 48t-51.5 36t-65.5 34.5q-39 -28 -66.5 -70.5t-27.5 -86.5q0 -55 41 -85.5t105 -30.5z" />
    <glyph glyph-name="nine" unicode="9" horiz-adv-x="603" 
d="M291 720q123 0 199.5 -97t76.5 -254q0 -173 -72 -276t-212 -103q-99 0 -167 48t-68 111q0 33 21 52t52 19q29 0 48.5 -17.5t30.5 -42.5t21.5 -50t28 -42.5t43.5 -17.5q110 0 119 264q-48 -56 -144 -56q-98 0 -164.5 59t-66.5 175q0 101 72 164.5t182 63.5zM310 318
q46 0 72 29t28 77q-9 102 -44.5 169t-95.5 67q-40 0 -64 -31t-24 -87q0 -84 35.5 -154t92.5 -70z" />
    <glyph glyph-name="colon" unicode=":" horiz-adv-x="273" 
d="M136 311q-40 0 -65.5 21.5t-25.5 61.5t25.5 61.5t65.5 21.5t66 -21.5t26 -61.5t-26 -61.5t-66 -21.5zM136 -10q-40 0 -65.5 21.5t-25.5 61.5t25.5 61.5t65.5 21.5t66 -21.5t26 -61.5t-26 -61.5t-66 -21.5z" />
    <glyph glyph-name="semicolon" unicode=";" horiz-adv-x="281" 
d="M142 311q-39 0 -65 21.5t-26 61.5t26 61.5t65 21.5q40 0 66 -21.5t26 -61.5t-26 -61.5t-66 -21.5zM97 -146q-15 -9 -27.5 4t0.5 26q51 49 57 87q2 19 -12 19q-27 0 -46 23.5t-19 58.5q0 42 24 67.5t64 25.5q39 0 65.5 -28.5t26.5 -77.5q0 -122 -133 -205z" />
    <glyph glyph-name="less" unicode="&#x3c;" 
d="M449 160q21 -10 21 -24v-83q0 -9 -7 -13t-21 1l-309 157q-22 11 -22 32v91q0 21 24 31l307 143q12 5 19 -0.5t7 -13.5v-80q0 -17 -20 -23l-251 -103z" />
    <glyph glyph-name="equal" unicode="=" 
d="M106 328q-21 0 -21 15v63q0 16 21 16h388q20 0 20 -16v-63q0 -15 -20 -15h-388zM106 139q-21 0 -21 16v62q0 16 21 16h388q20 0 20 -16v-62q0 -16 -20 -16h-388z" />
    <glyph glyph-name="greater" unicode="&#x3e;" 
d="M465 352q24 -11 24 -31v-93q0 -20 -23 -31l-309 -157q-13 -6 -20 -2t-7 13v84q0 15 21 23l258 115l-256 104q-21 6 -21 22v82q0 8 7.5 13.5t19.5 0.5z" />
    <glyph glyph-name="question" unicode="?" horiz-adv-x="552" 
d="M200 222q-9 41 5.5 75.5t41 61t55 53t49 62t20.5 75.5q0 52 -27 81.5t-63 29.5q-30 0 -50.5 -19t-32 -46t-22.5 -54t-30 -46t-47 -19q-33 0 -54 19t-21 52q0 65 74.5 119t176.5 54q110 0 179.5 -47.5t69.5 -140.5q0 -47 -22.5 -85t-55 -63t-64.5 -48t-54.5 -51.5
t-22.5 -62.5q0 -16 -24 -23t-50 -0.5t-31 23.5zM254 -13q-38 0 -63.5 20.5t-25.5 58.5q0 39 25.5 60t63.5 21t63 -21t25 -60q0 -38 -25 -58.5t-63 -20.5z" />
    <glyph glyph-name="at" unicode="@" horiz-adv-x="906" 
d="M491 735q178 0 291 -100t113 -251q0 -101 -59 -175.5t-163 -74.5q-40 0 -76.5 18t-54.5 48q-46 -67 -138 -67q-69 0 -120.5 46.5t-51.5 123.5q0 109 67.5 174.5t169.5 65.5q71 0 114 -45l3 18q1 17 18 17h78q21 0 16 -20l-51 -240q-7 -33 6.5 -53.5t40.5 -20.5
q52 0 81.5 53t29.5 129q0 135 -91.5 212t-239.5 77q-143 0 -250 -107t-107 -258q0 -130 82 -213t214 -83q81 0 166 33q14 5 18.5 -1.5t0.5 -19.5l-8 -21q-6 -16 -24 -23q-67 -31 -166 -31q-161 0 -267 104.5t-106 255.5q0 81 32.5 157.5t90.5 137t147 97.5t194 37zM434 176
q31 0 58.5 28t37.5 69l28 129q4 46 -11 71.5t-45 25.5q-49 0 -87 -65t-42 -157q-1 -50 15.5 -75.5t45.5 -25.5z" />
    <glyph glyph-name="A" unicode="A" horiz-adv-x="694" 
d="M644 96q10 -24 32.5 -44t22.5 -32v-3q0 -17 -22 -17h-219q-22 0 -22 17v3q0 10 13.5 20.5t23.5 24t3 31.5l-30 80h-279l-29 -80q-7 -18 3 -31.5t23.5 -24t13.5 -20.5v-3q0 -17 -23 -17h-131q-22 0 -22 17v3q0 12 22 31.5t32 44.5l199 511q8 21 -13.5 49t-21.5 34v4
q0 16 20 16h104q42 0 61 -43zM191 241h231l-117 311z" />
    <glyph glyph-name="B" unicode="B" horiz-adv-x="685" 
d="M468 382q90 -12 141.5 -61t51.5 -121q0 -92 -81.5 -146t-230.5 -54h-279q-22 0 -22 17v4q0 10 19 31t19 44v518q0 23 -19 44.5t-19 31.5v4q0 16 22 16h260q126 0 194 -50t68 -129q0 -56 -33.5 -96t-90.5 -53zM236 604v-151q0 -22 13.5 -35t36.5 -13h70q47 0 75.5 29
t28.5 74q0 67 -36.5 104t-98.5 37h-47q-42 0 -42 -45zM366 61q67 0 102.5 30.5t35.5 85.5q0 66 -53 117.5t-145 51.5h-70v-213q0 -31 18 -51.5t47 -20.5h65z" />
    <glyph glyph-name="C" unicode="C" horiz-adv-x="672" 
d="M366 -10q-139 0 -239.5 113.5t-100.5 260.5q0 155 92.5 255t239.5 100q115 0 200 -58.5t85 -130.5q0 -30 -19 -48.5t-52 -18.5q-30 0 -53 20t-40 48.5t-35.5 57.5t-48.5 49t-69 20q-63 0 -108 -56.5t-45 -147.5q0 -143 71.5 -236t166.5 -93q118 0 189 126q12 17 31 11.5
t17 -27.5q-9 -103 -82 -174t-200 -71z" />
    <glyph glyph-name="D" unicode="D" horiz-adv-x="760" 
d="M70 0q-23 0 -23 17v3q0 10 19.5 31.5t19.5 44.5v518q0 23 -19.5 44.5t-19.5 31.5v4q0 16 23 16h228q196 0 314 -100t118 -256q0 -160 -106.5 -257t-278.5 -97h-275zM309 61h51q94 0 153.5 61t59.5 168q0 149 -80.5 254t-198.5 105h-19q-40 0 -40 -42v-460
q0 -41 19.5 -63.5t54.5 -22.5z" />
    <glyph glyph-name="E" unicode="E" horiz-adv-x="615" 
d="M70 0q-23 0 -23 17v3q0 10 19.5 31.5t19.5 45.5v516q0 25 -19.5 46t-19.5 31v4q0 16 22 16h446q27 0 31 -28l24 -117q5 -26 -20 -26h-6q-15 0 -32.5 17.5t-31 38t-34 38t-42.5 17.5h-128q-40 0 -40 -43v-215h129q17 0 29.5 11.5t18.5 25t14.5 25t16.5 11.5h8q17 0 17 -21
v-161q0 -21 -17 -21h-8q-8 0 -16.5 11t-14.5 23.5t-18.5 23.5t-29.5 11h-129l-1 -209q0 -25 13 -43.5t40 -18.5h147q22 0 41.5 18t31 40t28.5 40t34 18h8q10 0 15 -8t3 -18l-22 -121q-6 -29 -32 -29h-472z" />
    <glyph glyph-name="F" unicode="F" horiz-adv-x="590" 
d="M70 0q-23 0 -23 17v3q0 10 19.5 31.5t19.5 44.5v518q0 24 -19.5 45t-19.5 31v4q0 16 22 16h453q27 0 31 -29l24 -117q5 -26 -21 -26h-5q-15 0 -32.5 17.5t-31 38t-34.5 38t-43 17.5h-132q-39 0 -39 -42v-244h134q14 0 26.5 11.5t19.5 25.5t16 25.5t18 11.5h8q17 0 17 -22
v-161q0 -21 -17 -21h-8q-9 0 -18 11t-16 24t-19.5 24t-26.5 11h-134v-207q0 -23 21.5 -44.5t21.5 -31.5v-3q0 -17 -24 -17h-188z" />
    <glyph glyph-name="G" unicode="G" horiz-adv-x="718" 
d="M386 -10q-151 0 -254 108.5t-103 255.5q0 163 99 264t238 101q123 0 205.5 -56t82.5 -128q0 -31 -18.5 -50t-49.5 -19q-30 0 -55.5 20t-44.5 48t-39.5 56t-51 48t-68.5 20q-65 0 -108 -59t-43 -148q0 -150 72.5 -255t172.5 -105q52 0 90 20v147q0 15 -9.5 27.5
t-20.5 18.5t-20.5 14t-9.5 16v4q0 18 25 18l205 -1q23 0 23 -17v-4q0 -10 -13 -19.5t-26 -23.5t-13 -34v-128q0 -37 -37 -66q-90 -73 -229 -73z" />
    <glyph glyph-name="H" unicode="H" horiz-adv-x="785" 
d="M70 0q-22 0 -22 17v3q0 10 19 31.5t19 44.5v518q0 23 -19 44.5t-19 31.5v4q0 16 22 16h187q23 0 23 -16v-4q0 -10 -21 -31.5t-21 -44.5v-222h306v222q0 23 -19 44.5t-19 31.5v4q0 16 22 16h187q23 0 23 -16v-4q0 -10 -21.5 -31.5t-21.5 -44.5v-518q0 -23 21.5 -44.5
t21.5 -31.5v-3q0 -17 -23 -17h-187q-22 0 -22 17v3q0 10 19 31.5t19 44.5v230h-306l-1 -230q0 -23 21.5 -44.5t21.5 -31.5v-3q0 -17 -23 -17h-187z" />
    <glyph glyph-name="I" unicode="I" horiz-adv-x="326" 
d="M48 17v3q0 10 19 31t19 45v518q0 23 -19 44.5t-19 31.5v4q0 16 22 16h187q22 0 22 -16v-4q0 -10 -21 -31.5t-21 -44.5v-518q0 -24 21 -45t21 -31v-3q0 -17 -22 -17h-187q-22 0 -22 17z" />
    <glyph glyph-name="J" unicode="J" horiz-adv-x="554" 
d="M326 614q0 23 -19.5 44.5t-19.5 31.5v4q0 16 23 16h188q23 0 23 -16v-4q0 -10 -21 -31.5t-21 -44.5l-1 -317q-1 -162 -62 -234t-176 -73q-64 0 -111.5 17t-72.5 45t-36.5 56.5t-11.5 56.5q0 33 19 53.5t50 20.5q32 0 51 -19.5t27 -47l16 -55t26.5 -47t50.5 -19.5
q37 0 57.5 42.5t20.5 115.5v405z" />
    <glyph glyph-name="K" unicode="K" horiz-adv-x="707" 
d="M667 97q13 -22 28.5 -37t23.5 -22.5t8 -17.5v-3q0 -17 -21 -17h-212q-22 0 -22 17v3q0 9 12 21t18.5 21t-2.5 30l-161 271l-102 -103v-163q0 -24 21.5 -45.5t21.5 -31.5v-3q0 -17 -23 -17h-187q-22 0 -22 17v3q0 10 19 31.5t19 45.5v517q0 23 -19 44.5t-19 31.5v4
q0 16 22 16h187q23 0 23 -16v-4q0 -10 -21.5 -31.5t-21.5 -44.5v-262l256 261q13 12 14.5 23.5t-4 19t-12 17.5t-6.5 17v4q0 16 23 16h144q22 0 22 -16v-4q0 -10 -12.5 -20t-35.5 -25.5t-39 -31.5l-144 -145z" />
    <glyph glyph-name="L" unicode="L" horiz-adv-x="597" 
d="M70 0q-22 0 -22 17v3q0 10 19 31.5t19 44.5v518q0 24 -19 44.5t-19 31.5v4q0 16 22 16h188q24 0 24 -16v-4q0 -11 -21.5 -31.5t-21.5 -44.5v-497q0 -24 10.5 -40t31.5 -16h144q25 0 46 20.5t32.5 44.5t26 44.5t28.5 20.5h12q22 0 17 -22l-26 -140q-6 -29 -31 -29h-460z
" />
    <glyph glyph-name="M" unicode="M" horiz-adv-x="899" 
d="M845 98q4 -24 22.5 -45.5t18.5 -32.5v-3q0 -17 -23 -17h-180q-23 0 -23 17v3q0 9 20 31t15 47l-70 397l-169 -467q-9 -27 -32 -27q-25 0 -37 26l-185 486l-64 -415q-4 -25 16 -47t20 -31v-3q0 -17 -22 -17h-113q-22 0 -22 17v3q0 11 18 32.5t22 45.5l83 515q3 23 -17 45
t-20 32v3q0 17 21 17h110q37 0 49 -33l162 -471l160 471q12 33 46 33h115q21 0 21 -16v-4q0 -10 -11.5 -21t-20.5 -25.5t-6 -34.5z" />
    <glyph glyph-name="N" unicode="N" horiz-adv-x="756" 
d="M694 710q23 0 23 -17v-3q0 -10 -21.5 -31.5t-21.5 -44.5v-574q0 -19 -10.5 -29.5t-28.5 -10.5h-47q-22 0 -44 31l-381 511v-444q0 -24 22.5 -46t22.5 -32v-3q0 -17 -23 -17h-116q-23 0 -23 17v3q0 10 20 32t20 46v515q0 24 -20 45t-20 31v4q0 17 23 17h125q28 0 47 -28
l356 -494v426q0 23 -21.5 44.5t-21.5 31.5v3q0 17 23 17h117z" />
    <glyph glyph-name="O" unicode="O" horiz-adv-x="763" 
d="M385 -10q-150 0 -252 105t-102 258q0 162 97.5 264.5t253.5 102.5q150 0 250 -106.5t100 -262.5q0 -157 -99.5 -259t-247.5 -102zM427 55q69 0 111 51t42 130q0 98 -33 194.5t-92 160.5t-127 64q-69 0 -109.5 -50t-40.5 -133q0 -102 32.5 -198t90.5 -157.5t126 -61.5z
" />
    <glyph glyph-name="P" unicode="P" horiz-adv-x="634" 
d="M70 0q-23 0 -23 17v4q0 9 19.5 30.5t19.5 44.5v518q0 22 -19.5 44t-19.5 32v4q0 16 23 16h228q143 0 230.5 -57.5t87.5 -176.5q0 -113 -78 -179t-211 -66h-89v-135q0 -23 21.5 -44.5t21.5 -30.5v-4q0 -17 -23 -17h-188zM281 290h46q62 0 97 42.5t35 107.5
q0 97 -48.5 153.5t-112.5 56.5h-27q-33 0 -33 -43v-272q0 -45 43 -45z" />
    <glyph glyph-name="Q" unicode="Q" horiz-adv-x="762" 
d="M755 -52q7 1 12 -4t1 -13q-7 -43 -58 -74t-118 -31q-49 0 -96 18.5t-79.5 40t-79.5 40t-95 18.5q-20 0 -41.5 -3.5t-32 -6t-30.5 -9.5l-19 -6q-16 -3 -20 13t7 32q42 53 110 69q-85 46 -135 131t-50 190q0 162 97.5 264.5t253.5 102.5q150 0 250 -106.5t100 -262.5
q0 -147 -89.5 -247.5t-225.5 -112.5q4 -2 17.5 -9.5t18 -9.5t17 -8.5t19 -9t19 -8t20.5 -7.5t21 -5.5t23.5 -5t24 -2.5t26.5 -1q28 0 51.5 3t35.5 6t26.5 8t18.5 6zM328 655q-69 0 -109.5 -50t-40.5 -133q0 -102 32.5 -198t90.5 -157.5t126 -61.5q69 0 111 51t42 130
q0 98 -33 194.5t-92 160.5t-127 64z" />
    <glyph glyph-name="R" unicode="R" horiz-adv-x="684" 
d="M614 96q13 -20 31.5 -34.5t29.5 -23t11 -18.5v-3q0 -17 -23 -17h-209q-22 0 -22 17v3q0 9 11.5 20.5t16 21t-5.5 34.5l-105 174l-110 -2v-172q0 -23 21.5 -44.5t21.5 -31.5v-3q0 -17 -24 -17h-188q-22 0 -22 17v3q0 10 19 31.5t19 44.5v518q0 23 -19 44.5t-19 31.5v4
q0 16 22 16h247q139 0 220.5 -57t82.5 -167q0 -61 -35.5 -112.5t-101.5 -79.5zM295 329h43q57 0 91.5 35.5t34.5 104.5q0 82 -47.5 131t-109.5 49h-34q-34 0 -34 -45v-208q0 -36 13.5 -51.5t42.5 -15.5z" />
    <glyph glyph-name="S" unicode="S" horiz-adv-x="624" 
d="M325 -10q-133 0 -214.5 56.5t-81.5 123.5q0 28 15 44.5t45 16.5q27 -1 46.5 -20t34 -46t31.5 -53.5t50 -45.5t80 -19q53 0 84.5 27.5t31.5 73.5q0 43 -22.5 71t-58 42.5t-78.5 25t-86 24.5t-79 35.5t-58.5 63t-22.5 101.5q0 92 71.5 150t193.5 58q120 0 199.5 -53.5
t78.5 -119.5q0 -62 -64 -62q-30 0 -49.5 18.5t-32 44.5t-26.5 52t-41.5 44.5t-67.5 18.5q-55 0 -84 -29t-29 -74q0 -43 22.5 -72t58 -44t78.5 -26.5t86 -26t78.5 -35.5t58 -62t22.5 -99q0 -94 -78 -149t-192 -55z" />
    <glyph glyph-name="T" unicode="T" horiz-adv-x="630" 
d="M220 0q-22 0 -22 17v3q0 10 20 31.5t20 44.5v549h-80q-21 0 -38 -18t-26.5 -40t-22.5 -40t-26 -18h-14q-26 0 -21 26l18 127q4 28 32 28h507q28 0 32 -28l21 -128q2 -12 -3.5 -18.5t-16.5 -6.5h-15q-13 0 -26.5 18t-23.5 40t-27.5 40t-38.5 18h-81v-549q0 -23 21 -44.5
t21 -31.5v-3q0 -17 -23 -17h-187z" />
    <glyph glyph-name="U" unicode="U" horiz-adv-x="721" 
d="M371 -10q-134 0 -215.5 74t-81.5 207v343q0 23 -19.5 44.5t-19.5 31.5v4q0 16 23 16h188q23 0 23 -16v-4q0 -10 -21.5 -31.5t-21.5 -44.5v-343q0 -105 47 -160.5t131 -55.5q66 0 115.5 52.5t49.5 163.5v343q0 23 -20 44.5t-20 31.5v4q0 16 23 16h114q23 0 23 -16v-4
q0 -10 -21.5 -31.5t-21.5 -44.5v-345q0 -132 -75 -205.5t-200 -73.5z" />
    <glyph glyph-name="V" unicode="V" horiz-adv-x="718" 
d="M697 710q23 0 23 -16v-4q0 -11 -22 -30t-33 -46l-240 -572q-18 -42 -60 -42q-36 0 -54 39l-265 574q-11 25 -32.5 45t-21.5 32v4q0 16 24 16h224q23 0 23 -16v-4q0 -8 -9 -16.5t-18 -15.5t-14.5 -19t0.5 -26l185 -446l175 447q7 18 -4 31.5t-25.5 24.5t-14.5 20v4
q0 16 23 16h136z" />
    <glyph glyph-name="W" unicode="W" horiz-adv-x="1007" 
d="M983 710q22 0 22 -16v-4q0 -11 -24 -30.5t-33 -45.5l-191 -572q-14 -42 -58 -42q-41 0 -55 39l-125 375l-127 -372q-13 -42 -52 -42q-22 0 -33.5 9t-21.5 30l-235 574q-11 26 -36 45.5t-25 32.5v3q0 16 22 16h211q23 0 23 -16v-4q0 -10 -12.5 -20.5t-21.5 -24t-2 -32.5
l158 -427l115 340l-29 88q-7 22 -34 43.5t-27 33.5v3q0 16 21 16h210q21 0 21 -16v-3q0 -8 -8.5 -16t-18 -13.5t-15 -18t-0.5 -29.5l129 -425l135 425q5 14 0 26t-14 18t-17 15t-8 17v3q0 17 22 17h134z" />
    <glyph glyph-name="X" unicode="X" horiz-adv-x="705" 
d="M636 96q13 -18 31.5 -32.5t28.5 -23.5t10 -20v-3q0 -17 -23 -17h-226q-22 0 -22 17v3q0 9 12.5 22.5t18 23t-5.5 30.5l-148 200l-138 -200q-10 -21 -6.5 -30.5t13.5 -23t10 -22.5v-3q0 -17 -23 -17h-146q-23 0 -23 17v3q0 11 12.5 20.5t33 24t33.5 31.5l192 258l-192 260
q-13 18 -31.5 33t-28.5 23.5t-10 19.5v4q0 16 22 16h222q23 0 23 -16v-4q0 -9 -12.5 -22.5t-18 -23t6.5 -30.5l142 -191l132 191q14 21 -8 44.5t-22 31.5v4q0 16 22 16h159q23 0 23 -16v-4q0 -8 -9 -16t-21 -14.5t-27.5 -18.5t-25.5 -27l-179 -250z" />
    <glyph glyph-name="Y" unicode="Y" horiz-adv-x="684" 
d="M655 710q22 0 22 -16v-4q0 -12 -23.5 -32t-37.5 -44l-188 -325v-193q0 -23 21 -44.5t21 -31.5v-3q0 -17 -22 -17h-189q-22 0 -22 17v3q0 10 19 31.5t19 44.5v182l-212 336q-13 21 -39 42t-26 34v4q0 16 24 16h227q23 0 23 -16v-4q0 -10 -14.5 -21t-24.5 -24.5t0 -30.5
l154 -270l154 270q9 14 4 26t-15 18.5t-19.5 15t-9.5 16.5v4q0 16 22 16h132z" />
    <glyph glyph-name="Z" unicode="Z" horiz-adv-x="623" 
d="M593 185q27 0 20 -26l-30 -136q-5 -23 -24 -23h-517q-10 0 -17 6.5t-7 15.5v10q0 7 19 37l370 581h-230q-17 0 -34.5 -18t-29 -40t-29 -40t-34.5 -18h-5q-30 0 -23 32l28 116q6 28 31 28h487q9 0 15.5 -6.5t6.5 -15.5v-12q0 -7 -22 -43l-364 -573h240q24 0 46 19.5t36 43
t31.5 43t32.5 19.5h3z" />
    <glyph glyph-name="bracketleft" unicode="[" horiz-adv-x="312" 
d="M94 -105q-22 0 -22 20v844q0 20 22 20h181q18 0 18 -17v-31q0 -18 -18 -18h-79v-752h79q18 0 18 -18v-31q0 -17 -18 -17h-181z" />
    <glyph glyph-name="backslash" unicode="\" horiz-adv-x="377" 
d="M292 -96q-18 0 -23 14l-244 853q-7 24 13 24h46q20 0 23 -14l245 -854q9 -23 -14 -23h-46z" />
    <glyph glyph-name="bracketright" unicode="]" horiz-adv-x="312" 
d="M37 -105q-18 0 -18 17v31q0 18 18 18h78v752h-78q-18 0 -18 18v31q0 17 18 17h180q23 0 23 -20v-844q0 -20 -23 -20h-180z" />
    <glyph glyph-name="asciicircum" unicode="^" 
d="M471 580q18 -23 3.5 -42t-38.5 -1l-145 115l-130 -115q-9 -8 -22.5 -4t-17.5 16.5t7 30.5l110 152q13 18 42 18h29q30 0 42 -17z" />
    <glyph glyph-name="underscore" unicode="_" horiz-adv-x="463" 
d="M47 -71q-19 0 -19 20v30q0 21 19 21h369q19 0 19 -21v-30q0 -20 -19 -20h-369z" />
    <glyph glyph-name="grave" unicode="`" 
d="M342 544l-202 66q-37 9 -21 47l28 55q8 17 21.5 20t30.5 -9l172 -132q19 -14 7 -35q-11 -17 -36 -12z" />
    <glyph glyph-name="a" unicode="a" horiz-adv-x="536" 
d="M483 100q3 -23 11.5 -37t17.5 -17.5t16 -8.5t7 -14q0 -29 -96 -29q-44 0 -64.5 11.5t-24.5 42.5q-39 -58 -133 -58q-84 0 -136 39t-52 112q-1 72 51 112t130 40q66 0 109 -30l-1 12q-10 95 -28 134t-61 39q-27 0 -44 -20t-24 -44t-23 -44t-41 -20q-27 0 -43.5 15.5
t-16.5 40.5q0 52 55.5 83t136.5 31q97 0 159 -55t73 -150zM261 34q33 0 53 27.5t18 62.5l-3 35q-4 43 -25.5 66t-53.5 23t-52.5 -23t-20.5 -61q0 -54 23.5 -92t60.5 -38z" />
    <glyph glyph-name="b" unicode="b" horiz-adv-x="588" 
d="M329 490q94 0 163.5 -65t69.5 -177q0 -113 -68.5 -185.5t-164.5 -72.5q-81 0 -131 53v-22q0 -22 -23 -22l-129 1q-21 0 -21 17v3q0 10 19.5 31.5t19.5 45.5v490q0 25 -23 45.5t-23 30.5v3q0 14 23 24l129 60q17 9 29.5 3.5t12.5 -23.5v-280q43 40 117 40zM314 33
q49 0 75.5 40t26.5 115q0 65 -13.5 123t-42.5 97t-67 39q-35 0 -58 -28t-23 -73v-181q0 -51 31.5 -91.5t70.5 -40.5z" />
    <glyph glyph-name="c" unicode="c" horiz-adv-x="506" 
d="M279 -10q-111 0 -184.5 74t-73.5 177q0 112 73.5 180t178.5 69q86 1 146.5 -40t60.5 -100q0 -22 -15 -36.5t-47 -13.5q-24 1 -42 17t-29.5 37t-23.5 42t-30 35.5t-42 14.5q-42 0 -67.5 -38t-25.5 -95q0 -100 46.5 -160t123.5 -60q79 0 120 70q6 8 14.5 9.5t15 -4
t5.5 -15.5q-5 -67 -58.5 -115t-145.5 -48z" />
    <glyph glyph-name="d" unicode="d" horiz-adv-x="583" 
d="M520 96q0 -23 20 -44.5t20 -31.5v-3q0 -17 -20 -17h-124q-23 0 -23 22l-2 22q-46 -54 -130 -54q-97 0 -166 67.5t-69 183.5q0 109 69 179t167 70q70 0 117 -39v160q0 20 -12.5 33t-25 22t-12.5 19v3q0 17 21 23l131 40q39 13 39 -20v-635zM294 33q34 0 59.5 28.5
t25.5 78.5v176q0 49 -33 90t-76 41q-46 0 -73 -38.5t-28 -108.5q-2 -57 11.5 -117t44 -104.5t69.5 -45.5z" />
    <glyph glyph-name="e" unicode="e" horiz-adv-x="491" 
d="M437 152q9 12 22 8t12 -19q-5 -52 -60 -101.5t-143 -49.5q-106 0 -174 70t-68 184q0 107 71 176.5t171 69.5q91 0 140 -43t49 -99q0 -46 -44 -66l-222 -101q41 -87 132 -87q38 0 68.5 16.5t45.5 41.5zM250 446q-39 0 -62 -37.5t-23 -95.5q0 -49 10 -86l129 65
q26 13 26 47t-22 70.5t-58 36.5z" />
    <glyph glyph-name="f" unicode="f" horiz-adv-x="373" 
d="M287 733q62 0 106.5 -35t44.5 -82q0 -20 -14.5 -36t-41.5 -16q-30 0 -47 13t-22 31.5t-8.5 37t-14.5 32t-32 13.5q-25 0 -37 -21.5t-10.5 -55.5t8 -68t17.5 -66h122q8 0 14 -6t6 -14v-19q0 -8 -6 -13.5t-14 -5.5h-118v-325q0 -18 12.5 -32t25 -24t12.5 -20v-4
q0 -17 -19 -17h-195q-21 0 -21 17v4q0 10 20 31t20 45v325h-71q-21 0 -21 19v19q0 8 6 14t15 6h71v63q0 84 49 137t143 53z" />
    <glyph glyph-name="g" unicode="g" horiz-adv-x="547" 
d="M464 480q38 0 50.5 -7.5t7.5 -22.5q-3 -15 -13 -21.5t-34 -10.5t-29 -6q56 -58 56 -128q0 -58 -29.5 -103.5t-82.5 -70.5q120 -27 120 -114q0 -63 -71.5 -101.5t-179.5 -38.5t-170.5 39t-62.5 99q0 23 15 39.5t44 16.5q27 0 46 -23.5t29.5 -52t36.5 -52t65 -24.5
q46 0 73.5 26t27.5 68q0 79 -62 92q-26 -2 -39 -2q-101 0 -167.5 56.5t-66.5 141.5q0 94 66 152t171 58q27 0 85 -5t114 -5zM169 346q0 -82 34.5 -150.5t80.5 -68.5q35 0 55.5 27.5t20.5 72.5q0 49 -14 99t-42 85t-61 35q-34 0 -54 -27t-20 -73z" />
    <glyph glyph-name="h" unicode="h" horiz-adv-x="594" 
d="M541 98q2 -24 19 -45t17 -32v-4q0 -17 -22 -17h-174q-22 0 -22 17v4q0 10 18.5 31t17.5 45l-10 192q-7 144 -87 144q-40 0 -62.5 -30t-22.5 -80v-227q0 -23 21.5 -44t21.5 -31v-4q0 -17 -24 -17h-185q-23 0 -23 17v4q0 10 21 31t21 44v498q0 24 -22.5 43t-22.5 29v3
q0 15 20 25l132 58q17 7 26.5 2t9.5 -20l-1 -300q47 56 131 56q76 0 129 -49.5t60 -155.5z" />
    <glyph glyph-name="i" unicode="i" horiz-adv-x="288" 
d="M146 551q-44 0 -71.5 24.5t-27.5 63.5q0 38 27.5 62.5t71.5 24.5t70.5 -24.5t26.5 -62.5q0 -39 -26.5 -63.5t-70.5 -24.5zM55 0q-22 0 -22 17v4q0 10 19 31t19 45v226q0 25 -19 47t-19 30v3q0 10 21 21l125 62q19 8 30 1.5t11 -21.5v-369q0 -24 21 -45t21 -31v-4
q0 -17 -23 -17h-184z" />
    <glyph glyph-name="j" unicode="j" horiz-adv-x="276" 
d="M139 551q-44 0 -71 24.5t-27 63.5q0 38 27 62.5t71 24.5t71 -24.5t27 -62.5q0 -39 -27 -63.5t-71 -24.5zM59 -194q-65 0 -104.5 25.5t-39.5 72.5q0 27 18 44t45 17q30 0 46 -17t19.5 -38t14 -38t30.5 -17q18 0 29 13t11 33q0 35 -27 74.5t-27 66.5v281q0 25 -19 46.5
t-19 30.5v3q0 10 20 21l128 62q19 8 29.5 1.5t10.5 -21.5v-470q0 -72 -31 -122q-47 -68 -134 -68z" />
    <glyph glyph-name="k" unicode="k" horiz-adv-x="569" 
d="M531 75q6 -8 30 -24.5t24 -30.5v-3q0 -17 -20 -17h-186q-20 0 -20 18v2q0 10 14.5 26t5.5 29l-108 152l-59 -55v-76q0 -23 21.5 -44t21.5 -31v-4q0 -17 -23 -17h-184q-22 0 -22 17v4q0 10 19 31t19 44v492q0 26 -22.5 47t-22.5 29v4q0 12 20 20l133 62q18 8 29 2t11 -20
v-484l158 137q11 8 8.5 19t-9.5 18.5t-15 18t-8 18.5v4q0 17 20 17h143q20 0 20 -16v-4q0 -11 -12.5 -21.5t-36 -25.5t-37.5 -27l-81 -75z" />
    <glyph glyph-name="l" unicode="l" horiz-adv-x="280" 
d="M49 0q-23 0 -23 17v4q0 10 19.5 31t19.5 44v492q0 26 -19.5 47t-19.5 29v4q0 12 20 20l126 62q20 8 30.5 2t10.5 -20v-636q0 -23 21.5 -44t21.5 -31v-4q0 -17 -23 -17h-184z" />
    <glyph glyph-name="m" unicode="m" horiz-adv-x="913" 
d="M861 97q2 -24 19 -45t17 -32v-4q0 -17 -22 -17h-173q-23 0 -23 17v4q0 10 18.5 31t16.5 45l-10 183q-4 83 -25 118.5t-62 35.5q-35 0 -57 -29t-24 -75q4 -20 4 -48v-185q0 -24 17.5 -45t17.5 -31v-4q0 -17 -22 -17h-173q-23 0 -23 17v4q0 10 18 31t18 45v195
q0 68 -24 105t-63 37q-40 0 -63 -31t-23 -80v-226q0 -24 21.5 -45t21.5 -31v-4q0 -17 -23 -17h-186q-23 0 -23 17v4q0 10 21.5 31t21.5 45v233q0 19 -12 32t-24.5 22.5t-12.5 19.5v4q0 11 21 21l126 58q17 8 26 1.5t9 -22.5v-47q47 72 138 72q114 0 166 -90q20 42 60.5 66
t91.5 24q76 0 127 -50.5t59 -164.5z" />
    <glyph glyph-name="n" unicode="n" horiz-adv-x="602" 
d="M550 97q2 -24 19 -45t17 -32v-4q0 -17 -23 -17h-173q-23 0 -23 17v4q0 10 18.5 31t17.5 46l-10 185q-7 151 -87 151q-40 0 -62.5 -30t-22.5 -80v-227q0 -24 21.5 -45t21.5 -31v-4q0 -17 -23 -17h-186q-23 0 -23 17v4q0 10 21.5 31t21.5 45v233q0 15 -7.5 27t-17 17.5
t-17 13.5t-7.5 16v4q0 11 20 21l119 58q17 8 25.5 1.5t8.5 -22.5v-56q43 81 148 81q76 0 129.5 -51t61.5 -162z" />
    <glyph glyph-name="o" unicode="o" horiz-adv-x="580" 
d="M299 -10q-119 0 -196.5 73.5t-77.5 179.5q0 107 76 177t183 70q115 0 192 -72.5t77 -179.5t-72.5 -177.5t-181.5 -70.5zM317 34q41 0 63.5 38t22.5 107q0 57 -16.5 117.5t-49.5 105t-73 44.5q-92 0 -92 -146q0 -54 16.5 -114t51 -106t77.5 -46z" />
    <glyph glyph-name="p" unicode="p" horiz-adv-x="588" 
d="M326 490q94 0 164 -65t70 -177q0 -113 -68.5 -185.5t-164.5 -72.5q-70 0 -117 39v-149q0 -24 21 -45t21 -31v-4q0 -17 -23 -17h-181q-23 0 -23 17v4q0 10 19.5 31t19.5 45v450q0 22 -23 40.5t-23 29.5v5q0 14 20 24l112 55q38 19 38 -18l-1 -42q42 66 139 66zM312 33
q48 0 74.5 40t26.5 115q0 102 -33 180.5t-89 78.5q-31 0 -54 -22.5t-27 -58.5v-191q0 -58 31 -100t71 -42z" />
    <glyph glyph-name="q" unicode="q" horiz-adv-x="585" 
d="M564 438q0 -6 -21.5 -29t-21.5 -51v-478q0 -24 19.5 -45.5t19.5 -31.5v-3q0 -17 -22 -17h-178q-23 0 -23 17v3q0 10 21.5 31.5t21.5 45.5v151q-47 -41 -119 -41q-97 0 -166 67.5t-69 183.5q0 109 69 179t167 70q83 0 133 -53v22q0 15 11.5 22t30.5 3l105 -18
q22 -5 22 -25v-3zM294 33q34 0 60 28.5t26 78.5v176q0 53 -33 92t-77 39q-46 0 -73 -38.5t-28 -108.5q-2 -57 11.5 -117t44 -104.5t69.5 -45.5z" />
    <glyph glyph-name="r" unicode="r" horiz-adv-x="429" 
d="M336 490q43 0 67.5 -25.5t24.5 -65.5q0 -79 -64 -79q-26 0 -40.5 13.5t-17.5 29.5t-12 29.5t-27 13.5q-27 0 -40 -32t-13 -78v-200q0 -18 12.5 -31.5t25 -23.5t12.5 -20v-4q0 -17 -22 -17h-185q-23 0 -23 17v4q0 10 19.5 31t19.5 44v234q0 24 -23 43t-23 29v4q0 14 21 24
l120 56q32 15 32 -20v-75q34 99 136 99z" />
    <glyph glyph-name="s" unicode="s" horiz-adv-x="479" 
d="M240 -9q-94 0 -154 34t-60 82q0 27 16.5 41t43.5 14q29 0 47 -20.5t25.5 -45.5t28 -45.5t53.5 -20.5q32 0 52.5 17t20.5 49q0 36 -28.5 57t-69.5 31.5t-82 24t-69.5 47t-28.5 87.5q0 64 56.5 105.5t146.5 41.5q91 0 148.5 -35.5t57.5 -84.5q0 -22 -16.5 -37t-40.5 -15
q-28 0 -45 20.5t-24 45t-25 45t-47 20.5t-47 -19.5t-18 -47.5t15 -47t39 -29t53 -18.5t58.5 -19t53.5 -25.5t39 -42.5t15 -66.5q0 -62 -58 -102.5t-156 -40.5z" />
    <glyph glyph-name="t" unicode="t" horiz-adv-x="388" 
d="M227 -10q-70 0 -110.5 44.5t-40.5 128.5v259h-47q-20 0 -20 20v17q0 21 20 21h25q41 0 69.5 27t36.5 72q5 24 23 24h20q22 0 22 -24l1 -99h115q8 0 14 -6t6 -15v-17q0 -9 -6 -14.5t-14 -5.5h-115v-261q0 -29 14.5 -46.5t36.5 -17.5q52 0 68 45q9 13 22.5 10.5t13.5 -16.5
q0 -58 -41.5 -102t-112.5 -44z" />
    <glyph glyph-name="u" unicode="u" horiz-adv-x="585" 
d="M519 102q0 -27 7.5 -40.5t16.5 -15t16.5 -6.5t7.5 -17q0 -29 -89 -29q-44 0 -65.5 14.5t-23.5 50.5q-42 -69 -145 -69q-81 0 -133.5 54.5t-52.5 153.5v169q0 25 -19.5 46.5t-19.5 29.5v3q0 18 21 21l126 19q41 5 41 -18l-3 -285q0 -136 83 -136q37 0 61.5 32.5t24.5 84.5
v203q0 25 -20 46.5t-20 29.5v3q0 18 20 21l128 19q38 4 38 -18v-366z" />
    <glyph glyph-name="v" unicode="v" horiz-adv-x="538" 
d="M522 480q21 0 21 -16v-4q0 -12 -27 -33.5t-35 -42.5l-138 -360q-8 -24 -33 -24h-65q-22 0 -32 24l-166 360q-8 18 -28.5 40.5t-20.5 35.5v4q0 16 20 16h199q20 0 20 -17v-4q0 -8 -9 -20t-14 -22.5t2 -35.5l105 -269l94 250q10 36 2 50t-22.5 26.5t-14.5 20.5v4
q0 17 21 17h121z" />
    <glyph glyph-name="w" unicode="w" horiz-adv-x="743" 
d="M726 480q20 0 20 -16v-5q0 -12 -23.5 -32t-31.5 -44l-129 -359q-8 -24 -32 -24h-33q-26 0 -33 24l-92 296l-93 -296q-8 -24 -33 -24h-23q-24 0 -32 24l-146 359q-8 21 -28 42.5t-20 33.5v5q0 16 20 16h178q19 0 19 -17v-4q0 -8 -7 -15.5t-14.5 -13.5t-11 -19t2.5 -30
l80 -235l93 311q6 19 23 19l55 1q17 0 23 -18l91 -313l77 222q8 21 2.5 36.5t-15 22.5t-18.5 15.5t-9 16.5v4q0 17 20 17h120z" />
    <glyph glyph-name="x" unicode="x" horiz-adv-x="538" 
d="M469 98q11 -13 29 -29t28 -26.5t10 -21.5v-4q0 -17 -21 -17h-202q-19 0 -19 18v3q0 8 13.5 19.5t17 21.5t-15.5 39l-71 87l-79 -93q-14 -16 -15 -28t6 -18t14.5 -13.5t7.5 -14.5v-3q0 -18 -20 -18h-136q-20 0 -20 17v4q0 10 11 19.5t32.5 25.5t37.5 33l124 135l-120 147
q-14 17 -28.5 30t-23 19t-14 13t-5.5 16v5q0 16 20 16h201q20 0 20 -17v-4q0 -9 -9 -24t-11.5 -24.5t10.5 -31.5l71 -88l79 88q12 13 12 25.5t-7 20t-14.5 17.5t-7.5 17v4q0 17 19 17h115q20 0 20 -16v-5q0 -11 -7.5 -20.5t-26 -26.5t-30.5 -31l-115 -135z" />
    <glyph glyph-name="y" unicode="y" horiz-adv-x="548" 
d="M531 480q20 0 20 -16v-5q0 -13 -20.5 -35t-30.5 -43l-189 -411q-13 -29 -22 -47t-27.5 -47.5t-36.5 -46.5t-45 -30t-56 -13q-64 0 -105.5 33t-41.5 74q0 27 16 43.5t44 16.5t44 -18.5t21 -41.5t15.5 -41.5t27.5 -18.5q46 0 103 140l-199 408q-11 22 -32.5 43.5
t-21.5 34.5v5q0 16 21 16h187q19 0 19 -17v-4q0 -9 -9 -20.5t-12 -21.5t6 -38l117 -271l108 257q10 34 0 47t-27 25.5t-17 21.5v4q0 17 21 17h122z" />
    <glyph glyph-name="z" unicode="z" horiz-adv-x="500" 
d="M472 151q26 0 19 -29l-29 -99q-7 -23 -25 -23h-390q-9 0 -16.5 6.5t-7.5 15.5v10q0 10 19 37l255 371h-117q-26 0 -48.5 -25.5t-42 -51t-39.5 -25.5h-6q-13 0 -18 9.5t0 23.5l25 81q6 16 12 22t20 6h358q10 0 16 -6t6 -14v-10q0 -8 -26 -47l-252 -363h137q24 0 46 17.5
t35.5 38t30.5 38t32 17.5h6z" />
    <glyph glyph-name="braceleft" unicode="{" horiz-adv-x="337" 
d="M301 -47q14 0 19.5 -14.5t0 -29.5t-19.5 -15q-200 0 -201 189v114q-1 106 -59 106q-18 0 -26.5 16t-1 32t27.5 16q58 0 59 97v136q0 95 55 138.5t148 42.5q14 0 21 -14.5t1.5 -29t-22.5 -14.5q-38 0 -56.5 -27t-19.5 -91l-1 -131q0 -65 -27 -97.5t-60 -41.5
q34 -9 60.5 -43.5t25.5 -104.5l-2 -111q-1 -69 17.5 -96t60.5 -27z" />
    <glyph glyph-name="bar" unicode="|" horiz-adv-x="239" 
d="M87 -90q-15 0 -15 21v759q0 19 16 21l62 -1q16 0 16 -20l1 -759q0 -10 -4.5 -16t-11.5 -5h-64z" />
    <glyph glyph-name="braceright" unicode="}" horiz-adv-x="338" 
d="M297 367q19 0 26.5 -16t-0.5 -32t-26 -16q-58 0 -59 -106v-114q-1 -100 -55.5 -144.5t-146.5 -44.5q-14 0 -19 15t0.5 29.5t19.5 14.5q41 0 60 27t18 96l-2 111q-1 74 28 108t63 40q-33 5 -62.5 38t-29.5 101l-1 131q-1 118 -76 118q-17 0 -23 14.5t1.5 29t21.5 14.5
q92 1 147.5 -43t55.5 -138v-136q0 -97 59 -97z" />
    <glyph glyph-name="asciitilde" unicode="~" 
d="M194 392q45 0 113.5 -31t100.5 -31q47 0 70 34q12 15 25 15h24q18 0 15 -20q-11 -62 -49.5 -96.5t-90.5 -34.5q-51 0 -115.5 32t-95.5 32q-42 0 -65 -36q-10 -17 -31 -17h-17q-16 0 -14 21q6 50 39 91t91 41z" />
    <glyph glyph-name="exclamdown" unicode="&#xa1;" horiz-adv-x="252" 
d="M126 319q-40 0 -65.5 21.5t-25.5 61.5t25.5 61.5t65.5 21.5t66 -21.5t26 -61.5t-26 -61.5t-66 -21.5zM203 -169q0 -21 -15.5 -35t-38 -17t-44.5 0.5t-38 18t-16 34.5q0 69 12 191t33 227q4 16 30 16t30 -16q44 -195 47 -419z" />
    <glyph glyph-name="cent" unicode="&#xa2;" horiz-adv-x="540" 
d="M469 278q5 8 15.5 9t18.5 -4.5t8 -15.5q-6 -64 -53 -115.5t-137 -58.5v-72q0 -22 -17 -22h-22q-17 0 -17 22v73q-100 12 -165 89t-65 175q0 114 65 185.5t165 81.5v74q0 21 17 21h23q16 0 16 -21v-74q74 -8 125.5 -46t51.5 -87q0 -24 -17 -40.5t-45 -16.5q-24 0 -42 14.5
t-29.5 35t-23 41.5t-30 35t-44.5 14q-37 0 -61.5 -41t-24.5 -101q0 -103 45.5 -167t119.5 -64q77 0 123 76z" />
    <glyph glyph-name="sterling" unicode="&#xa3;" horiz-adv-x="675" 
d="M601 165q7 10 18.5 12t20 -4.5t7.5 -19.5q-8 -68 -64 -118t-157 -50q-74 0 -159 55q-50 -50 -124 -50q-49 0 -74.5 25.5t-25.5 65.5q0 38 28 62.5t75 24.5q35 0 78 -12q2 20 2 33q0 52 -25 104h-135q-21 0 -21 14v37q0 15 21 15h98q-53 90 -53 157q0 98 72.5 154.5
t192.5 56.5q95 0 163 -37.5t68 -97.5q0 -25 -17.5 -45t-47.5 -20q-29 0 -48 14.5t-30 34.5t-22 40.5t-31 35t-50 14.5q-46 0 -71.5 -37t-25.5 -97q0 -70 33 -173h164q21 0 21 -15v-37q0 -14 -21 -14h-143q13 -54 13 -99q0 -36 -13 -71q74 -27 130 -27q52 0 96.5 21t56.5 48z
M139 40q41 0 64 42q-42 27 -67 27q-40 0 -40 -33q0 -16 12.5 -26t30.5 -10z" />
    <glyph glyph-name="currency" unicode="&#xa4;" horiz-adv-x="611" 
d="M552 163q16 -16 2 -28l-20 -21q-13 -11 -29 3l-60 61q-62 -40 -143 -40q-76 0 -136 37l-58 -58q-16 -14 -29 -3l-20 21q-14 12 2 28l56 56q-45 54 -45 127q0 72 46 126l-57 56q-16 16 -2 28l20 20q13 13 29 -3l58 -58q61 38 136 38q81 0 143 -40l60 60q15 17 29 3l20 -20
q13 -11 -2 -28l-58 -58q45 -53 45 -124q0 -72 -45 -125zM306 220q55 0 88.5 36.5t33.5 89.5q0 52 -33.5 88t-88.5 36t-88.5 -36t-33.5 -88q0 -53 33.5 -89.5t88.5 -36.5z" />
    <glyph glyph-name="yen" unicode="&#xa5;" horiz-adv-x="726" 
d="M677 710q23 0 23 -16v-4q0 -12 -24 -32t-38 -44l-161 -279h130q20 0 20 -16v-23q0 -14 -20 -14h-157v-54h141q21 0 21 -15v-23q0 -14 -21 -14h-141v-80q0 -23 21 -44.5t21 -31.5v-3q0 -17 -22 -17h-188q-23 0 -23 17v3q0 10 19.5 31.5t19.5 44.5v80h-154q-20 0 -20 14v23
q0 15 20 15h154v48l-4 6h-166q-21 0 -21 14v23q0 16 21 16h133l-176 279q-13 21 -38.5 42t-25.5 34v4q0 16 23 16h227q23 0 23 -16v-4q0 -10 -14.5 -21t-24.5 -24.5t0 -30.5l154 -270l155 270q9 14 3.5 26t-15 18.5t-19 15t-9.5 16.5v4q0 16 21 16h132z" />
    <glyph glyph-name="brokenbar" unicode="&#xa6;" horiz-adv-x="239" 
d="M87 357q-15 0 -15 20v312q0 19 16 21h62q16 0 16 -21l1 -312q0 -9 -4.5 -15t-11.5 -5h-64zM87 -90q-15 0 -15 21v307q0 20 16 22h62q16 0 16 -21l1 -308q0 -10 -4.5 -16t-11.5 -5h-64z" />
    <glyph glyph-name="section" unicode="&#xa7;" horiz-adv-x="637" 
d="M529 155q64 -47 64 -127q0 -75 -73 -127.5t-186 -52.5q-137 0 -219.5 50.5t-82.5 122.5q0 30 17.5 48t51.5 18q25 0 44 -18.5t33.5 -45t33 -53t53 -45t81.5 -18.5q46 0 73.5 21.5t27.5 54.5q0 35 -22.5 59t-58 37.5t-79 25t-86.5 26t-78 35.5t-57 58.5t-21 89.5
q1 91 74 139q-61 48 -61 132q0 86 72 138.5t182 52.5q120 0 201 -53t81 -123q0 -31 -17.5 -49t-51.5 -18q-30 0 -51.5 19t-35 45.5t-28.5 53.5t-41 46t-63 19q-44 0 -73 -25t-29 -63q0 -46 29.5 -76t73 -42t95 -27.5t95 -33t73 -59.5t29.5 -104q0 -74 -70 -131zM189 353
q0 -29 13.5 -50.5t42.5 -37t54 -24.5t70 -21.5t68 -20.5q22 29 22 60q0 23 -11 41.5t-27.5 30.5t-43.5 23t-50.5 17.5t-57.5 16.5t-57 18q-23 -23 -23 -53z" />
    <glyph glyph-name="dieresis" unicode="&#xa8;" 
d="M175 555q-40 0 -65 22.5t-25 57.5t25 57.5t65 22.5q39 0 63.5 -22.5t24.5 -57.5t-24.5 -57.5t-63.5 -22.5zM404 555q-39 0 -63.5 22.5t-24.5 57.5t24.5 57.5t63.5 22.5t64 -22.5t25 -57.5t-25 -57.5t-64 -22.5z" />
    <glyph glyph-name="copyright" unicode="&#xa9;" horiz-adv-x="872" 
d="M437 -61q-167 0 -286 118.5t-119 285.5t119 285t286 118t285 -118t118 -285t-118 -285.5t-285 -118.5zM437 8q131 0 224.5 99t93.5 236t-93.5 235.5t-224.5 98.5q-132 0 -225.5 -98t-93.5 -236q0 -139 93 -237t226 -98zM441 118q-97 0 -164 68t-67 160q0 96 66 159.5
t167 62.5q81 -1 139.5 -40.5t58.5 -94.5q0 -20 -16.5 -34t-43.5 -14q-24 0 -41 14.5t-26.5 34.5t-19 40.5t-25.5 35t-39 14.5q-42 0 -63.5 -36t-21.5 -95q0 -75 38 -121.5t109 -46.5q74 0 112 63q8 11 23 5t14 -21q-5 -67 -58.5 -110.5t-141.5 -43.5z" />
    <glyph glyph-name="ordfeminine" unicode="&#xaa;" horiz-adv-x="432" 
d="M375 451q2 -17 8 -25.5t12.5 -9.5t11.5 -5.5t5 -15.5q-1 -29 -79 -29q-30 0 -44 8t-17 30q-30 -42 -98 -42q-63 0 -101.5 29t-38.5 80t38.5 80t98.5 29q46 0 78 -21l-1 7q-7 66 -19.5 90t-43.5 24q-17 0 -27.5 -12.5t-16 -27t-20 -27t-36.5 -12.5q-20 0 -32 10.5
t-12 29.5q0 38 42.5 58.5t101.5 20.5q70 0 118 -38.5t57 -107.5zM211 403q20 0 34.5 13.5t13.5 33.5l-3 36q-3 23 -18.5 37.5t-37.5 14.5q-21 0 -34.5 -13.5t-13.5 -39.5q0 -37 16 -59.5t43 -22.5z" />
    <glyph glyph-name="guillemotleft" unicode="&#xab;" horiz-adv-x="528" 
d="M212 488q5 8 16.5 8.5t21 -5t8.5 -13.5q-7 -54 -38 -107.5t-81 -88.5q45 -36 77.5 -86t38.5 -86q1 -7 -8.5 -13t-23 -5t-22.5 12q-24 29 -50.5 52.5t-59.5 49t-51 41.5q-11 10 -11 39t11 37q121 92 172 165zM489 478q-8 -54 -39 -107.5t-80 -88.5q45 -36 77.5 -86
t38.5 -86q1 -7 -8.5 -13t-23 -5t-22.5 12q-31 39 -93 88t-68 55q-11 10 -11 39t11 37q124 95 172 165q5 8 16.5 8.5t21 -5t8.5 -13.5z" />
    <glyph glyph-name="registered" unicode="&#xae;" horiz-adv-x="872" 
d="M437 746q167 0 285 -118t118 -285t-118 -285.5t-285 -118.5t-286 118.5t-119 285.5t119 285t286 118zM437 8q131 0 224.5 99t93.5 236t-93.5 235.5t-224.5 98.5q-132 0 -225.5 -98t-93.5 -236q0 -139 93 -237t226 -98zM608 210q7 -12 14 -19.5t11.5 -10t7 -6t2.5 -8.5v-6
q0 -14 -13 -14h-139q-13 0 -13 11v9q0 4 11 14.5t2 29.5l-50 96l-46 -1v-94q0 -13 13.5 -26t13.5 -19v-9q0 -11 -14 -11h-138q-13 0 -13 11v9q0 6 12.5 19t12.5 26v298q0 14 -12.5 26t-12.5 19v3q0 10 13 10h156q97 0 150.5 -33.5t54.5 -98.5q0 -35 -22.5 -65.5t-64.5 -47.5
zM395 377q0 -30 27 -30h19q27 0 43.5 21.5t16.5 57.5q0 46 -17 73t-48 27h-18q-10 0 -16.5 -8t-6.5 -19v-122z" />
    <glyph glyph-name="macron" unicode="&#xaf;" 
d="M166 587q-22 0 -22 21v50q0 21 22 21h276q22 0 22 -21v-50q0 -21 -22 -21h-276z" />
    <glyph glyph-name="degree" unicode="&#xb0;" horiz-adv-x="407" 
d="M202 381q-78 0 -127 47.5t-49 117.5q0 72 49.5 121t127.5 49q79 0 128.5 -47.5t49.5 -115.5q0 -73 -50 -122.5t-129 -49.5zM203 424q37 0 60.5 35t23.5 91q0 54 -23.5 88t-60.5 34t-60 -34t-23 -88q0 -56 23 -91t60 -35z" />
    <glyph glyph-name="plusminus" unicode="&#xb1;" 
d="M269 152q-15 0 -15 21v155h-155q-20 0 -22 16l1 60q0 16 21 16h155v155q0 20 15 22l62 -1q15 0 15 -21v-155l156 1q21 0 21 -16v-61q0 -15 -21 -15h-155v-156q0 -10 -5 -16t-11 -5h-62zM99 0q-21 0 -21 14v61q0 16 21 16h403q21 0 21 -16v-61q0 -14 -21 -14h-403z" />
    <glyph glyph-name="acute" unicode="&#xb4;" horiz-adv-x="513" 
d="M143 545q-24 -7 -36 11q-11 20 6 35l174 132q32 26 51 -11l27 -55q9 -15 3.5 -29t-23.5 -18z" />
    <glyph glyph-name="paragraph" unicode="&#xb6;" horiz-adv-x="687" 
d="M366 -213q-108 -2 -176.5 56.5t-68.5 117.5q0 34 19.5 54.5t50.5 20.5q32 0 52 -19.5t30.5 -48t20.5 -56.5t30 -47.5t52 -19.5q43 0 67.5 32.5t24.5 125.5v641h-86v-394q0 -20 -20 -20l-110 -1q-96 -1 -161 68t-65 179q0 103 65 168.5t161 65.5h369q23 0 23 -18v-2
q0 -12 -22 -32.5t-22 -45.5l-1 -539q0 -136 -64.5 -210.5t-168.5 -75.5z" />
    <glyph glyph-name="periodcentered" unicode="&#xb7;" horiz-adv-x="259" 
d="M130 303q-41 0 -66.5 21t-25.5 62t25.5 62t66.5 21q40 0 65.5 -21t25.5 -62t-25.5 -62t-65.5 -21z" />
    <glyph glyph-name="cedilla" unicode="&#xb8;" 
d="M344 -53q49 2 85 -19t36 -62t-39.5 -63t-96.5 -22q-52 0 -86 17q-20 9 -15 35q3 17 13 17q3 0 6 -2q26 -14 59 -14q23 0 38.5 10t14.5 28q-1 33 -60 33q-13 0 -20.5 8t-4.5 22l13 65h59z" />
    <glyph glyph-name="ordmasculine" unicode="&#xba;" horiz-adv-x="436" 
d="M221 366q-84 0 -140.5 50.5t-56.5 128.5q0 77 55.5 126t138.5 49q81 0 137.5 -51t56.5 -128t-55.5 -126t-135.5 -49zM231 406q30 0 45.5 27.5t15.5 72.5q0 60 -25.5 117t-65.5 57q-61 0 -61 -95q0 -65 26 -122t65 -57z" />
    <glyph glyph-name="guillemotright" unicode="&#xbb;" horiz-adv-x="526" 
d="M258 323q11 -8 11 -37t-11 -39q-18 -16 -51 -41.5t-59.5 -49t-50.5 -52.5q-9 -11 -22.5 -12t-23 5t-8.5 13q6 36 38.5 86t76.5 86q-49 35 -80 88.5t-38 107.5q-1 8 8.5 13.5t21 5t16.5 -8.5q51 -73 172 -165zM487 323q11 -8 11 -37t-11 -39q-18 -16 -51 -41t-60 -49
t-51 -53q-14 -16 -34 -11t-20 17q7 37 39.5 86.5t76.5 85.5q-49 35 -80 88.5t-38 107.5q-1 8 8 13.5t21 5t17 -8.5q51 -73 172 -165z" />
    <glyph glyph-name="onequarter" unicode="&#xbc;" horiz-adv-x="733" 
d="M215 339q0 -11 -16 -11h-135q-17 0 -17 11v4q0 6 16.5 19t16.5 30v215q0 18 -12.5 24.5t-25 8.5t-12.5 11v3q0 13 17 19l136 46q9 4 14.5 0.5t5.5 -10.5v-4q0 -6 -11 -23t-11 -42v-248q0 -17 17 -30t17 -19v-4zM607 586q14 -11 -1 -27l-417 -452q-13 -15 -31 1l-28 26
q-14 14 -3 26l419 452q15 15 28 4zM693 132q11 0 11 -11v-22q0 -11 -11 -11h-46v-30q0 -16 14.5 -28t14.5 -19v-2q0 -10 -13 -10h-119q-14 0 -14 10v2q0 7 13.5 19t13.5 28v30h-162q-23 0 -23 18v9q0 17 9 30l160 220q15 21 38 21h55q13 0 13 -14v-240h46zM432 132h125v184z
" />
    <glyph glyph-name="onehalf" unicode="&#xbd;" horiz-adv-x="774" 
d="M213 339q0 -11 -16 -11h-132q-17 0 -17 11v4q0 6 15.5 19t15.5 30v216q0 18 -12 24t-24 8t-12 11v3q0 13 17 19l134 46q20 7 20 -10v-4q0 -6 -11 -23t-11 -40v-250q0 -17 16.5 -30t16.5 -19v-4zM606 586q13 -11 0 -27l-418 -452q-13 -16 -31 1l-28 26q-15 14 -3 26
l419 452q15 15 28 4zM736 115q5 0 8.5 -4t2.5 -9l-22 -89q-2 -12 -13 -12h-277q-13 0 -13 12v6q0 36 21 68t51 54.5t60 44t51 46t21 50.5q0 55 -47 55q-19 0 -32 -16.5t-19.5 -37t-19.5 -37t-32 -16.5t-31.5 12t-12.5 33q0 38 46 68.5t106 30.5q65 0 103.5 -27.5t38.5 -73.5
q0 -39 -27.5 -70.5t-62.5 -49.5t-76 -41.5t-59 -44.5h158q18 0 29.5 12t19 24t16.5 12h12z" />
    <glyph glyph-name="threequarters" unicode="&#xbe;" horiz-adv-x="765" 
d="M332 457q0 -49 -41 -81t-109 -32q-71 0 -113.5 29t-42.5 61q0 40 38 40q18 0 32 -15t22 -33.5t24 -33.5t37 -15q26 0 42 17t16 44q0 78 -72 78h-9q-13 0 -17 11.5t5 24.5l67 87h-147q-16 0 -16 16v41q0 14 16 14h255q13 0 13 -11v-6q0 -11 -12 -22l-115 -114
q127 -14 127 -100zM656 586q13 -11 0 -27l-418 -452q-13 -16 -31 1l-28 26q-14 14 -3 26l419 452q16 14 28 4zM721 132q11 0 11 -11v-22q0 -11 -11 -11h-45v-30q0 -16 14 -28t14 -19v-2q0 -10 -13 -10h-119q-14 0 -14 10v2q0 7 13.5 19t13.5 28v30h-162q-23 0 -23 18v9
q0 17 9 30l159 220q16 21 38 21h56q14 0 14 -14v-240h45zM460 132h125v184z" />
    <glyph glyph-name="questiondown" unicode="&#xbf;" horiz-adv-x="545" 
d="M294 356q-38 0 -63 20t-25 59t25 59.5t63 20.5t63 -20.5t25 -59.5t-25 -59t-63 -20zM274 -216q-110 0 -179.5 47.5t-69.5 142.5q0 47 22.5 84.5t54.5 62.5t64.5 48t55 51.5t22.5 61.5q0 16 24 23t50 0.5t31 -23.5q9 -41 -5 -75.5t-41 -61t-55 -52.5t-48.5 -61.5
t-20.5 -76.5q0 -52 26.5 -81t62.5 -29q30 0 50 19t31.5 45.5t22.5 53.5t30.5 46t48.5 19q32 0 52.5 -19t20.5 -52q0 -62 -75 -117.5t-175 -55.5z" />
    <glyph glyph-name="Agrave" unicode="&#xc0;" horiz-adv-x="694" 
d="M202 796q-18 1 -26 13t-3 29l15 60q5 18 17.5 24t31.5 -3l195 -94q22 -13 14 -34q-8 -20 -33 -18zM644 96q10 -24 32.5 -44t22.5 -32v-3q0 -17 -22 -17h-219q-22 0 -22 17v3q0 10 13.5 20.5t23.5 24t3 31.5l-30 80h-279l-29 -80q-7 -18 3 -31.5t23.5 -24t13.5 -20.5v-3
q0 -17 -23 -17h-131q-22 0 -22 17v3q0 12 22 31.5t32 44.5l199 511q8 21 -13.5 49t-21.5 34v4q0 16 20 16h104q42 0 61 -43zM191 241h231l-117 311z" />
    <glyph glyph-name="Aacute" unicode="&#xc1;" horiz-adv-x="694" 
d="M239 777q-25 -4 -33 16q-8 23 13 34l194 98q18 9 31 3.5t18 -23.5l16 -59q5 -17 -2.5 -29t-25.5 -13zM644 96q10 -24 32.5 -44t22.5 -32v-3q0 -17 -22 -17h-219q-22 0 -22 17v3q0 10 13.5 20.5t23.5 24t3 31.5l-30 80h-279l-29 -80q-7 -18 3 -31.5t23.5 -24t13.5 -20.5
v-3q0 -17 -23 -17h-131q-22 0 -22 17v3q0 12 22 31.5t32 44.5l199 511q8 21 -13.5 49t-21.5 34v4q0 16 20 16h104q42 0 61 -43zM191 241h231l-117 311z" />
    <glyph glyph-name="Acircumflex" unicode="&#xc2;" horiz-adv-x="694" 
d="M189 761q-19 -10 -35.5 6t3.5 38l110 109q18 18 42 18h30q23 0 41 -18l120 -109q20 -20 6 -38.5t-41 -5.5l-145 73zM644 96q10 -24 32.5 -44t22.5 -32v-3q0 -17 -22 -17h-219q-22 0 -22 17v3q0 10 13.5 20.5t23.5 24t3 31.5l-30 80h-279l-29 -80q-7 -18 3 -31.5t23.5 -24
t13.5 -20.5v-3q0 -17 -23 -17h-131q-22 0 -22 17v3q0 12 22 31.5t32 44.5l199 511q8 21 -13.5 49t-21.5 34v4q0 16 20 16h104q42 0 61 -43zM191 241h231l-117 311z" />
    <glyph glyph-name="Atilde" unicode="&#xc3;" horiz-adv-x="694" 
d="M168 774q-18 0 -13 21q9 47 38.5 78.5t72.5 31.5q37 0 88 -25.5t69 -25.5q30 0 46 25q7 14 22 14h7q19 0 14 -21q-11 -51 -39.5 -80.5t-68.5 -29.5q-34 0 -85 26t-74 26q-26 0 -43 -23q-10 -14 -14 -16q-4 -1 -9 -1h-11zM644 96q10 -24 32.5 -44t22.5 -32v-3
q0 -17 -22 -17h-219q-22 0 -22 17v3q0 10 13.5 20.5t23.5 24t3 31.5l-30 80h-279l-29 -80q-7 -18 3 -31.5t23.5 -24t13.5 -20.5v-3q0 -17 -23 -17h-131q-22 0 -22 17v3q0 12 22 31.5t32 44.5l199 511q8 21 -13.5 49t-21.5 34v4q0 16 20 16h104q42 0 61 -43zM191 241h231
l-117 311z" />
    <glyph glyph-name="Adieresis" unicode="&#xc4;" horiz-adv-x="694" 
d="M215 775q-39 0 -64 22.5t-25 57.5t25 57.5t64 22.5q40 0 64 -22.5t24 -57.5t-24 -57.5t-64 -22.5zM445 775q-39 0 -64 22.5t-25 57.5t25 57.5t64 22.5t64 -22.5t25 -57.5t-25 -57.5t-64 -22.5zM644 96q10 -24 32.5 -44t22.5 -32v-3q0 -17 -22 -17h-219q-22 0 -22 17v3
q0 10 13.5 20.5t23.5 24t3 31.5l-30 80h-279l-29 -80q-7 -18 3 -31.5t23.5 -24t13.5 -20.5v-3q0 -17 -23 -17h-131q-22 0 -22 17v3q0 12 22 31.5t32 44.5l199 511q8 21 -13.5 49t-21.5 34v4q0 16 20 16h104q42 0 61 -43zM191 241h231l-117 311z" />
    <glyph glyph-name="Aring" unicode="&#xc5;" horiz-adv-x="694" 
d="M331 745q-59 0 -98.5 30.5t-39.5 75.5q0 49 38.5 79.5t100.5 30.5q60 0 99.5 -29.5t39.5 -74.5q0 -50 -38.5 -81t-101.5 -31zM332 917q-51 0 -51 -63q0 -29 14.5 -48t36.5 -19q23 0 37 17t14 50q0 29 -14.5 46t-36.5 17zM644 96q10 -24 32.5 -44t22.5 -32v-3
q0 -17 -22 -17h-219q-22 0 -22 17v3q0 10 13.5 20.5t23.5 24t3 31.5l-30 80h-279l-29 -80q-7 -18 3 -31.5t23.5 -24t13.5 -20.5v-3q0 -17 -23 -17h-131q-22 0 -22 17v3q0 12 22 31.5t32 44.5l199 511q8 21 -13.5 49t-21.5 34v4q0 16 20 16h104q42 0 61 -43zM191 241h231
l-117 311z" />
    <glyph glyph-name="AE" unicode="&#xc6;" horiz-adv-x="956" 
d="M924 171q21 0 16 -21l-25 -121q-5 -29 -31 -29h-429q-23 0 -23 17v3q0 11 19.5 32t19.5 45v80h-248l-47 -81q-10 -22 -4 -31.5t18.5 -22t12.5 -21.5v-4q0 -17 -24 -17h-164q-23 0 -23 17v4q0 12 27 32t41 43l298 499q11 25 5 38.5t-19 29.5t-13 24v7q0 16 22 16h504
q15 0 22 -6.5t10 -21.5l21 -111q5 -25 -21 -25h-5q-15 0 -31.5 16t-29 36t-32.5 36t-43 16h-100q-40 0 -40 -44v-210h116q21 0 35.5 18t24.5 35.5t20 17.5h8q17 0 17 -23v-157q0 -23 -17 -23h-8q-10 0 -20 17t-24.5 33.5t-35.5 16.5h-116v-214q0 -26 13.5 -41.5t38.5 -15.5
h117q25 0 46.5 17.5t33.5 38t28 38t31 17.5h8zM261 242h210v361z" />
    <glyph glyph-name="Ccedilla" unicode="&#xc7;" horiz-adv-x="672" 
d="M600 251q12 17 31 11.5t17 -27.5q-8 -97 -74 -166.5t-182 -77.5l-2 -44q48 2 84 -19t36 -62t-39 -63t-97 -22q-53 0 -85 17q-20 9 -15 35q3 20 16 16q1 0 3 -1q24 -14 59 -14q23 0 38 10t15 28q-1 33 -60 33q-13 0 -20.5 8t-4.5 22l11 57q-128 16 -216.5 125.5
t-88.5 246.5q0 155 92.5 255t239.5 100q115 0 200 -58.5t85 -130.5q0 -30 -19 -48.5t-52 -18.5q-30 0 -53 20t-40 48.5t-35.5 57.5t-48.5 49t-69 20q-63 0 -108 -56.5t-45 -147.5q0 -143 71.5 -236t166.5 -93q118 0 189 126z" />
    <glyph glyph-name="Egrave" unicode="&#xc8;" horiz-adv-x="615" 
d="M390 773l-211 23q-18 1 -26 13t-4 29l16 60q10 39 49 21l195 -94q21 -12 14 -34q-9 -20 -33 -18zM70 0q-23 0 -23 17v3q0 10 19.5 31.5t19.5 45.5v516q0 25 -19.5 46t-19.5 31v4q0 16 22 16h446q27 0 31 -28l24 -117q5 -26 -20 -26h-6q-15 0 -32.5 17.5t-31 38t-34 38
t-42.5 17.5h-128q-40 0 -40 -43v-215h129q17 0 29.5 11.5t18.5 25t14.5 25t16.5 11.5h8q17 0 17 -21v-161q0 -21 -17 -21h-8q-8 0 -16.5 11t-14.5 23.5t-18.5 23.5t-29.5 11h-129l-1 -209q0 -25 13 -43.5t40 -18.5h147q22 0 41.5 18t31 40t28.5 40t34 18h8q10 0 15 -8t3 -18
l-22 -121q-6 -29 -32 -29h-472z" />
    <glyph glyph-name="Eacute" unicode="&#xc9;" horiz-adv-x="615" 
d="M215 777q-23 -3 -33 16q-8 23 13 34l194 98q18 9 31 3.5t18 -23.5l16 -59q5 -17 -2.5 -29t-25.5 -13zM70 0q-23 0 -23 17v3q0 10 19.5 31.5t19.5 45.5v516q0 25 -19.5 46t-19.5 31v4q0 16 22 16h446q27 0 31 -28l24 -117q5 -26 -20 -26h-6q-15 0 -32.5 17.5t-31 38
t-34 38t-42.5 17.5h-128q-40 0 -40 -43v-215h129q17 0 29.5 11.5t18.5 25t14.5 25t16.5 11.5h8q17 0 17 -21v-161q0 -21 -17 -21h-8q-8 0 -16.5 11t-14.5 23.5t-18.5 23.5t-29.5 11h-129l-1 -209q0 -25 13 -43.5t40 -18.5h147q22 0 41.5 18t31 40t28.5 40t34 18h8
q10 0 15 -8t3 -18l-22 -121q-6 -29 -32 -29h-472z" />
    <glyph glyph-name="Ecircumflex" unicode="&#xca;" horiz-adv-x="615" 
d="M166 761q-19 -10 -35.5 6t3.5 38l110 109q18 18 42 18h29q24 0 42 -18l119 -109q21 -20 6.5 -38.5t-41.5 -5.5l-144 73zM578 176q10 0 15 -8t3 -18l-22 -121q-6 -29 -32 -29h-472q-23 0 -23 17v3q0 10 19.5 31.5t19.5 45.5v516q0 25 -19.5 46t-19.5 31v4q0 16 22 16h446
q27 0 31 -28l24 -117q5 -26 -20 -26h-6q-15 0 -32.5 17.5t-31 38t-34 38t-42.5 17.5h-128q-40 0 -40 -43v-215h129q17 0 29.5 11.5t18.5 25t14.5 25t16.5 11.5h8q17 0 17 -21v-161q0 -21 -17 -21h-8q-8 0 -16.5 11t-14.5 23.5t-18.5 23.5t-29.5 11h-129l-1 -209
q0 -25 13 -43.5t40 -18.5h147q22 0 41.5 18t31 40t28.5 40t34 18h8z" />
    <glyph glyph-name="Edieresis" unicode="&#xcb;" horiz-adv-x="615" 
d="M191 775q-40 0 -65 22.5t-25 57.5t25 57.5t65 22.5q39 0 63.5 -22.5t24.5 -57.5t-24.5 -57.5t-63.5 -22.5zM421 775q-40 0 -64.5 22.5t-24.5 57.5t24.5 57.5t64.5 22.5q39 0 63.5 -22.5t24.5 -57.5t-24.5 -57.5t-63.5 -22.5zM70 0q-23 0 -23 17v3q0 10 19.5 31.5
t19.5 45.5v516q0 25 -19.5 46t-19.5 31v4q0 16 22 16h446q27 0 31 -28l24 -117q5 -26 -20 -26h-6q-15 0 -32.5 17.5t-31 38t-34 38t-42.5 17.5h-128q-40 0 -40 -43v-215h129q17 0 29.5 11.5t18.5 25t14.5 25t16.5 11.5h8q17 0 17 -21v-161q0 -21 -17 -21h-8q-8 0 -16.5 11
t-14.5 23.5t-18.5 23.5t-29.5 11h-129l-1 -209q0 -25 13 -43.5t40 -18.5h147q22 0 41.5 18t31 40t28.5 40t34 18h8q10 0 15 -8t3 -18l-22 -121q-6 -29 -32 -29h-472z" />
    <glyph glyph-name="Igrave" unicode="&#xcc;" horiz-adv-x="326" 
d="M248 773l-211 23q-18 1 -26 13t-4 29l16 60q10 39 49 21l195 -94q21 -12 14 -34q-9 -20 -33 -18zM48 17v3q0 10 19 31t19 45v518q0 23 -19 44.5t-19 31.5v4q0 16 22 16h187q22 0 22 -16v-4q0 -10 -21 -31.5t-21 -44.5v-518q0 -24 21 -45t21 -31v-3q0 -17 -22 -17h-187
q-22 0 -22 17z" />
    <glyph glyph-name="Iacute" unicode="&#xcd;" horiz-adv-x="326" 
d="M74 777q-25 -4 -33 16q-8 23 12 34l195 98q18 9 31 3.5t18 -23.5l16 -59q5 -17 -3 -29t-26 -13zM48 17v3q0 10 19 31t19 45v518q0 23 -19 44.5t-19 31.5v4q0 16 22 16h187q22 0 22 -16v-4q0 -10 -21 -31.5t-21 -44.5v-518q0 -24 21 -45t21 -31v-3q0 -17 -22 -17h-187
q-22 0 -22 17z" />
    <glyph glyph-name="Icircumflex" unicode="&#xce;" horiz-adv-x="326" 
d="M334 805q21 -20 6.5 -38.5t-41.5 -5.5l-144 73l-131 -73q-19 -10 -35.5 6t3.5 38l110 109q18 18 42 18h29q24 0 42 -18zM257 710q22 0 22 -16v-4q0 -10 -21 -31.5t-21 -44.5v-518q0 -24 21 -45t21 -31v-3q0 -17 -22 -17h-187q-22 0 -22 17v3q0 10 19 31t19 45v518
q0 23 -19 44.5t-19 31.5v4q0 16 22 16h187z" />
    <glyph glyph-name="Idieresis" unicode="&#xcf;" horiz-adv-x="326" 
d="M50 775q-39 0 -64 22.5t-25 57.5t25 57.5t64 22.5t63.5 -22.5t24.5 -57.5t-24.5 -57.5t-63.5 -22.5zM280 775q-39 0 -64 22.5t-25 57.5t25 57.5t64 22.5t64 -22.5t25 -57.5t-25 -57.5t-64 -22.5zM48 17v3q0 10 19 31t19 45v518q0 23 -19 44.5t-19 31.5v4q0 16 22 16h187
q22 0 22 -16v-4q0 -10 -21 -31.5t-21 -44.5v-518q0 -24 21 -45t21 -31v-3q0 -17 -22 -17h-187q-22 0 -22 17z" />
    <glyph glyph-name="Eth" unicode="&#xd0;" horiz-adv-x="763" 
d="M301 710q196 0 314 -100t118 -256q0 -160 -106.5 -257t-278.5 -97h-275q-23 0 -23 17v3q0 10 19.5 31.5t19.5 44.5v237h-48q-16 0 -16 15v27q0 16 16 16h48v223q0 23 -19.5 44.5t-19.5 31.5v4q0 16 23 16h228zM363 61q94 0 153.5 61t59.5 168q0 149 -80.5 254t-198.5 105
h-19q-40 0 -40 -42v-216h109q17 0 17 -16v-25q0 -17 -17 -17h-109v-186q0 -41 19.5 -63.5t54.5 -22.5h51z" />
    <glyph glyph-name="Ntilde" unicode="&#xd1;" horiz-adv-x="756" 
d="M228 774q-17 0 -14 21q9 47 38.5 78.5t72.5 31.5q38 0 88.5 -25.5t68.5 -25.5q32 0 46 25q8 14 22 14h8q19 0 14 -21q-12 -51 -40.5 -80.5t-68.5 -29.5q-33 0 -84.5 26t-74.5 26q-25 0 -42 -23q-1 -2 -3 -4.5t-3 -4t-2.5 -3t-3 -2.5t-3 -1.5t-3.5 -1t-5 -0.5h-11z
M694 710q23 0 23 -17v-3q0 -10 -21.5 -31.5t-21.5 -44.5v-574q0 -19 -10.5 -29.5t-28.5 -10.5h-47q-22 0 -44 31l-381 511v-444q0 -24 22.5 -46t22.5 -32v-3q0 -17 -23 -17h-116q-23 0 -23 17v3q0 10 20 32t20 46v515q0 24 -20 45t-20 31v4q0 17 23 17h125q28 0 47 -28
l356 -494v426q0 23 -21.5 44.5t-21.5 31.5v3q0 17 23 17h117z" />
    <glyph glyph-name="Ograve" unicode="&#xd2;" horiz-adv-x="762" 
d="M462 773l-211 23q-18 1 -26 13t-4 29l16 60q10 39 49 21l195 -94q21 -12 14 -34q-9 -20 -33 -18zM385 -10q-150 0 -252 105t-102 258q0 162 97.5 264.5t253.5 102.5q150 0 250 -106.5t100 -262.5q0 -157 -99.5 -259t-247.5 -102zM427 55q69 0 111 51t42 130
q0 98 -33 194.5t-92 160.5t-127 64q-69 0 -109.5 -50t-40.5 -133q0 -102 32.5 -198t90.5 -157.5t126 -61.5z" />
    <glyph glyph-name="Oacute" unicode="&#xd3;" horiz-adv-x="762" 
d="M287 777q-23 -3 -33 16q-8 23 13 34l194 98q18 9 31 3.5t18 -23.5l16 -59q5 -17 -2.5 -29t-25.5 -13zM385 -10q-150 0 -252 105t-102 258q0 162 97.5 264.5t253.5 102.5q150 0 250 -106.5t100 -262.5q0 -157 -99.5 -259t-247.5 -102zM427 55q69 0 111 51t42 130
q0 98 -33 194.5t-92 160.5t-127 64q-69 0 -109.5 -50t-40.5 -133q0 -102 32.5 -198t90.5 -157.5t126 -61.5z" />
    <glyph glyph-name="Ocircumflex" unicode="&#xd4;" horiz-adv-x="762" 
d="M238 761q-19 -10 -35.5 6t3.5 38l110 109q18 18 42 18h29q24 0 42 -18l119 -109q21 -20 6.5 -38.5t-41.5 -5.5l-144 73zM382 720q150 0 250 -106.5t100 -262.5q0 -157 -99.5 -259t-247.5 -102q-150 0 -252 105t-102 258q0 162 97.5 264.5t253.5 102.5zM427 55
q69 0 111 51t42 130q0 98 -33 194.5t-92 160.5t-127 64q-69 0 -109.5 -50t-40.5 -133q0 -102 32.5 -198t90.5 -157.5t126 -61.5z" />
    <glyph glyph-name="Otilde" unicode="&#xd5;" horiz-adv-x="762" 
d="M316 905q38 0 88.5 -25.5t68.5 -25.5q32 0 46 25q8 14 22 14h8q19 0 14 -21q-12 -51 -40.5 -80.5t-68.5 -29.5q-33 0 -84.5 26t-74.5 26q-25 0 -42 -23q-1 -2 -3 -4.5t-3 -4t-2.5 -3t-3 -2.5t-3 -1.5t-3.5 -1t-5 -0.5h-11q-17 0 -14 21q9 46 38.5 78t72.5 32zM385 -10
q-150 0 -252 105t-102 258q0 162 97.5 264.5t253.5 102.5q150 0 250 -106.5t100 -262.5q0 -157 -99.5 -259t-247.5 -102zM427 55q69 0 111 51t42 130q0 98 -33 194.5t-92 160.5t-127 64q-69 0 -109.5 -50t-40.5 -133q0 -102 32.5 -198t90.5 -157.5t126 -61.5z" />
    <glyph glyph-name="Odieresis" unicode="&#xd6;" horiz-adv-x="762" 
d="M264 775q-39 0 -64 22.5t-25 57.5t25 57.5t64 22.5t63.5 -22.5t24.5 -57.5t-24.5 -57.5t-63.5 -22.5zM494 775q-39 0 -64 22.5t-25 57.5t25 57.5t64 22.5t64 -22.5t25 -57.5t-25 -57.5t-64 -22.5zM385 -10q-150 0 -252 105t-102 258q0 162 97.5 264.5t253.5 102.5
q150 0 250 -106.5t100 -262.5q0 -157 -99.5 -259t-247.5 -102zM427 55q69 0 111 51t42 130q0 98 -33 194.5t-92 160.5t-127 64q-69 0 -109.5 -50t-40.5 -133q0 -102 32.5 -198t90.5 -157.5t126 -61.5z" />
    <glyph glyph-name="multiply" unicode="&#xd7;" 
d="M164 107l-42 42q-11 11 4 27l109 110l-109 109q-14 16 -5 27l43 42q12 10 26 -4l110 -110l110 111q15 15 26 3l43 -42q11 -10 -5 -26l-109 -109l110 -111q15 -17 4 -27l-43 -42q-10 -11 -26 5l-110 109l-110 -109q-14 -15 -26 -5z" />
    <glyph glyph-name="Oslash" unicode="&#xd8;" horiz-adv-x="775" 
d="M663 584q76 -100 76 -233q0 -157 -99.5 -259t-247.5 -102q-145 0 -246 99l-65 -62q-12 -10 -24 0l-23 20q-10 11 5 26l66 63q-67 96 -67 217q0 162 97.5 264.5t253.5 102.5q135 0 233 -90l62 59q16 16 28 4l21 -20q13 -9 -3 -25zM185 472q0 -114 41 -220l285 272
q-77 131 -176 131q-69 0 -109.5 -50t-40.5 -133zM434 55q69 0 111 51t42 130q0 119 -47 230l-286 -274q76 -137 180 -137z" />
    <glyph glyph-name="Ugrave" unicode="&#xd9;" horiz-adv-x="721" 
d="M468 773l-211 23q-18 1 -25.5 13t-3.5 29l16 60q10 39 48 21l196 -94q21 -12 13 -34q-8 -20 -33 -18zM371 -10q-134 0 -215.5 74t-81.5 207v343q0 23 -19.5 44.5t-19.5 31.5v4q0 16 23 16h188q23 0 23 -16v-4q0 -10 -21.5 -31.5t-21.5 -44.5v-343q0 -105 47 -160.5
t131 -55.5q66 0 115.5 52.5t49.5 163.5v343q0 23 -20 44.5t-20 31.5v4q0 16 23 16h114q23 0 23 -16v-4q0 -10 -21.5 -31.5t-21.5 -44.5v-345q0 -132 -75 -205.5t-200 -73.5z" />
    <glyph glyph-name="Uacute" unicode="&#xda;" horiz-adv-x="721" 
d="M280 777q-25 -4 -33 16q-8 23 13 34l194 98q18 9 31 3.5t18 -23.5l16 -59q5 -17 -3 -29t-26 -13zM371 -10q-134 0 -215.5 74t-81.5 207v343q0 23 -19.5 44.5t-19.5 31.5v4q0 16 23 16h188q23 0 23 -16v-4q0 -10 -21.5 -31.5t-21.5 -44.5v-343q0 -105 47 -160.5t131 -55.5
q66 0 115.5 52.5t49.5 163.5v343q0 23 -20 44.5t-20 31.5v4q0 16 23 16h114q23 0 23 -16v-4q0 -10 -21.5 -31.5t-21.5 -44.5v-345q0 -132 -75 -205.5t-200 -73.5z" />
    <glyph glyph-name="Ucircumflex" unicode="&#xdb;" horiz-adv-x="721" 
d="M229 761q-19 -10 -35.5 6t3.5 38l110 109q17 18 42 18h29q24 0 42 -18l119 -109q21 -20 6.5 -38.5t-41.5 -5.5l-144 73zM666 710q23 0 23 -16v-4q0 -10 -21.5 -31.5t-21.5 -44.5v-345q0 -132 -75 -205.5t-200 -73.5q-134 0 -215.5 74t-81.5 207v343q0 23 -19.5 44.5
t-19.5 31.5v4q0 16 23 16h188q23 0 23 -16v-4q0 -10 -21.5 -31.5t-21.5 -44.5v-343q0 -105 47 -160.5t131 -55.5q66 0 115.5 52.5t49.5 163.5v343q0 23 -20 44.5t-20 31.5v4q0 16 23 16h114z" />
    <glyph glyph-name="Udieresis" unicode="&#xdc;" horiz-adv-x="721" 
d="M257 775q-40 0 -65 22.5t-25 57.5t25 57.5t65 22.5q39 0 63.5 -22.5t24.5 -57.5t-24.5 -57.5t-63.5 -22.5zM487 775q-40 0 -64.5 22.5t-24.5 57.5t24.5 57.5t64.5 22.5q39 0 63.5 -22.5t24.5 -57.5t-24.5 -57.5t-63.5 -22.5zM371 -10q-134 0 -215.5 74t-81.5 207v343
q0 23 -19.5 44.5t-19.5 31.5v4q0 16 23 16h188q23 0 23 -16v-4q0 -10 -21.5 -31.5t-21.5 -44.5v-343q0 -105 47 -160.5t131 -55.5q66 0 115.5 52.5t49.5 163.5v343q0 23 -20 44.5t-20 31.5v4q0 16 23 16h114q23 0 23 -16v-4q0 -10 -21.5 -31.5t-21.5 -44.5v-345
q0 -132 -75 -205.5t-200 -73.5z" />
    <glyph glyph-name="Yacute" unicode="&#xdd;" horiz-adv-x="684" 
d="M267 777q-25 -4 -33 16q-8 23 13 34l194 98q18 9 31 3.5t18 -23.5l16 -59q5 -17 -3 -29t-26 -13zM655 710q22 0 22 -16v-4q0 -12 -23.5 -32t-37.5 -44l-188 -325v-193q0 -23 21 -44.5t21 -31.5v-3q0 -17 -22 -17h-189q-22 0 -22 17v3q0 10 19 31.5t19 44.5v182l-212 336
q-13 21 -39 42t-26 34v4q0 16 24 16h227q23 0 23 -16v-4q0 -10 -14.5 -21t-24.5 -24.5t0 -30.5l154 -270l154 270q9 14 4 26t-15 18.5t-19.5 15t-9.5 16.5v4q0 16 22 16h132z" />
    <glyph glyph-name="Thorn" unicode="&#xde;" horiz-adv-x="645" 
d="M70 0q-22 0 -22 17v4q0 10 19 31t19 45v516q0 24 -19 45.5t-19 31.5v4q0 16 22 16h187q22 0 22 -16v-4q0 -10 -21 -31.5t-21 -45.5v-27h63q145 0 233 -56.5t88 -164.5q0 -109 -83.5 -168.5t-220.5 -59.5h-80v-40q0 -24 21 -45t21 -31v-4q0 -17 -22 -17h-187zM271 197h58
q63 0 99.5 37.5t36.5 108.5q0 83 -47.5 133t-110.5 50h-36q-34 0 -34 -35v-260q0 -34 34 -34z" />
    <glyph glyph-name="germandbls" unicode="&#xdf;" horiz-adv-x="592" 
d="M406 391q73 -15 117.5 -68t44.5 -132q0 -88 -65.5 -139.5t-161.5 -51.5q-16 0 -22.5 12t-1 23.5t18.5 11.5q39 0 64.5 32t25.5 88q0 85 -33 137.5t-91 52.5q-15 0 -21 13.5t0 27t21 13.5q30 0 51.5 29.5t21.5 83.5q0 167 -89 167q-38 0 -58.5 -30.5t-20.5 -73.5v-489
q0 -24 25.5 -44.5t25.5 -33.5v-3q0 -8 -2.5 -12t-5 -4.5t-9.5 -0.5h-1.5h-1.5h-193q-21 0 -21 17v3q0 10 20 32t20 46v425q0 93 62 152t169 59q89 0 151 -53t62 -140q0 -53 -29 -92.5t-73 -57.5z" />
    <glyph glyph-name="agrave" unicode="&#xe0;" horiz-adv-x="536" 
d="M125 610q-18 4 -23 17.5t3 29.5l27 55q18 37 52 11l173 -132q19 -15 6 -35q-11 -17 -36 -12zM483 100q3 -23 11.5 -37t17.5 -17.5t16 -8.5t7 -14q0 -29 -96 -29q-44 0 -64.5 11.5t-24.5 42.5q-39 -58 -133 -58q-84 0 -136 39t-52 112q-1 72 51 112t130 40q66 0 109 -30
l-1 12q-10 95 -28 134t-61 39q-27 0 -44 -20t-24 -44t-23 -44t-41 -20q-27 0 -43.5 15.5t-16.5 40.5q0 52 55.5 83t136.5 31q97 0 159 -55t73 -150zM261 34q33 0 53 27.5t18 62.5l-3 35q-4 43 -25.5 66t-53.5 23t-52.5 -23t-20.5 -61q0 -54 23.5 -92t60.5 -38z" />
    <glyph glyph-name="aacute" unicode="&#xe1;" horiz-adv-x="536" 
d="M156 550q-24 -7 -36 11q-12 20 7 35l173 132q34 26 52 -11l27 -55q8 -15 2.5 -29t-23.5 -18zM483 100q3 -23 11.5 -37t17.5 -17.5t16 -8.5t7 -14q0 -29 -96 -29q-44 0 -64.5 11.5t-24.5 42.5q-39 -58 -133 -58q-84 0 -136 39t-52 112q-1 72 51 112t130 40q66 0 109 -30
l-1 12q-10 95 -28 134t-61 39q-27 0 -44 -20t-24 -44t-23 -44t-41 -20q-27 0 -43.5 15.5t-16.5 40.5q0 52 55.5 83t136.5 31q97 0 159 -55t73 -150zM261 34q33 0 53 27.5t18 62.5l-3 35q-4 43 -25.5 66t-53.5 23t-52.5 -23t-20.5 -61q0 -54 23.5 -92t60.5 -38z" />
    <glyph glyph-name="acircumflex" unicode="&#xe2;" horiz-adv-x="536" 
d="M105 548q-19 -10 -35.5 6t3.5 38l110 109q17 18 42 18h29q24 0 42 -17l119 -110q21 -20 6.5 -38.5t-41.5 -5.5l-144 73zM483 100q3 -23 11.5 -37t17.5 -17.5t16 -8.5t7 -14q0 -29 -96 -29q-44 0 -64.5 11.5t-24.5 42.5q-39 -58 -133 -58q-84 0 -136 39t-52 112
q-1 72 51 112t130 40q66 0 109 -30l-1 12q-10 95 -28 134t-61 39q-27 0 -44 -20t-24 -44t-23 -44t-41 -20q-27 0 -43.5 15.5t-16.5 40.5q0 52 55.5 83t136.5 31q97 0 159 -55t73 -150zM261 34q33 0 53 27.5t18 62.5l-3 35q-4 43 -25.5 66t-53.5 23t-52.5 -23t-20.5 -61
q0 -54 23.5 -92t60.5 -38z" />
    <glyph glyph-name="atilde" unicode="&#xe3;" horiz-adv-x="536" 
d="M76 588q-17 0 -14 21q9 47 38.5 78.5t72.5 31.5q38 0 88.5 -25.5t68.5 -25.5q32 0 46 25q8 14 22 14h8q19 0 14 -21q-12 -51 -40.5 -80.5t-68.5 -29.5q-33 0 -84.5 26t-74.5 26q-25 0 -42 -23q-1 -2 -3 -4.5t-3 -4t-2.5 -3t-3 -2.5t-3.5 -1.5l-4 -1t-5 -0.5h-10zM483 100
q3 -23 11.5 -37t17.5 -17.5t16 -8.5t7 -14q0 -29 -96 -29q-44 0 -64.5 11.5t-24.5 42.5q-39 -58 -133 -58q-84 0 -136 39t-52 112q-1 72 51 112t130 40q66 0 109 -30l-1 12q-10 95 -28 134t-61 39q-27 0 -44 -20t-24 -44t-23 -44t-41 -20q-27 0 -43.5 15.5t-16.5 40.5
q0 52 55.5 83t136.5 31q97 0 159 -55t73 -150zM261 34q33 0 53 27.5t18 62.5l-3 35q-4 43 -25.5 66t-53.5 23t-52.5 -23t-20.5 -61q0 -54 23.5 -92t60.5 -38z" />
    <glyph glyph-name="adieresis" unicode="&#xe4;" horiz-adv-x="536" 
d="M130 555q-40 0 -65 22.5t-25 57.5t25 57.5t65 22.5q39 0 63.5 -22.5t24.5 -57.5t-24.5 -57.5t-63.5 -22.5zM360 555q-40 0 -64.5 22.5t-24.5 57.5t24.5 57.5t64.5 22.5q39 0 63.5 -22.5t24.5 -57.5t-24.5 -57.5t-63.5 -22.5zM483 100q3 -23 11.5 -37t17.5 -17.5t16 -8.5
t7 -14q0 -29 -96 -29q-44 0 -64.5 11.5t-24.5 42.5q-39 -58 -133 -58q-84 0 -136 39t-52 112q-1 72 51 112t130 40q66 0 109 -30l-1 12q-10 95 -28 134t-61 39q-27 0 -44 -20t-24 -44t-23 -44t-41 -20q-27 0 -43.5 15.5t-16.5 40.5q0 52 55.5 83t136.5 31q97 0 159 -55
t73 -150zM261 34q33 0 53 27.5t18 62.5l-3 35q-4 43 -25.5 66t-53.5 23t-52.5 -23t-20.5 -61q0 -54 23.5 -92t60.5 -38z" />
    <glyph glyph-name="aring" unicode="&#xe5;" horiz-adv-x="536" 
d="M243 536q-59 0 -98 30.5t-39 75.5q0 50 38 80.5t100 30.5q60 0 99.5 -30t39.5 -75q0 -50 -38.5 -81t-101.5 -31zM244 708q-51 0 -51 -63q0 -29 14.5 -48t36.5 -19q23 0 37.5 17t14.5 50q0 29 -15 46t-37 17zM483 100q3 -23 11.5 -37t17.5 -17.5t16 -8.5t7 -14
q0 -29 -96 -29q-44 0 -64.5 11.5t-24.5 42.5q-39 -58 -133 -58q-84 0 -136 39t-52 112q-1 72 51 112t130 40q66 0 109 -30l-1 12q-10 95 -28 134t-61 39q-27 0 -44 -20t-24 -44t-23 -44t-41 -20q-27 0 -43.5 15.5t-16.5 40.5q0 52 55.5 83t136.5 31q97 0 159 -55t73 -150z
M261 34q33 0 53 27.5t18 62.5l-3 35q-4 43 -25.5 66t-53.5 23t-52.5 -23t-20.5 -61q0 -54 23.5 -92t60.5 -38z" />
    <glyph glyph-name="ae" unicode="&#xe6;" horiz-adv-x="788" 
d="M733 155q10 11 23 7t12 -19q-5 -52 -60 -101t-143 -49q-131 0 -198 100q-8 -44 -46 -73.5t-104 -29.5q-83 0 -135.5 40t-52.5 111t51 111.5t130 40.5q67 0 109 -29l-1 11q-9 94 -27 133.5t-62 39.5q-27 0 -43.5 -20t-23 -44t-23 -44t-42.5 -20q-27 0 -43.5 15.5
t-16.5 40.5q0 53 57 83.5t135 30.5q105 0 169 -64q69 67 167 67q91 0 140 -43t49 -99q0 -48 -45 -66l-221 -102q41 -86 131 -86q66 0 114 58zM546 449q-38 0 -61.5 -37.5t-23.5 -96.5q0 -49 10 -86l130 66q26 14 26 46q0 35 -22 71.5t-59 36.5zM261 35q34 0 53 29.5t18 64.5
l-3 30q-4 43 -25.5 65t-53.5 22t-52 -20.5t-20 -54.5q0 -58 23 -97t60 -39z" />
    <glyph glyph-name="ccedilla" unicode="&#xe7;" horiz-adv-x="506" 
d="M448 163q6 8 14.5 9.5t15 -4t5.5 -15.5q-5 -64 -54.5 -111.5t-135.5 -51.5l-2 -43q48 2 84 -19t36 -62t-39 -63t-97 -22q-53 0 -85 17q-20 9 -15 35q3 20 16 16q1 0 3 -1q24 -14 59 -14q23 0 38 10t15 28q-1 33 -60 33q-13 0 -20.5 8t-4.5 22l11 59q-93 16 -152 86
t-59 161q0 112 73.5 180t178.5 69q86 1 146.5 -40t60.5 -100q0 -22 -15 -36.5t-47 -13.5q-24 1 -42 17t-29.5 37t-23.5 42t-30 35.5t-42 14.5q-42 0 -67.5 -38t-25.5 -95q0 -100 46.5 -160t123.5 -60q79 0 120 70z" />
    <glyph glyph-name="egrave" unicode="&#xe8;" horiz-adv-x="491" 
d="M131 610q-18 4 -23 17.5t3 29.5l27 55q18 37 52 11l173 -132q19 -15 6 -35q-10 -18 -36 -12zM437 152q9 12 22 8t12 -19q-5 -52 -60 -101.5t-143 -49.5q-106 0 -174 70t-68 184q0 107 71 176.5t171 69.5q91 0 140 -43t49 -99q0 -46 -44 -66l-222 -101q41 -87 132 -87
q38 0 68.5 16.5t45.5 41.5zM250 446q-39 0 -62 -37.5t-23 -95.5q0 -49 10 -86l129 65q26 13 26 47t-22 70.5t-58 36.5z" />
    <glyph glyph-name="eacute" unicode="&#xe9;" horiz-adv-x="491" 
d="M162 550q-24 -7 -36 11q-11 20 6 35l174 132q32 26 51 -11l27 -55q9 -15 3.5 -29t-23.5 -18zM437 152q9 12 22 8t12 -19q-5 -52 -60 -101.5t-143 -49.5q-106 0 -174 70t-68 184q0 107 71 176.5t171 69.5q91 0 140 -43t49 -99q0 -46 -44 -66l-222 -101q41 -87 132 -87
q38 0 68.5 16.5t45.5 41.5zM250 446q-39 0 -62 -37.5t-23 -95.5q0 -49 10 -86l129 65q26 13 26 47t-22 70.5t-58 36.5z" />
    <glyph glyph-name="ecircumflex" unicode="&#xea;" horiz-adv-x="491" 
d="M111 548q-19 -10 -35.5 6t3.5 38l110 109q17 18 42 18h29q24 0 42 -17l119 -110q21 -20 6.5 -38.5t-41.5 -5.5l-144 73zM437 152q9 12 22 8t12 -19q-5 -52 -60 -101.5t-143 -49.5q-106 0 -174 70t-68 184q0 107 71 176.5t171 69.5q91 0 140 -43t49 -99q0 -46 -44 -66
l-222 -101q41 -87 132 -87q38 0 68.5 16.5t45.5 41.5zM250 446q-39 0 -62 -37.5t-23 -95.5q0 -49 10 -86l129 65q26 13 26 47t-22 70.5t-58 36.5z" />
    <glyph glyph-name="edieresis" unicode="&#xeb;" horiz-adv-x="491" 
d="M135 555q-39 0 -64 22.5t-25 57.5t25 57.5t64 22.5q40 0 64 -22.5t24 -57.5t-24 -57.5t-64 -22.5zM365 555q-39 0 -64 22.5t-25 57.5t25 57.5t64 22.5t64 -22.5t25 -57.5t-25 -57.5t-64 -22.5zM437 152q9 12 22 8t12 -19q-5 -52 -60 -101.5t-143 -49.5q-106 0 -174 70
t-68 184q0 107 71 176.5t171 69.5q91 0 140 -43t49 -99q0 -46 -44 -66l-222 -101q41 -87 132 -87q38 0 68.5 16.5t45.5 41.5zM250 446q-39 0 -62 -37.5t-23 -95.5q0 -49 10 -86l129 65q26 13 26 47t-22 70.5t-58 36.5z" />
    <glyph glyph-name="igrave" unicode="&#xec;" horiz-adv-x="288" 
d="M234 544l-202 66q-18 4 -23 17.5t3 29.5l27 55q18 37 52 11l173 -132q18 -14 6 -35q-11 -17 -36 -12zM55 0q-22 0 -22 17v4q0 10 19 31t19 45v226q0 25 -19 47t-19 30v3q0 10 21 21l125 62q19 8 30 1.5t11 -21.5v-369q0 -24 21 -45t21 -31v-4q0 -17 -23 -17h-184z" />
    <glyph glyph-name="iacute" unicode="&#xed;" horiz-adv-x="288" 
d="M63 550q-24 -7 -36 11q-12 20 7 35l173 132q16 12 30 9t22 -20l26 -55q9 -15 3.5 -29t-23.5 -18zM55 0q-22 0 -22 17v4q0 10 19 31t19 45v226q0 25 -19 47t-19 30v3q0 10 21 21l125 62q19 8 30 1.5t11 -21.5v-369q0 -24 21 -45t21 -31v-4q0 -17 -23 -17h-184z" />
    <glyph glyph-name="icircumflex" unicode="&#xee;" horiz-adv-x="288" 
d="M322 592q21 -20 6.5 -38.5t-41.5 -5.5l-144 73l-131 -73q-19 -10 -35.5 6t3.5 38l110 109q17 18 42 18h29q24 0 42 -17zM220 97q0 -24 21 -45t21 -31v-4q0 -17 -23 -17h-184q-22 0 -22 17v4q0 10 19 31t19 45v226q0 25 -19 47t-19 30v3q0 10 21 21l125 62q19 8 30 1.5
t11 -21.5v-369z" />
    <glyph glyph-name="idieresis" unicode="&#xef;" horiz-adv-x="288" 
d="M36 555q-40 0 -65 22.5t-25 57.5t25 57.5t65 22.5q39 0 63.5 -22.5t24.5 -57.5t-24.5 -57.5t-63.5 -22.5zM266 555q-39 0 -64 22.5t-25 57.5t25 57.5t64 22.5t64 -22.5t25 -57.5t-25 -57.5t-64 -22.5zM55 0q-22 0 -22 17v4q0 10 19 31t19 45v226q0 25 -19 47t-19 30v3
q0 10 21 21l125 62q19 8 30 1.5t11 -21.5v-369q0 -24 21 -45t21 -31v-4q0 -17 -23 -17h-184z" />
    <glyph glyph-name="eth" unicode="&#xf0;" horiz-adv-x="583" 
d="M403 620q151 -153 151 -375q0 -117 -70 -186t-191 -69q-115 0 -191 71.5t-76 181.5q0 108 64.5 177.5t161.5 69.5q70 0 118 -45q-23 70 -80 135l-119 -43q-15 -6 -22 8l-9 20q-7 16 12 25l94 33q-28 27 -85 75q-19 19 -11.5 36.5t25.5 15.5q91 -18 181 -88l109 39
q17 5 22 -7l10 -22q7 -16 -13 -23zM312 34q43 0 66.5 37t23.5 102v9q-11 136 -49 200t-88 64q-45 0 -68.5 -38.5t-23.5 -107.5q0 -61 16 -121t49 -102.5t74 -42.5z" />
    <glyph glyph-name="ntilde" unicode="&#xf1;" horiz-adv-x="602" 
d="M154 588q-17 0 -14 21q9 47 38.5 78.5t72.5 31.5q38 0 88.5 -25.5t68.5 -25.5q32 0 46 25q8 14 22 14h8q19 0 14 -21q-12 -51 -40.5 -80.5t-68.5 -29.5q-33 0 -84.5 26t-74.5 26q-25 0 -42 -23q-1 -2 -3 -4.5t-3 -4t-2.5 -3t-3 -2.5t-3.5 -1.5l-4 -1t-5 -0.5h-10zM550 97
q2 -24 19 -45t17 -32v-4q0 -17 -23 -17h-173q-23 0 -23 17v4q0 10 18.5 31t17.5 46l-10 185q-7 151 -87 151q-40 0 -62.5 -30t-22.5 -80v-227q0 -24 21.5 -45t21.5 -31v-4q0 -17 -23 -17h-186q-23 0 -23 17v4q0 10 21.5 31t21.5 45v233q0 15 -7.5 27t-17 17.5t-17 13.5
t-7.5 16v4q0 11 20 21l119 58q17 8 25.5 1.5t8.5 -22.5v-56q43 81 148 81q76 0 129.5 -51t61.5 -162z" />
    <glyph glyph-name="ograve" unicode="&#xf2;" horiz-adv-x="580" 
d="M373 544l-202 66q-18 4 -23 17.5t3 29.5l27 55q18 37 52 11l173 -132q18 -14 6 -35q-11 -17 -36 -12zM299 -10q-119 0 -196.5 73.5t-77.5 179.5q0 107 76 177t183 70q115 0 192 -72.5t77 -179.5t-72.5 -177.5t-181.5 -70.5zM317 34q41 0 63.5 38t22.5 107
q0 57 -16.5 117.5t-49.5 105t-73 44.5q-92 0 -92 -146q0 -54 16.5 -114t51 -106t77.5 -46z" />
    <glyph glyph-name="oacute" unicode="&#xf3;" horiz-adv-x="580" 
d="M202 550q-24 -7 -36 11q-12 20 7 35l173 132q32 26 52 -11l26 -55q9 -15 3.5 -29t-23.5 -18zM299 -10q-119 0 -196.5 73.5t-77.5 179.5q0 107 76 177t183 70q115 0 192 -72.5t77 -179.5t-72.5 -177.5t-181.5 -70.5zM317 34q41 0 63.5 38t22.5 107q0 57 -16.5 117.5
t-49.5 105t-73 44.5q-92 0 -92 -146q0 -54 16.5 -114t51 -106t77.5 -46z" />
    <glyph glyph-name="ocircumflex" unicode="&#xf4;" horiz-adv-x="580" 
d="M151 548q-19 -10 -35.5 6t3.5 38l110 109q17 18 41 18h30q23 0 41 -17l120 -110q21 -20 6.5 -38.5t-41.5 -5.5l-145 73zM284 490q115 0 192 -72.5t77 -179.5t-72.5 -177.5t-181.5 -70.5q-119 0 -196.5 73.5t-77.5 179.5q0 107 76 177t183 70zM317 34q41 0 63.5 38
t22.5 107q0 57 -16.5 117.5t-49.5 105t-73 44.5q-92 0 -92 -146q0 -54 16.5 -114t51 -106t77.5 -46z" />
    <glyph glyph-name="otilde" unicode="&#xf5;" horiz-adv-x="580" 
d="M218 719q38 0 88.5 -25.5t68.5 -25.5q32 0 46 25q8 14 22 14h8q19 0 14 -21q-12 -51 -40.5 -80.5t-68.5 -29.5q-33 0 -84.5 26t-74.5 26q-25 0 -42 -23q-1 -2 -3 -4.5t-3 -4t-2.5 -3t-3 -2.5t-3 -1.5t-3.5 -1t-5 -0.5h-11q-17 0 -14 21q9 47 38.5 78.5t72.5 31.5z
M299 -10q-119 0 -196.5 73.5t-77.5 179.5q0 107 76 177t183 70q115 0 192 -72.5t77 -179.5t-72.5 -177.5t-181.5 -70.5zM317 34q41 0 63.5 38t22.5 107q0 57 -16.5 117.5t-49.5 105t-73 44.5q-92 0 -92 -146q0 -54 16.5 -114t51 -106t77.5 -46z" />
    <glyph glyph-name="odieresis" unicode="&#xf6;" horiz-adv-x="580" 
d="M175 555q-40 0 -65 22.5t-25 57.5t25 57.5t65 22.5q39 0 63.5 -22.5t24.5 -57.5t-24.5 -57.5t-63.5 -22.5zM405 555q-40 0 -64.5 22.5t-24.5 57.5t24.5 57.5t64.5 22.5q39 0 63.5 -22.5t24.5 -57.5t-24.5 -57.5t-63.5 -22.5zM299 -10q-119 0 -196.5 73.5t-77.5 179.5
q0 107 76 177t183 70q115 0 192 -72.5t77 -179.5t-72.5 -177.5t-181.5 -70.5zM317 34q41 0 63.5 38t22.5 107q0 57 -16.5 117.5t-49.5 105t-73 44.5q-92 0 -92 -146q0 -54 16.5 -114t51 -106t77.5 -46z" />
    <glyph glyph-name="divide" unicode="&#xf7;" 
d="M299 411q-41 0 -66 23.5t-25 59.5q0 35 25 58.5t66 23.5t66 -23.5t25 -58.5q0 -36 -25 -59.5t-66 -23.5zM106 239q-20 0 -20 15v63q0 15 20 15h388q21 0 21 -15v-63q0 -15 -21 -15h-388zM299 -10q-41 0 -66 23.5t-25 58.5q0 36 25 59t66 23t66 -23t25 -59
q0 -35 -25 -58.5t-66 -23.5z" />
    <glyph glyph-name="oslash" unicode="&#xf8;" horiz-adv-x="586" 
d="M496 400q60 -68 60 -162q0 -107 -72.5 -177.5t-181.5 -70.5q-101 0 -175 55l-55 -53q-11 -9 -20 0l-21 20q-11 11 2 24l52 50q-57 68 -57 157q0 107 76 177t183 70q94 0 166 -51l54 52q14 14 26 2l18 -17q11 -12 -2 -25zM176 300q0 -50 16 -111l175 168q-42 89 -100 89
q-91 0 -91 -146zM320 34q41 0 63.5 38t22.5 107q0 56 -17 118l-175 -168q44 -95 106 -95z" />
    <glyph glyph-name="ugrave" unicode="&#xf9;" horiz-adv-x="585" 
d="M176 610q-18 4 -23 17.5t3 29.5l28 55q17 37 51 11l173 -132q19 -15 6 -35q-9 -17 -36 -12zM519 102q0 -27 7.5 -40.5t16.5 -15t16.5 -6.5t7.5 -17q0 -29 -89 -29q-44 0 -65.5 14.5t-23.5 50.5q-42 -69 -145 -69q-81 0 -133.5 54.5t-52.5 153.5v169q0 25 -19.5 46.5
t-19.5 29.5v3q0 18 21 21l126 19q41 5 41 -18l-3 -285q0 -136 83 -136q37 0 61.5 32.5t24.5 84.5v203q0 25 -20 46.5t-20 29.5v3q0 18 20 21l128 19q38 4 38 -18v-366z" />
    <glyph glyph-name="uacute" unicode="&#xfa;" horiz-adv-x="585" 
d="M207 550q-24 -7 -36 11q-11 20 6 35l174 132q32 26 51 -11l27 -55q9 -15 3.5 -29t-23.5 -18zM519 102q0 -27 7.5 -40.5t16.5 -15t16.5 -6.5t7.5 -17q0 -29 -89 -29q-44 0 -65.5 14.5t-23.5 50.5q-42 -69 -145 -69q-81 0 -133.5 54.5t-52.5 153.5v169q0 25 -19.5 46.5
t-19.5 29.5v3q0 18 21 21l126 19q41 5 41 -18l-3 -285q0 -136 83 -136q37 0 61.5 32.5t24.5 84.5v203q0 25 -20 46.5t-20 29.5v3q0 18 20 21l128 19q38 4 38 -18v-366z" />
    <glyph glyph-name="ucircumflex" unicode="&#xfb;" horiz-adv-x="585" 
d="M156 548q-19 -10 -35.5 6t3.5 38l110 109q18 18 42 18h29q24 0 42 -17l119 -110q21 -20 6.5 -38.5t-41.5 -5.5l-144 73zM519 102q0 -27 7.5 -40.5t16.5 -15t16.5 -6.5t7.5 -17q0 -29 -89 -29q-44 0 -65.5 14.5t-23.5 50.5q-42 -69 -145 -69q-81 0 -133.5 54.5
t-52.5 153.5v169q0 25 -19.5 46.5t-19.5 29.5v3q0 18 21 21l126 19q41 5 41 -18l-3 -285q0 -136 83 -136q37 0 61.5 32.5t24.5 84.5v203q0 25 -20 46.5t-20 29.5v3q0 18 20 21l128 19q38 4 38 -18v-366z" />
    <glyph glyph-name="udieresis" unicode="&#xfc;" horiz-adv-x="585" 
d="M180 555q-39 0 -64 22.5t-25 57.5t25 57.5t64 22.5q40 0 64 -22.5t24 -57.5t-24 -57.5t-64 -22.5zM410 555q-39 0 -64 22.5t-25 57.5t25 57.5t64 22.5t64 -22.5t25 -57.5t-25 -57.5t-64 -22.5zM519 102q0 -27 7.5 -40.5t16.5 -15t16.5 -6.5t7.5 -17q0 -29 -89 -29
q-44 0 -65.5 14.5t-23.5 50.5q-42 -69 -145 -69q-81 0 -133.5 54.5t-52.5 153.5v169q0 25 -19.5 46.5t-19.5 29.5v3q0 18 21 21l126 19q41 5 41 -18l-3 -285q0 -136 83 -136q37 0 61.5 32.5t24.5 84.5v203q0 25 -20 46.5t-20 29.5v3q0 18 20 21l128 19q38 4 38 -18v-366z
" />
    <glyph glyph-name="yacute" unicode="&#xfd;" horiz-adv-x="548" 
d="M211 550q-26 -7 -36 11q-13 20 6 35l173 132q34 26 52 -11l27 -55q8 -15 2.5 -29t-22.5 -18zM531 480q20 0 20 -16v-5q0 -13 -20.5 -35t-30.5 -43l-189 -411q-13 -29 -22 -47t-27.5 -47.5t-36.5 -46.5t-45 -30t-56 -13q-64 0 -105.5 33t-41.5 74q0 27 16 43.5t44 16.5
t44 -18.5t21 -41.5t15.5 -41.5t27.5 -18.5q46 0 103 140l-199 408q-11 22 -32.5 43.5t-21.5 34.5v5q0 16 21 16h187q19 0 19 -17v-4q0 -9 -9 -20.5t-12 -21.5t6 -38l117 -271l108 257q10 34 0 47t-27 25.5t-17 21.5v4q0 17 21 17h122z" />
    <glyph glyph-name="thorn" unicode="&#xfe;" horiz-adv-x="574" 
d="M313 490q94 0 164 -65t70 -177q0 -113 -68.5 -185.5t-164.5 -72.5q-70 0 -117 39v-149q0 -23 21.5 -44t21.5 -32v-4q0 -17 -23 -17h-182q-23 0 -23 17v4q0 11 20 32t20 44v708q0 22 -23 40.5t-23 29.5v5q0 15 20 25l133 63q20 8 29.5 2.5t9.5 -20.5v-282q44 39 115 39z
M299 33q49 0 75 40t26 115q0 102 -33 180.5t-89 78.5q-30 0 -52.5 -21.5t-27.5 -55.5l-1 -215q4 -48 34.5 -85t67.5 -37z" />
    <glyph glyph-name="ydieresis" unicode="&#xff;" horiz-adv-x="548" 
d="M184 555q-40 0 -65 22.5t-25 57.5t25 57.5t65 22.5q39 0 63.5 -22.5t24.5 -57.5t-24.5 -57.5t-63.5 -22.5zM414 555q-40 0 -64.5 22.5t-24.5 57.5t24.5 57.5t64.5 22.5q39 0 64 -22.5t25 -57.5t-25 -57.5t-64 -22.5zM531 480q20 0 20 -16v-5q0 -13 -20.5 -35t-30.5 -43
l-189 -411q-13 -29 -22 -47t-27.5 -47.5t-36.5 -46.5t-45 -30t-56 -13q-64 0 -105.5 33t-41.5 74q0 27 16 43.5t44 16.5t44 -18.5t21 -41.5t15.5 -41.5t27.5 -18.5q46 0 103 140l-199 408q-11 22 -32.5 43.5t-21.5 34.5v5q0 16 21 16h187q19 0 19 -17v-4q0 -9 -9 -20.5
t-12 -21.5t6 -38l117 -271l108 257q10 34 0 47t-27 25.5t-17 21.5v4q0 17 21 17h122z" />
    <glyph glyph-name="Amacron" unicode="&#x100;" horiz-adv-x="694" 
d="M190 797q-22 0 -22 21v50q0 21 22 21h276q22 0 22 -21v-50q0 -21 -22 -21h-276zM644 96q10 -24 32.5 -44t22.5 -32v-3q0 -17 -22 -17h-219q-22 0 -22 17v3q0 10 13.5 20.5t23.5 24t3 31.5l-30 80h-279l-29 -80q-7 -18 3 -31.5t23.5 -24t13.5 -20.5v-3q0 -17 -23 -17h-131
q-22 0 -22 17v3q0 12 22 31.5t32 44.5l199 511q8 21 -13.5 49t-21.5 34v4q0 16 20 16h104q42 0 61 -43zM191 241h231l-117 311z" />
    <glyph glyph-name="amacron" unicode="&#x101;" horiz-adv-x="536" 
d="M106 586q-22 0 -22 21v50q0 21 22 21h276q22 0 22 -21v-50q0 -21 -22 -21h-276zM483 100q3 -23 11.5 -37t17.5 -17.5t16 -8.5t7 -14q0 -29 -96 -29q-44 0 -64.5 11.5t-24.5 42.5q-39 -58 -133 -58q-84 0 -136 39t-52 112q-1 72 51 112t130 40q66 0 109 -30l-1 12
q-10 95 -28 134t-61 39q-27 0 -44 -20t-24 -44t-23 -44t-41 -20q-27 0 -43.5 15.5t-16.5 40.5q0 52 55.5 83t136.5 31q97 0 159 -55t73 -150zM261 34q33 0 53 27.5t18 62.5l-3 35q-4 43 -25.5 66t-53.5 23t-52.5 -23t-20.5 -61q0 -54 23.5 -92t60.5 -38z" />
    <glyph glyph-name="Abreve" unicode="&#x102;" horiz-adv-x="694" 
d="M328 764q-68 0 -114 38.5t-54 94.5q-3 21 20 27t31 -9q12 -26 44.5 -42t72.5 -16q41 0 73.5 15.5t44.5 42.5q7 13 30 7t21 -25q-8 -56 -53.5 -94.5t-115.5 -38.5zM644 96q10 -24 32.5 -44t22.5 -32v-3q0 -17 -22 -17h-219q-22 0 -22 17v3q0 10 13.5 20.5t23.5 24t3 31.5
l-30 80h-279l-29 -80q-7 -18 3 -31.5t23.5 -24t13.5 -20.5v-3q0 -17 -23 -17h-131q-22 0 -22 17v3q0 12 22 31.5t32 44.5l199 511q8 21 -13.5 49t-21.5 34v4q0 16 20 16h104q42 0 61 -43zM191 241h231l-117 311z" />
    <glyph glyph-name="abreve" unicode="&#x103;" horiz-adv-x="536" 
d="M243 551q-68 0 -114 38.5t-54 94.5q-3 21 20 27t31 -8q12 -27 44.5 -43t72.5 -16q41 0 73.5 16t44.5 43q8 12 30.5 6t20.5 -25q-7 -56 -53 -94.5t-116 -38.5zM483 100q3 -23 11.5 -37t17.5 -17.5t16 -8.5t7 -14q0 -29 -96 -29q-44 0 -64.5 11.5t-24.5 42.5
q-39 -58 -133 -58q-84 0 -136 39t-52 112q-1 72 51 112t130 40q66 0 109 -30l-1 12q-10 95 -28 134t-61 39q-27 0 -44 -20t-24 -44t-23 -44t-41 -20q-27 0 -43.5 15.5t-16.5 40.5q0 52 55.5 83t136.5 31q97 0 159 -55t73 -150zM261 34q33 0 53 27.5t18 62.5l-3 35
q-4 43 -25.5 66t-53.5 23t-52.5 -23t-20.5 -61q0 -54 23.5 -92t60.5 -38z" />
    <glyph glyph-name="Aogonek" unicode="&#x104;" horiz-adv-x="694" 
d="M644 96q10 -24 32.5 -44t22.5 -32v-3q0 -17 -22 -17h-67q-57 -66 -57 -118q-1 -47 32 -47q5 0 21 4q19 7 25 -15q6 -25 -13 -38q-3 -1 -5 -2q-20 -9 -53 -9q-44 0 -77.5 21.5t-33.5 66.5q0 74 109 137h-100q-22 0 -22 17v3q0 10 13.5 20.5t23.5 24t3 31.5l-30 80h-279
l-29 -80q-7 -18 3 -31.5t23.5 -24t13.5 -20.5v-3q0 -17 -23 -17h-131q-22 0 -22 17v3q0 12 22 31.5t32 44.5l199 511q8 21 -13.5 49t-21.5 34v4q0 16 20 16h104q42 0 61 -43zM191 241h231l-117 311z" />
    <glyph glyph-name="aogonek" unicode="&#x105;" horiz-adv-x="536" 
d="M478 -4q-46 -60 -46 -105q-1 -46 32 -46q10 0 21 4q19 7 25 -16q6 -24 -14 -37l-5 -2q-17 -10 -52 -10q-45 0 -78.5 21.5t-33.5 66.5q0 67 86 123q-30 3 -44.5 15t-18.5 38q-39 -58 -133 -58q-84 0 -136 39t-52 112q-1 72 51 112t130 40q66 0 109 -30l-1 12
q-10 95 -28 134t-61 39q-27 0 -44 -20t-24 -44t-23 -44t-41 -20q-27 0 -43.5 15.5t-16.5 40.5q0 52 55.5 83t136.5 31q97 0 159 -55t73 -150l22 -185q3 -23 11.5 -37t17.5 -17.5t16 -8.5t7 -14q0 -22 -57 -27zM261 34q33 0 53 27.5t18 62.5l-3 35q-4 43 -25.5 66t-53.5 23
t-52.5 -23t-20.5 -61q0 -54 23.5 -92t60.5 -38z" />
    <glyph glyph-name="Cacute" unicode="&#x106;" horiz-adv-x="672" 
d="M258 777q-24 -3 -34 16q-8 23 13 34l194 98q18 9 31 3.5t18 -23.5l16 -59q5 -17 -2.5 -29t-25.5 -13zM366 -10q-139 0 -239.5 113.5t-100.5 260.5q0 155 92.5 255t239.5 100q115 0 200 -58.5t85 -130.5q0 -30 -19 -48.5t-52 -18.5q-30 0 -53 20t-40 48.5t-35.5 57.5
t-48.5 49t-69 20q-63 0 -108 -56.5t-45 -147.5q0 -143 71.5 -236t166.5 -93q118 0 189 126q12 17 31 11.5t17 -27.5q-9 -103 -82 -174t-200 -71z" />
    <glyph glyph-name="cacute" unicode="&#x107;" horiz-adv-x="506" 
d="M172 550q-25 -7 -36 11q-13 20 6 35l173 132q34 26 52 -11l27 -55q8 -15 2.5 -29t-22.5 -18zM279 -10q-111 0 -184.5 74t-73.5 177q0 112 73.5 180t178.5 69q86 1 146.5 -40t60.5 -100q0 -22 -15 -36.5t-47 -13.5q-24 1 -42 17t-29.5 37t-23.5 42t-30 35.5t-42 14.5
q-42 0 -67.5 -38t-25.5 -95q0 -100 46.5 -160t123.5 -60q79 0 120 70q6 8 14.5 9.5t15 -4t5.5 -15.5q-5 -67 -58.5 -115t-145.5 -48z" />
    <glyph glyph-name="Cdotaccent" unicode="&#x10a;" horiz-adv-x="672" 
d="M343 760q-42 0 -67.5 23.5t-25.5 59.5q0 35 26 58t67 23q40 0 65.5 -23t25.5 -58q0 -36 -25.5 -59.5t-65.5 -23.5zM366 -10q-139 0 -239.5 113.5t-100.5 260.5q0 155 92.5 255t239.5 100q115 0 200 -58.5t85 -130.5q0 -30 -19 -48.5t-52 -18.5q-30 0 -53 20t-40 48.5
t-35.5 57.5t-48.5 49t-69 20q-63 0 -108 -56.5t-45 -147.5q0 -143 71.5 -236t166.5 -93q118 0 189 126q12 17 31 11.5t17 -27.5q-9 -103 -82 -174t-200 -71z" />
    <glyph glyph-name="cdotaccent" unicode="&#x10b;" horiz-adv-x="506" 
d="M258 551q-44 0 -71.5 24.5t-27.5 63.5q0 38 27.5 62.5t71.5 24.5t71 -24.5t27 -62.5q0 -39 -27 -63.5t-71 -24.5zM279 -10q-111 0 -184.5 74t-73.5 177q0 112 73.5 180t178.5 69q86 1 146.5 -40t60.5 -100q0 -22 -15 -36.5t-47 -13.5q-24 1 -42 17t-29.5 37t-23.5 42
t-30 35.5t-42 14.5q-42 0 -67.5 -38t-25.5 -95q0 -100 46.5 -160t123.5 -60q79 0 120 70q6 8 14.5 9.5t15 -4t5.5 -15.5q-5 -67 -58.5 -115t-145.5 -48z" />
    <glyph glyph-name="Ccaron" unicode="&#x10c;" horiz-adv-x="672" 
d="M305 766l-110 105q-13 14 2 28.5t31 6.5l139 -72l137 72q10 6 22 0t15 -16t-4 -19l-115 -105q-20 -17 -42 -17h-33q-24 0 -42 17zM600 251q12 17 31 11.5t17 -27.5q-9 -103 -82 -174t-200 -71q-139 0 -239.5 113.5t-100.5 260.5q0 155 92.5 255t239.5 100
q115 0 200 -58.5t85 -130.5q0 -30 -19 -48.5t-52 -18.5q-30 0 -53 20t-40 48.5t-35.5 57.5t-48.5 49t-69 20q-63 0 -108 -56.5t-45 -147.5q0 -143 71.5 -236t166.5 -93q118 0 189 126z" />
    <glyph glyph-name="ccaron" unicode="&#x10d;" horiz-adv-x="506" 
d="M198 566l-109 110q-14 14 1.5 30t30.5 7l140 -76l136 76q16 10 31 -7t2 -30l-115 -111q-17 -17 -42 -17h-33q-24 0 -42 18zM448 163q6 8 14.5 9.5t15 -4t5.5 -15.5q-5 -67 -58.5 -115t-145.5 -48q-111 0 -184.5 74t-73.5 177q0 112 73.5 180t178.5 69q86 1 146.5 -40
t60.5 -100q0 -22 -15 -36.5t-47 -13.5q-24 1 -42 17t-29.5 37t-23.5 42t-30 35.5t-42 14.5q-42 0 -67.5 -38t-25.5 -95q0 -100 46.5 -160t123.5 -60q79 0 120 70z" />
    <glyph glyph-name="Dcaron" unicode="&#x10e;" horiz-adv-x="760" 
d="M292 765l-109 105q-14 14 1.5 28.5t31.5 6.5l139 -72l137 72q10 6 21.5 0t14.5 -16t-4 -19l-115 -105q-17 -17 -41 -17h-34q-24 0 -42 17zM298 710q196 0 314 -100t118 -256q0 -160 -106.5 -257t-278.5 -97h-275q-23 0 -23 17v3q0 10 19.5 31.5t19.5 44.5v518
q0 23 -19.5 44.5t-19.5 31.5v4q0 16 23 16h228zM360 61q94 0 153.5 61t59.5 168q0 149 -80.5 254t-198.5 105h-19q-40 0 -40 -42v-460q0 -41 19.5 -63.5t54.5 -22.5h51z" />
    <glyph glyph-name="dcaron" unicode="&#x10f;" horiz-adv-x="601" 
d="M693 799q25 0 25 -26q0 -74 -31.5 -133t-79.5 -92q-21 -12 -36 -2l-9 6q-16 12 -1 31q53 70 53 190q0 10 6.5 18t15.5 8h57zM520 731v-635q0 -23 20 -44.5t20 -31.5v-3q0 -17 -20 -17h-124q-23 0 -23 22l-2 22q-46 -54 -130 -54q-97 0 -166 67.5t-69 183.5q0 109 69 179
t167 70q70 0 117 -39v160q0 20 -12.5 33t-25 22t-12.5 19v3q0 17 21 23l131 40q39 13 39 -20zM294 33q34 0 59.5 28.5t25.5 78.5v176q0 49 -33 90t-76 41q-46 0 -73 -38.5t-28 -108.5q-2 -57 11.5 -117t44 -104.5t69.5 -45.5z" />
    <glyph glyph-name="Dcroat" unicode="&#x110;" horiz-adv-x="763" 
d="M301 710q196 0 314 -100t118 -256q0 -160 -106.5 -257t-278.5 -97h-275q-23 0 -23 17v3q0 10 19.5 31.5t19.5 44.5v237h-48q-16 0 -16 15v27q0 16 16 16h48v223q0 23 -19.5 44.5t-19.5 31.5v4q0 16 23 16h228zM363 61q94 0 153.5 61t59.5 168q0 149 -80.5 254t-198.5 105
h-19q-40 0 -40 -42v-216h109q17 0 17 -16v-25q0 -17 -17 -17h-109v-186q0 -41 19.5 -63.5t54.5 -22.5h51z" />
    <glyph glyph-name="dcroat" unicode="&#x111;" horiz-adv-x="583" 
d="M581 589q17 0 17 -16v-25q0 -17 -17 -17h-61v-435q0 -23 20 -44.5t20 -31.5v-3q0 -17 -20 -17h-124q-23 0 -23 22l-2 22q-46 -54 -130 -54q-97 0 -166 67.5t-69 183.5q0 109 69 179t167 70q70 0 117 -39v80h-104q-16 0 -16 15v27q0 16 16 16h104v22q0 20 -12.5 33t-25 22
t-12.5 19v3q0 17 21 23l131 40q39 13 39 -20v-142h61zM294 33q34 0 59.5 28.5t25.5 78.5v176q0 49 -33 90t-76 41q-46 0 -73 -38.5t-28 -108.5q-2 -57 11.5 -117t44 -104.5t69.5 -45.5z" />
    <glyph glyph-name="Emacron" unicode="&#x112;" horiz-adv-x="615" 
d="M167 797q-23 0 -23 21v50q0 21 23 21h275q22 0 22 -21v-50q0 -21 -22 -21h-275zM70 0q-23 0 -23 17v3q0 10 19.5 31.5t19.5 45.5v516q0 25 -19.5 46t-19.5 31v4q0 16 22 16h446q27 0 31 -28l24 -117q5 -26 -20 -26h-6q-15 0 -32.5 17.5t-31 38t-34 38t-42.5 17.5h-128
q-40 0 -40 -43v-215h129q17 0 29.5 11.5t18.5 25t14.5 25t16.5 11.5h8q17 0 17 -21v-161q0 -21 -17 -21h-8q-8 0 -16.5 11t-14.5 23.5t-18.5 23.5t-29.5 11h-129l-1 -209q0 -25 13 -43.5t40 -18.5h147q22 0 41.5 18t31 40t28.5 40t34 18h8q10 0 15 -8t3 -18l-22 -121
q-6 -29 -32 -29h-472z" />
    <glyph glyph-name="emacron" unicode="&#x113;" horiz-adv-x="491" 
d="M111 586q-22 0 -22 21v50q0 21 22 21h276q22 0 22 -21v-50q0 -21 -22 -21h-276zM437 152q9 12 22 8t12 -19q-5 -52 -60 -101.5t-143 -49.5q-106 0 -174 70t-68 184q0 107 71 176.5t171 69.5q91 0 140 -43t49 -99q0 -46 -44 -66l-222 -101q41 -87 132 -87q38 0 68.5 16.5
t45.5 41.5zM250 446q-39 0 -62 -37.5t-23 -95.5q0 -49 10 -86l129 65q26 13 26 47t-22 70.5t-58 36.5z" />
    <glyph glyph-name="Edotaccent" unicode="&#x116;" horiz-adv-x="615" 
d="M312 760q-42 0 -67.5 23.5t-25.5 59.5q0 35 26 58t67 23q40 0 65.5 -23t25.5 -58q0 -36 -25.5 -59.5t-65.5 -23.5zM70 0q-23 0 -23 17v3q0 10 19.5 31.5t19.5 45.5v516q0 25 -19.5 46t-19.5 31v4q0 16 22 16h446q27 0 31 -28l24 -117q5 -26 -20 -26h-6q-15 0 -32.5 17.5
t-31 38t-34 38t-42.5 17.5h-128q-40 0 -40 -43v-215h129q17 0 29.5 11.5t18.5 25t14.5 25t16.5 11.5h8q17 0 17 -21v-161q0 -21 -17 -21h-8q-8 0 -16.5 11t-14.5 23.5t-18.5 23.5t-29.5 11h-129l-1 -209q0 -25 13 -43.5t40 -18.5h147q22 0 41.5 18t31 40t28.5 40t34 18h8
q10 0 15 -8t3 -18l-22 -121q-6 -29 -32 -29h-472z" />
    <glyph glyph-name="edotaccent" unicode="&#x117;" horiz-adv-x="491" 
d="M249 551q-44 0 -71.5 24.5t-27.5 63.5q0 38 27.5 62.5t71.5 24.5t70.5 -24.5t26.5 -62.5q0 -39 -26.5 -63.5t-70.5 -24.5zM437 152q9 12 22 8t12 -19q-5 -52 -60 -101.5t-143 -49.5q-106 0 -174 70t-68 184q0 107 71 176.5t171 69.5q91 0 140 -43t49 -99q0 -46 -44 -66
l-222 -101q41 -87 132 -87q38 0 68.5 16.5t45.5 41.5zM250 446q-39 0 -62 -37.5t-23 -95.5q0 -49 10 -86l129 65q26 13 26 47t-22 70.5t-58 36.5z" />
    <glyph glyph-name="Eogonek" unicode="&#x118;" horiz-adv-x="615" 
d="M559 4q-56 -65 -56 -117q-1 -47 32 -47q8 0 21 5q19 7 25 -15q6 -25 -12 -38q-3 -2 -6 -3q-20 -9 -53 -9q-45 0 -78.5 21.5t-33.5 66.5q0 70 101 132h-429q-23 0 -23 17v3q0 10 19.5 31.5t19.5 45.5v516q0 25 -19.5 46t-19.5 31v4q0 16 22 16h446q27 0 31 -28l24 -117
q5 -26 -20 -26h-6q-15 0 -32.5 17.5t-31 38t-34 38t-42.5 17.5h-128q-40 0 -40 -43v-215h129q17 0 29.5 11.5t18.5 25t14.5 25t16.5 11.5h8q17 0 17 -21v-161q0 -21 -17 -21h-8q-8 0 -16.5 11t-14.5 23.5t-18.5 23.5t-29.5 11h-129l-1 -209q0 -25 13 -43.5t40 -18.5h147
q22 0 41.5 18t31 40t28.5 40t34 18h8q10 0 15 -8t3 -18l-22 -121q-5 -20 -15 -25z" />
    <glyph glyph-name="eogonek" unicode="&#x119;" horiz-adv-x="491" 
d="M437 152q9 12 22 8t12 -19q-3 -30 -26 -64t-62 -57q-58 -68 -58 -118q0 -46 32 -46q10 0 21 4q19 7 25 -16q7 -25 -13 -37l-5 -2q-17 -10 -53 -10q-44 0 -77.5 22t-33.5 66q0 57 65 108q-6 -1 -18 -1q-106 0 -174 70t-68 184q0 107 71 176.5t171 69.5q91 0 140 -43
t49 -99q0 -46 -44 -66l-222 -101q41 -87 132 -87q38 0 68.5 16.5t45.5 41.5zM250 446q-39 0 -62 -37.5t-23 -95.5q0 -49 10 -86l129 65q26 13 26 47t-22 70.5t-58 36.5z" />
    <glyph glyph-name="Ecaron" unicode="&#x11a;" horiz-adv-x="615" 
d="M244 765l-109 105q-14 14 1.5 28.5t30.5 6.5l140 -72l136 72q10 6 22 0t15 -16t-4 -19l-115 -105q-17 -17 -42 -17h-33q-24 0 -42 17zM578 176q10 0 15 -8t3 -18l-22 -121q-6 -29 -32 -29h-472q-23 0 -23 17v3q0 10 19.5 31.5t19.5 45.5v516q0 25 -19.5 46t-19.5 31v4
q0 16 22 16h446q27 0 31 -28l24 -117q5 -26 -20 -26h-6q-15 0 -32.5 17.5t-31 38t-34 38t-42.5 17.5h-128q-40 0 -40 -43v-215h129q17 0 29.5 11.5t18.5 25t14.5 25t16.5 11.5h8q17 0 17 -21v-161q0 -21 -17 -21h-8q-8 0 -16.5 11t-14.5 23.5t-18.5 23.5t-29.5 11h-129
l-1 -209q0 -25 13 -43.5t40 -18.5h147q22 0 41.5 18t31 40t28.5 40t34 18h8z" />
    <glyph glyph-name="ecaron" unicode="&#x11b;" horiz-adv-x="491" 
d="M189 566l-109 110q-14 14 1.5 30t30.5 7l140 -76l136 76q16 10 31 -7t2 -30l-115 -111q-17 -17 -42 -17h-33q-25 0 -42 18zM437 152q9 12 22 8t12 -19q-5 -52 -60 -101.5t-143 -49.5q-106 0 -174 70t-68 184q0 107 71 176.5t171 69.5q91 0 140 -43t49 -99q0 -46 -44 -66
l-222 -101q41 -87 132 -87q38 0 68.5 16.5t45.5 41.5zM250 446q-39 0 -62 -37.5t-23 -95.5q0 -49 10 -86l129 65q26 13 26 47t-22 70.5t-58 36.5z" />
    <glyph glyph-name="Gbreve" unicode="&#x11e;" horiz-adv-x="719" 
d="M376 764q-68 0 -114 38.5t-54 94.5q-3 21 20 27t31 -9q12 -26 44.5 -42t72.5 -16q41 0 73.5 15.5t44.5 42.5q8 13 30.5 7t20.5 -25q-7 -56 -53 -94.5t-116 -38.5zM386 -10q-151 0 -254 108.5t-103 255.5q0 163 99 264t238 101q123 0 205.5 -56t82.5 -128q0 -31 -18.5 -50
t-49.5 -19q-30 0 -55.5 20t-44.5 48t-39.5 56t-51 48t-68.5 20q-65 0 -108 -59t-43 -148q0 -150 72.5 -255t172.5 -105q52 0 90 20v147q0 15 -9.5 27.5t-20.5 18.5t-20.5 14t-9.5 16v4q0 18 25 18l205 -1q23 0 23 -17v-4q0 -10 -13 -19.5t-26 -23.5t-13 -34v-128
q0 -37 -37 -66q-90 -73 -229 -73z" />
    <glyph glyph-name="gbreve" unicode="&#x11f;" horiz-adv-x="547" 
d="M281 548q-68 0 -114 38.5t-54 94.5q-3 21 20 27t31 -8q11 -27 44 -43t73 -16q41 0 73.5 16t44.5 43q7 13 30 6.5t21 -25.5q-8 -56 -53.5 -94.5t-115.5 -38.5zM464 480q38 0 50.5 -7.5t7.5 -22.5q-3 -15 -13 -21.5t-34 -10.5t-29 -6q56 -58 56 -128q0 -58 -29.5 -103.5
t-82.5 -70.5q120 -27 120 -114q0 -63 -71.5 -101.5t-179.5 -38.5t-170.5 39t-62.5 99q0 23 15 39.5t44 16.5q27 0 46 -23.5t29.5 -52t36.5 -52t65 -24.5q46 0 73.5 26t27.5 68q0 79 -62 92q-26 -2 -39 -2q-101 0 -167.5 56.5t-66.5 141.5q0 94 66 152t171 58q27 0 85 -5
t114 -5zM169 346q0 -82 34.5 -150.5t80.5 -68.5q35 0 55.5 27.5t20.5 72.5q0 49 -14 99t-42 85t-61 35q-34 0 -54 -27t-20 -73z" />
    <glyph glyph-name="Gdotaccent" unicode="&#x120;" horiz-adv-x="719" 
d="M383 760q-41 0 -66.5 23.5t-25.5 59.5q0 35 25.5 58t66.5 23t66 -23t25 -58q0 -36 -25 -59.5t-66 -23.5zM386 -10q-151 0 -254 108.5t-103 255.5q0 163 99 264t238 101q123 0 205.5 -56t82.5 -128q0 -31 -18.5 -50t-49.5 -19q-30 0 -55.5 20t-44.5 48t-39.5 56t-51 48
t-68.5 20q-65 0 -108 -59t-43 -148q0 -150 72.5 -255t172.5 -105q52 0 90 20v147q0 15 -9.5 27.5t-20.5 18.5t-20.5 14t-9.5 16v4q0 18 25 18l205 -1q23 0 23 -17v-4q0 -10 -13 -19.5t-26 -23.5t-13 -34v-128q0 -37 -37 -66q-90 -73 -229 -73z" />
    <glyph glyph-name="gdotaccent" unicode="&#x121;" horiz-adv-x="547" 
d="M281 548q-44 0 -71 24.5t-27 63.5q0 37 27 62t71 25t71 -25t27 -62q0 -39 -27 -63.5t-71 -24.5zM464 480q38 0 50.5 -7.5t7.5 -22.5q-3 -15 -13 -21.5t-34 -10.5t-29 -6q56 -58 56 -128q0 -58 -29.5 -103.5t-82.5 -70.5q120 -27 120 -114q0 -63 -71.5 -101.5
t-179.5 -38.5t-170.5 39t-62.5 99q0 23 15 39.5t44 16.5q27 0 46 -23.5t29.5 -52t36.5 -52t65 -24.5q46 0 73.5 26t27.5 68q0 79 -62 92q-26 -2 -39 -2q-101 0 -167.5 56.5t-66.5 141.5q0 94 66 152t171 58q27 0 85 -5t114 -5zM169 346q0 -82 34.5 -150.5t80.5 -68.5
q35 0 55.5 27.5t20.5 72.5q0 49 -14 99t-42 85t-61 35q-34 0 -54 -27t-20 -73z" />
    <glyph glyph-name="uni0122" unicode="&#x122;" horiz-adv-x="719" 
d="M386 -10q-151 0 -254 108.5t-103 255.5q0 163 99 264t238 101q123 0 205.5 -56t82.5 -128q0 -31 -18.5 -50t-49.5 -19q-30 0 -55.5 20t-44.5 48t-39.5 56t-51 48t-68.5 20q-65 0 -108 -59t-43 -148q0 -150 72.5 -255t172.5 -105q52 0 90 20v147q0 15 -9.5 27.5
t-20.5 18.5t-20.5 14t-9.5 16v4q0 18 25 18l205 -1q23 0 23 -17v-4q0 -10 -13 -19.5t-26 -23.5t-13 -34v-128q0 -37 -37 -66q-90 -73 -229 -73zM346 -320q-14 -8 -25 4t0 23q47 47 51 79q3 17 -10 17q-24 0 -41.5 21.5t-17.5 53.5q0 37 22 60.5t58 23.5q35 0 59 -26t24 -70
q0 -110 -120 -186z" />
    <glyph glyph-name="uni0123" unicode="&#x123;" horiz-adv-x="547" 
d="M267 543q-36 0 -61 27t-25 72q0 114 125 193q14 8 25.5 -4.5t-0.5 -23.5q-27 -28 -38.5 -45t-14.5 -37q-2 -18 11 -18q25 0 42.5 -22t17.5 -55q0 -39 -22 -63t-60 -24zM464 480q38 0 50.5 -7.5t7.5 -22.5q-3 -15 -13 -21.5t-34 -10.5t-29 -6q56 -58 56 -128
q0 -58 -29.5 -103.5t-82.5 -70.5q120 -27 120 -114q0 -63 -71.5 -101.5t-179.5 -38.5t-170.5 39t-62.5 99q0 23 15 39.5t44 16.5q27 0 46 -23.5t29.5 -52t36.5 -52t65 -24.5q46 0 73.5 26t27.5 68q0 79 -62 92q-26 -2 -39 -2q-101 0 -167.5 56.5t-66.5 141.5q0 94 66 152
t171 58q27 0 85 -5t114 -5zM169 346q0 -82 34.5 -150.5t80.5 -68.5q35 0 55.5 27.5t20.5 72.5q0 49 -14 99t-42 85t-61 35q-34 0 -54 -27t-20 -73z" />
    <glyph glyph-name="Hbar" unicode="&#x126;" horiz-adv-x="790" 
d="M750 565q23 0 23 -18v-22q0 -17 -23 -17h-52v-412q0 -23 21 -44.5t21 -31.5v-3q0 -17 -23 -17h-187q-22 0 -22 17v3q0 10 19 31.5t19 44.5v230h-305l-1 -230q0 -23 21 -44.5t21 -31.5v-3q0 -17 -23 -17h-187q-22 0 -22 17v3q0 10 19 31.5t19 44.5v412h-51q-21 0 -21 17
v22q0 18 21 18h51v49q0 23 -19 44.5t-19 31.5v4q0 16 22 16h187q23 0 23 -16v-4q0 -10 -20.5 -31.5t-20.5 -44.5v-49h305v49q0 23 -19 44.5t-19 31.5v4q0 16 22 16h187q23 0 23 -16v-4q0 -10 -21 -31.5t-21 -44.5v-49h52zM546 392v116h-305l-1 -116h306z" />
    <glyph glyph-name="hbar" unicode="&#x127;" horiz-adv-x="594" 
d="M541 98q2 -24 19 -45t17 -32v-4q0 -17 -22 -17h-174q-22 0 -22 17v4q0 10 18.5 31t17.5 45l-10 192q-7 144 -87 144q-40 0 -62.5 -30t-22.5 -80v-227q0 -23 21.5 -44t21.5 -31v-4q0 -17 -24 -17h-185q-23 0 -23 17v4q0 10 21 31t21 44v432h-55q-16 0 -16 15v28
q0 15 16 15h55v8q0 24 -22.5 43t-22.5 29v3q0 15 20 25l132 58q17 7 26.5 2t9.5 -20v-148h108q17 0 17 -15v-25q0 -18 -17 -18h-109v-94q47 56 131 56q76 0 129 -49.5t60 -155.5z" />
    <glyph glyph-name="Itilde" unicode="&#x128;" horiz-adv-x="326" 
d="M102 905q37 0 88 -25.5t69 -25.5q32 0 46 25q8 14 22 14h7q20 0 15 -21q-12 -51 -40.5 -80.5t-68.5 -29.5q-33 0 -84.5 26t-74.5 26q-26 0 -43 -23q-10 -14 -14 -16q-4 -1 -9 -1h-10q-19 0 -14 21q9 47 38.5 78.5t72.5 31.5zM48 17v3q0 10 19 31t19 45v518q0 23 -19 44.5
t-19 31.5v4q0 16 22 16h187q22 0 22 -16v-4q0 -10 -21 -31.5t-21 -44.5v-518q0 -24 21 -45t21 -31v-3q0 -17 -22 -17h-187q-22 0 -22 17z" />
    <glyph glyph-name="itilde" unicode="&#x129;" horiz-adv-x="288" 
d="M79 719q38 0 88.5 -25.5t68.5 -25.5q32 0 46 25q8 14 22 14h8q19 0 14 -21q-12 -51 -40.5 -80.5t-68.5 -29.5q-33 0 -84.5 26t-74.5 26q-25 0 -42 -23q-1 -2 -3 -4.5t-3 -4t-2.5 -3t-3 -2.5t-3 -1.5t-3.5 -1t-5 -0.5h-11q-17 0 -14 21q9 47 38.5 78.5t72.5 31.5zM55 0
q-22 0 -22 17v4q0 10 19 31t19 45v226q0 25 -19 47t-19 30v3q0 10 21 21l125 62q19 8 30 1.5t11 -21.5v-369q0 -24 21 -45t21 -31v-4q0 -17 -23 -17h-184z" />
    <glyph glyph-name="Imacron" unicode="&#x12a;" horiz-adv-x="326" 
d="M25 797q-22 0 -22 21v50q0 21 22 21h276q22 0 22 -21v-50q0 -21 -22 -21h-276zM48 17v3q0 10 19 31t19 45v518q0 23 -19 44.5t-19 31.5v4q0 16 22 16h187q22 0 22 -16v-4q0 -10 -21 -31.5t-21 -44.5v-518q0 -24 21 -45t21 -31v-3q0 -17 -22 -17h-187q-22 0 -22 17z" />
    <glyph glyph-name="imacron" unicode="&#x12b;" horiz-adv-x="288" 
d="M12 586q-22 0 -22 21v50q0 21 22 21h276q22 0 22 -21v-50q0 -21 -22 -21h-276zM55 0q-22 0 -22 17v4q0 10 19 31t19 45v226q0 25 -19 47t-19 30v3q0 10 21 21l125 62q19 8 30 1.5t11 -21.5v-369q0 -24 21 -45t21 -31v-4q0 -17 -23 -17h-184z" />
    <glyph glyph-name="Iogonek" unicode="&#x12e;" horiz-adv-x="326" 
d="M279 690q0 -10 -21 -31.5t-21 -44.5v-518q0 -24 21 -45t21 -31v-3q0 -17 -22 -17h-64q-54 -64 -54 -113q0 -47 32 -47q8 0 21 5q19 7 25 -15q7 -25 -12 -38q-3 -2 -6 -3q-18 -9 -53 -9q-44 0 -77.5 21.5t-33.5 66.5q0 70 101 132h-66q-22 0 -22 17v3q0 10 19 31t19 45
v518q0 23 -19 44.5t-19 31.5v4q0 16 22 16h187q22 0 22 -16v-4z" />
    <glyph glyph-name="iogonek" unicode="&#x12f;" horiz-adv-x="288" 
d="M146 551q-44 0 -71.5 24.5t-27.5 63.5q0 38 27.5 62.5t71.5 24.5t70.5 -24.5t26.5 -62.5q0 -39 -26.5 -63.5t-70.5 -24.5zM220 97q0 -24 21 -45t21 -31v-4q0 -17 -23 -17h-40q-53 -64 -53 -113q0 -46 32 -46q10 0 21 4q19 7 25 -16q6 -24 -13 -37l-5 -2q-18 -10 -53 -10
q-44 0 -77.5 22t-33.5 66q0 72 101 132h-88q-22 0 -22 17v4q0 10 19 31t19 45v226q0 25 -19 47t-19 30v3q0 10 21 21l125 62q19 8 30 1.5t11 -21.5v-369z" />
    <glyph glyph-name="Idotaccent" unicode="&#x130;" horiz-adv-x="326" 
d="M170 760q-42 0 -67.5 23.5t-25.5 59.5q0 35 26 58t67 23q40 0 65.5 -23t25.5 -58q0 -36 -25.5 -59.5t-65.5 -23.5zM48 17v3q0 10 19 31t19 45v518q0 23 -19 44.5t-19 31.5v4q0 16 22 16h187q22 0 22 -16v-4q0 -10 -21 -31.5t-21 -44.5v-518q0 -24 21 -45t21 -31v-3
q0 -17 -22 -17h-187q-22 0 -22 17z" />
    <glyph glyph-name="dotlessi" unicode="&#x131;" horiz-adv-x="286" 
d="M55 0q-22 0 -22 17v4q0 10 19 31t19 45v226q0 25 -19 47t-19 30v3q0 10 21 21l125 62q19 8 30 1.5t11 -21.5v-369q0 -24 21 -45t21 -31v-4q0 -17 -23 -17h-184z" />
    <glyph glyph-name="IJ" unicode="&#x132;" horiz-adv-x="866" 
d="M48 17v3q0 10 19 31t19 45v518q0 23 -19 44.5t-19 31.5v4q0 16 22 16h187q22 0 22 -16v-4q0 -10 -21 -31.5t-21 -44.5v-518q0 -24 21 -45t21 -31v-3q0 -17 -22 -17h-187q-22 0 -22 17zM638 614q0 23 -19.5 44.5t-19.5 31.5v4q0 16 23 16h188q23 0 23 -16v-4
q0 -10 -21 -31.5t-21 -44.5l-1 -317q-1 -162 -62 -234t-176 -73q-64 0 -111.5 17t-72.5 45t-36.5 56.5t-11.5 56.5q0 33 19 53.5t50 20.5q32 0 51 -19.5t27 -47l16 -55t26.5 -47t50.5 -19.5q37 0 57.5 42.5t20.5 115.5v405z" />
    <glyph glyph-name="ij" unicode="&#x133;" horiz-adv-x="563" 
d="M146 551q-44 0 -71.5 24.5t-27.5 63.5q0 38 27.5 62.5t71.5 24.5t70.5 -24.5t26.5 -62.5q0 -39 -26.5 -63.5t-70.5 -24.5zM427 551q-45 0 -72 24.5t-27 63.5q0 38 27.5 62.5t71.5 24.5q43 0 70 -24.5t27 -62.5q0 -39 -27 -63.5t-70 -24.5zM55 0q-22 0 -22 17v4
q0 10 19 31t19 45v226q0 25 -19 47t-19 30v3q0 10 21 21l125 62q19 8 30 1.5t11 -21.5v-369q0 -24 21 -45t21 -31v-4q0 -17 -23 -17h-184zM346 -194q-65 0 -104 25.5t-39 72.5q0 27 18 44t45 17q30 0 46 -17t19.5 -38t14 -38t30.5 -17q18 0 29 13t11 33q0 35 -27 74.5
t-27 66.5v281q0 25 -19.5 46.5t-19.5 30.5v3q0 9 20 21l128 62q19 8 30 1.5t11 -21.5v-470q0 -73 -32 -122q-45 -68 -134 -68z" />
    <glyph glyph-name="uni0136" unicode="&#x136;" horiz-adv-x="707" 
d="M667 97q13 -22 28.5 -37t23.5 -22.5t8 -17.5v-3q0 -17 -21 -17h-212q-22 0 -22 17v3q0 9 12 21t18.5 21t-2.5 30l-161 271l-102 -103v-163q0 -24 21.5 -45.5t21.5 -31.5v-3q0 -17 -23 -17h-187q-22 0 -22 17v3q0 10 19 31.5t19 45.5v517q0 23 -19 44.5t-19 31.5v4
q0 16 22 16h187q23 0 23 -16v-4q0 -10 -21.5 -31.5t-21.5 -44.5v-262l256 261q13 12 14.5 23.5t-4 19t-12 17.5t-6.5 17v4q0 16 23 16h144q22 0 22 -16v-4q0 -10 -12.5 -20t-35.5 -25.5t-39 -31.5l-144 -145zM387 -38q35 0 59 -26t24 -70q0 -111 -121 -186q-13 -8 -24 4
t0 23q47 47 51 79q3 17 -10 17q-24 0 -41.5 21.5t-17.5 53.5q0 37 22 60.5t58 23.5z" />
    <glyph glyph-name="uni0137" unicode="&#x137;" horiz-adv-x="571" 
d="M531 75q6 -8 30 -24.5t24 -30.5v-3q0 -17 -20 -17h-186q-20 0 -20 18v2q0 10 14.5 26t5.5 29l-108 152l-59 -55v-76q0 -23 21.5 -44t21.5 -31v-4q0 -17 -23 -17h-184q-22 0 -22 17v4q0 10 19 31t19 44v492q0 26 -22.5 47t-22.5 29v4q0 12 20 20l133 62q18 8 29 2t11 -20
v-484l158 137q11 8 8.5 19t-9.5 18.5t-15 18t-8 18.5v4q0 17 20 17h143q20 0 20 -16v-4q0 -11 -12.5 -21.5t-36 -25.5t-37.5 -27l-81 -75zM289 -38q35 0 59.5 -26t24.5 -70q0 -110 -121 -186q-14 -8 -25 4t0 23q47 46 52 79q2 17 -11 17q-24 0 -41 21t-17 54q0 37 21.5 60.5
t57.5 23.5z" />
    <glyph glyph-name="kgreenlandic" unicode="&#x138;" horiz-adv-x="580" 
d="M546 75q6 -8 28.5 -24.5t22.5 -30.5v-3q0 -17 -20 -17h-183q-20 0 -20 18v2q0 10 14.5 26t5.5 29l-111 152l-59 -55v-76q0 -23 21.5 -44t21.5 -31v-4q0 -17 -23 -17h-186q-23 0 -23 17v4q0 10 19.5 31t19.5 44v329q0 25 -23 46.5t-23 29.5v3q0 11 21 21l134 62
q19 8 30 1.5t11 -20.5v-319l159 136q12 15 6 24.5t-19 25t-13 24.5v4q0 17 21 17h143q20 0 20 -16v-4q0 -11 -12.5 -21.5t-36 -25.5t-37.5 -27l-81 -75z" />
    <glyph glyph-name="Lacute" unicode="&#x139;" horiz-adv-x="597" 
d="M81 777q-25 -4 -33 16q-8 23 13 34l194 98q18 9 31 3.5t18 -23.5l16 -59q5 -17 -2.5 -29t-25.5 -13zM70 0q-22 0 -22 17v3q0 10 19 31.5t19 44.5v518q0 24 -19 44.5t-19 31.5v4q0 16 22 16h188q24 0 24 -16v-4q0 -11 -21.5 -31.5t-21.5 -44.5v-497q0 -24 10.5 -40
t31.5 -16h144q25 0 46 20.5t32.5 44.5t26 44.5t28.5 20.5h12q22 0 17 -22l-26 -140q-6 -29 -31 -29h-460z" />
    <glyph glyph-name="lacute" unicode="&#x13a;" horiz-adv-x="282" 
d="M13 794q-25 -2 -34 17q-7 21 13 34l194 98q37 18 49 -20l16 -60q5 -17 -2.5 -29t-25.5 -13zM49 0q-23 0 -23 17v4q0 10 19.5 31t19.5 44v492q0 26 -19.5 47t-19.5 29v4q0 12 20 20l126 62q20 8 30.5 2t10.5 -20v-636q0 -23 21.5 -44t21.5 -31v-4q0 -17 -23 -17h-184z" />
    <glyph glyph-name="uni013B" unicode="&#x13b;" horiz-adv-x="597" 
d="M70 0q-22 0 -22 17v3q0 10 19 31.5t19 44.5v518q0 24 -19 44.5t-19 31.5v4q0 16 22 16h188q24 0 24 -16v-4q0 -11 -21.5 -31.5t-21.5 -44.5v-497q0 -24 10.5 -40t31.5 -16h144q25 0 46 20.5t32.5 44.5t26 44.5t28.5 20.5h12q22 0 17 -22l-26 -140q-6 -29 -31 -29h-460z
M277 -320q-14 -8 -25 4t1 23q46 46 51 79q2 17 -10 17q-25 0 -42 21t-17 54q0 37 21.5 60.5t57.5 23.5q35 0 59.5 -26t24.5 -70q0 -111 -121 -186z" />
    <glyph glyph-name="uni013C" unicode="&#x13c;" horiz-adv-x="282" 
d="M49 0q-23 0 -23 17v4q0 10 19.5 31t19.5 44v492q0 26 -19.5 47t-19.5 29v4q0 12 20 20l126 62q20 8 30.5 2t10.5 -20v-636q0 -23 21.5 -44t21.5 -31v-4q0 -17 -23 -17h-184zM106 -312q-14 -8 -25 4t0 23q47 47 51 78q3 18 -10 18q-25 0 -42 21t-17 53q0 38 21.5 61
t58.5 23q35 0 59 -25.5t24 -69.5q0 -110 -120 -186z" />
    <glyph glyph-name="Lcaron" unicode="&#x13d;" horiz-adv-x="601" 
d="M384 515l-8 6q-17 11 -2 31q53 70 53 190q0 10 6.5 18t15.5 8h57q26 0 26 -26q0 -73 -32 -132.5t-80 -92.5q-20 -13 -36 -2zM70 0q-22 0 -22 17v3q0 10 19 31.5t19 44.5v518q0 24 -19 44.5t-19 31.5v4q0 16 22 16h188q24 0 24 -16v-4q0 -11 -21.5 -31.5t-21.5 -44.5v-497
q0 -24 10.5 -40t31.5 -16h144q25 0 46 20.5t32.5 44.5t26 44.5t28.5 20.5h12q22 0 17 -22l-26 -140q-6 -29 -31 -29h-460z" />
    <glyph glyph-name="lcaron" unicode="&#x13e;" horiz-adv-x="297" 
d="M263 547l-9 6q-16 12 -1 31q53 72 53 190q0 11 6 18.5t16 7.5h57q25 0 25 -26q0 -73 -31.5 -132.5t-79.5 -92.5q-21 -12 -36 -2zM49 0q-23 0 -23 17v4q0 10 19.5 31t19.5 44v492q0 26 -19.5 47t-19.5 29v4q0 12 20 20l126 62q20 8 30.5 2t10.5 -20v-636q0 -23 21.5 -44
t21.5 -31v-4q0 -17 -23 -17h-184z" />
    <glyph glyph-name="Ldot" unicode="&#x13f;" horiz-adv-x="602" 
d="M70 0q-22 0 -22 17v3q0 10 19 31.5t19 44.5v518q0 24 -19 44.5t-19 31.5v4q0 16 22 16h188q24 0 24 -16v-4q0 -11 -21.5 -31.5t-21.5 -44.5v-497q0 -24 10.5 -40t31.5 -16h144q25 0 46 20.5t32.5 44.5t26 44.5t28.5 20.5h12q22 0 17 -22l-26 -140q-6 -29 -31 -29h-460z
M446 299q-40 0 -66 21.5t-26 61.5q0 41 26 62.5t66 21.5t66 -21.5t26 -62.5q0 -40 -26 -61.5t-66 -21.5z" />
    <glyph glyph-name="ldot" unicode="&#x140;" horiz-adv-x="450" 
d="M49 0q-23 0 -23 17v4q0 10 19.5 31t19.5 44v492q0 26 -19.5 47t-19.5 29v4q0 12 20 20l126 62q20 8 30.5 2t10.5 -20v-636q0 -23 21.5 -44t21.5 -31v-4q0 -17 -23 -17h-184zM360 303q-40 0 -66 21t-26 62t26 62t66 21t66 -21t26 -62t-26 -62t-66 -21z" />
    <glyph glyph-name="Lslash" unicode="&#x141;" horiz-adv-x="623" 
d="M596 191q22 0 17 -22l-26 -140q-6 -29 -31 -29h-460q-22 0 -22 17v3q0 10 19 31.5t19 44.5v167l-61 -29q-21 -8 -28 10l-7 16q-7 19 12 27l84 40v287q0 24 -19 44.5t-19 31.5v4q0 16 22 16h188q24 0 24 -16v-4q0 -11 -21.5 -31.5t-21.5 -44.5v-215l86 40q21 9 27 -11
l7 -15q7 -19 -12 -27l-108 -51v-218q0 -24 10.5 -40t31.5 -16h144q25 0 46 20.5t32.5 44.5t26 44.5t28.5 20.5h12z" />
    <glyph glyph-name="lslash" unicode="&#x142;" horiz-adv-x="355" 
d="M349 450q10 -12 -6 -23l-85 -55v-276q0 -23 21.5 -44t21.5 -31v-4q0 -17 -23 -17h-184q-22 0 -22 17v4q0 10 19 31t19 44v179l-59 -38q-13 -8 -22 4l-17 28q-9 12 6 22l92 60v237q0 26 -19 47t-19 29v4q0 12 20 20l126 62q19 8 29.5 2t10.5 -20v-283l48 31q16 13 27 -3z
" />
    <glyph glyph-name="Nacute" unicode="&#x143;" horiz-adv-x="756" 
d="M297 777q-25 -3 -33 16q-8 23 12 34l195 98q18 9 31 3.5t18 -23.5l16 -59q5 -17 -3 -29t-26 -13zM694 710q23 0 23 -17v-3q0 -10 -21.5 -31.5t-21.5 -44.5v-574q0 -19 -10.5 -29.5t-28.5 -10.5h-47q-22 0 -44 31l-381 511v-444q0 -24 22.5 -46t22.5 -32v-3q0 -17 -23 -17
h-116q-23 0 -23 17v3q0 10 20 32t20 46v515q0 24 -20 45t-20 31v4q0 17 23 17h125q28 0 47 -28l356 -494v426q0 23 -21.5 44.5t-21.5 31.5v3q0 17 23 17h117z" />
    <glyph glyph-name="nacute" unicode="&#x144;" horiz-adv-x="602" 
d="M235 550q-24 -7 -36 11q-11 20 6 35l174 132q32 26 52 -11l26 -55q9 -15 3.5 -29t-23.5 -18zM550 97q2 -24 19 -45t17 -32v-4q0 -17 -23 -17h-173q-23 0 -23 17v4q0 10 18.5 31t17.5 46l-10 185q-7 151 -87 151q-40 0 -62.5 -30t-22.5 -80v-227q0 -24 21.5 -45t21.5 -31
v-4q0 -17 -23 -17h-186q-23 0 -23 17v4q0 10 21.5 31t21.5 45v233q0 15 -7.5 27t-17 17.5t-17 13.5t-7.5 16v4q0 11 20 21l119 58q17 8 25.5 1.5t8.5 -22.5v-56q43 81 148 81q76 0 129.5 -51t61.5 -162z" />
    <glyph glyph-name="uni0145" unicode="&#x145;" horiz-adv-x="756" 
d="M694 710q23 0 23 -17v-3q0 -10 -21.5 -31.5t-21.5 -44.5v-574q0 -19 -10.5 -29.5t-28.5 -10.5h-47q-22 0 -44 31l-381 511v-444q0 -24 22.5 -46t22.5 -32v-3q0 -17 -23 -17h-116q-23 0 -23 17v3q0 10 20 32t20 46v515q0 24 -20 45t-20 31v4q0 17 23 17h125q28 0 47 -28
l356 -494v426q0 23 -21.5 44.5t-21.5 31.5v3q0 17 23 17h117zM390 -38q35 0 59 -26t24 -70q0 -111 -121 -186q-13 -8 -24 4t0 23q48 47 51 79q3 17 -10 17q-24 0 -41.5 21.5t-17.5 53.5q0 37 22 60.5t58 23.5z" />
    <glyph glyph-name="uni0146" unicode="&#x146;" horiz-adv-x="602" 
d="M550 97q2 -24 19 -45t17 -32v-4q0 -17 -23 -17h-173q-23 0 -23 17v4q0 10 18.5 31t17.5 46l-10 185q-7 151 -87 151q-40 0 -62.5 -30t-22.5 -80v-227q0 -24 21.5 -45t21.5 -31v-4q0 -17 -23 -17h-186q-23 0 -23 17v4q0 10 21.5 31t21.5 45v233q0 15 -7.5 27t-17 17.5
t-17 13.5t-7.5 16v4q0 11 20 21l119 58q17 8 25.5 1.5t8.5 -22.5v-56q43 81 148 81q76 0 129.5 -51t61.5 -162zM307 -38q35 0 59.5 -26t24.5 -70q0 -110 -121 -186q-14 -8 -25 4t0 23q47 46 52 79q2 17 -11 17q-24 0 -41 21t-17 54q0 37 21.5 60.5t57.5 23.5z" />
    <glyph glyph-name="Ncaron" unicode="&#x147;" horiz-adv-x="756" 
d="M321 765l-109 105q-14 14 1.5 28.5t30.5 6.5l140 -72l136 72q10 6 22 0t15 -16t-4 -19l-115 -105q-17 -17 -42 -17h-33q-24 0 -42 17zM694 710q23 0 23 -17v-3q0 -10 -21.5 -31.5t-21.5 -44.5v-574q0 -19 -10.5 -29.5t-28.5 -10.5h-47q-22 0 -44 31l-381 511v-444
q0 -24 22.5 -46t22.5 -32v-3q0 -17 -23 -17h-116q-23 0 -23 17v3q0 10 20 32t20 46v515q0 24 -20 45t-20 31v4q0 17 23 17h125q28 0 47 -28l356 -494v426q0 23 -21.5 44.5t-21.5 31.5v3q0 17 23 17h117z" />
    <glyph glyph-name="ncaron" unicode="&#x148;" horiz-adv-x="602" 
d="M262 566l-109 110q-14 14 1.5 30t30.5 7l140 -76l136 76q16 10 31 -7t2 -30l-115 -111q-17 -17 -42 -17h-33q-24 0 -42 18zM550 97q2 -24 19 -45t17 -32v-4q0 -17 -23 -17h-173q-23 0 -23 17v4q0 10 18.5 31t17.5 46l-10 185q-7 151 -87 151q-40 0 -62.5 -30t-22.5 -80
v-227q0 -24 21.5 -45t21.5 -31v-4q0 -17 -23 -17h-186q-23 0 -23 17v4q0 10 21.5 31t21.5 45v233q0 15 -7.5 27t-17 17.5t-17 13.5t-7.5 16v4q0 11 20 21l119 58q17 8 25.5 1.5t8.5 -22.5v-56q43 81 148 81q76 0 129.5 -51t61.5 -162z" />
    <glyph glyph-name="napostrophe" unicode="&#x149;" horiz-adv-x="676" 
d="M43 787q39 0 65.5 -28.5t26.5 -76.5q0 -122 -133 -206q-15 -9 -27.5 4t-0.5 26q30 30 42 48t15 39q3 19 -11 19q-27 0 -46 23t-19 59q0 42 24 67.5t64 25.5zM624 97q2 -24 19 -45t17 -32v-4q0 -17 -23 -17h-172q-24 0 -24 17v4q0 10 19 31t17 46l-10 185q-7 151 -87 151
q-40 0 -62.5 -30t-22.5 -80v-227q0 -24 21.5 -45t21.5 -31v-4q0 -17 -23 -17h-186q-22 0 -22 17v4q0 10 21 31t21 45v233q0 15 -7.5 27t-17 17.5t-17 13.5t-7.5 16v4q0 11 21 21l118 58q18 8 26.5 1.5t8.5 -22.5v-56q43 81 148 81q76 0 129 -51t61 -162z" />
    <glyph glyph-name="Eng" unicode="&#x14a;" horiz-adv-x="757" 
d="M694 710q23 0 23 -16v-4q0 -10 -22 -32t-22 -45v-612q0 -214 -188 -215q-96 -1 -147.5 51t-51.5 109q0 35 19.5 55t50.5 20q34 0 52 -28.5t22.5 -62t23 -62t54.5 -28.5q44 0 66 41.5t22 108.5v7l-432 555v-454q0 -24 22 -46t22 -32v-3q0 -17 -23 -17h-116q-23 0 -23 17v3
q0 10 20 32t20 46v515q0 23 -20 45t-20 32v3q0 17 23 17h111q27 0 47 -28l369 -504v435q0 23 -19.5 45t-19.5 32v4q0 16 22 16h115z" />
    <glyph glyph-name="eng" unicode="&#x14b;" horiz-adv-x="589" 
d="M555 21q6 -91 -29 -147q-46 -69 -134 -69q-61 0 -101 27t-40 68q0 26 17.5 41t45.5 15q27 0 42.5 -16t19 -35t14.5 -35t31 -16q18 0 29 13t11 34q0 30 -26.5 71t-29.5 91l-12 216q-5 81 -26 117.5t-62 36.5q-35 0 -57 -24.5t-27 -66.5v-245q0 -24 21.5 -45t21.5 -31v-4
q0 -17 -23 -17h-186q-23 0 -23 17v4q0 10 21.5 31t21.5 45v230q0 18 -12 32t-24.5 24t-12.5 20v4q0 11 20 21l119 58q17 8 25.5 1.5t8.5 -22.5v-56q41 81 147 81q75 0 129.5 -52t62.5 -163z" />
    <glyph glyph-name="Omacron" unicode="&#x14c;" horiz-adv-x="762" 
d="M239 797q-23 0 -23 21v50q0 21 23 21h275q23 0 23 -21v-50q0 -21 -23 -21h-275zM385 -10q-150 0 -252 105t-102 258q0 162 97.5 264.5t253.5 102.5q150 0 250 -106.5t100 -262.5q0 -157 -99.5 -259t-247.5 -102zM427 55q69 0 111 51t42 130q0 98 -33 194.5t-92 160.5
t-127 64q-69 0 -109.5 -50t-40.5 -133q0 -102 32.5 -198t90.5 -157.5t126 -61.5z" />
    <glyph glyph-name="omacron" unicode="&#x14d;" horiz-adv-x="580" 
d="M152 586q-22 0 -22 21v50q0 21 22 21h276q22 0 22 -21v-50q0 -21 -22 -21h-276zM299 -10q-119 0 -196.5 73.5t-77.5 179.5q0 107 76 177t183 70q115 0 192 -72.5t77 -179.5t-72.5 -177.5t-181.5 -70.5zM317 34q41 0 63.5 38t22.5 107q0 57 -16.5 117.5t-49.5 105
t-73 44.5q-92 0 -92 -146q0 -54 16.5 -114t51 -106t77.5 -46z" />
    <glyph glyph-name="Ohungarumlaut" unicode="&#x150;" horiz-adv-x="762" 
d="M233 739q-10 10 2 30l107 171q22 35 50 10l30 -29q32 -29 1 -51l-160 -127q-18 -15 -30 -4zM436 739q-10 9 2 29l108 172q21 35 49 10l31 -29q14 -13 14.5 -27t-14.5 -25l-160 -126q-18 -15 -30 -4zM385 -10q-150 0 -252 105t-102 258q0 162 97.5 264.5t253.5 102.5
q150 0 250 -106.5t100 -262.5q0 -157 -99.5 -259t-247.5 -102zM427 55q69 0 111 51t42 130q0 98 -33 194.5t-92 160.5t-127 64q-69 0 -109.5 -50t-40.5 -133q0 -102 32.5 -198t90.5 -157.5t126 -61.5z" />
    <glyph glyph-name="ohungarumlaut" unicode="&#x151;" horiz-adv-x="580" 
d="M120 542q-10 10 2 31l107 170q22 38 50 10l30 -28q32 -29 1 -51l-160 -128q-18 -13 -30 -4zM323 542q-10 10 2 30l108 171q22 37 50 10l30 -29q32 -29 0 -51l-159 -127q-18 -13 -31 -4zM299 -10q-119 0 -196.5 73.5t-77.5 179.5q0 107 76 177t183 70q115 0 192 -72.5
t77 -179.5t-72.5 -177.5t-181.5 -70.5zM317 34q41 0 63.5 38t22.5 107q0 57 -16.5 117.5t-49.5 105t-73 44.5q-92 0 -92 -146q0 -54 16.5 -114t51 -106t77.5 -46z" />
    <glyph glyph-name="OE" unicode="&#x152;" horiz-adv-x="1062" 
d="M1029 171q9 0 14 -6t3 -15l-25 -121q-6 -29 -31 -29h-419q-23 0 -23 17v4q0 7 3 12.5t9.5 14t9.5 12.5q-84 -70 -196 -70q-139 0 -243 102.5t-104 260.5q0 164 91.5 265.5t238.5 101.5q127 0 218 -80q-4 9 -15.5 24.5t-11.5 25.5v4q0 16 23 16h392q15 0 21.5 -6.5
t9.5 -21.5l21 -111q5 -25 -21 -25h-10q-13 0 -27.5 16t-25 36t-29 36t-39.5 16h-130q-40 0 -40 -43v-219h141q16 0 28.5 11.5t18 25t13 25t15.5 11.5h8q18 0 18 -23v-157q0 -23 -18 -23h-8q-8 0 -15.5 11t-13 24t-18 24t-28.5 11h-141v-212q0 -56 52 -56h142q25 0 45.5 17.5
t31.5 38t24.5 38t25.5 17.5h15zM424 55q69 0 110 49t41 132t-35 180.5t-95 168t-121 70.5q-68 0 -109 -49.5t-41 -133.5q0 -92 35 -188.5t94 -162.5t121 -66z" />
    <glyph glyph-name="oe" unicode="&#x153;" horiz-adv-x="867" 
d="M813 152q9 12 22 8t12 -19q-5 -52 -60 -101.5t-143 -49.5q-109 0 -176 72q-72 -72 -175 -72q-109 0 -188.5 72t-79.5 181q0 107 78 177t188 70q103 0 175 -74q68 74 172 74q92 0 143.5 -43.5t51.5 -98.5q0 -47 -45 -66l-221 -101q41 -87 131 -87q63 0 115 58zM316 34
q42 0 64 38.5t22 100.5q0 35 -9.5 80.5t-26.5 89t-45 73.5t-61 30q-42 0 -65 -38.5t-23 -100.5q0 -59 16.5 -120.5t51 -107t76.5 -45.5zM626 446q-39 0 -62 -37.5t-23 -95.5q0 -45 10 -88l129 63q26 13 26 51q0 34 -22 70.5t-58 36.5z" />
    <glyph glyph-name="Racute" unicode="&#x154;" horiz-adv-x="684" 
d="M246 777q-24 -3 -34 16q-8 23 13 34l194 98q18 9 31 3.5t18 -23.5l16 -59q5 -17 -2.5 -29t-25.5 -13zM614 96q13 -20 31.5 -34.5t29.5 -23t11 -18.5v-3q0 -17 -23 -17h-209q-22 0 -22 17v3q0 9 11.5 20.5t16 21t-5.5 34.5l-105 174l-110 -2v-172q0 -23 21.5 -44.5
t21.5 -31.5v-3q0 -17 -24 -17h-188q-22 0 -22 17v3q0 10 19 31.5t19 44.5v518q0 23 -19 44.5t-19 31.5v4q0 16 22 16h247q139 0 220.5 -57t82.5 -167q0 -61 -35.5 -112.5t-101.5 -79.5zM295 329h43q57 0 91.5 35.5t34.5 104.5q0 82 -47.5 131t-109.5 49h-34q-34 0 -34 -45
v-208q0 -36 13.5 -51.5t42.5 -15.5z" />
    <glyph glyph-name="racute" unicode="&#x155;" horiz-adv-x="429" 
d="M145 550q-24 -7 -36 11q-12 20 7 35l173 132q34 26 52 -11l27 -55q8 -15 2.5 -29t-23.5 -18zM336 490q43 0 67.5 -25.5t24.5 -65.5q0 -79 -64 -79q-26 0 -40.5 13.5t-17.5 29.5t-12 29.5t-27 13.5q-27 0 -40 -32t-13 -78v-200q0 -18 12.5 -31.5t25 -23.5t12.5 -20v-4
q0 -17 -22 -17h-185q-23 0 -23 17v4q0 10 19.5 31t19.5 44v234q0 24 -23 43t-23 29v4q0 14 21 24l120 56q32 15 32 -20v-75q34 99 136 99z" />
    <glyph glyph-name="uni0156" unicode="&#x156;" horiz-adv-x="684" 
d="M614 96q13 -20 31.5 -34.5t29.5 -23t11 -18.5v-3q0 -17 -23 -17h-209q-22 0 -22 17v3q0 9 11.5 20.5t16 21t-5.5 34.5l-105 174l-110 -2v-172q0 -23 21.5 -44.5t21.5 -31.5v-3q0 -17 -24 -17h-188q-22 0 -22 17v3q0 10 19 31.5t19 44.5v518q0 23 -19 44.5t-19 31.5v4
q0 16 22 16h247q139 0 220.5 -57t82.5 -167q0 -61 -35.5 -112.5t-101.5 -79.5zM295 329h43q57 0 91.5 35.5t34.5 104.5q0 82 -47.5 131t-109.5 49h-34q-34 0 -34 -45v-208q0 -36 13.5 -51.5t42.5 -15.5zM348 -24q35 0 59.5 -26t24.5 -70q0 -111 -121 -186q-14 -8 -25 4t1 23
q46 46 51 79q2 18 -11 18q-24 0 -41 21t-17 53q0 37 21.5 60.5t57.5 23.5z" />
    <glyph glyph-name="uni0157" unicode="&#x157;" horiz-adv-x="429" 
d="M336 490q43 0 67.5 -25.5t24.5 -65.5q0 -79 -64 -79q-26 0 -40.5 13.5t-17.5 29.5t-12 29.5t-27 13.5q-27 0 -40 -32t-13 -78v-200q0 -18 12.5 -31.5t25 -23.5t12.5 -20v-4q0 -17 -22 -17h-185q-23 0 -23 17v4q0 10 19.5 31t19.5 44v234q0 24 -23 43t-23 29v4q0 14 21 24
l120 56q32 15 32 -20v-75q34 99 136 99zM145 -38q35 0 59.5 -26t24.5 -70q0 -110 -121 -186q-14 -8 -25 4t0 23q47 46 52 79q2 17 -11 17q-24 0 -41 21t-17 54q0 37 21.5 60.5t57.5 23.5z" />
    <glyph glyph-name="Rcaron" unicode="&#x158;" horiz-adv-x="684" 
d="M274 765l-110 105q-14 14 1.5 28.5t31.5 6.5l139 -72l137 72q10 6 22 0t14.5 -16t-4.5 -19l-115 -105q-17 -17 -41 -17h-34q-24 0 -41 17zM614 96q13 -20 31.5 -34.5t29.5 -23t11 -18.5v-3q0 -17 -23 -17h-209q-22 0 -22 17v3q0 9 11.5 20.5t16 21t-5.5 34.5l-105 174
l-110 -2v-172q0 -23 21.5 -44.5t21.5 -31.5v-3q0 -17 -24 -17h-188q-22 0 -22 17v3q0 10 19 31.5t19 44.5v518q0 23 -19 44.5t-19 31.5v4q0 16 22 16h247q139 0 220.5 -57t82.5 -167q0 -61 -35.5 -112.5t-101.5 -79.5zM295 329h43q57 0 91.5 35.5t34.5 104.5q0 82 -47.5 131
t-109.5 49h-34q-34 0 -34 -45v-208q0 -36 13.5 -51.5t42.5 -15.5z" />
    <glyph glyph-name="rcaron" unicode="&#x159;" horiz-adv-x="429" 
d="M173 566l-110 110q-14 14 1.5 30t31.5 7l139 -76l137 76q16 10 31 -7t1 -30l-115 -111q-17 -17 -41 -17h-34q-24 0 -41 18zM336 490q43 0 67.5 -25.5t24.5 -65.5q0 -79 -64 -79q-26 0 -40.5 13.5t-17.5 29.5t-12 29.5t-27 13.5q-27 0 -40 -32t-13 -78v-200
q0 -18 12.5 -31.5t25 -23.5t12.5 -20v-4q0 -17 -22 -17h-185q-23 0 -23 17v4q0 10 19.5 31t19.5 44v234q0 24 -23 43t-23 29v4q0 14 21 24l120 56q32 15 32 -20v-75q34 99 136 99z" />
    <glyph glyph-name="Sacute" unicode="&#x15a;" horiz-adv-x="626" 
d="M235 777q-25 -4 -33 16q-8 23 13 34l194 98q18 9 31 3.5t18 -23.5l16 -59q5 -17 -2.5 -29t-26.5 -13zM325 -10q-133 0 -214.5 56.5t-81.5 123.5q0 28 15 44.5t45 16.5q27 -1 46.5 -20t34 -46t31.5 -53.5t50 -45.5t80 -19q53 0 84.5 27.5t31.5 73.5q0 43 -22.5 71
t-58 42.5t-78.5 25t-86 24.5t-79 35.5t-58.5 63t-22.5 101.5q0 92 71.5 150t193.5 58q120 0 199.5 -53.5t78.5 -119.5q0 -62 -64 -62q-30 0 -49.5 18.5t-32 44.5t-26.5 52t-41.5 44.5t-67.5 18.5q-55 0 -84 -29t-29 -74q0 -43 22.5 -72t58 -44t78.5 -26.5t86 -26t78.5 -35.5
t58 -62t22.5 -99q0 -94 -78 -149t-192 -55z" />
    <glyph glyph-name="sacute" unicode="&#x15b;" horiz-adv-x="479" 
d="M150 550q-24 -7 -36 11q-12 20 7 35l173 132q34 26 52 -11l27 -55q8 -15 2.5 -29t-23.5 -18zM240 -9q-94 0 -154 34t-60 82q0 27 16.5 41t43.5 14q29 0 47 -20.5t25.5 -45.5t28 -45.5t53.5 -20.5q32 0 52.5 17t20.5 49q0 36 -28.5 57t-69.5 31.5t-82 24t-69.5 47
t-28.5 87.5q0 64 56.5 105.5t146.5 41.5q91 0 148.5 -35.5t57.5 -84.5q0 -22 -16.5 -37t-40.5 -15q-28 0 -45 20.5t-24 45t-25 45t-47 20.5t-47 -19.5t-18 -47.5t15 -47t39 -29t53 -18.5t58.5 -19t53.5 -25.5t39 -42.5t15 -66.5q0 -62 -58 -102.5t-156 -40.5z" />
    <glyph glyph-name="Scedilla" unicode="&#x15e;" horiz-adv-x="626" 
d="M595 194q0 -88 -69.5 -142.5t-173.5 -60.5l-2 -44q48 2 84 -19t36 -62t-39 -63t-97 -22q-53 0 -85 17q-20 9 -15 35q3 20 16 16q1 0 3 -1q24 -14 59 -14q23 0 38 10t15 28q-1 33 -60 33q-13 0 -20.5 8t-4.5 22l10 56q-118 8 -189.5 62.5t-71.5 116.5q0 28 15 44.5
t45 16.5q27 -1 46.5 -20t34 -46t31.5 -53.5t50 -45.5t80 -19q53 0 84.5 27.5t31.5 73.5q0 43 -22.5 71t-58 42.5t-78.5 25t-86 24.5t-79 35.5t-58.5 63t-22.5 101.5q0 92 71.5 150t193.5 58q120 0 199.5 -53.5t78.5 -119.5q0 -62 -64 -62q-30 0 -49.5 18.5t-32 44.5
t-26.5 52t-41.5 44.5t-67.5 18.5q-55 0 -84 -29t-29 -74q0 -43 22.5 -72t58 -44t78.5 -26.5t86 -26t78.5 -35.5t58 -62t22.5 -99z" />
    <glyph glyph-name="scedilla" unicode="&#x15f;" horiz-adv-x="479" 
d="M454 134q0 -56 -48.5 -95.5t-131.5 -46.5l-2 -45q48 2 84 -19t36 -62t-39 -63t-97 -22q-53 0 -85 17q-20 9 -15 35q3 20 16 16q1 0 3 -1q24 -14 59 -14q23 0 38 10t15 28q-1 33 -60 33q-13 0 -20.5 8t-4.5 22l10 57q-83 5 -134.5 38t-51.5 77q0 27 16.5 41t43.5 14
q29 0 47 -20.5t25.5 -45.5t28 -45.5t53.5 -20.5q32 0 52.5 17t20.5 49q0 36 -28.5 57t-69.5 31.5t-82 24t-69.5 47t-28.5 87.5q0 64 56.5 105.5t146.5 41.5q91 0 148.5 -35.5t57.5 -84.5q0 -22 -16.5 -37t-40.5 -15q-28 0 -45 20.5t-24 45t-25 45t-47 20.5t-47 -19.5
t-18 -47.5t15 -47t39 -29t53 -18.5t58.5 -19t53.5 -25.5t39 -42.5t15 -66.5z" />
    <glyph glyph-name="Scaron" unicode="&#x160;" horiz-adv-x="626" 
d="M256 765l-109 105q-14 14 1.5 28.5t30.5 6.5l140 -72l136 72q10 6 22 0t15 -16t-4 -19l-115 -105q-17 -17 -42 -17h-33q-24 0 -42 17zM191 559q0 -43 22.5 -72t58 -44t78.5 -26.5t86 -26t78.5 -35.5t58 -62t22.5 -99q0 -94 -78 -149t-192 -55q-133 0 -214.5 56.5
t-81.5 123.5q0 28 15 44.5t45 16.5q27 -1 46.5 -20t34 -46t31.5 -53.5t50 -45.5t80 -19q53 0 84.5 27.5t31.5 73.5q0 43 -22.5 71t-58 42.5t-78.5 25t-86 24.5t-79 35.5t-58.5 63t-22.5 101.5q0 92 71.5 150t193.5 58q120 0 199.5 -53.5t78.5 -119.5q0 -62 -64 -62
q-30 0 -49.5 18.5t-32 44.5t-26.5 52t-41.5 44.5t-67.5 18.5q-55 0 -84 -29t-29 -74z" />
    <glyph glyph-name="scaron" unicode="&#x161;" horiz-adv-x="479" 
d="M178 566l-110 110q-14 14 1.5 30t31.5 7l139 -76l137 76q16 10 31 -7t1 -30l-115 -111q-17 -17 -41 -17h-34q-24 0 -41 18zM181 382q0 -28 15 -47t39 -29t53 -18.5t58.5 -19t53.5 -25.5t39 -42.5t15 -66.5q0 -62 -58 -102.5t-156 -40.5q-94 0 -154 34t-60 82
q0 27 16.5 41t43.5 14q29 0 47 -20.5t25.5 -45.5t28 -45.5t53.5 -20.5q32 0 52.5 17t20.5 49q0 36 -28.5 57t-69.5 31.5t-82 24t-69.5 47t-28.5 87.5q0 64 56.5 105.5t146.5 41.5q91 0 148.5 -35.5t57.5 -84.5q0 -22 -16.5 -37t-40.5 -15q-28 0 -45 20.5t-24 45t-25 45
t-47 20.5t-47 -19.5t-18 -47.5z" />
    <glyph glyph-name="uni0162" unicode="&#x162;" horiz-adv-x="630" 
d="M620 554q2 -12 -3.5 -18.5t-16.5 -6.5h-15q-13 0 -26.5 18t-23.5 40t-27.5 40t-38.5 18h-81v-549q0 -23 21 -44.5t21 -31.5v-3q0 -17 -23 -17h-62l-2 -53q48 2 84 -19t36 -62t-39 -63t-97 -22q-53 0 -85 17q-20 9 -15 35q3 20 16 16q1 0 3 -1q24 -14 59 -14q23 0 38 10
t15 28q-1 33 -60 33q-13 0 -20.5 8t-4.5 22l12 65h-65q-22 0 -22 17v3q0 10 20 31.5t20 44.5v549h-80q-21 0 -38 -18t-26.5 -40t-22.5 -40t-26 -18h-14q-26 0 -21 26l18 127q4 28 32 28h507q28 0 32 -28z" />
    <glyph glyph-name="uni0163" unicode="&#x163;" horiz-adv-x="388" 
d="M240 -53q49 2 85 -19t36 -62t-39.5 -63t-96.5 -22q-52 0 -86 17q-20 9 -15 35q3 17 13 17q3 0 6 -2q26 -14 59 -14q23 0 38.5 10t14.5 28q-1 33 -60 33q-13 0 -20.5 8t-4.5 22l12 60q-50 13 -78 56t-28 112v259h-47q-20 0 -20 20v17q0 21 20 21h25q41 0 69.5 27t36.5 72
q5 24 23 24h20q22 0 22 -24l1 -99h115q8 0 14 -6t6 -15v-17q0 -9 -6 -14.5t-14 -5.5h-115v-261q0 -29 14.5 -46.5t36.5 -17.5q52 0 68 45q9 13 22.5 10.5t13.5 -16.5q0 -55 -37.5 -98t-101.5 -47z" />
    <glyph glyph-name="Tcaron" unicode="&#x164;" horiz-adv-x="630" 
d="M253 765l-110 105q-13 14 2 28.5t31 6.5l139 -72l137 72q10 6 22 0t15 -16t-4 -19l-115 -105q-18 -17 -42 -17h-33q-25 0 -42 17zM620 554q2 -12 -3.5 -18.5t-16.5 -6.5h-15q-13 0 -26.5 18t-23.5 40t-27.5 40t-38.5 18h-81v-549q0 -23 21 -44.5t21 -31.5v-3
q0 -17 -23 -17h-187q-22 0 -22 17v3q0 10 20 31.5t20 44.5v549h-80q-21 0 -38 -18t-26.5 -40t-22.5 -40t-26 -18h-14q-26 0 -21 26l18 127q4 28 32 28h507q28 0 32 -28z" />
    <glyph glyph-name="tcaron" unicode="&#x165;" horiz-adv-x="388" 
d="M298 531l-9 6q-16 11 -1 31q53 72 53 190q0 11 6 18.5t16 7.5h57q25 0 25 -26q0 -73 -32 -132.5t-80 -92.5q-19 -13 -35 -2zM227 -10q-70 0 -110.5 44.5t-40.5 128.5v259h-47q-20 0 -20 20v17q0 21 20 21h25q41 0 69.5 27t36.5 72q5 24 23 24h20q22 0 22 -24l1 -99h115
q8 0 14 -6t6 -15v-17q0 -9 -6 -14.5t-14 -5.5h-115v-261q0 -29 14.5 -46.5t36.5 -17.5q52 0 68 45q9 13 22.5 10.5t13.5 -16.5q0 -58 -41.5 -102t-112.5 -44z" />
    <glyph glyph-name="Tbar" unicode="&#x166;" horiz-adv-x="632" 
d="M622 554q2 -12 -4 -18.5t-17 -6.5h-15q-13 0 -26.5 18t-23.5 40t-27.5 40t-38.5 18h-80v-254h76q17 0 17 -16v-25q0 -17 -17 -17h-76v-237q0 -23 20.5 -44.5t20.5 -31.5v-3q0 -17 -23 -17h-187q-22 0 -22 17v3q0 10 20.5 31.5t20.5 44.5v237h-80q-16 0 -16 15v27
q0 16 16 16h80v254h-81q-21 0 -38 -18t-26.5 -40t-22.5 -40t-26 -18h-14q-24 0 -21 26l19 127q3 28 31 28h508q27 0 31 -28z" />
    <glyph glyph-name="tbar" unicode="&#x167;" horiz-adv-x="398" 
d="M354 142q8 13 21.5 10.5t13.5 -16.5q0 -58 -41.5 -102t-112.5 -44q-70 0 -110.5 44.5t-40.5 128.5v99h-48q-16 0 -16 15v28q0 16 16 16h48v101h-47q-20 0 -20 20v17q0 21 20 21h25q41 0 69.5 27t36.5 72q5 24 24 24h19q22 0 22 -24l1 -99h115q8 0 14 -6t6 -15v-17
q0 -9 -6 -14.5t-14 -5.5h-115v-101h109q17 0 17 -16v-25q0 -18 -17 -18h-109v-101q0 -29 14.5 -46.5t36.5 -17.5q51 0 69 45z" />
    <glyph glyph-name="Utilde" unicode="&#x168;" horiz-adv-x="721" 
d="M315 905q37 0 88 -25.5t69 -25.5q30 0 46 25q8 14 22 14h7q19 0 14 -21q-11 -51 -39.5 -80.5t-68.5 -29.5q-33 0 -84.5 26t-74.5 26q-26 0 -43 -23q-10 -14 -14 -16q-4 -1 -9 -1h-11q-17 0 -13 21q9 47 38.5 78.5t72.5 31.5zM371 -10q-134 0 -215.5 74t-81.5 207v343
q0 23 -19.5 44.5t-19.5 31.5v4q0 16 23 16h188q23 0 23 -16v-4q0 -10 -21.5 -31.5t-21.5 -44.5v-343q0 -105 47 -160.5t131 -55.5q66 0 115.5 52.5t49.5 163.5v343q0 23 -20 44.5t-20 31.5v4q0 16 23 16h114q23 0 23 -16v-4q0 -10 -21.5 -31.5t-21.5 -44.5v-345
q0 -132 -75 -205.5t-200 -73.5z" />
    <glyph glyph-name="utilde" unicode="&#x169;" horiz-adv-x="585" 
d="M126 588q-18 0 -13 21q9 47 38.5 78.5t72.5 31.5q37 0 88 -25.5t69 -25.5q30 0 46 25q7 14 22 14h7q19 0 14 -21q-11 -51 -39.5 -80.5t-68.5 -29.5q-34 0 -85 26t-74 26q-26 0 -43 -23q-10 -14 -14 -16q-4 -1 -9 -1h-11zM519 102q0 -27 7.5 -40.5t16.5 -15t16.5 -6.5
t7.5 -17q0 -29 -89 -29q-44 0 -65.5 14.5t-23.5 50.5q-42 -69 -145 -69q-81 0 -133.5 54.5t-52.5 153.5v169q0 25 -19.5 46.5t-19.5 29.5v3q0 18 21 21l126 19q41 5 41 -18l-3 -285q0 -136 83 -136q37 0 61.5 32.5t24.5 84.5v203q0 25 -20 46.5t-20 29.5v3q0 18 20 21
l128 19q38 4 38 -18v-366z" />
    <glyph glyph-name="Umacron" unicode="&#x16a;" horiz-adv-x="721" 
d="M232 797q-22 0 -22 21v50q0 21 22 21h276q22 0 22 -21v-50q0 -21 -22 -21h-276zM371 -10q-134 0 -215.5 74t-81.5 207v343q0 23 -19.5 44.5t-19.5 31.5v4q0 16 23 16h188q23 0 23 -16v-4q0 -10 -21.5 -31.5t-21.5 -44.5v-343q0 -105 47 -160.5t131 -55.5q66 0 115.5 52.5
t49.5 163.5v343q0 23 -20 44.5t-20 31.5v4q0 16 23 16h114q23 0 23 -16v-4q0 -10 -21.5 -31.5t-21.5 -44.5v-345q0 -132 -75 -205.5t-200 -73.5z" />
    <glyph glyph-name="umacron" unicode="&#x16b;" horiz-adv-x="585" 
d="M157 586q-23 0 -23 21v50q0 21 23 21h275q22 0 22 -21v-50q0 -21 -22 -21h-275zM519 102q0 -27 7.5 -40.5t16.5 -15t16.5 -6.5t7.5 -17q0 -29 -89 -29q-44 0 -65.5 14.5t-23.5 50.5q-42 -69 -145 -69q-81 0 -133.5 54.5t-52.5 153.5v169q0 25 -19.5 46.5t-19.5 29.5v3
q0 18 21 21l126 19q41 5 41 -18l-3 -285q0 -136 83 -136q37 0 61.5 32.5t24.5 84.5v203q0 25 -20 46.5t-20 29.5v3q0 18 20 21l128 19q38 4 38 -18v-366z" />
    <glyph glyph-name="Uring" unicode="&#x16e;" horiz-adv-x="721" 
d="M378 745q-59 0 -98.5 30.5t-39.5 75.5q0 49 38.5 79.5t100.5 30.5q60 0 99.5 -29.5t39.5 -74.5q0 -50 -38.5 -81t-101.5 -31zM379 787q23 0 37 17t14 50q0 29 -14.5 46t-36.5 17q-51 0 -51 -63q0 -29 14.5 -48t36.5 -19zM371 -10q-134 0 -215.5 74t-81.5 207v343
q0 23 -19.5 44.5t-19.5 31.5v4q0 16 23 16h188q23 0 23 -16v-4q0 -10 -21.5 -31.5t-21.5 -44.5v-343q0 -105 47 -160.5t131 -55.5q66 0 115.5 52.5t49.5 163.5v343q0 23 -20 44.5t-20 31.5v4q0 16 23 16h114q23 0 23 -16v-4q0 -10 -21.5 -31.5t-21.5 -44.5v-345
q0 -132 -75 -205.5t-200 -73.5z" />
    <glyph glyph-name="uring" unicode="&#x16f;" horiz-adv-x="585" 
d="M294 536q-59 0 -98.5 30.5t-39.5 75.5q0 50 38.5 80.5t100.5 30.5q59 0 98.5 -30t39.5 -75q0 -50 -38 -81t-101 -31zM295 708q-52 0 -52 -63q0 -29 15 -48t37 -19q23 0 37 17t14 50q0 29 -14.5 46t-36.5 17zM519 102q0 -27 7.5 -40.5t16.5 -15t16.5 -6.5t7.5 -17
q0 -29 -89 -29q-44 0 -65.5 14.5t-23.5 50.5q-42 -69 -145 -69q-81 0 -133.5 54.5t-52.5 153.5v169q0 25 -19.5 46.5t-19.5 29.5v3q0 18 21 21l126 19q41 5 41 -18l-3 -285q0 -136 83 -136q37 0 61.5 32.5t24.5 84.5v203q0 25 -20 46.5t-20 29.5v3q0 18 20 21l128 19
q38 4 38 -18v-366z" />
    <glyph glyph-name="Uhungarumlaut" unicode="&#x170;" horiz-adv-x="721" 
d="M226 739q-11 10 2 30l107 171q22 36 49 10l31 -29q32 -29 1 -51l-161 -127q-17 -14 -29 -4zM429 739q-11 10 2 29l107 172q22 34 50 10l30 -29q32 -29 1 -52l-160 -126q-18 -15 -30 -4zM371 -10q-134 0 -215.5 74t-81.5 207v343q0 23 -19.5 44.5t-19.5 31.5v4q0 16 23 16
h188q23 0 23 -16v-4q0 -10 -21.5 -31.5t-21.5 -44.5v-343q0 -105 47 -160.5t131 -55.5q66 0 115.5 52.5t49.5 163.5v343q0 23 -20 44.5t-20 31.5v4q0 16 23 16h114q23 0 23 -16v-4q0 -10 -21.5 -31.5t-21.5 -44.5v-345q0 -132 -75 -205.5t-200 -73.5z" />
    <glyph glyph-name="uhungarumlaut" unicode="&#x171;" horiz-adv-x="585" 
d="M144 546q-18 -13 -30 -4q-10 10 2 31l107 170q22 38 50 10l30 -28q32 -29 1 -51zM317 542q-10 9 2 30l108 171q22 37 49 10l31 -29q32 -29 0 -51l-159 -127q-18 -13 -31 -4zM519 102q0 -27 7.5 -40.5t16.5 -15t16.5 -6.5t7.5 -17q0 -29 -89 -29q-44 0 -65.5 14.5
t-23.5 50.5q-42 -69 -145 -69q-81 0 -133.5 54.5t-52.5 153.5v169q0 25 -19.5 46.5t-19.5 29.5v3q0 18 21 21l126 19q41 5 41 -18l-3 -285q0 -136 83 -136q37 0 61.5 32.5t24.5 84.5v203q0 25 -20 46.5t-20 29.5v3q0 18 20 21l128 19q38 4 38 -18v-366z" />
    <glyph glyph-name="Uogonek" unicode="&#x172;" horiz-adv-x="721" 
d="M666 710q23 0 23 -16v-4q0 -10 -21.5 -31.5t-21.5 -44.5v-345q0 -115 -57.5 -186t-156.5 -88q-49 -60 -49 -107t33 -47q8 0 20 5q19 7 25 -15q7 -24 -12 -38q-3 -2 -6 -3q-18 -9 -52 -9q-45 0 -78.5 21.5t-33.5 66.5q0 66 84 121q-131 2 -210 76t-79 205v343
q0 23 -19.5 44.5t-19.5 31.5v4q0 16 23 16h188q23 0 23 -16v-4q0 -10 -21.5 -31.5t-21.5 -44.5v-343q0 -105 47 -160.5t131 -55.5q66 0 115.5 52.5t49.5 163.5v343q0 23 -20 44.5t-20 31.5v4q0 16 23 16h114z" />
    <glyph glyph-name="uogonek" unicode="&#x173;" horiz-adv-x="585" 
d="M567 23q0 -25 -57 -28q-46 -60 -46 -104q0 -46 33 -46q9 0 20 4q19 7 25 -16q7 -25 -13 -37l-5 -2q-17 -10 -53 -10q-44 0 -77.5 21.5t-33.5 66.5q0 66 88 124q-55 7 -59 63q-42 -69 -145 -69q-81 0 -133.5 54.5t-52.5 153.5v169q0 25 -19.5 46.5t-19.5 29.5v3
q0 18 21 21l126 19q41 5 41 -18l-3 -285q0 -136 83 -136q37 0 61.5 32.5t24.5 84.5v203q0 25 -20 46.5t-20 29.5v3q0 18 20 21l128 19q38 4 38 -18v-366q0 -27 7.5 -40.5t16.5 -15t16.5 -6.5t7.5 -17z" />
    <glyph glyph-name="Wcircumflex" unicode="&#x174;" horiz-adv-x="1007" 
d="M398 761q-19 -10 -35.5 6t3.5 38l110 109q18 18 42 18h29q24 0 42 -18l120 -109q20 -20 6 -38.5t-41 -5.5l-145 73zM983 710q22 0 22 -16v-4q0 -11 -24 -30.5t-33 -45.5l-191 -572q-14 -42 -58 -42q-41 0 -55 39l-125 375l-127 -372q-13 -42 -52 -42q-22 0 -33.5 9
t-21.5 30l-235 574q-11 26 -36 45.5t-25 32.5v3q0 16 22 16h211q23 0 23 -16v-4q0 -10 -12.5 -20.5t-21.5 -24t-2 -32.5l158 -427l115 340l-29 88q-7 22 -34 43.5t-27 33.5v3q0 16 21 16h210q21 0 21 -16v-3q0 -8 -8.5 -16t-18 -13.5t-15 -18t-0.5 -29.5l129 -425l135 425
q5 14 0 26t-14 18t-17 15t-8 17v3q0 17 22 17h134z" />
    <glyph glyph-name="wcircumflex" unicode="&#x175;" horiz-adv-x="743" 
d="M258 545q-19 -10 -35.5 6t3.5 37l110 109q16 19 41 19h30q21 0 42 -18l119 -110q20 -20 6 -38t-41 -5l-145 72zM726 480q20 0 20 -16v-5q0 -12 -23.5 -32t-31.5 -44l-129 -359q-8 -24 -32 -24h-33q-26 0 -33 24l-92 296l-93 -296q-8 -24 -33 -24h-23q-24 0 -32 24
l-146 359q-8 21 -28 42.5t-20 33.5v5q0 16 20 16h178q19 0 19 -17v-4q0 -8 -7 -15.5t-14.5 -13.5t-11 -19t2.5 -30l80 -235l93 311q6 19 23 19l55 1q17 0 23 -18l91 -313l77 222q8 21 2.5 36.5t-15 22.5t-18.5 15.5t-9 16.5v4q0 17 20 17h120z" />
    <glyph glyph-name="Ycircumflex" unicode="&#x176;" horiz-adv-x="684" 
d="M217 761q-19 -10 -35.5 6t3.5 38l110 109q18 18 42 18h29q24 0 42 -18l120 -109q20 -20 5.5 -38.5t-41.5 -5.5l-144 73zM655 710q22 0 22 -16v-4q0 -12 -23.5 -32t-37.5 -44l-188 -325v-193q0 -23 21 -44.5t21 -31.5v-3q0 -17 -22 -17h-189q-22 0 -22 17v3q0 10 19 31.5
t19 44.5v182l-212 336q-13 21 -39 42t-26 34v4q0 16 24 16h227q23 0 23 -16v-4q0 -10 -14.5 -21t-24.5 -24.5t0 -30.5l154 -270l154 270q9 14 4 26t-15 18.5t-19.5 15t-9.5 16.5v4q0 16 22 16h132z" />
    <glyph glyph-name="ycircumflex" unicode="&#x177;" horiz-adv-x="548" 
d="M159 548q-19 -10 -35.5 6t3.5 38l110 109q17 18 42 18h29q24 0 42 -17l119 -110q21 -20 6.5 -38.5t-41.5 -5.5l-144 73zM531 480q20 0 20 -16v-5q0 -13 -20.5 -35t-30.5 -43l-189 -411q-13 -29 -22 -47t-27.5 -47.5t-36.5 -46.5t-45 -30t-56 -13q-64 0 -105.5 33
t-41.5 74q0 27 16 43.5t44 16.5t44 -18.5t21 -41.5t15.5 -41.5t27.5 -18.5q46 0 103 140l-199 408q-11 22 -32.5 43.5t-21.5 34.5v5q0 16 21 16h187q19 0 19 -17v-4q0 -9 -9 -20.5t-12 -21.5t6 -38l117 -271l108 257q10 34 0 47t-27 25.5t-17 21.5v4q0 17 21 17h122z" />
    <glyph glyph-name="Ydieresis" unicode="&#x178;" horiz-adv-x="684" 
d="M244 775q-40 0 -65 22.5t-25 57.5t25 57.5t65 22.5q39 0 63.5 -22.5t24.5 -57.5t-24.5 -57.5t-63.5 -22.5zM474 775q-40 0 -64.5 22.5t-24.5 57.5t24.5 57.5t64.5 22.5q39 0 63.5 -22.5t24.5 -57.5t-24.5 -57.5t-63.5 -22.5zM655 710q22 0 22 -16v-4q0 -12 -23.5 -32
t-37.5 -44l-188 -325v-193q0 -23 21 -44.5t21 -31.5v-3q0 -17 -22 -17h-189q-22 0 -22 17v3q0 10 19 31.5t19 44.5v182l-212 336q-13 21 -39 42t-26 34v4q0 16 24 16h227q23 0 23 -16v-4q0 -10 -14.5 -21t-24.5 -24.5t0 -30.5l154 -270l154 270q9 14 4 26t-15 18.5t-19.5 15
t-9.5 16.5v4q0 16 22 16h132z" />
    <glyph glyph-name="Zacute" unicode="&#x179;" horiz-adv-x="623" 
d="M235 777q-24 -3 -34 16q-8 23 13 34l194 98q37 19 49 -20l16 -59q5 -17 -2.5 -29t-25.5 -13zM593 185q27 0 20 -26l-30 -136q-5 -23 -24 -23h-517q-10 0 -17 6.5t-7 15.5v10q0 7 19 37l370 581h-230q-17 0 -34.5 -18t-29 -40t-29 -40t-34.5 -18h-5q-30 0 -23 32l28 116
q6 28 31 28h487q9 0 15.5 -6.5t6.5 -15.5v-12q0 -7 -22 -43l-364 -573h240q24 0 46 19.5t36 43t31.5 43t32.5 19.5h3z" />
    <glyph glyph-name="zacute" unicode="&#x17a;" horiz-adv-x="500" 
d="M187 550q-25 -7 -36 11q-13 20 6 35l173 132q34 26 52 -11l27 -55q8 -15 2.5 -29t-22.5 -18zM472 151q26 0 19 -29l-29 -99q-7 -23 -25 -23h-390q-9 0 -16.5 6.5t-7.5 15.5v10q0 10 19 37l255 371h-117q-26 0 -48.5 -25.5t-42 -51t-39.5 -25.5h-6q-13 0 -18 9.5t0 23.5
l25 81q6 16 12 22t20 6h358q10 0 16 -6t6 -14v-10q0 -8 -26 -47l-252 -363h137q24 0 46 17.5t35.5 38t30.5 38t32 17.5h6z" />
    <glyph glyph-name="Zdotaccent" unicode="&#x17b;" horiz-adv-x="623" 
d="M331 760q-42 0 -67 23.5t-25 59.5q0 35 25.5 58t66.5 23t66 -23t25 -58q0 -36 -25 -59.5t-66 -23.5zM593 185q27 0 20 -26l-30 -136q-5 -23 -24 -23h-517q-10 0 -17 6.5t-7 15.5v10q0 7 19 37l370 581h-230q-17 0 -34.5 -18t-29 -40t-29 -40t-34.5 -18h-5q-30 0 -23 32
l28 116q6 28 31 28h487q9 0 15.5 -6.5t6.5 -15.5v-12q0 -7 -22 -43l-364 -573h240q24 0 46 19.5t36 43t31.5 43t32.5 19.5h3z" />
    <glyph glyph-name="zdotaccent" unicode="&#x17c;" horiz-adv-x="500" 
d="M274 551q-44 0 -71.5 24.5t-27.5 63.5q0 38 27.5 62.5t71.5 24.5q43 0 70 -24.5t27 -62.5q0 -39 -27 -63.5t-70 -24.5zM472 151q26 0 19 -29l-29 -99q-7 -23 -25 -23h-390q-9 0 -16.5 6.5t-7.5 15.5v10q0 10 19 37l255 371h-117q-26 0 -48.5 -25.5t-42 -51t-39.5 -25.5
h-6q-13 0 -18 9.5t0 23.5l25 81q6 16 12 22t20 6h358q10 0 16 -6t6 -14v-10q0 -8 -26 -47l-252 -363h137q24 0 46 17.5t35.5 38t30.5 38t32 17.5h6z" />
    <glyph glyph-name="Zcaron" unicode="&#x17d;" horiz-adv-x="623" 
d="M263 765l-110 105q-13 14 2 28.5t31 6.5l139 -72l137 72q10 6 22 0t15 -16t-4 -19l-115 -105q-18 -17 -42 -17h-33q-25 0 -42 17zM593 185q27 0 20 -26l-30 -136q-5 -23 -24 -23h-517q-10 0 -17 6.5t-7 15.5v10q0 7 19 37l370 581h-230q-17 0 -34.5 -18t-29 -40t-29 -40
t-34.5 -18h-5q-30 0 -23 32l28 116q6 28 31 28h487q9 0 15.5 -6.5t6.5 -15.5v-12q0 -7 -22 -43l-364 -573h240q24 0 46 19.5t36 43t31.5 43t32.5 19.5h3z" />
    <glyph glyph-name="zcaron" unicode="&#x17e;" horiz-adv-x="500" 
d="M213 566l-110 110q-13 14 2.5 30t30.5 7l139 -76l137 76q16 10 31 -7t2 -30l-115 -111q-18 -17 -42 -17h-33q-25 0 -42 18zM472 151q26 0 19 -29l-29 -99q-7 -23 -25 -23h-390q-9 0 -16.5 6.5t-7.5 15.5v10q0 10 19 37l255 371h-117q-26 0 -48.5 -25.5t-42 -51
t-39.5 -25.5h-6q-13 0 -18 9.5t0 23.5l25 81q6 16 12 22t20 6h358q10 0 16 -6t6 -14v-10q0 -8 -26 -47l-252 -363h137q24 0 46 17.5t35.5 38t30.5 38t32 17.5h6z" />
    <glyph glyph-name="uni01EA" unicode="&#x1ea;" horiz-adv-x="762" 
d="M476 1q-55 -64 -55 -115q-1 -46 32 -46q10 0 21 4q19 7 25 -16q6 -24 -13 -37l-5 -2q-18 -10 -53 -10q-44 0 -77.5 22t-33.5 66q0 67 87 123h-19q-150 0 -252 105t-102 258q0 162 97.5 264.5t253.5 102.5q150 0 250 -106.5t100 -262.5q0 -131 -71 -225.5t-185 -124.5z
M178 472q0 -102 32.5 -198t90.5 -157.5t126 -61.5q69 0 111 51t42 130q0 98 -33 194.5t-92 160.5t-127 64q-69 0 -109.5 -50t-40.5 -133z" />
    <glyph glyph-name="uni01EB" unicode="&#x1eb;" horiz-adv-x="580" 
d="M337 -7q-44 -58 -44 -103q-1 -47 32 -47q8 0 21 5q19 7 25 -15q6 -25 -13 -38q-3 -2 -6 -3q-18 -9 -52 -9q-45 0 -78.5 21.5t-33.5 66.5q0 64 83 120q-108 10 -177 81.5t-69 170.5q0 107 76 177t183 70q115 0 192 -72.5t77 -179.5q0 -97 -60.5 -165t-155.5 -80zM172 300
q0 -54 16.5 -114t51 -106t77.5 -46q41 0 63.5 38t22.5 107q0 57 -16.5 117.5t-49.5 105t-73 44.5q-92 0 -92 -146z" />
    <glyph glyph-name="AEacute" unicode="&#x1fc;" horiz-adv-x="956" 
d="M508 777q-25 -3 -33 16q-8 23 12 34l195 98q18 9 31 3.5t18 -23.5l16 -59q5 -17 -3 -29t-26 -13zM924 171q21 0 16 -21l-25 -121q-5 -29 -31 -29h-429q-23 0 -23 17v3q0 11 19.5 32t19.5 45v80h-248l-47 -81q-10 -22 -4 -31.5t18.5 -22t12.5 -21.5v-4q0 -17 -24 -17h-164
q-23 0 -23 17v4q0 12 27 32t41 43l298 499q11 25 5 38.5t-19 29.5t-13 24v7q0 16 22 16h504q15 0 22 -6.5t10 -21.5l21 -111q5 -25 -21 -25h-5q-15 0 -31.5 16t-29 36t-32.5 36t-43 16h-100q-40 0 -40 -44v-210h116q21 0 35.5 18t24.5 35.5t20 17.5h8q17 0 17 -23v-157
q0 -23 -17 -23h-8q-10 0 -20 17t-24.5 33.5t-35.5 16.5h-116v-214q0 -26 13.5 -41.5t38.5 -15.5h117q25 0 46.5 17.5t33.5 38t28 38t31 17.5h8zM261 242h210v361z" />
    <glyph glyph-name="aeacute" unicode="&#x1fd;" horiz-adv-x="790" 
d="M342 549q-24 -7 -36 11q-12 20 7 35l173 132q34 26 52 -11l27 -55q8 -15 2.5 -29t-23.5 -18zM733 155q10 11 23 7t12 -19q-5 -52 -60 -101t-143 -49q-131 0 -198 100q-8 -44 -46 -73.5t-104 -29.5q-83 0 -135.5 40t-52.5 111t51 111.5t130 40.5q67 0 109 -29l-1 11
q-9 94 -27 133.5t-62 39.5q-27 0 -43.5 -20t-23 -44t-23 -44t-42.5 -20q-27 0 -43.5 15.5t-16.5 40.5q0 53 57 83.5t135 30.5q105 0 169 -64q69 67 167 67q91 0 140 -43t49 -99q0 -48 -45 -66l-221 -102q41 -86 131 -86q66 0 114 58zM546 449q-38 0 -61.5 -37.5t-23.5 -96.5
q0 -49 10 -86l130 66q26 14 26 46q0 35 -22 71.5t-59 36.5zM261 35q34 0 53 29.5t18 64.5l-3 30q-4 43 -25.5 65t-53.5 22t-52 -20.5t-20 -54.5q0 -58 23 -97t60 -39z" />
    <glyph glyph-name="Oslashacute" unicode="&#x1fe;" horiz-adv-x="775" 
d="M297 777q-25 -3 -33 16q-8 23 12 34l194 98q37 19 49 -20l17 -59q5 -17 -3 -29t-26 -13zM663 584q76 -100 76 -233q0 -157 -99.5 -259t-247.5 -102q-145 0 -246 99l-65 -62q-12 -10 -24 0l-23 20q-10 11 5 26l66 63q-67 96 -67 217q0 162 97.5 264.5t253.5 102.5
q135 0 233 -90l62 59q16 16 28 4l21 -20q13 -9 -3 -25zM185 472q0 -114 41 -220l285 272q-77 131 -176 131q-69 0 -109.5 -50t-40.5 -133zM434 55q69 0 111 51t42 130q0 119 -47 230l-286 -274q76 -137 180 -137z" />
    <glyph glyph-name="oslashacute" unicode="&#x1ff;" horiz-adv-x="586" 
d="M191 550q-24 -7 -36 11q-12 20 7 35l173 132q16 12 30 9t22 -20l26 -55q9 -15 3.5 -29t-23.5 -18zM496 400q60 -68 60 -162q0 -107 -72.5 -177.5t-181.5 -70.5q-101 0 -175 55l-55 -53q-11 -9 -20 0l-21 20q-11 11 2 24l52 50q-57 68 -57 157q0 107 76 177t183 70
q94 0 166 -51l54 52q14 14 26 2l18 -17q11 -12 -2 -25zM176 300q0 -50 16 -111l175 168q-42 89 -100 89q-91 0 -91 -146zM320 34q41 0 63.5 38t22.5 107q0 56 -17 118l-175 -168q44 -95 106 -95z" />
    <glyph glyph-name="uni0218" unicode="&#x218;" horiz-adv-x="626" 
d="M325 -10q-133 0 -214.5 56.5t-81.5 123.5q0 28 15 44.5t45 16.5q27 -1 46.5 -20t34 -46t31.5 -53.5t50 -45.5t80 -19q53 0 84.5 27.5t31.5 73.5q0 43 -22.5 71t-58 42.5t-78.5 25t-86 24.5t-79 35.5t-58.5 63t-22.5 101.5q0 92 71.5 150t193.5 58q120 0 199.5 -53.5
t78.5 -119.5q0 -62 -64 -62q-30 0 -49.5 18.5t-32 44.5t-26.5 52t-41.5 44.5t-67.5 18.5q-55 0 -84 -29t-29 -74q0 -43 22.5 -72t58 -44t78.5 -26.5t86 -26t78.5 -35.5t58 -62t22.5 -99q0 -94 -78 -149t-192 -55zM284 -320q-14 -8 -25 4t0 23q47 46 52 79q2 17 -11 17
q-24 0 -41 21t-17 54q0 37 21.5 60.5t57.5 23.5q35 0 59.5 -26t24.5 -70q0 -110 -121 -186z" />
    <glyph glyph-name="uni0219" unicode="&#x219;" horiz-adv-x="479" 
d="M240 -9q-94 0 -154 34t-60 82q0 27 16.5 41t43.5 14q29 0 47 -20.5t25.5 -45.5t28 -45.5t53.5 -20.5q32 0 52.5 17t20.5 49q0 36 -28.5 57t-69.5 31.5t-82 24t-69.5 47t-28.5 87.5q0 64 56.5 105.5t146.5 41.5q91 0 148.5 -35.5t57.5 -84.5q0 -22 -16.5 -37t-40.5 -15
q-28 0 -45 20.5t-24 45t-25 45t-47 20.5t-47 -19.5t-18 -47.5t15 -47t39 -29t53 -18.5t58.5 -19t53.5 -25.5t39 -42.5t15 -66.5q0 -62 -58 -102.5t-156 -40.5zM206 -320q-14 -8 -25 4t0 23q47 46 52 79q2 17 -11 17q-24 0 -41 21t-17 54q0 37 21.5 60.5t57.5 23.5
q35 0 59.5 -26t24.5 -70q0 -111 -121 -186z" />
    <glyph glyph-name="uni021A" unicode="&#x21a;" horiz-adv-x="630" 
d="M220 0q-22 0 -22 17v3q0 10 20 31.5t20 44.5v549h-80q-21 0 -38 -18t-26.5 -40t-22.5 -40t-26 -18h-14q-26 0 -21 26l18 127q4 28 32 28h507q28 0 32 -28l21 -128q2 -12 -3.5 -18.5t-16.5 -6.5h-15q-13 0 -26.5 18t-23.5 40t-27.5 40t-38.5 18h-81v-549q0 -23 21 -44.5
t21 -31.5v-3q0 -17 -23 -17h-187zM280 -320q-14 -8 -25 4t0 23q47 47 51 79q3 17 -10 17q-24 0 -41.5 21.5t-17.5 53.5q0 37 22 60.5t58 23.5q35 0 59 -26t24 -70q0 -110 -120 -186z" />
    <glyph glyph-name="uni021B" unicode="&#x21b;" horiz-adv-x="388" 
d="M227 -10q-70 0 -110.5 44.5t-40.5 128.5v259h-47q-20 0 -20 20v17q0 21 20 21h25q41 0 69.5 27t36.5 72q5 24 23 24h20q22 0 22 -24l1 -99h115q8 0 14 -6t6 -15v-17q0 -9 -6 -14.5t-14 -5.5h-115v-261q0 -29 14.5 -46.5t36.5 -17.5q52 0 68 45q9 13 22.5 10.5t13.5 -16.5
q0 -58 -41.5 -102t-112.5 -44zM173 -317q-14 -8 -25 4t0 23q48 48 51 79q4 18 -10 18q-24 0 -41 21t-17 53q0 37 21.5 60.5t57.5 23.5q35 0 59 -26t24 -70q0 -110 -120 -186z" />
    <glyph glyph-name="uni0237" unicode="&#x237;" horiz-adv-x="276" 
d="M59 -194q-65 0 -104.5 25.5t-39.5 72.5q0 27 18 44t45 17q30 0 46 -17t19.5 -38t14 -38t30.5 -17q18 0 29 13t11 33q0 35 -27 74.5t-27 66.5v281q0 25 -19 46.5t-19 30.5v3q0 10 20 21l128 62q19 8 29.5 1.5t10.5 -21.5v-470q0 -72 -31 -122q-47 -68 -134 -68z" />
    <glyph glyph-name="circumflex" unicode="&#x2c6;" 
d="M373 587q21 -20 6.5 -38.5t-41.5 -5.5l-144 73l-131 -73q-19 -10 -35.5 6t3.5 38l110 109q17 18 42 18h29q24 0 42 -18z" />
    <glyph glyph-name="caron" unicode="&#x2c7;" 
d="M340 708q16 10 31 -7t2 -30l-115 -111q-18 -17 -42 -17h-33q-25 0 -42 18l-110 110q-14 14 1.5 30t31.5 7l139 -76z" />
    <glyph glyph-name="breve" unicode="&#x2d8;" 
d="M218 546q-68 0 -114 38.5t-54 94.5q-3 21 20 27t31 -8q11 -27 44 -43t73 -16q41 0 73.5 16t44.5 43q7 13 30 6.5t21 -25.5q-8 -56 -53.5 -94.5t-115.5 -38.5z" />
    <glyph glyph-name="dotaccent" unicode="&#x2d9;" 
d="M150 551q-44 0 -71.5 24.5t-27.5 63.5q0 38 27.5 62.5t71.5 24.5t70.5 -24.5t26.5 -62.5q0 -39 -26.5 -63.5t-70.5 -24.5z" />
    <glyph glyph-name="ring" unicode="&#x2da;" 
d="M212 531q-60 0 -99 30.5t-39 75.5q0 49 38.5 79.5t100.5 30.5q60 0 99.5 -29.5t39.5 -75.5q0 -50 -38.5 -80.5t-101.5 -30.5zM213 573q51 0 51 67q0 29 -14.5 45.5t-36.5 16.5q-51 0 -51 -62q0 -30 14.5 -48.5t36.5 -18.5z" />
    <glyph glyph-name="ogonek" unicode="&#x2db;" 
d="M347 -223q-44 0 -77.5 21.5t-33.5 66.5q0 74 111 138h52q-59 -67 -59 -119q0 -47 32 -47q8 0 21 5q19 7 25 -15q7 -25 -12 -38q-3 -2 -6 -3q-18 -9 -53 -9z" />
    <glyph glyph-name="tilde" unicode="&#x2dc;" 
d="M180 714q37 0 88 -25.5t69 -25.5q30 0 46 25q7 13 21 13h8q18 0 14 -21q-11 -51 -40 -80.5t-69 -29.5q-33 0 -84 26.5t-74 26.5q-27 0 -43 -24q-16 -15 -23 -16h-11q-17 0 -14 20q9 47 38.5 79t73.5 32z" />
    <glyph glyph-name="hungarumlaut" unicode="&#x2dd;" 
d="M62 537q-10 10 2 30l107 171q22 36 50 10l30 -29q32 -29 1 -51l-160 -127q-18 -15 -30 -4zM265 537q-10 8 2 30l108 171q22 37 49 10l31 -29q32 -28 0 -52l-159 -126q-19 -14 -31 -4z" />
    <glyph glyph-name="gravecomb" unicode="&#x300;" horiz-adv-x="0" 
d="M-258 544l-202 66q-37 9 -21 47l28 55q8 17 21.5 20t30.5 -9l172 -132q19 -14 7 -35q-11 -17 -36 -12z" />
    <glyph glyph-name="acutecomb" unicode="&#x301;" horiz-adv-x="0" 
d="M-379 545q-24 -7 -36 11q-11 20 6 35l174 132q32 26 51 -11l27 -55q9 -15 3.5 -29t-23.5 -18z" />
    <glyph glyph-name="uni0302" unicode="&#x302;" horiz-adv-x="0" 
d="M-32 587q21 -20 6.5 -38.5t-41.5 -5.5l-144 73l-131 -73q-19 -10 -35.5 6t3.5 38l110 109q17 18 42 18h29q24 0 42 -18z" />
    <glyph glyph-name="tildecomb" unicode="&#x303;" horiz-adv-x="0" 
d="M-420 714q37 0 88 -25.5t69 -25.5q30 0 46 25q7 13 21 13h8q18 0 14 -21q-11 -51 -40 -80.5t-69 -29.5q-33 0 -84 26.5t-74 26.5q-27 0 -43 -24q-16 -15 -23 -16h-11q-17 0 -14 20q9 47 38.5 79t73.5 32z" />
    <glyph glyph-name="uni0304" unicode="&#x304;" horiz-adv-x="0" 
d="M-434 581q-22 0 -22 21v49q0 21 22 21h276q22 0 22 -21v-49q0 -21 -22 -21h-276z" />
    <glyph glyph-name="uni0306" unicode="&#x306;" horiz-adv-x="0" 
d="M-259 546q-68 0 -114 38.5t-54 94.5q-3 21 20 27t31 -8q11 -27 44 -43t73 -16q41 0 73.5 16t44.5 43q7 13 30 6.5t21 -25.5q-8 -56 -53.5 -94.5t-115.5 -38.5z" />
    <glyph glyph-name="uni0307" unicode="&#x307;" horiz-adv-x="0" 
d="M-152 551q-44 0 -71.5 24.5t-27.5 63.5q0 38 27.5 62.5t71.5 24.5t70.5 -24.5t26.5 -62.5q0 -39 -26.5 -63.5t-70.5 -24.5z" />
    <glyph glyph-name="uni0308" unicode="&#x308;" horiz-adv-x="0" 
d="M-425 555q-40 0 -65 22.5t-25 57.5t25 57.5t65 22.5q39 0 63.5 -22.5t24.5 -57.5t-24.5 -57.5t-63.5 -22.5zM-196 555q-39 0 -63.5 22.5t-24.5 57.5t24.5 57.5t63.5 22.5t64 -22.5t25 -57.5t-25 -57.5t-64 -22.5z" />
    <glyph glyph-name="uni030A" unicode="&#x30a;" horiz-adv-x="0" 
d="M-336 531q-60 0 -99 30.5t-39 75.5q0 49 38.5 79.5t100.5 30.5q60 0 99.5 -29.5t39.5 -75.5q0 -50 -38.5 -80.5t-101.5 -30.5zM-335 573q51 0 51 67q0 29 -14.5 45.5t-36.5 16.5q-51 0 -51 -62q0 -30 14.5 -48.5t36.5 -18.5z" />
    <glyph glyph-name="uni030B" unicode="&#x30b;" horiz-adv-x="0" 
d="M-472 537q-10 10 2 30l107 171q22 36 50 10l30 -29q32 -29 1 -51l-160 -127q-18 -15 -30 -4zM-269 537q-10 8 2 30l108 171q22 37 49 10l31 -29q32 -28 0 -52l-159 -126q-19 -14 -31 -4z" />
    <glyph glyph-name="uni030C" unicode="&#x30c;" horiz-adv-x="0" 
d="M-65 708q16 10 31 -7t2 -30l-115 -111q-18 -17 -42 -17h-33q-25 0 -42 18l-110 110q-14 14 1.5 30t31.5 7l139 -76z" />
    <glyph glyph-name="uni0312" unicode="&#x312;" horiz-adv-x="0" 
d="M-177 360q-14 -8 -25.5 4t-0.5 24q28 27 39.5 44t13.5 37q3 18 -10 18q-26 0 -43.5 22t-17.5 55q0 39 22.5 63t59.5 24q36 0 61.5 -27t25.5 -72q0 -113 -125 -192z" />
    <glyph glyph-name="uni0326" unicode="&#x326;" horiz-adv-x="0" 
d="M-272 -320q-14 -8 -25 4t0 23q47 46 52 79q2 17 -11 17q-24 0 -41 21t-17 54q0 37 21.5 60.5t57.5 23.5q35 0 59.5 -26t24.5 -70q0 -111 -121 -186z" />
    <glyph glyph-name="uni0327" unicode="&#x327;" horiz-adv-x="0" 
d="M-256 -53q49 2 85 -19t36 -62t-39.5 -63t-96.5 -22q-52 0 -86 17q-20 9 -15 35q3 17 13 17q3 0 6 -2q26 -14 59 -14q23 0 38.5 10t14.5 28q-1 33 -60 33q-13 0 -20.5 8t-4.5 22l13 65h59z" />
    <glyph glyph-name="uni0328" unicode="&#x328;" horiz-adv-x="0" 
d="M-253 -223q-44 0 -77.5 21.5t-33.5 66.5q0 74 111 138h52q-59 -67 -59 -119q0 -47 32 -47q8 0 21 5q19 7 25 -15q7 -25 -12 -38q-3 -2 -6 -3q-18 -9 -53 -9z" />
    <glyph glyph-name="uni0335" unicode="&#x335;" horiz-adv-x="0" 
d="M-400 261q-16 0 -16 15v28q0 15 16 15h307q17 0 17 -15v-25q0 -18 -17 -18h-307z" />
    <glyph glyph-name="uni0336" unicode="&#x336;" horiz-adv-x="0" 
d="M-691 258q-21 0 -21 17v23q0 17 21 17h713q23 0 23 -17v-23q0 -17 -23 -17h-713z" />
    <glyph glyph-name="uni0337" unicode="&#x337;" horiz-adv-x="0" 
d="M-446 154q-12 -8 -21 3l-18 28q-9 13 6 23l289 189q18 12 26 -3l17 -27q8 -12 -7 -23z" />
    <glyph glyph-name="uni0338" unicode="&#x338;" horiz-adv-x="0" 
d="M-555 17l-21 19q-10 11 3 24l474 455q14 14 26 2l18 -17q12 -12 -2 -24l-478 -459q-9 -11 -20 0z" />
    <glyph glyph-name="Wgrave" unicode="&#x1e80;" horiz-adv-x="1007" 
d="M411 796q-18 1 -25.5 13t-3.5 29l16 60q10 39 48 21l196 -94q21 -12 13 -34q-8 -20 -33 -18zM983 710q22 0 22 -16v-4q0 -11 -24 -30.5t-33 -45.5l-191 -572q-14 -42 -58 -42q-41 0 -55 39l-125 375l-127 -372q-13 -42 -52 -42q-22 0 -33.5 9t-21.5 30l-235 574
q-11 26 -36 45.5t-25 32.5v3q0 16 22 16h211q23 0 23 -16v-4q0 -10 -12.5 -20.5t-21.5 -24t-2 -32.5l158 -427l115 340l-29 88q-7 22 -34 43.5t-27 33.5v3q0 16 21 16h210q21 0 21 -16v-3q0 -8 -8.5 -16t-18 -13.5t-15 -18t-0.5 -29.5l129 -425l135 425q5 14 0 26t-14 18
t-17 15t-8 17v3q0 17 22 17h134z" />
    <glyph glyph-name="wgrave" unicode="&#x1e81;" horiz-adv-x="743" 
d="M278 606q-37 11 -20 47l27 56q19 36 52 10l173 -131q18 -16 6 -36q-12 -18 -36 -11zM726 480q20 0 20 -16v-5q0 -12 -23.5 -32t-31.5 -44l-129 -359q-8 -24 -32 -24h-33q-26 0 -33 24l-92 296l-93 -296q-8 -24 -33 -24h-23q-24 0 -32 24l-146 359q-8 21 -28 42.5
t-20 33.5v5q0 16 20 16h178q19 0 19 -17v-4q0 -8 -7 -15.5t-14.5 -13.5t-11 -19t2.5 -30l80 -235l93 311q6 19 23 19l55 1q17 0 23 -18l91 -313l77 222q8 21 2.5 36.5t-15 22.5t-18.5 15.5t-9 16.5v4q0 17 20 17h120z" />
    <glyph glyph-name="Wacute" unicode="&#x1e82;" horiz-adv-x="1007" 
d="M448 777q-25 -4 -33 16q-8 23 13 34l194 98q18 9 31 3.5t18 -23.5l16 -59q5 -17 -2.5 -29t-26.5 -13zM983 710q22 0 22 -16v-4q0 -11 -24 -30.5t-33 -45.5l-191 -572q-14 -42 -58 -42q-41 0 -55 39l-125 375l-127 -372q-13 -42 -52 -42q-22 0 -33.5 9t-21.5 30l-235 574
q-11 26 -36 45.5t-25 32.5v3q0 16 22 16h211q23 0 23 -16v-4q0 -10 -12.5 -20.5t-21.5 -24t-2 -32.5l158 -427l115 340l-29 88q-7 22 -34 43.5t-27 33.5v3q0 16 21 16h210q21 0 21 -16v-3q0 -8 -8.5 -16t-18 -13.5t-15 -18t-0.5 -29.5l129 -425l135 425q5 14 0 26t-14 18
t-17 15t-8 17v3q0 17 22 17h134z" />
    <glyph glyph-name="wacute" unicode="&#x1e83;" horiz-adv-x="743" 
d="M309 546q-24 -7 -36 11q-11 20 7 36l173 131q16 12 30 9t22 -19l26 -56q9 -15 3.5 -28.5t-23.5 -18.5zM726 480q20 0 20 -16v-5q0 -12 -23.5 -32t-31.5 -44l-129 -359q-8 -24 -32 -24h-33q-26 0 -33 24l-92 296l-93 -296q-8 -24 -33 -24h-23q-24 0 -32 24l-146 359
q-8 21 -28 42.5t-20 33.5v5q0 16 20 16h178q19 0 19 -17v-4q0 -8 -7 -15.5t-14.5 -13.5t-11 -19t2.5 -30l80 -235l93 311q6 19 23 19l55 1q17 0 23 -18l91 -313l77 222q8 21 2.5 36.5t-15 22.5t-18.5 15.5t-9 16.5v4q0 17 20 17h120z" />
    <glyph glyph-name="Wdieresis" unicode="&#x1e84;" horiz-adv-x="1007" 
d="M425 775q-40 0 -65 22.5t-25 57.5t25 57.5t65 22.5q39 0 63.5 -22.5t24.5 -57.5t-24.5 -57.5t-63.5 -22.5zM655 775q-40 0 -64.5 22.5t-24.5 57.5t24.5 57.5t64.5 22.5q39 0 63.5 -22.5t24.5 -57.5t-24.5 -57.5t-63.5 -22.5zM983 710q22 0 22 -16v-4q0 -11 -24 -30.5
t-33 -45.5l-191 -572q-14 -42 -58 -42q-41 0 -55 39l-125 375l-127 -372q-13 -42 -52 -42q-22 0 -33.5 9t-21.5 30l-235 574q-11 26 -36 45.5t-25 32.5v3q0 16 22 16h211q23 0 23 -16v-4q0 -10 -12.5 -20.5t-21.5 -24t-2 -32.5l158 -427l115 340l-29 88q-7 22 -34 43.5
t-27 33.5v3q0 16 21 16h210q21 0 21 -16v-3q0 -8 -8.5 -16t-18 -13.5t-15 -18t-0.5 -29.5l129 -425l135 425q5 14 0 26t-14 18t-17 15t-8 17v3q0 17 22 17h134z" />
    <glyph glyph-name="wdieresis" unicode="&#x1e85;" horiz-adv-x="743" 
d="M283 551q-40 0 -65 23t-25 57q0 35 25 57.5t65 22.5q39 0 63.5 -22.5t24.5 -57.5q0 -34 -24.5 -57t-63.5 -23zM512 551q-39 0 -63.5 23t-24.5 57q0 35 24.5 57.5t63.5 22.5t64 -22.5t25 -57.5q0 -34 -25 -57t-64 -23zM726 480q20 0 20 -16v-5q0 -12 -23.5 -32t-31.5 -44
l-129 -359q-8 -24 -32 -24h-33q-26 0 -33 24l-92 296l-93 -296q-8 -24 -33 -24h-23q-24 0 -32 24l-146 359q-8 21 -28 42.5t-20 33.5v5q0 16 20 16h178q19 0 19 -17v-4q0 -8 -7 -15.5t-14.5 -13.5t-11 -19t2.5 -30l80 -235l93 311q6 19 23 19l55 1q17 0 23 -18l91 -313
l77 222q8 21 2.5 36.5t-15 22.5t-18.5 15.5t-9 16.5v4q0 17 20 17h120z" />
    <glyph glyph-name="uni1E9E" unicode="&#x1e9e;" horiz-adv-x="683" 
d="M456 398q91 -9 146.5 -61t55.5 -135q0 -93 -73 -147.5t-195 -54.5q-18 0 -25.5 15.5t-1 31t21.5 15.5q53 0 85 33.5t32 96.5q0 68 -29 116t-76 48q-17 0 -25.5 11.5t-7.5 26.5t10 25l113 123q0 48 -36.5 81.5t-105.5 33.5q-57 0 -92 -41.5t-35 -108.5v-409
q0 -24 21.5 -44.5t21.5 -33.5v-3q0 -8 -2 -12t-5 -4.5t-9 -0.5h-3h-197q-21 0 -21 17v3q0 10 20 32t20 46v383q0 108 79 173.5t210 65.5q106 0 180.5 -46.5t85.5 -115.5q6 -32 -22 -54z" />
    <glyph glyph-name="Ygrave" unicode="&#x1ef2;" horiz-adv-x="684" 
d="M230 796q-18 1 -25.5 13t-3.5 29l16 60q10 39 48 21l196 -94q21 -12 13 -34q-8 -20 -33 -18zM655 710q22 0 22 -16v-4q0 -12 -23.5 -32t-37.5 -44l-188 -325v-193q0 -23 21 -44.5t21 -31.5v-3q0 -17 -22 -17h-189q-22 0 -22 17v3q0 10 19 31.5t19 44.5v182l-212 336
q-13 21 -39 42t-26 34v4q0 16 24 16h227q23 0 23 -16v-4q0 -10 -14.5 -21t-24.5 -24.5t0 -30.5l154 -270l154 270q9 14 4 26t-15 18.5t-19.5 15t-9.5 16.5v4q0 16 22 16h132z" />
    <glyph glyph-name="ygrave" unicode="&#x1ef3;" horiz-adv-x="548" 
d="M179 610q-18 4 -23 17.5t3 29.5l27 55q18 37 52 11l173 -132q19 -15 6 -35q-10 -18 -36 -12zM531 480q20 0 20 -16v-5q0 -13 -20.5 -35t-30.5 -43l-189 -411q-13 -29 -22 -47t-27.5 -47.5t-36.5 -46.5t-45 -30t-56 -13q-64 0 -105.5 33t-41.5 74q0 27 16 43.5t44 16.5
t44 -18.5t21 -41.5t15.5 -41.5t27.5 -18.5q46 0 103 140l-199 408q-11 22 -32.5 43.5t-21.5 34.5v5q0 16 21 16h187q19 0 19 -17v-4q0 -9 -9 -20.5t-12 -21.5t6 -38l117 -271l108 257q10 34 0 47t-27 25.5t-17 21.5v4q0 17 21 17h122z" />
    <glyph glyph-name="uni1EF8" unicode="&#x1ef8;" horiz-adv-x="684" 
d="M198 774q-17 0 -14 21q9 46 38.5 78t72.5 32q38 0 88.5 -25.5t68.5 -25.5q32 0 46 25q8 14 22 14h8q19 0 14 -21q-12 -51 -40.5 -80.5t-68.5 -29.5q-33 0 -84.5 26t-74.5 26q-25 0 -42 -23q-1 -1 -2 -3q-9 -14 -21 -14h-11zM655 710q22 0 22 -16v-4q0 -12 -23.5 -32
t-37.5 -44l-188 -325v-193q0 -23 21 -44.5t21 -31.5v-3q0 -17 -22 -17h-189q-22 0 -22 17v3q0 10 19 31.5t19 44.5v182l-212 336q-13 21 -39 42t-26 34v4q0 16 24 16h227q23 0 23 -16v-4q0 -10 -14.5 -21t-24.5 -24.5t0 -30.5l154 -270l154 270q9 14 4 26t-15 18.5t-19.5 15
t-9.5 16.5v4q0 16 22 16h132z" />
    <glyph glyph-name="uni1EF9" unicode="&#x1ef9;" horiz-adv-x="548" 
d="M130 588q-17 0 -14 21q9 47 38.5 78.5t72.5 31.5q38 0 88.5 -25.5t68.5 -25.5q32 0 46 25q8 14 22 14h8q19 0 14 -21q-12 -51 -40.5 -80.5t-68.5 -29.5q-33 0 -84.5 26t-74.5 26q-25 0 -42 -23q-1 -2 -3 -4.5t-3 -4t-2.5 -3t-3 -2.5t-3 -1.5t-3.5 -1t-5 -0.5h-11z
M531 480q20 0 20 -16v-5q0 -13 -20.5 -35t-30.5 -43l-189 -411q-13 -29 -22 -47t-27.5 -47.5t-36.5 -46.5t-45 -30t-56 -13q-64 0 -105.5 33t-41.5 74q0 27 16 43.5t44 16.5t44 -18.5t21 -41.5t15.5 -41.5t27.5 -18.5q46 0 103 140l-199 408q-11 22 -32.5 43.5t-21.5 34.5v5
q0 16 21 16h187q19 0 19 -17v-4q0 -9 -9 -20.5t-12 -21.5t6 -38l117 -271l108 257q10 34 0 47t-27 25.5t-17 21.5v4q0 17 21 17h122z" />
    <glyph glyph-name="endash" unicode="&#x2013;" horiz-adv-x="557" 
d="M70 292q-20 0 -20 22v32q0 21 20 21h417q19 0 19 -21v-32q0 -22 -19 -22h-417z" />
    <glyph glyph-name="emdash" unicode="&#x2014;" horiz-adv-x="667" 
d="M70 292q-20 0 -20 22v32q0 21 20 21h527q20 0 20 -21v-32q0 -22 -20 -22h-527z" />
    <glyph glyph-name="quoteleft" unicode="&#x2018;" horiz-adv-x="237" 
d="M159 777q15 9 27.5 -4t0.5 -26q-29 -28 -41.5 -46.5t-15.5 -39.5q-3 -20 11 -20q27 0 46 -23t19 -59q0 -42 -24 -67.5t-64 -25.5q-39 0 -65.5 28.5t-26.5 77.5q0 122 133 205z" />
    <glyph glyph-name="quoteright" unicode="&#x2019;" horiz-adv-x="241" 
d="M85 444q-15 -9 -27.5 4t0.5 26q29 29 41 47t15 40q3 19 -11 19q-27 0 -46 23t-19 59q0 42 24 67.5t64 25.5q39 0 65.5 -28.5t26.5 -76.5q0 -122 -133 -206z" />
    <glyph glyph-name="quotesinglbase" unicode="&#x201a;" horiz-adv-x="249" 
d="M82 -146q-15 -9 -27.5 4t-0.5 26q29 28 41.5 46.5t15.5 40.5q3 19 -11 19q-27 0 -46 23t-19 59q0 42 24 67.5t64 25.5q38 0 65 -28.5t27 -77.5q0 -122 -133 -205z" />
    <glyph glyph-name="quotedblleft" unicode="&#x201c;" horiz-adv-x="466" 
d="M159 783q15 9 27.5 -4t0.5 -26q-30 -30 -42 -48t-15 -39q-3 -19 11 -19q27 0 46 -23t19 -59q0 -42 -24 -67.5t-64 -25.5q-38 0 -65 28.5t-27 77.5q0 121 133 205zM389 783q15 9 27.5 -4t-0.5 -26q-30 -30 -42 -48t-14 -39q-3 -19 11 -19q27 0 45.5 -23t18.5 -59
q0 -42 -24 -67.5t-63 -25.5t-65.5 28.5t-26.5 77.5q0 121 133 205z" />
    <glyph glyph-name="quotedblright" unicode="&#x201d;" horiz-adv-x="470" 
d="M84 445q-15 -9 -27.5 4t0.5 26q29 28 41.5 46.5t15.5 40.5q2 19 -12 19q-27 0 -45.5 23.5t-18.5 58.5q0 42 24 67.5t63 25.5t66 -28.5t27 -77.5q0 -122 -134 -205zM314 445q-15 -9 -27.5 4t0.5 26q29 28 41 46.5t15 40.5q3 19 -11 19q-27 0 -46 23t-19 59q0 42 24 67.5
t64 25.5q39 0 65.5 -28.5t26.5 -77.5q0 -122 -133 -205z" />
    <glyph glyph-name="quotedblbase" unicode="&#x201e;" horiz-adv-x="479" 
d="M82 -146q-15 -9 -27.5 4t-0.5 26q29 28 41.5 46.5t15.5 40.5q3 19 -11 19q-27 0 -46 23t-19 59q0 42 24 67.5t64 25.5q38 0 65 -28.5t27 -77.5q0 -122 -133 -205zM311 -146q-15 -9 -27.5 4t0.5 26q29 28 41.5 46.5t15.5 40.5q2 19 -12 19q-27 0 -45.5 23.5t-18.5 58.5
q0 42 24 67.5t63 25.5t66 -28.5t27 -77.5q0 -122 -134 -205z" />
    <glyph glyph-name="dagger" unicode="&#x2020;" horiz-adv-x="551" 
d="M491 532q26 3 36.5 -21.5t-0.5 -49.5t-36 -22l-192 20l19 -504q1 -25 -21.5 -35t-45 0.5t-21.5 34.5l19 504l-192 -20q-23 -2 -33 22.5t0 48.5t33 22l190 -19l-29 252q-4 32 26 45.5t60 -0.5t26 -45l-29 -252z" />
    <glyph glyph-name="daggerdbl" unicode="&#x2021;" horiz-adv-x="560" 
d="M492 315q26 3 36.5 -21.5t-0.5 -49.5t-36 -22l-181 19l11 -286q1 -25 -21.5 -35t-45 0.5t-21.5 34.5l11 286l-181 -19q-23 -3 -32.5 21.5t0 49.5t32.5 22l183 -19l6 163l-189 -20q-23 -2 -32.5 22.5t0 48.5t32.5 22l187 -19l-29 252q-4 32 26 45.5t60 -0.5t26 -45
l-29 -252l187 19q26 3 36.5 -21.5t-0.5 -49.5t-36 -22l-189 20l6 -163z" />
    <glyph glyph-name="bullet" unicode="&#x2022;" horiz-adv-x="406" 
d="M204 242q-65 0 -106 36.5t-41 93.5t40.5 94t106.5 37q64 0 104 -37t40 -94t-40 -93.5t-104 -36.5z" />
    <glyph glyph-name="ellipsis" unicode="&#x2026;" horiz-adv-x="749" 
d="M128 -10q-40 0 -66 21.5t-26 61.5t26 61.5t66 21.5q39 0 65 -21.5t26 -61.5t-26 -61.5t-65 -21.5zM380 -10q-40 0 -66 21.5t-26 61.5t26 61.5t66 21.5q39 0 65 -21.5t26 -61.5t-26 -61.5t-65 -21.5zM622 -10q-40 0 -66 21.5t-26 61.5t26 61.5t66 21.5q39 0 65 -21.5
t26 -61.5t-26 -61.5t-65 -21.5z" />
    <glyph glyph-name="perthousand" unicode="&#x2030;" horiz-adv-x="1289" 
d="M212 341q-77 0 -131.5 53t-54.5 135q0 84 51 137.5t133 53.5q77 0 131.5 -55t54.5 -137q0 -83 -54.5 -135t-129.5 -52zM233 0q-11 0 -14.5 6.5t1.5 16.5l363 674q6 13 18 13h53q11 0 14.5 -6.5t-1.5 -16.5l-360 -674q-9 -13 -23 -13h-51zM226 380q29 0 43 27.5t14 70.5
q0 72 -26.5 137t-67.5 65q-29 0 -43.5 -29t-14.5 -74q0 -74 27 -135.5t68 -61.5zM683 -10q-77 0 -131.5 53.5t-54.5 135.5q0 84 51 137t133 53q78 0 132 -54.5t54 -136.5q0 -83 -54.5 -135.5t-129.5 -52.5zM1084 -10q-78 0 -131 53t-53 136q0 85 50 137.5t132 52.5
q76 0 129 -54.5t53 -136.5q0 -83 -52.5 -135.5t-127.5 -52.5zM697 29q29 0 43 27.5t14 70.5q0 73 -26.5 138t-67.5 65q-29 0 -43.5 -29.5t-14.5 -74.5q0 -74 27 -135.5t68 -61.5zM1097 29q29 0 44.5 27.5t15.5 70.5q0 71 -28 137t-69 66q-29 0 -45 -29.5t-16 -74.5
q0 -74 28 -135.5t70 -61.5z" />
    <glyph glyph-name="guilsinglleft" unicode="&#x2039;" horiz-adv-x="298" 
d="M258 478q-7 -54 -38 -107.5t-81 -88.5q45 -36 77.5 -86t38.5 -86q1 -7 -8.5 -13t-23 -5t-22.5 12q-24 29 -50.5 52.5t-59.5 49t-51 41.5q-11 10 -11 39t11 37q121 92 172 165q5 8 16.5 8.5t21 -5t8.5 -13.5z" />
    <glyph glyph-name="guilsinglright" unicode="&#x203a;" horiz-adv-x="295" 
d="M254 323q11 -8 11 -37t-11 -39q-18 -16 -50 -41.5t-58.5 -49t-49.5 -52.5q-8 -11 -21.5 -12t-23 5t-8.5 13q7 38 38 89.5t73 85.5q-48 34 -77.5 86t-36.5 107q-1 8 8.5 13.5t21 5t16.5 -8.5q49 -73 168 -165z" />
    <glyph glyph-name="fraction" unicode="&#x2044;" horiz-adv-x="413" 
d="M-9 0q-11 0 -14.5 6.5t1.5 16.5l377 674q7 13 22 13h46q11 0 14.5 -6.5t-1.5 -16.5l-374 -674q-9 -13 -23 -13h-48z" />
    <glyph glyph-name="Euro" unicode="&#x20ac;" horiz-adv-x="703" 
d="M616 191q14 13 32 5t16 -30q-11 -66 -76 -120.5t-161 -54.5q-123 0 -205 83t-102 210h-73q-20 0 -20 15v23q0 15 20 15h67v21q0 22 1 32h-68q-20 0 -20 15v24q0 15 20 15h75q23 125 107.5 197.5t194.5 72.5q98 0 168 -38.5t70 -96.5q0 -26 -17 -44.5t-47 -18.5
q-27 0 -46.5 14t-32.5 34t-27 40.5t-38.5 34.5t-58.5 14q-55 0 -93 -57t-40 -152h258q21 0 21 -15v-24q0 -15 -21 -15h-257q1 -27 6 -53h219q20 0 20 -15v-23q0 -15 -20 -15h-207q23 -77 69 -117t103 -40q93 0 163 64z" />
    <glyph glyph-name="trademark" unicode="&#x2122;" horiz-adv-x="777" 
d="M324 623q2 -12 -9 -12h-9q-8 0 -23 26t-30 26h-31v-229q0 -10 11.5 -20t11.5 -15v-2q0 -9 -11 -9h-113q-10 0 -10 9v2q0 5 10.5 15t10.5 20v229h-31q-16 0 -30.5 -26t-22.5 -26h-9q-12 0 -10 12l10 74q1 12 14 12h247q13 0 14 -12zM718 435q2 -10 10.5 -19.5t8.5 -15.5
v-3q0 -9 -9 -9h-108q-10 0 -10 9v3q0 5 9.5 14.5t7.5 20.5l-30 167l-72 -200q-5 -14 -17 -14q-14 0 -19 13l-74 195l-24 -162q-2 -11 7.5 -20.5t9.5 -14.5v-2q0 -9 -10 -9h-78q-11 0 -11 9v2q0 6 9 15.5t11 19.5l36 229q2 11 -8 21.5t-10 15.5v1q0 8 10 8h85q16 0 22 -14
l55 -164l54 164q6 14 22 14h86q11 0 11 -7v-3q0 -4 -9.5 -15t-7.5 -22z" />
    <glyph glyph-name="minus" unicode="&#x2212;" 
d="M106 239q-20 0 -20 15v63q0 15 20 15h388q21 0 21 -15v-63q0 -15 -21 -15h-388z" />
    <glyph glyph-name="approxequal" unicode="&#x2248;" 
d="M194 491q45 0 113.5 -31t100.5 -31q46 0 71 34q10 15 24 15h24q18 0 15 -20q-10 -62 -48.5 -96.5t-91.5 -34.5q-51 0 -115.5 32t-95.5 32q-41 0 -65 -36q-10 -17 -31 -17h-17q-16 0 -13 21q6 50 38.5 91t90.5 41zM191 283q45 0 113.5 -31t100.5 -31q47 0 71 35
q9 14 24 14h24q18 0 15 -19q-10 -63 -48.5 -97t-91.5 -34q-51 0 -115.5 31.5t-95.5 31.5q-42 0 -65 -36q-10 -17 -31 -17h-17q-16 0 -14 21q7 51 39.5 91.5t90.5 40.5z" />
    <glyph glyph-name="notequal" unicode="&#x2260;" 
d="M494 328h-122l-50 -95h172q20 0 20 -16v-62q0 -16 -20 -16h-221l-63 -122q-7 -13 -19 -8l-27 12q-13 8 -6 23l50 95h-102q-21 0 -21 16v62q0 16 21 16h151l49 95h-200q-21 0 -21 15v63q0 16 21 16h250l55 106q3 8 9.5 11t13.5 -1l23 -11q12 -7 6 -23l-43 -82h74
q20 0 20 -16v-63q0 -15 -20 -15z" />
    <glyph glyph-name="uniF8FF" unicode="&#xf8ff;" horiz-adv-x="1451" 
d="M691 583q0 26 17.5 44t43.5 18t44 -18t18 -44t-18 -43.5t-44 -17.5t-43.5 18t-17.5 43zM219 270h-119q0 78 2 156.5t4 117.5l3 40h100q9 -139 10 -314zM694 270q0 92 3 147h-61l3 -65q4 -4 15 -4q6 0 10.5 1t5.5 3l2 1v-74q-10 -15 -66 -15q-84 0 -84 66q0 15 2 50t2 37
h-22v79l119 30l1 -17h178q10 -64 10 -239h-118zM328 265q-92 0 -92 113q0 136 137 136q119 0 121 -117v-127h-83l-8 61q-6 -33 -23.5 -49.5t-51.5 -16.5zM1090 270h-114q0 26 1 56t1 40q0 26 -15 26q-18 0 -18 -26q0 -10 1.5 -40t1.5 -56h-114q0 78 2.5 137.5t5.5 80.5l2 21
h80q6 -45 6 -76q0 9 4.5 25t24.5 36t52 20q41 0 57.5 -24.5t18.5 -81.5zM1351 384q0 -55 -31 -87t-93 -32q-60 0 -90.5 33t-30.5 86q0 130 122 130q70 0 96.5 -34.5t26.5 -95.5zM390 375q0 26 -23 26t-23 -26q0 -30 23 -30t23 30zM1251 375q0 26 -23 26q-21 0 -21 -26
q0 -30 21 -30q23 0 23 30zM428 238h104q10 -60 10 -147q0 -73 -35 -107t-114 -34q-32 0 -54.5 4t-29.5 8l-7 5v83q20 -16 69 -16q24 0 37.5 7t15.5 14l2 7q-13 -11 -49 -11q-90 0 -90 83v13h-55l3 -65q4 -4 15 -4q6 0 10.5 1t5.5 3l2 1v-73q-10 -15 -67 -15q-82 0 -82 64
q0 46 3 88h-18v80l117 29l-1 -17l177 -1v-119q0 -27 14 -27q17 0 17 27v119zM733 243q37 0 58.5 -29t21.5 -83q0 -136 -137 -136q1 -13 1 -39h-119q0 76 2.5 146.5t5.5 103.5l2 32h78q7 -52 7 -76q2 11 6.5 25.5t24 35t49.5 20.5zM1070 129l-3 -37h-124q9 -18 49 -18
q16 0 30 3t20 6l6 3v-75q-20 -16 -78 -16q-69 0 -105 31t-36 86q0 64 32.5 97.5t93.5 33.5q54 0 84.5 -30t30.5 -84zM978 109q3 27 -17 27q-23 0 -23 -27h40zM670 72q4 0 10 1.5t16.5 11t10.5 25.5q0 22 -20 22q-22 0 -22 -32zM1075 13q0 -10 6.5 -16.5t16.5 -6.5
q9 0 15.5 6.5t6.5 16.5t-6.5 16t-15.5 6q-10 0 -16.5 -6t-6.5 -16zM1080 13q0 7 5 12.5t13 5.5q7 0 12 -5.5t5 -12.5t-5 -12.5t-12 -5.5q-8 0 -13 5.5t-5 12.5zM1108 2l-6 9q7 0 7 7t-10 7h-11v-23h5v9h5l4 -9h6zM1099 15h-6v6h5q6 0 6 -2q0 -4 -5 -4z" />
    <glyph glyph-name="uni00A40301" horiz-adv-x="554" 
d="M315 777q-25 -4 -33 16q-8 23 13 34l194 98q18 9 31 3.5t18 -23.5l16 -59q5 -17 -2.5 -29t-26.5 -13zM326 614q0 23 -19.5 44.5t-19.5 31.5v4q0 16 23 16h188q23 0 23 -16v-4q0 -10 -21 -31.5t-21 -44.5l-1 -317q-1 -162 -62 -234t-176 -73q-64 0 -111.5 17t-72.5 45
t-36.5 56.5t-11.5 56.5q0 33 19 53.5t50 20.5q32 0 51 -19.5t27 -47l16 -55t26.5 -47t50.5 -19.5q37 0 57.5 42.5t20.5 115.5v405z" />
    <glyph glyph-name="A.ss01" horiz-adv-x="693" 
d="M25 0q-22 0 -22 17v3q0 12 22 31.5t32 44.5l199 511q7 21 -15 48.5t-22 34.5v4q0 16 21 16h193q21 0 21 -16v-4q0 -8 -13 -20t-21.5 -27t-1.5 -32l223 -515q10 -24 32.5 -44t22.5 -32v-3q0 -17 -23 -17h-213q-23 0 -23 17v3q0 10 13.5 20.5t24 24t3.5 31.5l-32 80h-277
l-30 -80q-7 -18 3 -31.5t23.5 -24t13.5 -20.5v-3q0 -17 -23 -17h-131zM192 241h232l-119 307z" />
    <glyph glyph-name="Aacute.ss01" horiz-adv-x="698" 
d="M255 777q-25 -3 -33 16q-8 23 12 34l194 98q37 19 49 -20l17 -59q5 -17 -3 -29t-26 -13zM25 0q-22 0 -22 17v3q0 12 22 31.5t32 44.5l199 511q7 21 -15 48.5t-22 34.5v4q0 16 21 16h193q21 0 21 -16v-4q0 -8 -13 -20t-21.5 -27t-1.5 -32l223 -515q10 -24 32.5 -44
t22.5 -32v-3q0 -17 -23 -17h-213q-23 0 -23 17v3q0 10 13.5 20.5t24 24t3.5 31.5l-32 80h-277l-30 -80q-7 -18 3 -31.5t23.5 -24t13.5 -20.5v-3q0 -17 -23 -17h-131zM192 241h232l-119 307z" />
    <glyph glyph-name="Abreve.ss01" horiz-adv-x="698" 
d="M344 764q-68 0 -114 38.5t-54 94.5q-3 21 19.5 27t30.5 -9q12 -27 44.5 -42.5t73.5 -15.5t73.5 15.5t44.5 42.5q7 13 29.5 7t20.5 -25q-7 -56 -52.5 -94.5t-115.5 -38.5zM25 0q-22 0 -22 17v3q0 12 22 31.5t32 44.5l199 511q7 21 -15 48.5t-22 34.5v4q0 16 21 16h193
q21 0 21 -16v-4q0 -8 -13 -20t-21.5 -27t-1.5 -32l223 -515q10 -24 32.5 -44t22.5 -32v-3q0 -17 -23 -17h-213q-23 0 -23 17v3q0 10 13.5 20.5t24 24t3.5 31.5l-32 80h-277l-30 -80q-7 -18 3 -31.5t23.5 -24t13.5 -20.5v-3q0 -17 -23 -17h-131zM192 241h232l-119 307z" />
    <glyph glyph-name="Acircumflex.ss01" horiz-adv-x="698" 
d="M205 761q-19 -10 -35.5 6t3.5 38l110 109q17 18 42 18h29q24 0 42 -18l119 -109q21 -20 6.5 -38.5t-41.5 -5.5l-144 73zM641 96q10 -24 32.5 -44t22.5 -32v-3q0 -17 -23 -17h-213q-23 0 -23 17v3q0 10 13.5 20.5t24 24t3.5 31.5l-32 80h-277l-30 -80q-7 -18 3 -31.5
t23.5 -24t13.5 -20.5v-3q0 -17 -23 -17h-131q-22 0 -22 17v3q0 12 22 31.5t32 44.5l199 511q7 21 -15 48.5t-22 34.5v4q0 16 21 16h193q21 0 21 -16v-4q0 -8 -13 -20t-21.5 -27t-1.5 -32zM192 241h232l-119 307z" />
    <glyph glyph-name="Adieresis.ss01" horiz-adv-x="698" 
d="M231 775q-40 0 -65 22.5t-25 57.5t25 57.5t65 22.5q39 0 63.5 -22.5t24.5 -57.5t-24.5 -57.5t-63.5 -22.5zM461 775q-40 0 -64.5 22.5t-24.5 57.5t24.5 57.5t64.5 22.5q39 0 64 -22.5t25 -57.5t-25 -57.5t-64 -22.5zM25 0q-22 0 -22 17v3q0 12 22 31.5t32 44.5l199 511
q7 21 -15 48.5t-22 34.5v4q0 16 21 16h193q21 0 21 -16v-4q0 -8 -13 -20t-21.5 -27t-1.5 -32l223 -515q10 -24 32.5 -44t22.5 -32v-3q0 -17 -23 -17h-213q-23 0 -23 17v3q0 10 13.5 20.5t24 24t3.5 31.5l-32 80h-277l-30 -80q-7 -18 3 -31.5t23.5 -24t13.5 -20.5v-3
q0 -17 -23 -17h-131zM192 241h232l-119 307z" />
    <glyph glyph-name="Agrave.ss01" horiz-adv-x="698" 
d="M429 773l-211 23q-18 1 -26 13t-3 29l15 60q5 18 17.5 24t31.5 -3l196 -94q21 -12 13 -34q-8 -20 -33 -18zM25 0q-22 0 -22 17v3q0 12 22 31.5t32 44.5l199 511q7 21 -15 48.5t-22 34.5v4q0 16 21 16h193q21 0 21 -16v-4q0 -8 -13 -20t-21.5 -27t-1.5 -32l223 -515
q10 -24 32.5 -44t22.5 -32v-3q0 -17 -23 -17h-213q-23 0 -23 17v3q0 10 13.5 20.5t24 24t3.5 31.5l-32 80h-277l-30 -80q-7 -18 3 -31.5t23.5 -24t13.5 -20.5v-3q0 -17 -23 -17h-131zM192 241h232l-119 307z" />
    <glyph glyph-name="Amacron.ss01" horiz-adv-x="698" 
d="M206 797q-22 0 -22 21v50q0 21 22 21h276q22 0 22 -21v-50q0 -21 -22 -21h-276zM25 0q-22 0 -22 17v3q0 12 22 31.5t32 44.5l199 511q7 21 -15 48.5t-22 34.5v4q0 16 21 16h193q21 0 21 -16v-4q0 -8 -13 -20t-21.5 -27t-1.5 -32l223 -515q10 -24 32.5 -44t22.5 -32v-3
q0 -17 -23 -17h-213q-23 0 -23 17v3q0 10 13.5 20.5t24 24t3.5 31.5l-32 80h-277l-30 -80q-7 -18 3 -31.5t23.5 -24t13.5 -20.5v-3q0 -17 -23 -17h-131zM192 241h232l-119 307z" />
    <glyph glyph-name="Aogonek.ss01" horiz-adv-x="698" 
d="M641 96q10 -24 32.5 -44t22.5 -32v-3q0 -17 -23 -17h-62q-57 -66 -57 -118q-1 -47 32 -47q5 0 21 4q19 7 25 -15q6 -25 -13 -38q-3 -1 -5 -2q-20 -9 -53 -9q-45 0 -78.5 21.5t-33.5 66.5q0 74 110 137h-99q-23 0 -23 17v3q0 10 13.5 20.5t24 24t3.5 31.5l-32 80h-277
l-30 -80q-7 -18 3 -31.5t23.5 -24t13.5 -20.5v-3q0 -17 -23 -17h-131q-22 0 -22 17v3q0 12 22 31.5t32 44.5l199 511q7 21 -15 48.5t-22 34.5v4q0 16 21 16h193q21 0 21 -16v-4q0 -8 -13 -20t-21.5 -27t-1.5 -32zM192 241h232l-119 307z" />
    <glyph glyph-name="Aring.ss01" horiz-adv-x="698" 
d="M348 745q-59 0 -98.5 30.5t-39.5 75.5q0 49 38.5 79.5t100.5 30.5q59 0 98.5 -29.5t39.5 -74.5q0 -50 -38 -81t-101 -31zM349 787q23 0 37 17t14 50q0 29 -14.5 46t-36.5 17q-52 0 -52 -63q0 -29 15 -48t37 -19zM25 0q-22 0 -22 17v3q0 12 22 31.5t32 44.5l199 511
q7 21 -15 48.5t-22 34.5v4q0 16 21 16h193q21 0 21 -16v-4q0 -8 -13 -20t-21.5 -27t-1.5 -32l223 -515q10 -24 32.5 -44t22.5 -32v-3q0 -17 -23 -17h-213q-23 0 -23 17v3q0 10 13.5 20.5t24 24t3.5 31.5l-32 80h-277l-30 -80q-7 -18 3 -31.5t23.5 -24t13.5 -20.5v-3
q0 -17 -23 -17h-131zM192 241h232l-119 307z" />
    <glyph glyph-name="Atilde.ss01" horiz-adv-x="698" 
d="M283 905q38 0 88.5 -25.5t68.5 -25.5q32 0 46 25q8 14 22 14h8q19 0 14 -21q-12 -51 -40.5 -80.5t-68.5 -29.5q-33 0 -84.5 26t-74.5 26q-25 0 -42 -23q-1 -2 -3 -4.5t-3 -4t-2.5 -3t-3 -2.5t-3 -1.5t-3.5 -1t-5 -0.5h-11q-17 0 -14 21q9 47 38.5 78.5t72.5 31.5zM25 0
q-22 0 -22 17v3q0 12 22 31.5t32 44.5l199 511q7 21 -15 48.5t-22 34.5v4q0 16 21 16h193q21 0 21 -16v-4q0 -8 -13 -20t-21.5 -27t-1.5 -32l223 -515q10 -24 32.5 -44t22.5 -32v-3q0 -17 -23 -17h-213q-23 0 -23 17v3q0 10 13.5 20.5t24 24t3.5 31.5l-32 80h-277l-30 -80
q-7 -18 3 -31.5t23.5 -24t13.5 -20.5v-3q0 -17 -23 -17h-131zM192 241h232l-119 307z" />
    <glyph glyph-name="G.ss01" horiz-adv-x="721" 
d="M683 355q24 0 24 -17v-3q0 -8 -8.5 -16.5t-18 -15t-18 -19t-8.5 -27.5v-243q0 -10 -6 -17t-15 -7q-16 0 -26 11l-36 51q-34 -29 -86.5 -45.5t-102.5 -16.5q-153 0 -252 108t-99 259q0 160 102 261t235 101q123 0 205.5 -56t82.5 -128q0 -32 -18 -50.5t-49 -18.5
q-30 0 -55.5 20t-45 48t-40 56t-50.5 48t-68 20q-63 0 -106.5 -58.5t-43.5 -145.5q0 -147 72 -251t172 -104q59 0 89 21v138q0 24 -29.5 45.5t-29.5 32.5v3q0 17 24 17z" />
    <glyph glyph-name="Gbreve.ss01" horiz-adv-x="720" 
d="M381 764q-68 0 -114.5 38.5t-54.5 94.5q-3 21 20 27t31 -9q12 -27 44.5 -42.5t73.5 -15.5t73.5 15.5t44.5 42.5q7 13 29.5 7t20.5 -25q-7 -56 -52.5 -94.5t-115.5 -38.5zM683 355q24 0 24 -17v-3q0 -8 -8.5 -16.5t-18 -15t-18 -19t-8.5 -27.5v-243q0 -10 -6 -17t-15 -7
q-16 0 -26 11l-36 51q-34 -29 -86.5 -45.5t-102.5 -16.5q-153 0 -252 108t-99 259q0 160 102 261t235 101q123 0 205.5 -56t82.5 -128q0 -32 -18 -50.5t-49 -18.5q-30 0 -55.5 20t-45 48t-40 56t-50.5 48t-68 20q-63 0 -106.5 -58.5t-43.5 -145.5q0 -147 72 -251t172 -104
q59 0 89 21v138q0 24 -29.5 45.5t-29.5 32.5v3q0 17 24 17z" />
    <glyph glyph-name="uni0122.ss01" horiz-adv-x="720" 
d="M683 355q24 0 24 -17v-3q0 -8 -8.5 -16.5t-18 -15t-18 -19t-8.5 -27.5v-243q0 -10 -6 -17t-15 -7q-16 0 -26 11l-36 51q-34 -29 -86.5 -45.5t-102.5 -16.5q-153 0 -252 108t-99 259q0 160 102 261t235 101q123 0 205.5 -56t82.5 -128q0 -32 -18 -50.5t-49 -18.5
q-30 0 -55.5 20t-45 48t-40 56t-50.5 48t-68 20q-63 0 -106.5 -58.5t-43.5 -145.5q0 -147 72 -251t172 -104q59 0 89 21v138q0 24 -29.5 45.5t-29.5 32.5v3q0 17 24 17zM387 -38q35 0 59.5 -26t24.5 -70q0 -110 -121 -186q-14 -8 -25 4t0 23q47 46 52 79q2 17 -11 17
q-24 0 -41 21t-17 54q0 37 21.5 60.5t57.5 23.5z" />
    <glyph glyph-name="Gdotaccent.ss01" horiz-adv-x="720" 
d="M387 760q-41 0 -66.5 23.5t-25.5 59.5q0 35 25.5 58t66.5 23t66.5 -23t25.5 -58q0 -36 -25.5 -59.5t-66.5 -23.5zM683 355q24 0 24 -17v-3q0 -8 -8.5 -16.5t-18 -15t-18 -19t-8.5 -27.5v-243q0 -10 -6 -17t-15 -7q-16 0 -26 11l-36 51q-34 -29 -86.5 -45.5t-102.5 -16.5
q-153 0 -252 108t-99 259q0 160 102 261t235 101q123 0 205.5 -56t82.5 -128q0 -32 -18 -50.5t-49 -18.5q-30 0 -55.5 20t-45 48t-40 56t-50.5 48t-68 20q-63 0 -106.5 -58.5t-43.5 -145.5q0 -147 72 -251t172 -104q59 0 89 21v138q0 24 -29.5 45.5t-29.5 32.5v3q0 17 24 17
z" />
    <glyph glyph-name="K.ss01" horiz-adv-x="716" 
d="M670 121q3 -31 29.5 -61.5t26.5 -39.5v-3q0 -17 -24 -17h-210q-23 0 -23 17v3q0 9 22 30t21 47q0 67 -47 150t-116 126l-112 -113v-163q0 -24 21.5 -45.5t21.5 -31.5v-3q0 -17 -23 -17h-187q-22 0 -22 17v3q0 10 19 31.5t19 45.5v517q0 23 -19 44.5t-19 31.5v4
q0 16 22 16h187q23 0 23 -16v-4q0 -10 -21.5 -31.5t-21.5 -44.5v-262l256 261q13 12 14 23.5t-4.5 19t-12 17t-6.5 17.5v4q0 16 22 16h144q22 0 22 -16v-4q0 -11 -12 -21t-34.5 -25t-38.5 -31l-138 -139q95 -60 153 -163t68 -190z" />
    <glyph glyph-name="uni0136.ss01" horiz-adv-x="716" 
d="M670 121q3 -31 29.5 -61.5t26.5 -39.5v-3q0 -17 -24 -17h-210q-23 0 -23 17v3q0 9 22 30t21 47q0 67 -47 150t-116 126l-112 -113v-163q0 -24 21.5 -45.5t21.5 -31.5v-3q0 -17 -23 -17h-187q-22 0 -22 17v3q0 10 19 31.5t19 45.5v517q0 23 -19 44.5t-19 31.5v4
q0 16 22 16h187q23 0 23 -16v-4q0 -10 -21.5 -31.5t-21.5 -44.5v-262l256 261q13 12 14 23.5t-4.5 19t-12 17t-6.5 17.5v4q0 16 22 16h144q22 0 22 -16v-4q0 -11 -12 -21t-34.5 -25t-38.5 -31l-138 -139q95 -60 153 -163t68 -190zM375 -38q35 0 59 -26t24 -70
q0 -110 -120 -186q-14 -8 -25 4t0 23q26 26 37.5 42.5t13.5 36.5q3 17 -10 17q-24 0 -41 21t-17 54q0 37 21.5 60.5t57.5 23.5z" />
    <glyph glyph-name="M.ss01" horiz-adv-x="900" 
d="M846 98q4 -23 22 -45t18 -33v-3q0 -17 -22 -17h-181q-22 0 -22 17v3q0 9 19.5 31.5t15.5 46.5l-71 406l-168 -476q-9 -27 -33 -27q-26 0 -36 26l-186 491l-64 -420q-4 -24 16.5 -46.5t20.5 -31.5v-3q0 -17 -23 -17h-112q-23 0 -23 17v3q0 11 18.5 33.5t21.5 44.5l83 515
q3 24 -16.5 45.5t-19.5 31.5v3q0 17 20 17h189q21 0 21 -17v-3q0 -5 -17.5 -30.5t-9.5 -48.5l138 -402l140 409q6 21 -13.5 43.5t-19.5 28.5v3q0 17 20 17h194q21 0 21 -16v-4q0 -10 -11.5 -21t-20.5 -25.5t-5 -34.5z" />
    <glyph glyph-name="N.ss01" horiz-adv-x="756" 
d="M694 710q23 0 23 -16v-4q0 -10 -21.5 -31.5t-21.5 -44.5v-574q0 -19 -10.5 -29.5t-28.5 -10.5h-47q-24 0 -46 31l-379 507v-440q0 -23 22.5 -45.5t22.5 -32.5v-3q0 -17 -23 -17h-116q-23 0 -23 17v3q0 10 20 32.5t20 45.5v515q0 24 -20 45.5t-20 31.5v4q0 16 23 16h206
q21 0 21 -16v-4q0 -6 -12 -19t-16 -24t9 -34l320 -433v434q0 23 -21.5 44.5t-21.5 31.5v4q0 16 23 16h117z" />
    <glyph glyph-name="Nacute.ss01" horiz-adv-x="756" 
d="M305 777q-24 -3 -34 16q-8 23 13 34l194 98q37 19 49 -20l16 -59q5 -17 -2.5 -29t-25.5 -13zM694 710q23 0 23 -16v-4q0 -10 -21.5 -31.5t-21.5 -44.5v-574q0 -19 -10.5 -29.5t-28.5 -10.5h-47q-24 0 -46 31l-379 507v-440q0 -23 22.5 -45.5t22.5 -32.5v-3q0 -17 -23 -17
h-116q-23 0 -23 17v3q0 10 20 32.5t20 45.5v515q0 24 -20 45.5t-20 31.5v4q0 16 23 16h206q21 0 21 -16v-4q0 -6 -12 -19t-16 -24t9 -34l320 -433v434q0 23 -21.5 44.5t-21.5 31.5v4q0 16 23 16h117z" />
    <glyph glyph-name="Ncaron.ss01" horiz-adv-x="756" 
d="M334 765l-110 105q-14 14 1.5 28.5t31.5 6.5l139 -72l137 72q10 6 22 0t14.5 -16t-4.5 -19l-115 -105q-17 -17 -41 -17h-34q-24 0 -41 17zM694 710q23 0 23 -16v-4q0 -10 -21.5 -31.5t-21.5 -44.5v-574q0 -19 -10.5 -29.5t-28.5 -10.5h-47q-24 0 -46 31l-379 507v-440
q0 -23 22.5 -45.5t22.5 -32.5v-3q0 -17 -23 -17h-116q-23 0 -23 17v3q0 10 20 32.5t20 45.5v515q0 24 -20 45.5t-20 31.5v4q0 16 23 16h206q21 0 21 -16v-4q0 -6 -12 -19t-16 -24t9 -34l320 -433v434q0 23 -21.5 44.5t-21.5 31.5v4q0 16 23 16h117z" />
    <glyph glyph-name="uni0145.ss01" horiz-adv-x="756" 
d="M694 710q23 0 23 -16v-4q0 -10 -21.5 -31.5t-21.5 -44.5v-574q0 -19 -10.5 -29.5t-28.5 -10.5h-47q-24 0 -46 31l-379 507v-440q0 -23 22.5 -45.5t22.5 -32.5v-3q0 -17 -23 -17h-116q-23 0 -23 17v3q0 10 20 32.5t20 45.5v515q0 24 -20 45.5t-20 31.5v4q0 16 23 16h206
q21 0 21 -16v-4q0 -6 -12 -19t-16 -24t9 -34l320 -433v434q0 23 -21.5 44.5t-21.5 31.5v4q0 16 23 16h117zM384 -38q35 0 59 -26t24 -70q0 -110 -120 -186q-14 -8 -25 4t0 23q48 47 51 79q3 17 -10 17q-24 0 -41 21t-17 54q0 37 21.5 60.5t57.5 23.5z" />
    <glyph glyph-name="Ntilde.ss01" horiz-adv-x="756" 
d="M236 774q-17 0 -14 21q9 47 38.5 78.5t72.5 31.5q38 0 88.5 -25.5t68.5 -25.5q32 0 46 25q8 14 22 14h8q19 0 14 -21q-12 -51 -40.5 -80.5t-68.5 -29.5q-33 0 -84.5 26t-74.5 26q-25 0 -42 -23q-1 -2 -3 -4.5t-3 -4t-2.5 -3t-3 -2.5t-3.5 -1.5l-4 -1t-5 -0.5h-10z
M694 710q23 0 23 -16v-4q0 -10 -21.5 -31.5t-21.5 -44.5v-574q0 -19 -10.5 -29.5t-28.5 -10.5h-47q-24 0 -46 31l-379 507v-440q0 -23 22.5 -45.5t22.5 -32.5v-3q0 -17 -23 -17h-116q-23 0 -23 17v3q0 10 20 32.5t20 45.5v515q0 24 -20 45.5t-20 31.5v4q0 16 23 16h206
q21 0 21 -16v-4q0 -6 -12 -19t-16 -24t9 -34l320 -433v434q0 23 -21.5 44.5t-21.5 31.5v4q0 16 23 16h117z" />
    <glyph glyph-name="Q.ss01" horiz-adv-x="762" 
d="M804 -36q14 1 19 -8.5t1 -26.5q-10 -38 -54.5 -72t-122.5 -34q-95 0 -168.5 43.5t-137.5 126.5q-135 16 -222.5 117.5t-87.5 242.5q0 162 97.5 264.5t253.5 102.5q150 0 250 -106.5t100 -262.5q0 -139 -80 -237t-206 -119q87 -68 204 -68q37 0 68.5 7.5t55.5 18t30 11.5z
M178 472q0 -102 32.5 -198t90.5 -157.5t126 -61.5q69 0 111 51t42 130q0 98 -33 194.5t-92 160.5t-127 64q-69 0 -109.5 -50t-40.5 -133z" />
    <glyph glyph-name="R.ss01" horiz-adv-x="686" 
d="M630 90q1 -19 21 -39t20 -31v-3q0 -17 -22 -17h-182q-22 0 -22 17v3q0 11 15 28t15 35q-1 65 -27.5 116t-75.5 74h-15h-118v-177q0 -23 21.5 -44.5t21.5 -31.5v-3q0 -17 -24 -17h-188q-22 0 -22 17v3q0 10 19 31.5t19 44.5v518q0 23 -19 44.5t-19 31.5v4q0 16 22 16h247
q139 0 221 -57t82 -167q0 -51 -31.5 -99t-86.5 -78q120 -71 128 -219zM337 331q57 0 91.5 36t34.5 102q0 82 -47 131t-109 49h-34q-34 0 -34 -45v-203q0 -70 56 -70h42z" />
    <glyph glyph-name="Racute.ss01" horiz-adv-x="686" 
d="M242 777q-25 -4 -33 16q-8 23 13 34l194 98q18 9 31 3.5t18 -23.5l16 -59q5 -17 -2.5 -29t-25.5 -13zM630 90q1 -19 21 -39t20 -31v-3q0 -17 -22 -17h-182q-22 0 -22 17v3q0 11 15 28t15 35q-1 65 -27.5 116t-75.5 74h-15h-118v-177q0 -23 21.5 -44.5t21.5 -31.5v-3
q0 -17 -24 -17h-188q-22 0 -22 17v3q0 10 19 31.5t19 44.5v518q0 23 -19 44.5t-19 31.5v4q0 16 22 16h247q139 0 221 -57t82 -167q0 -51 -31.5 -99t-86.5 -78q120 -71 128 -219zM337 331q57 0 91.5 36t34.5 102q0 82 -47 131t-109 49h-34q-34 0 -34 -45v-203q0 -70 56 -70
h42z" />
    <glyph glyph-name="Rcaron.ss01" horiz-adv-x="686" 
d="M270 765l-109 105q-14 14 1.5 28.5t30.5 6.5l140 -72l137 72q10 6 21.5 0t14.5 -16t-4 -19l-115 -105q-17 -17 -41 -17h-34q-24 0 -42 17zM630 90q1 -19 21 -39t20 -31v-3q0 -17 -22 -17h-182q-22 0 -22 17v3q0 11 15 28t15 35q-1 65 -27.5 116t-75.5 74h-15h-118v-177
q0 -23 21.5 -44.5t21.5 -31.5v-3q0 -17 -24 -17h-188q-22 0 -22 17v3q0 10 19 31.5t19 44.5v518q0 23 -19 44.5t-19 31.5v4q0 16 22 16h247q139 0 221 -57t82 -167q0 -51 -31.5 -99t-86.5 -78q120 -71 128 -219zM337 331q57 0 91.5 36t34.5 102q0 82 -47 131t-109 49h-34
q-34 0 -34 -45v-203q0 -70 56 -70h42z" />
    <glyph glyph-name="uni0156.ss01" horiz-adv-x="686" 
d="M630 90q1 -19 21 -39t20 -31v-3q0 -17 -22 -17h-182q-22 0 -22 17v3q0 11 15 28t15 35q-1 65 -27.5 116t-75.5 74h-15h-118v-177q0 -23 21.5 -44.5t21.5 -31.5v-3q0 -17 -24 -17h-188q-22 0 -22 17v3q0 10 19 31.5t19 44.5v518q0 23 -19 44.5t-19 31.5v4q0 16 22 16h247
q139 0 221 -57t82 -167q0 -51 -31.5 -99t-86.5 -78q120 -71 128 -219zM337 331q57 0 91.5 36t34.5 102q0 82 -47 131t-109 49h-34q-34 0 -34 -45v-203q0 -70 56 -70h42zM360 -24q35 0 59 -26t24 -70q0 -110 -120 -186q-14 -8 -25 4t0 23q48 47 51 79q4 18 -10 18
q-24 0 -41 21t-17 53q0 37 21.5 60.5t57.5 23.5z" />
    <glyph glyph-name="U.ss01" horiz-adv-x="757" 
d="M672 102q0 -26 8 -39.5t17 -14.5t17 -6.5t8 -17.5q0 -30 -92 -30q-48 0 -68 20.5t-21 87.5q-54 -112 -216 -112q-115 0 -182.5 72.5t-67.5 201.5v330q0 25 -19.5 46.5t-19.5 29.5v3q0 18 20 21l134 19q41 6 41 -18l-3 -452q-1 -91 36.5 -143.5t100.5 -52.5
q78 0 119.5 53.5t41.5 134.5v359q0 19 -12 33t-23.5 24t-11.5 19v3q0 7 8.5 13t18.5 8l127 19q39 6 39 -18v-593z" />
    <glyph glyph-name="Uacute.ss01" horiz-adv-x="757" 
d="M280 777q-25 -3 -33 16q-8 23 12 34l195 98q18 9 31 3.5t18 -23.5l16 -59q5 -17 -3 -29t-26 -13zM672 102q0 -26 8 -39.5t17 -14.5t17 -6.5t8 -17.5q0 -30 -92 -30q-48 0 -68 20.5t-21 87.5q-54 -112 -216 -112q-115 0 -182.5 72.5t-67.5 201.5v330q0 25 -19.5 46.5
t-19.5 29.5v3q0 18 20 21l134 19q41 6 41 -18l-3 -452q-1 -91 36.5 -143.5t100.5 -52.5q78 0 119.5 53.5t41.5 134.5v359q0 19 -12 33t-23.5 24t-11.5 19v3q0 7 8.5 13t18.5 8l127 19q39 6 39 -18v-593z" />
    <glyph glyph-name="Ucircumflex.ss01" horiz-adv-x="757" 
d="M230 761q-19 -10 -35.5 6t3.5 38l110 109q18 18 42 18h29q24 0 42 -18l119 -109q21 -20 6.5 -38.5t-41.5 -5.5l-144 73zM672 102q0 -26 8 -39.5t17 -14.5t17 -6.5t8 -17.5q0 -30 -92 -30q-48 0 -68 20.5t-21 87.5q-54 -112 -216 -112q-115 0 -182.5 72.5t-67.5 201.5v330
q0 25 -19.5 46.5t-19.5 29.5v3q0 18 20 21l134 19q41 6 41 -18l-3 -452q-1 -91 36.5 -143.5t100.5 -52.5q78 0 119.5 53.5t41.5 134.5v359q0 19 -12 33t-23.5 24t-11.5 19v3q0 7 8.5 13t18.5 8l127 19q39 6 39 -18v-593z" />
    <glyph glyph-name="Udieresis.ss01" horiz-adv-x="757" 
d="M256 775q-39 0 -64 22.5t-25 57.5t25 57.5t64 22.5t63.5 -22.5t24.5 -57.5t-24.5 -57.5t-63.5 -22.5zM486 775q-39 0 -64 22.5t-25 57.5t25 57.5t64 22.5t64 -22.5t25 -57.5t-25 -57.5t-64 -22.5zM672 102q0 -26 8 -39.5t17 -14.5t17 -6.5t8 -17.5q0 -30 -92 -30
q-48 0 -68 20.5t-21 87.5q-54 -112 -216 -112q-115 0 -182.5 72.5t-67.5 201.5v330q0 25 -19.5 46.5t-19.5 29.5v3q0 18 20 21l134 19q41 6 41 -18l-3 -452q-1 -91 36.5 -143.5t100.5 -52.5q78 0 119.5 53.5t41.5 134.5v359q0 19 -12 33t-23.5 24t-11.5 19v3q0 7 8.5 13
t18.5 8l127 19q39 6 39 -18v-593z" />
    <glyph glyph-name="Ugrave.ss01" horiz-adv-x="757" 
d="M242 796q-18 1 -25.5 13t-3.5 29l16 60q10 39 48 21l196 -94q21 -12 13 -34q-8 -20 -33 -18zM672 102q0 -26 8 -39.5t17 -14.5t17 -6.5t8 -17.5q0 -30 -92 -30q-48 0 -68 20.5t-21 87.5q-54 -112 -216 -112q-115 0 -182.5 72.5t-67.5 201.5v330q0 25 -19.5 46.5
t-19.5 29.5v3q0 18 20 21l134 19q41 6 41 -18l-3 -452q-1 -91 36.5 -143.5t100.5 -52.5q78 0 119.5 53.5t41.5 134.5v359q0 19 -12 33t-23.5 24t-11.5 19v3q0 7 8.5 13t18.5 8l127 19q39 6 39 -18v-593z" />
    <glyph glyph-name="Uhungarumlaut.ss01" horiz-adv-x="757" 
d="M255 743q-17 -14 -30 -4q-10 10 2 30l108 171q22 36 49 10l31 -29q31 -29 1 -51zM429 739q-11 10 2 29l107 172q22 35 50 10l30 -29q32 -29 1 -52l-160 -126q-18 -15 -30 -4zM672 102q0 -26 8 -39.5t17 -14.5t17 -6.5t8 -17.5q0 -30 -92 -30q-48 0 -68 20.5t-21 87.5
q-54 -112 -216 -112q-115 0 -182.5 72.5t-67.5 201.5v330q0 25 -19.5 46.5t-19.5 29.5v3q0 18 20 21l134 19q41 6 41 -18l-3 -452q-1 -91 36.5 -143.5t100.5 -52.5q78 0 119.5 53.5t41.5 134.5v359q0 19 -12 33t-23.5 24t-11.5 19v3q0 7 8.5 13t18.5 8l127 19q39 6 39 -18
v-593z" />
    <glyph glyph-name="Umacron.ss01" horiz-adv-x="757" 
d="M230 797q-22 0 -22 21v50q0 21 22 21h276q22 0 22 -21v-50q0 -21 -22 -21h-276zM672 102q0 -26 8 -39.5t17 -14.5t17 -6.5t8 -17.5q0 -30 -92 -30q-48 0 -68 20.5t-21 87.5q-54 -112 -216 -112q-115 0 -182.5 72.5t-67.5 201.5v330q0 25 -19.5 46.5t-19.5 29.5v3
q0 18 20 21l134 19q41 6 41 -18l-3 -452q-1 -91 36.5 -143.5t100.5 -52.5q78 0 119.5 53.5t41.5 134.5v359q0 19 -12 33t-23.5 24t-11.5 19v3q0 7 8.5 13t18.5 8l127 19q39 6 39 -18v-593z" />
    <glyph glyph-name="Uogonek.ss01" horiz-adv-x="757" 
d="M722 24q0 -22 -43 -27q-55 -66 -55 -115q0 -46 33 -46q5 0 21 4q19 7 25 -16q6 -24 -14 -37l-5 -2q-18 -9 -52 -9q-45 0 -78.5 21.5t-33.5 65.5q0 72 99 131q-41 2 -59 23.5t-19 84.5q-54 -112 -216 -112q-115 0 -182.5 72.5t-67.5 201.5v330q0 25 -19.5 46.5t-19.5 29.5
v3q0 18 20 21l134 19q41 6 41 -18l-3 -452q-1 -91 36.5 -143.5t100.5 -52.5q78 0 119.5 53.5t41.5 134.5v359q0 19 -12 33t-23.5 24t-11.5 19v3q0 7 8.5 13t18.5 8l127 19q39 6 39 -18v-593q0 -26 8 -39.5t17 -14.5t17 -6.5t8 -17.5z" />
    <glyph glyph-name="Uring.ss01" horiz-adv-x="757" 
d="M373 745q-59 0 -98.5 30.5t-39.5 75.5q0 49 38.5 79.5t100.5 30.5q60 0 99.5 -29.5t39.5 -74.5q0 -50 -38.5 -81t-101.5 -31zM374 917q-52 0 -52 -63q0 -29 15 -48t37 -19q23 0 37 17t14 50q0 29 -14.5 46t-36.5 17zM672 102q0 -26 8 -39.5t17 -14.5t17 -6.5t8 -17.5
q0 -30 -92 -30q-48 0 -68 20.5t-21 87.5q-54 -112 -216 -112q-115 0 -182.5 72.5t-67.5 201.5v330q0 25 -19.5 46.5t-19.5 29.5v3q0 18 20 21l134 19q41 6 41 -18l-3 -452q-1 -91 36.5 -143.5t100.5 -52.5q78 0 119.5 53.5t41.5 134.5v359q0 19 -12 33t-23.5 24t-11.5 19v3
q0 7 8.5 13t18.5 8l127 19q39 6 39 -18v-593z" />
    <glyph glyph-name="Utilde.ss01" horiz-adv-x="757" 
d="M210 774q-17 0 -14 21q10 47 39.5 78.5t72.5 31.5q37 0 88 -25.5t69 -25.5q30 0 46 25q7 14 21 14h8q19 0 14 -21q-11 -51 -40 -80.5t-69 -29.5q-33 0 -84 26t-74 26q-26 0 -43 -23q-1 -1 -2 -3q-9 -14 -21 -14h-11zM672 102q0 -26 8 -39.5t17 -14.5t17 -6.5t8 -17.5
q0 -30 -92 -30q-48 0 -68 20.5t-21 87.5q-54 -112 -216 -112q-115 0 -182.5 72.5t-67.5 201.5v330q0 25 -19.5 46.5t-19.5 29.5v3q0 18 20 21l134 19q41 6 41 -18l-3 -452q-1 -91 36.5 -143.5t100.5 -52.5q78 0 119.5 53.5t41.5 134.5v359q0 19 -12 33t-23.5 24t-11.5 19v3
q0 7 8.5 13t18.5 8l127 19q39 6 39 -18v-593z" />
    <glyph glyph-name="W.ss01" horiz-adv-x="983" 
d="M962 710q22 0 22 -16v-4q0 -11 -9.5 -19.5t-24 -22t-22.5 -34.5l-224 -572q-17 -42 -53 -42q-39 0 -55 39l-85 217l-92 -214q-17 -42 -59 -42q-40 0 -60 39l-249 574q-11 24 -35.5 44t-24.5 33v4q0 16 22 16h204q22 0 22 -16v-4q0 -10 -12.5 -20.5t-21 -23.5t-0.5 -33
l186 -453l82 193l-102 261q-10 26 -30 45t-20 31v4q0 16 21 16h126q22 0 29 -21l54 -152l64 153q8 20 29 20h73q21 0 21 -16v-4q0 -11 -12.5 -17.5t-30.5 -18.5t-26 -32l-82 -189l89 -252l169 433q6 18 -3.5 31t-22.5 24t-13 21v3q0 17 23 17h133z" />
    <glyph glyph-name="Wacute.ss01" horiz-adv-x="983" 
d="M432 777q-25 -3 -33 16q-8 23 12 34l195 98q18 9 31 3.5t18 -23.5l16 -59q5 -17 -3 -29t-26 -13zM962 710q22 0 22 -16v-4q0 -11 -9.5 -19.5t-24 -22t-22.5 -34.5l-224 -572q-17 -42 -53 -42q-39 0 -55 39l-85 217l-92 -214q-17 -42 -59 -42q-40 0 -60 39l-249 574
q-11 24 -35.5 44t-24.5 33v4q0 16 22 16h204q22 0 22 -16v-4q0 -10 -12.5 -20.5t-21 -23.5t-0.5 -33l186 -453l82 193l-102 261q-10 26 -30 45t-20 31v4q0 16 21 16h126q22 0 29 -21l54 -152l64 153q8 20 29 20h73q21 0 21 -16v-4q0 -11 -12.5 -17.5t-30.5 -18.5t-26 -32
l-82 -189l89 -252l169 433q6 18 -3.5 31t-22.5 24t-13 21v3q0 17 23 17h133z" />
    <glyph glyph-name="Wcircumflex.ss01" horiz-adv-x="983" 
d="M382 761q-19 -10 -35.5 6t3.5 38l110 109q18 18 42 18h29q24 0 42 -18l119 -109q21 -20 6.5 -38.5t-41.5 -5.5l-144 73zM962 710q22 0 22 -16v-4q0 -11 -9.5 -19.5t-24 -22t-22.5 -34.5l-224 -572q-17 -42 -53 -42q-39 0 -55 39l-85 217l-92 -214q-17 -42 -59 -42
q-40 0 -60 39l-249 574q-11 24 -35.5 44t-24.5 33v4q0 16 22 16h204q22 0 22 -16v-4q0 -10 -12.5 -20.5t-21 -23.5t-0.5 -33l186 -453l82 193l-102 261q-10 26 -30 45t-20 31v4q0 16 21 16h126q22 0 29 -21l54 -152l64 153q8 20 29 20h73q21 0 21 -16v-4q0 -11 -12.5 -17.5
t-30.5 -18.5t-26 -32l-82 -189l89 -252l169 433q6 18 -3.5 31t-22.5 24t-13 21v3q0 17 23 17h133z" />
    <glyph glyph-name="Wdieresis.ss01" horiz-adv-x="983" 
d="M409 775q-40 0 -65 22.5t-25 57.5t25 57.5t65 22.5q39 0 63.5 -22.5t24.5 -57.5t-24.5 -57.5t-63.5 -22.5zM638 775q-39 0 -63.5 22.5t-24.5 57.5t24.5 57.5t63.5 22.5t64 -22.5t25 -57.5t-25 -57.5t-64 -22.5zM962 710q22 0 22 -16v-4q0 -11 -9.5 -19.5t-24 -22
t-22.5 -34.5l-224 -572q-17 -42 -53 -42q-39 0 -55 39l-85 217l-92 -214q-17 -42 -59 -42q-40 0 -60 39l-249 574q-11 24 -35.5 44t-24.5 33v4q0 16 22 16h204q22 0 22 -16v-4q0 -10 -12.5 -20.5t-21 -23.5t-0.5 -33l186 -453l82 193l-102 261q-10 26 -30 45t-20 31v4
q0 16 21 16h126q22 0 29 -21l54 -152l64 153q8 20 29 20h73q21 0 21 -16v-4q0 -11 -12.5 -17.5t-30.5 -18.5t-26 -32l-82 -189l89 -252l169 433q6 18 -3.5 31t-22.5 24t-13 21v3q0 17 23 17h133z" />
    <glyph glyph-name="Wgrave.ss01" horiz-adv-x="983" 
d="M395 796q-18 1 -25.5 13t-3.5 29l15 60q5 18 17.5 24t31.5 -3l196 -94q21 -12 13 -34q-8 -20 -33 -18zM962 710q22 0 22 -16v-4q0 -11 -9.5 -19.5t-24 -22t-22.5 -34.5l-224 -572q-17 -42 -53 -42q-39 0 -55 39l-85 217l-92 -214q-17 -42 -59 -42q-40 0 -60 39l-249 574
q-11 24 -35.5 44t-24.5 33v4q0 16 22 16h204q22 0 22 -16v-4q0 -10 -12.5 -20.5t-21 -23.5t-0.5 -33l186 -453l82 193l-102 261q-10 26 -30 45t-20 31v4q0 16 21 16h126q22 0 29 -21l54 -152l64 153q8 20 29 20h73q21 0 21 -16v-4q0 -11 -12.5 -17.5t-30.5 -18.5t-26 -32
l-82 -189l89 -252l169 433q6 18 -3.5 31t-22.5 24t-13 21v3q0 17 23 17h133z" />
    <glyph glyph-name="i.loclTRK" horiz-adv-x="288" 
d="M150 551q-45 0 -72 24.5t-27 63.5q0 38 27.5 62.5t71.5 24.5q43 0 70 -24.5t27 -62.5q0 -39 -27 -63.5t-70 -24.5zM55 0q-22 0 -22 17v4q0 10 19 31t19 45v226q0 25 -19 47t-19 30v3q0 10 21 21l125 62q19 8 30 1.5t11 -21.5v-369q0 -24 21 -45t21 -31v-4q0 -17 -23 -17
h-184z" />
    <glyph glyph-name="uni006A0301" horiz-adv-x="276" 
d="M53 550q-24 -7 -36 11q-13 20 6 35l173 132q34 26 52 -11l27 -55q8 -15 2.5 -29t-22.5 -18zM59 -194q-65 0 -104.5 25.5t-39.5 72.5q0 27 18 44t45 17q30 0 46 -17t19.5 -38t14 -38t30.5 -17q18 0 29 13t11 33q0 35 -27 74.5t-27 66.5v281q0 25 -19 46.5t-19 30.5v3
q0 10 20 21l128 62q19 8 29.5 1.5t10.5 -21.5v-470q0 -72 -31 -122q-47 -68 -134 -68z" />
    <glyph glyph-name="a.ss01" horiz-adv-x="594" 
d="M562 438q0 -6 -21 -29t-21 -51v-262q0 -23 19.5 -44.5t19.5 -31.5v-3q0 -17 -20 -17h-123q-10 0 -16.5 6t-6.5 16v24q-47 -56 -132 -56q-97 0 -166 67.5t-69 183.5q0 109 69 179t167 70q80 0 131 -51v20q0 14 12 21.5t31 3.5l105 -18q21 -4 21 -25v-3zM294 33
q34 0 59.5 28.5t25.5 78.5v176q0 53 -32.5 92t-76.5 39q-46 0 -73 -38.5t-28 -108.5q-2 -57 11.5 -117t44 -104.5t69.5 -45.5z" />
    <glyph glyph-name="aacute.ss01" horiz-adv-x="594" 
d="M216 550q-26 -7 -36 11q-13 20 6 35l173 132q34 26 52 -11l27 -55q8 -15 2.5 -29t-22.5 -18zM562 438q0 -6 -21 -29t-21 -51v-262q0 -23 19.5 -44.5t19.5 -31.5v-3q0 -17 -20 -17h-123q-10 0 -16.5 6t-6.5 16v24q-47 -56 -132 -56q-97 0 -166 67.5t-69 183.5
q0 109 69 179t167 70q80 0 131 -51v20q0 14 12 21.5t31 3.5l105 -18q21 -4 21 -25v-3zM294 33q34 0 59.5 28.5t25.5 78.5v176q0 53 -32.5 92t-76.5 39q-46 0 -73 -38.5t-28 -108.5q-2 -57 11.5 -117t44 -104.5t69.5 -45.5z" />
    <glyph glyph-name="abreve.ss01" horiz-adv-x="594" 
d="M302 551q-68 0 -114 38.5t-54 94.5q-3 21 20 27t31 -8q12 -27 44.5 -43t72.5 -16q41 0 74 16t44 43q8 12 30.5 6t20.5 -25q-7 -56 -53 -94.5t-116 -38.5zM562 438q0 -6 -21 -29t-21 -51v-262q0 -23 19.5 -44.5t19.5 -31.5v-3q0 -17 -20 -17h-123q-10 0 -16.5 6t-6.5 16
v24q-47 -56 -132 -56q-97 0 -166 67.5t-69 183.5q0 109 69 179t167 70q80 0 131 -51v20q0 14 12 21.5t31 3.5l105 -18q21 -4 21 -25v-3zM294 33q34 0 59.5 28.5t25.5 78.5v176q0 53 -32.5 92t-76.5 39q-46 0 -73 -38.5t-28 -108.5q-2 -57 11.5 -117t44 -104.5t69.5 -45.5z
" />
    <glyph glyph-name="acircumflex.ss01" horiz-adv-x="594" 
d="M164 548q-19 -10 -35.5 6t3.5 38l110 109q17 18 42 18h29q24 0 42 -17l119 -110q21 -20 6.5 -38.5t-41.5 -5.5l-144 73zM562 438q0 -6 -21 -29t-21 -51v-262q0 -23 19.5 -44.5t19.5 -31.5v-3q0 -17 -20 -17h-123q-10 0 -16.5 6t-6.5 16v24q-47 -56 -132 -56
q-97 0 -166 67.5t-69 183.5q0 109 69 179t167 70q80 0 131 -51v20q0 14 12 21.5t31 3.5l105 -18q21 -4 21 -25v-3zM294 33q34 0 59.5 28.5t25.5 78.5v176q0 53 -32.5 92t-76.5 39q-46 0 -73 -38.5t-28 -108.5q-2 -57 11.5 -117t44 -104.5t69.5 -45.5z" />
    <glyph glyph-name="adieresis.ss01" horiz-adv-x="594" 
d="M189 555q-40 0 -65 22.5t-25 57.5t25 57.5t65 22.5q39 0 63.5 -22.5t24.5 -57.5t-24.5 -57.5t-63.5 -22.5zM419 555q-40 0 -64.5 22.5t-24.5 57.5t24.5 57.5t64.5 22.5q39 0 64 -22.5t25 -57.5t-25 -57.5t-64 -22.5zM562 438q0 -6 -21 -29t-21 -51v-262q0 -23 19.5 -44.5
t19.5 -31.5v-3q0 -17 -20 -17h-123q-10 0 -16.5 6t-6.5 16v24q-47 -56 -132 -56q-97 0 -166 67.5t-69 183.5q0 109 69 179t167 70q80 0 131 -51v20q0 14 12 21.5t31 3.5l105 -18q21 -4 21 -25v-3zM294 33q34 0 59.5 28.5t25.5 78.5v176q0 53 -32.5 92t-76.5 39
q-46 0 -73 -38.5t-28 -108.5q-2 -57 11.5 -117t44 -104.5t69.5 -45.5z" />
    <glyph glyph-name="agrave.ss01" horiz-adv-x="594" 
d="M184 610q-18 4 -23 17.5t3 29.5l27 55q18 37 52 11l173 -132q19 -15 6 -35q-10 -18 -36 -12zM562 438q0 -6 -21 -29t-21 -51v-262q0 -23 19.5 -44.5t19.5 -31.5v-3q0 -17 -20 -17h-123q-10 0 -16.5 6t-6.5 16v24q-47 -56 -132 -56q-97 0 -166 67.5t-69 183.5
q0 109 69 179t167 70q80 0 131 -51v20q0 14 12 21.5t31 3.5l105 -18q21 -4 21 -25v-3zM294 33q34 0 59.5 28.5t25.5 78.5v176q0 53 -32.5 92t-76.5 39q-46 0 -73 -38.5t-28 -108.5q-2 -57 11.5 -117t44 -104.5t69.5 -45.5z" />
    <glyph glyph-name="amacron.ss01" horiz-adv-x="594" 
d="M165 586q-22 0 -22 21v50q0 21 22 21h276q22 0 22 -21v-50q0 -21 -22 -21h-276zM562 438q0 -6 -21 -29t-21 -51v-262q0 -23 19.5 -44.5t19.5 -31.5v-3q0 -17 -20 -17h-123q-10 0 -16.5 6t-6.5 16v24q-47 -56 -132 -56q-97 0 -166 67.5t-69 183.5q0 109 69 179t167 70
q80 0 131 -51v20q0 14 12 21.5t31 3.5l105 -18q21 -4 21 -25v-3zM294 33q34 0 59.5 28.5t25.5 78.5v176q0 53 -32.5 92t-76.5 39q-46 0 -73 -38.5t-28 -108.5q-2 -57 11.5 -117t44 -104.5t69.5 -45.5z" />
    <glyph glyph-name="aogonek.ss01" horiz-adv-x="594" 
d="M562 438q0 -6 -21 -29t-21 -51v-262q0 -23 19.5 -44.5t19.5 -31.5v-3q0 -17 -20 -17h-39q-50 -61 -50 -109q-1 -46 32 -46q10 0 21 4q19 7 25 -16q6 -24 -14 -37l-5 -2q-17 -10 -52 -10q-45 0 -78.5 21.5t-33.5 66.5q0 69 94 128h-23q-10 0 -16.5 6t-6.5 16v24
q-47 -56 -132 -56q-97 0 -166 67.5t-69 183.5q0 109 69 179t167 70q80 0 131 -51v20q0 14 12 21.5t31 3.5l105 -18q21 -4 21 -25v-3zM294 33q34 0 59.5 28.5t25.5 78.5v176q0 53 -32.5 92t-76.5 39q-46 0 -73 -38.5t-28 -108.5q-2 -57 11.5 -117t44 -104.5t69.5 -45.5z" />
    <glyph glyph-name="aring.ss01" horiz-adv-x="594" 
d="M302 536q-59 0 -98 30.5t-39 75.5q0 50 38 80.5t100 30.5q60 0 99.5 -30t39.5 -75q0 -50 -38.5 -81t-101.5 -31zM303 708q-51 0 -51 -63q0 -29 15 -48t36 -19q23 0 37.5 17t14.5 50q0 29 -15 46t-37 17zM562 438q0 -6 -21 -29t-21 -51v-262q0 -23 19.5 -44.5t19.5 -31.5
v-3q0 -17 -20 -17h-123q-10 0 -16.5 6t-6.5 16v24q-47 -56 -132 -56q-97 0 -166 67.5t-69 183.5q0 109 69 179t167 70q80 0 131 -51v20q0 14 12 21.5t31 3.5l105 -18q21 -4 21 -25v-3zM294 33q34 0 59.5 28.5t25.5 78.5v176q0 53 -32.5 92t-76.5 39q-46 0 -73 -38.5
t-28 -108.5q-2 -57 11.5 -117t44 -104.5t69.5 -45.5z" />
    <glyph glyph-name="atilde.ss01" horiz-adv-x="594" 
d="M135 588q-17 0 -14 21q9 47 38.5 78.5t72.5 31.5q38 0 88.5 -25.5t68.5 -25.5q32 0 46 25q8 14 22 14h8q19 0 14 -21q-12 -51 -40.5 -80.5t-68.5 -29.5q-33 0 -84.5 26t-74.5 26q-25 0 -42 -23q-1 -2 -3 -4.5t-3 -4t-2.5 -3t-3 -2.5t-3 -1.5t-3.5 -1t-5 -0.5h-11z
M562 438q0 -6 -21 -29t-21 -51v-262q0 -23 19.5 -44.5t19.5 -31.5v-3q0 -17 -20 -17h-123q-10 0 -16.5 6t-6.5 16v24q-47 -56 -132 -56q-97 0 -166 67.5t-69 183.5q0 109 69 179t167 70q80 0 131 -51v20q0 14 12 21.5t31 3.5l105 -18q21 -4 21 -25v-3zM294 33
q34 0 59.5 28.5t25.5 78.5v176q0 53 -32.5 92t-76.5 39q-46 0 -73 -38.5t-28 -108.5q-2 -57 11.5 -117t44 -104.5t69.5 -45.5z" />
    <glyph glyph-name="e.ss01" horiz-adv-x="499" 
d="M442 152q9 12 22 8t12 -19q-5 -53 -56.5 -102t-142.5 -49q-111 0 -181 70.5t-70 183.5q0 108 71 176.5t174 69.5q85 1 138 -37t53 -103q0 -53 -44.5 -92.5t-115.5 -52.5q-56 -12 -123 -6q20 -49 57.5 -77t86.5 -28q83 0 119 58zM252 444q-42 0 -67.5 -38t-25.5 -96
q0 -33 6 -63q55 -4 92 5q69 13 69 104q-1 37 -21.5 62.5t-52.5 25.5z" />
    <glyph glyph-name="eacute.ss01" horiz-adv-x="499" 
d="M174 550q-24 -7 -36 11q-13 20 6 35l173 132q34 26 52 -11l27 -55q8 -15 2.5 -29t-22.5 -18zM442 152q9 12 22 8t12 -19q-5 -53 -56.5 -102t-142.5 -49q-111 0 -181 70.5t-70 183.5q0 108 71 176.5t174 69.5q85 1 138 -37t53 -103q0 -53 -44.5 -92.5t-115.5 -52.5
q-56 -12 -123 -6q20 -49 57.5 -77t86.5 -28q83 0 119 58zM252 444q-42 0 -67.5 -38t-25.5 -96q0 -33 6 -63q55 -4 92 5q69 13 69 104q-1 37 -21.5 62.5t-52.5 25.5z" />
    <glyph glyph-name="ecaron.ss01" horiz-adv-x="499" 
d="M201 566l-109 110q-14 14 1.5 30t30.5 7l139 -76l137 76q16 10 31 -7t2 -30l-115 -111q-18 -17 -42 -17h-33q-25 0 -42 18zM442 152q9 12 22 8t12 -19q-5 -53 -56.5 -102t-142.5 -49q-111 0 -181 70.5t-70 183.5q0 108 71 176.5t174 69.5q85 1 138 -37t53 -103
q0 -53 -44.5 -92.5t-115.5 -52.5q-56 -12 -123 -6q20 -49 57.5 -77t86.5 -28q83 0 119 58zM252 444q-42 0 -67.5 -38t-25.5 -96q0 -33 6 -63q55 -4 92 5q69 13 69 104q-1 37 -21.5 62.5t-52.5 25.5z" />
    <glyph glyph-name="ecircumflex.ss01" horiz-adv-x="499" 
d="M123 548q-19 -10 -35.5 6t3.5 38l110 109q17 18 42 18h29q24 0 42 -17l119 -110q21 -20 6.5 -38.5t-41.5 -5.5l-144 73zM442 152q9 12 22 8t12 -19q-5 -53 -56.5 -102t-142.5 -49q-111 0 -181 70.5t-70 183.5q0 108 71 176.5t174 69.5q85 1 138 -37t53 -103
q0 -53 -44.5 -92.5t-115.5 -52.5q-56 -12 -123 -6q20 -49 57.5 -77t86.5 -28q83 0 119 58zM252 444q-42 0 -67.5 -38t-25.5 -96q0 -33 6 -63q55 -4 92 5q69 13 69 104q-1 37 -21.5 62.5t-52.5 25.5z" />
    <glyph glyph-name="edieresis.ss01" horiz-adv-x="499" 
d="M147 555q-39 0 -64 22.5t-25 57.5t25 57.5t64 22.5q40 0 64 -22.5t24 -57.5t-24 -57.5t-64 -22.5zM377 555q-39 0 -64 22.5t-25 57.5t25 57.5t64 22.5t64 -22.5t25 -57.5t-25 -57.5t-64 -22.5zM442 152q9 12 22 8t12 -19q-5 -53 -56.5 -102t-142.5 -49q-111 0 -181 70.5
t-70 183.5q0 108 71 176.5t174 69.5q85 1 138 -37t53 -103q0 -53 -44.5 -92.5t-115.5 -52.5q-56 -12 -123 -6q20 -49 57.5 -77t86.5 -28q83 0 119 58zM252 444q-42 0 -67.5 -38t-25.5 -96q0 -33 6 -63q55 -4 92 5q69 13 69 104q-1 37 -21.5 62.5t-52.5 25.5z" />
    <glyph glyph-name="edotaccent.ss01" horiz-adv-x="499" 
d="M261 551q-44 0 -71.5 24.5t-27.5 63.5q0 38 27.5 62.5t71.5 24.5t70.5 -24.5t26.5 -62.5q0 -39 -26.5 -63.5t-70.5 -24.5zM442 152q9 12 22 8t12 -19q-5 -53 -56.5 -102t-142.5 -49q-111 0 -181 70.5t-70 183.5q0 108 71 176.5t174 69.5q85 1 138 -37t53 -103
q0 -53 -44.5 -92.5t-115.5 -52.5q-56 -12 -123 -6q20 -49 57.5 -77t86.5 -28q83 0 119 58zM252 444q-42 0 -67.5 -38t-25.5 -96q0 -33 6 -63q55 -4 92 5q69 13 69 104q-1 37 -21.5 62.5t-52.5 25.5z" />
    <glyph glyph-name="egrave.ss01" horiz-adv-x="499" 
d="M143 610q-18 4 -23 17.5t3 29.5l27 55q18 37 52 11l173 -132q19 -15 6 -35q-10 -18 -36 -12zM442 152q9 12 22 8t12 -19q-5 -53 -56.5 -102t-142.5 -49q-111 0 -181 70.5t-70 183.5q0 108 71 176.5t174 69.5q85 1 138 -37t53 -103q0 -53 -44.5 -92.5t-115.5 -52.5
q-56 -12 -123 -6q20 -49 57.5 -77t86.5 -28q83 0 119 58zM252 444q-42 0 -67.5 -38t-25.5 -96q0 -33 6 -63q55 -4 92 5q69 13 69 104q-1 37 -21.5 62.5t-52.5 25.5z" />
    <glyph glyph-name="emacron.ss01" horiz-adv-x="499" 
d="M123 586q-22 0 -22 21v50q0 21 22 21h276q22 0 22 -21v-50q0 -21 -22 -21h-276zM442 152q9 12 22 8t12 -19q-5 -53 -56.5 -102t-142.5 -49q-111 0 -181 70.5t-70 183.5q0 108 71 176.5t174 69.5q85 1 138 -37t53 -103q0 -53 -44.5 -92.5t-115.5 -52.5q-56 -12 -123 -6
q20 -49 57.5 -77t86.5 -28q83 0 119 58zM252 444q-42 0 -67.5 -38t-25.5 -96q0 -33 6 -63q55 -4 92 5q69 13 69 104q-1 37 -21.5 62.5t-52.5 25.5z" />
    <glyph glyph-name="eogonek.ss01" horiz-adv-x="499" 
d="M442 152q9 12 22 8t12 -19q-2 -32 -25 -67.5t-64 -57.5q-55 -63 -55 -114q0 -46 33 -46q9 0 20 4q19 7 25 -16q7 -25 -13 -37l-5 -2q-17 -10 -53 -10q-44 0 -77.5 22t-33.5 66q0 57 65 107h-16q-111 0 -181 70.5t-70 183.5q0 108 71 176.5t174 69.5q85 1 138 -37t53 -103
q0 -53 -44.5 -92.5t-115.5 -52.5q-56 -12 -123 -6q20 -49 57.5 -77t86.5 -28q83 0 119 58zM252 444q-42 0 -67.5 -38t-25.5 -96q0 -33 6 -63q55 -4 92 5q69 13 69 104q-1 37 -21.5 62.5t-52.5 25.5z" />
    <glyph glyph-name="g.ss01" horiz-adv-x="586" 
d="M543 466q21 -4 21 -25v-3q0 -6 -21 -29t-21 -51v-299q0 -125 -67.5 -192t-171.5 -67t-170.5 41t-66.5 96q0 22 15.5 38.5t44.5 16.5q23 0 39.5 -15.5t28 -37.5t24.5 -44t35 -37.5t53 -15.5q43 0 69 42.5t26 132.5v25q-48 -42 -120 -42q-95 0 -164.5 66t-69.5 175
t68.5 179t167.5 70q82 0 132 -53v22q0 14 12 21.5t31 3.5zM295 43q34 0 60 28.5t26 78.5v166q0 49 -33.5 90t-76.5 41q-46 0 -73 -38.5t-29 -108.5q-2 -54 12 -112t44.5 -101t69.5 -44z" />
    <glyph glyph-name="gbreve.ss01" horiz-adv-x="586" 
d="M292 554q-68 0 -114 38.5t-54 94.5q-3 21 20 27t31 -9q12 -27 44.5 -43t72.5 -16q41 0 74 16t44 43q8 13 30.5 7t20.5 -25q-7 -56 -53 -94.5t-116 -38.5zM543 466q21 -4 21 -25v-3q0 -6 -21 -29t-21 -51v-299q0 -125 -67.5 -192t-171.5 -67t-170.5 41t-66.5 96
q0 22 15.5 38.5t44.5 16.5q23 0 39.5 -15.5t28 -37.5t24.5 -44t35 -37.5t53 -15.5q43 0 69 42.5t26 132.5v25q-48 -42 -120 -42q-95 0 -164.5 66t-69.5 175t68.5 179t167.5 70q82 0 132 -53v22q0 14 12 21.5t31 3.5zM295 43q34 0 60 28.5t26 78.5v166q0 49 -33.5 90
t-76.5 41q-46 0 -73 -38.5t-29 -108.5q-2 -54 12 -112t44.5 -101t69.5 -44z" />
    <glyph glyph-name="uni0123.ss01" horiz-adv-x="586" 
d="M295 543q-36 0 -61.5 27t-25.5 72q0 114 125 193q14 8 26 -4.5t0 -23.5q-50 -50 -53 -82q-3 -18 10 -18q26 0 43.5 -22t17.5 -55q0 -39 -22.5 -63t-59.5 -24zM543 466q21 -4 21 -25v-3q0 -6 -21 -29t-21 -51v-299q0 -125 -67.5 -192t-171.5 -67t-170.5 41t-66.5 96
q0 22 15.5 38.5t44.5 16.5q23 0 39.5 -15.5t28 -37.5t24.5 -44t35 -37.5t53 -15.5q43 0 69 42.5t26 132.5v25q-48 -42 -120 -42q-95 0 -164.5 66t-69.5 175t68.5 179t167.5 70q82 0 132 -53v22q0 14 12 21.5t31 3.5zM295 43q34 0 60 28.5t26 78.5v166q0 49 -33.5 90
t-76.5 41q-46 0 -73 -38.5t-29 -108.5q-2 -54 12 -112t44.5 -101t69.5 -44z" />
    <glyph glyph-name="gdotaccent.ss01" horiz-adv-x="586" 
d="M293 554q-45 0 -72 24.5t-27 63.5q0 38 27.5 62.5t71.5 24.5q43 0 70 -24.5t27 -62.5q0 -39 -27 -63.5t-70 -24.5zM543 466q21 -4 21 -25v-3q0 -6 -21 -29t-21 -51v-299q0 -125 -67.5 -192t-171.5 -67t-170.5 41t-66.5 96q0 22 15.5 38.5t44.5 16.5q23 0 39.5 -15.5
t28 -37.5t24.5 -44t35 -37.5t53 -15.5q43 0 69 42.5t26 132.5v25q-48 -42 -120 -42q-95 0 -164.5 66t-69.5 175t68.5 179t167.5 70q82 0 132 -53v22q0 14 12 21.5t31 3.5zM295 43q34 0 60 28.5t26 78.5v166q0 49 -33.5 90t-76.5 41q-46 0 -73 -38.5t-29 -108.5
q-2 -54 12 -112t44.5 -101t69.5 -44z" />
    <glyph glyph-name="k.ss01" horiz-adv-x="574" 
d="M536 76q5 -8 27.5 -24t22.5 -31v-4q0 -17 -19 -17h-183q-20 0 -20 18v4q0 11 14 26t6 28l-99 149q-35 -8 -72 -9v-118q0 -23 22 -44t22 -33v-4q0 -17 -23 -17h-186q-23 0 -23 17v4q0 12 19.5 33t19.5 44v489q0 25 -22.5 47.5t-22.5 30.5v3q0 12 20 20l135 63
q18 8 28.5 1.5t10.5 -20.5v-453q55 3 89.5 26t48 53t23.5 60t27 50.5t47 20.5q32 0 48.5 -17t16.5 -45q0 -36 -28.5 -80t-82.5 -77z" />
    <glyph glyph-name="uni0137.ss01" horiz-adv-x="574" 
d="M536 76q5 -8 27.5 -24t22.5 -31v-4q0 -17 -19 -17h-183q-20 0 -20 18v4q0 11 14 26t6 28l-99 149q-35 -8 -72 -9v-118q0 -23 22 -44t22 -33v-4q0 -17 -23 -17h-186q-23 0 -23 17v4q0 12 19.5 33t19.5 44v489q0 25 -22.5 47.5t-22.5 30.5v3q0 12 20 20l135 63
q18 8 28.5 1.5t10.5 -20.5v-453q55 3 89.5 26t48 53t23.5 60t27 50.5t47 20.5q32 0 48.5 -17t16.5 -45q0 -36 -28.5 -80t-82.5 -77zM290 -38q35 0 59 -26t24 -70q0 -110 -120 -186q-14 -8 -25 4t0 23q48 47 51 79q3 17 -10 17q-24 0 -41.5 21.5t-17.5 53.5q0 37 22 60.5
t58 23.5z" />
    <glyph glyph-name="kgreenlandic.ss01" horiz-adv-x="574" 
d="M536 76q5 -8 27.5 -24t22.5 -31v-4q0 -17 -19 -17h-183q-20 0 -20 18v4q0 11 14 26t6 28l-99 149q-35 -8 -72 -9v-118q0 -23 22 -44t22 -33v-4q0 -17 -23 -17h-186q-23 0 -23 17v4q0 12 19.5 33t19.5 44v325q0 25 -22.5 47t-22.5 31v2q0 12 20 21l135 63q18 7 28.5 1
t10.5 -20v-289q55 3 89.5 26t48 53t23.5 60t27 50.5t47 20.5q32 0 48.5 -17t16.5 -45q0 -36 -28.5 -80t-82.5 -77z" />
    <glyph glyph-name="v.ss01" horiz-adv-x="539" 
d="M234 -10q-34 0 -63.5 9.5t-55.5 31.5t-41 63.5t-15 98.5v174q0 25 -19.5 46.5t-19.5 29.5v3q0 18 20 21l128 19q40 5 40 -18l-2 -318q-1 -54 13.5 -78t47.5 -25q64 -1 114 67t50 153q0 31 -14 53.5t-30.5 34t-30.5 31t-14 44.5q0 27 17 43.5t49 16.5q45 0 73 -38.5
t28 -117.5q0 -154 -78 -249t-197 -95z" />
    </font>
</defs>
</svg>
