<svg width="105" height="102" viewBox="0 0 105 102" fill="none" xmlns="http://www.w3.org/2000/svg">
<path d="M0.46875 63.2941L5.67188 75.4347L0.46875 82.3722L5.67188 89.3097L0.46875 101.45L36.8906 82.3722L0.46875 63.2941Z" fill="#E34E4B"/>
<path d="M5.67188 89.3097L36.8906 82.3722L5.67188 75.4347L0.46875 82.3722L5.67188 89.3097Z" fill="#DE4542"/>
<path d="M78.5156 52.8878C92.8837 52.8878 104.531 41.2402 104.531 26.8722C104.531 12.5042 92.8837 0.856567 78.5156 0.856567C64.1476 0.856567 52.5 12.5042 52.5 26.8722C52.5 41.2402 64.1476 52.8878 78.5156 52.8878Z" fill="#50B6CF"/>
<path d="M98.6992 10.469C100.324 13.8649 101.261 17.6531 101.261 21.6691C101.261 36.037 89.6132 47.6847 75.2453 47.6847C67.0981 47.6847 59.8319 43.9347 55.0618 38.0723C59.2506 46.8262 68.1636 52.8878 78.5157 52.8878C92.8838 52.8878 104.531 41.2402 104.531 26.8722C104.531 20.6512 102.342 14.9454 98.6992 10.469Z" fill="#3CADC9"/>
<path d="M78.5156 44.2159C88.0943 44.2159 95.8594 36.4509 95.8594 26.8722C95.8594 17.2935 88.0943 9.52844 78.5156 9.52844C68.9369 9.52844 61.1719 17.2935 61.1719 26.8722C61.1719 36.4509 68.9369 44.2159 78.5156 44.2159Z" fill="#DED8D0"/>
<path d="M78.5156 35.5441C83.305 35.5441 87.1875 31.6615 87.1875 26.8722C87.1875 22.0828 83.305 18.2003 78.5156 18.2003C73.7263 18.2003 69.8438 22.0828 69.8438 26.8722C69.8438 31.6615 73.7263 35.5441 78.5156 35.5441Z" fill="#F5A947"/>
<path d="M89.7891 84.1066H40.3594V80.6378H89.7891C95.0481 80.6378 99.3281 76.3586 99.3281 71.0988C99.3281 65.8389 95.0481 61.5597 89.7891 61.5597H32.5547C22.5126 61.5597 14.3438 53.39 14.3438 43.3488C14.3438 33.3075 22.5126 25.1378 32.5547 25.1378H78.5156V28.6066H32.5547C24.4265 28.6066 17.8125 35.2197 17.8125 43.3488C17.8125 51.4778 24.4265 58.0909 32.5547 58.0909H89.7891C96.962 58.0909 102.797 63.9258 102.797 71.0988C102.797 78.2717 96.962 84.1066 89.7891 84.1066Z" fill="#223B5A"/>
<path d="M39.8512 33.3016L37.3987 30.8491L41.3755 26.8723L37.3987 22.8954L39.8512 20.4429L46.2806 26.8723L39.8512 33.3016Z" fill="#223B5A"/>
<path d="M74.5387 33.3016L72.0862 30.8491L76.0631 26.8723L72.0862 22.8954L74.5387 20.4429L80.9681 26.8723L74.5387 33.3016Z" fill="#223B5A"/>
<path d="M56.477 66.2548L50.0476 59.8254L56.477 53.396L58.9295 55.8485L54.9526 59.8254L58.9295 63.8022L56.477 66.2548Z" fill="#223B5A"/>
<path d="M69.3356 88.8016L66.8831 86.3491L70.8599 82.3723L66.8831 78.3954L69.3356 75.9429L75.7649 82.3723L69.3356 88.8016Z" fill="#223B5A"/>
<path d="M0.46875 82.3722H36.8906L5.67188 89.3097L0.46875 82.3722Z" fill="#D43A37"/>
</svg>
