<svg width="431" height="494" viewBox="0 0 431 494" fill="none" xmlns="http://www.w3.org/2000/svg">
<g opacity="0.1">
<path d="M153.072 358.823C150.66 353.146 144.676 340.792 140.037 336.786C142.897 345.37 149.116 367.33 151.107 386.498C148.86 377.579 143.863 358.32 141.858 352.638C144.008 362.004 148.093 383.22 147.23 393.149L144.144 384.984C143.596 385.021 142.499 385.47 142.497 386.968C142.495 388.467 137.162 371.133 134.495 362.278L138.719 391.299C138.301 390.74 137.193 389.375 136.111 388.39C134.758 387.159 135.908 396.777 135.232 396.161C134.69 395.669 132.885 389.563 132.05 386.571C131.613 382.348 130.812 374.127 130.791 372.166C130.6 374.136 129.726 382.286 130.695 387.213C131.849 393.084 126.654 366.663 123.661 361.797C123.406 359.243 122.336 352.61 120.098 346.503L120.684 341.946L112.204 312L102.747 290.273C101.813 288.977 100.102 285.295 100.726 280.935C99.0205 277.597 96.3061 271.075 99.0915 271.68C102.573 272.437 105.368 281.944 105.178 279.092C104.988 276.241 105.763 274.536 107.503 275.851C109.243 277.166 103.932 268.049 106.928 271.042C109.324 273.436 114.754 280.393 117.168 283.572C118.295 285.847 121.165 290.905 123.64 292.942C125.312 297.052 127.211 299.994 121.43 278.878C119.982 276.222 118.736 265.178 117.29 260.649L109.642 254.453C109.739 256.886 109.991 259.062 108.393 258.714C105.978 258.189 104.104 255.175 106.336 251.775L103.856 249.766C101.237 256.222 103.448 268.412 101.911 258.71C100.374 249.009 97.2963 233.352 101.845 231.062L107.464 223.853L100.298 230.726L97.9729 233.967L98.7508 230.389L95.3642 231.058L95.0787 226.781L92.7575 226.276L93.7298 221.804C93.9243 220.909 98.6744 210.233 110.856 217.565C110.701 218.28 113.629 218.48 115.113 218.49C117.527 221.669 122.665 228.469 123.902 230.237C125.343 232.296 125.943 233.359 128.289 235.126L129.121 234.182C126.032 229.014 116.132 200.133 111.568 186.339L122.764 209.381L112.257 175.716L119.693 188.105L119.984 186.763L131.377 207.038C132.634 207.467 134.28 205.983 130.808 196.61C127.336 187.237 124.73 181.706 123.861 180.112L126.184 178.744L125.417 172.956C130.176 185.232 140.195 210.829 142.203 215.012L135.266 189.149C138.256 197.137 145.183 214.349 148.97 219.293C152.757 224.238 153.314 227.264 153.12 228.158C154.725 235.064 159.171 249.895 164.12 253.968C164.893 254.136 170.595 259.591 168.09 250.616C166.085 243.435 164.168 239.459 163.46 238.368C164.911 238.527 167.465 238.208 166.075 235.658C164.684 233.108 161.505 226.858 160.09 224.053L159.314 225.758C158.445 224.164 156.784 220.992 157.094 221.06C157.403 221.127 158.641 222.02 159.221 222.459L160.77 220.922C159.292 216.541 155.754 207.841 153.432 208.086C150.53 208.392 153.629 205.318 152.379 198.021C151.13 190.724 150.643 192.96 149.489 187.089C148.335 181.217 147.757 178.281 151.814 183.847C155.06 188.3 156.512 192.675 156.833 194.306L158 188.939L159.643 190.701L160.131 186.592L163.995 191.179C162.833 192.175 161.225 194.23 164.088 194.478C165.923 197.219 169.729 202.823 170.27 203.316C170.811 203.808 172.812 207.772 173.745 209.692C175.321 213.625 178.878 222.236 180.5 225.211C182.122 228.187 183.749 232.007 184.36 233.545L186.199 232.539L192.184 244.145L193.254 239.225L199.146 247.532L196.93 239.087L207.454 257.768L214.213 269.542L222.246 266.136L221.669 263.201L218.572 264.401L212.974 252.88L210.75 251.928L193.775 205.147C193.166 202.361 191.192 196.904 188.173 197.372C185.154 197.84 186.401 196.206 187.401 195.331L185.856 193.121L185.665 190.27L183.537 190.744L181.127 183.194L182.099 178.722C180.713 177.64 178.349 175.471 179.974 175.45C182.006 175.423 183.458 174.333 181.621 173.466C180.151 172.771 178.752 172.374 178.236 172.262C178.496 171.069 179.324 168.751 180.562 169.02C182.109 169.356 189.555 172.38 190.138 169.697C190.605 167.55 195.234 168.619 197.49 169.422L198.454 172.442L201.839 173.646C206.512 176.379 217.34 187.695 223.274 211.092C230.69 240.338 233.773 252.249 239.472 259.577C242.343 258.796 247.312 256.317 244.22 252.647C241.129 248.977 244.737 251.51 246.928 253.236L251.194 244.796L242.904 217.701L253.23 241.023L244.948 206.436L250.255 219.299L253.062 217.568C253.93 219.786 256.303 225.766 258.85 231.941C259.14 232.472 263.098 240.358 255.582 213.432C255.659 213.074 254.844 209.368 254.427 207.56L256.843 209.491L256.558 205.213L261.674 215.225C261.609 216.147 262.02 217.361 264.19 214.835L270.959 217.243L307.591 333.869C308.598 356.57 300.293 390.174 259.019 342.981L256.358 341.742C254.124 342.43 254.022 349.061 254.364 353.21L251.997 350.12L251.943 355.026L250.87 363.692L248.162 363.103L247.19 367.575L248.443 371.127C248.926 372.012 249.794 374.23 249.405 376.019L247.461 384.964L246.387 393.63L246.095 394.971L243.286 398.576L239.033 395.778L238.735 402.739C238.027 401.024 236.709 397.146 237.098 395.357C237.487 393.568 236.946 387.362 236.627 384.482L234.398 387.276L233.728 381.042C232.984 383.222 231.379 388.119 230.913 390.266C230.446 392.412 224.941 366.798 222.246 353.722L223.678 371.363L224.835 375.361L225.799 378.381L225.079 417.1L224.398 420.231L226.821 416.542C226.908 419.631 227.094 425.536 227.181 425.979L227.197 425.991C227.294 425.544 229.616 426.049 229.324 427.39C229.091 428.464 227.351 432.738 226.51 434.741C226.315 436.884 223.796 439.772 215.29 434.175C206.783 428.579 204.14 427.068 203.882 427.012L203.111 424.97L200.5 423.935L199.246 420.384L195.574 416.775L194.132 408.499L191.031 406.315L193.162 414.935L191.365 411.882L191.063 410.11L188.506 404.514L188.252 400.974L187.069 396.903L184.307 392.969L188.07 394.617L190.298 395.592L191.29 396.796L191.041 397.366L192.118 398.007L192.05 400.426L192.365 402.758C193.478 400.025 194.806 396.533 194.296 395.296C193.235 392.722 186.369 393.872 183.898 390.349C183.17 389.312 182.481 388.168 182.547 387.246L183.422 383.221L178.978 377.571C180.044 376.397 181.323 374.238 177.917 374.997L175.215 368.79L172.706 363.56L170.287 363.504C170.29 361.006 169.812 356 167.877 355.954L167.101 357.659L164.203 354.219L161.683 358.355L164.004 358.859L163.709 363.947L166.601 373.006L160.907 360.059L159.656 354.635C158.915 353.694 157.356 352.168 157.045 353.599C156.734 355.03 157.557 357.457 158.007 358.492C158.426 359.051 158.702 360.14 156.458 360.028C154.213 359.915 153.266 359.178 153.072 358.823Z" fill="#B3E0B9"/>
<path d="M176.235 158.574C177.65 163.812 180.222 175.613 179.188 180.906C176.503 173.412 168.875 154.836 159.838 140.49C163.129 147.883 170.136 163.925 171.835 168.947C168.234 161.297 159.533 144.396 153.541 137.994L155.842 145.321C155.442 145.593 154.44 145.879 153.624 144.843C152.809 143.807 158.536 158.7 161.502 166.277L148.657 143.898C148.671 144.513 148.646 146.059 148.432 147.329C148.165 148.916 143.735 141.635 143.601 142.429C143.494 143.064 145.563 148.27 146.61 150.794C148.603 153.954 152.515 160.078 153.566 161.447C152.364 160.188 147.331 155.022 145.324 151.087C142.932 146.396 153.694 167.502 154.266 172.496C155.477 174.402 158.341 179.574 160.111 185.016L162.992 187.851L173.394 213.181L178.656 233.355C178.714 234.759 179.53 238.237 182.331 240.916C182.964 244.151 184.63 250.14 186.229 248.208C188.227 245.792 184.995 237.695 186.413 239.772C187.831 241.848 189.294 242.607 189.783 240.751C190.273 238.896 191.552 248.09 191.998 244.391C192.356 241.432 192.333 233.668 192.276 230.156C191.82 227.97 191.058 222.91 191.664 220.156C190.588 216.403 190.303 213.335 197.776 231.089C198.217 233.714 203.356 242.033 204.816 245.953L202.89 254.397C201.635 252.66 200.627 251.018 199.71 252.126C198.324 253.802 198.665 256.906 202.057 258.046L201.433 260.784C196.112 257.739 191.019 248.102 195.227 255.651C199.435 263.199 205.812 275.707 210.204 274.82L218.009 276.756L209.316 275.893L205.946 274.913L208.428 276.967L205.721 278.344L207.848 281.459L206.516 283.069L209.618 285.636C210.239 286.149 219.327 290.957 223.773 279.264C223.277 278.853 225.195 277.124 226.216 276.311C226.159 272.799 226.02 265.302 225.916 263.406C225.794 261.198 225.632 260.137 226.295 257.639L227.384 257.84C228.054 263.095 236.896 288.46 241.233 300.486L236.46 278.457L247.481 307.462L245.895 294.849L246.826 295.619L243.694 275.398C244.33 274.418 246.276 274.551 248.966 282.924C251.656 291.297 252.858 296.54 253.123 298.115L255.474 297.8L258.087 302.222C254.711 291.141 247.736 267.984 246.853 263.998L256.105 285.665C253.834 278.513 249.275 262.838 249.209 257.359C249.143 251.879 247.885 249.483 247.264 248.969C244.622 243.318 239.641 230.639 240.853 225.132C241.297 224.595 242.278 217.722 245.421 225.295C247.936 231.352 248.769 235.146 248.872 236.286C249.789 235.387 251.73 234.22 252.154 236.74C252.578 239.261 253.773 245.312 254.318 248.023L252.855 247.265C253.12 248.84 253.694 251.937 253.871 251.722C254.049 251.507 254.42 250.217 254.583 249.598L256.49 249.82C257.847 253.655 260.126 261.597 258.387 262.69C256.212 264.055 260.026 264.498 263.127 270.227C266.227 275.956 264.675 274.672 267.067 279.363C269.458 284.053 270.654 286.398 270.437 280.342C270.264 275.498 268.892 271.681 268.228 270.378L271.951 273.458L272.13 271.346L274.701 273.924L274.883 268.65C273.537 268.592 271.308 268.044 273.155 266.317C272.935 263.423 272.523 257.477 272.63 256.842C272.737 256.207 271.969 252.377 271.571 250.541C270.524 246.963 268.307 239.072 267.813 236.132C267.318 233.191 266.369 229.664 265.956 228.267L267.775 227.964L265.611 216.681L269.024 219.504L268.588 210.555L271.643 217.602L268.775 198.956L267.055 187.137L274.465 185.129L275.661 187.474L272.865 188.326L275.251 199.34L274.23 201.208L287.901 242.803C288.993 245.063 290.592 249.911 288.249 251.228C285.906 252.544 287.656 252.997 288.824 253.059L288.955 255.428L290.373 257.505L288.642 258.334L291.076 264.867L294.179 267.434C293.808 268.935 293.351 271.721 294.487 270.853C295.907 269.768 297.504 269.732 296.704 271.331C296.065 272.61 295.313 273.645 295.017 274.003C295.844 274.688 297.676 275.842 298.387 274.983C299.275 273.909 302.784 267.771 304.646 269.311C306.135 270.543 308.758 267.288 309.883 265.507L308.91 262.893L310.598 260.221C312.346 255.791 313.691 242.076 305.084 222.661C294.326 198.393 289.987 188.475 289.95 180.308C292.361 179.288 297.146 178.304 297.001 182.524C296.855 186.743 297.976 183.029 298.555 180.645L306.093 184.168L315.078 207.421L309.551 185.672L322.613 214.106L319.296 202.322L322.179 201.995C321.575 199.988 319.968 194.56 318.376 188.903C318.287 188.378 316.741 180.771 326.17 203.488C326.419 203.693 327.868 206.7 328.562 208.178L329.185 205.529L331.311 208.644L329.412 198.937C328.866 198.334 328.491 197.271 331.365 197.84L334.741 192.495L296.722 91.8845C285.084 75.6282 261.079 56.8866 258.158 111.971L256.991 114.274C255.07 115.012 251.398 110.479 249.379 107.421L249.421 110.846L246.718 107.48L241.266 102.066L239.712 103.945L236.61 101.379L235.548 98.24C235.4 97.3649 234.796 95.358 233.555 94.3313L227.349 89.1981L221.898 83.7847L220.967 83.0147L217.064 82.0468L215.641 86.2942L211.653 81.6391C212.095 83.2103 213.29 86.6095 214.531 87.6362C215.772 88.6628 218.77 93.252 220.114 95.4182L217.053 94.6952L219.977 99.3738C218.278 98.2694 214.506 95.7527 213.017 94.5207C211.528 93.2887 221.636 114.006 226.876 124.518L218.281 111.532L216.909 108.137L215.935 105.523L194.4 79.1207L192.228 77.3241L195.908 78.5607C194.29 76.3754 191.211 72.1885 191.03 71.8342L191.034 71.8168C191.345 72.0735 192.677 70.4631 191.746 69.6931C191.001 69.0771 187.475 67.0644 185.805 66.135C184.505 64.7583 181.194 64.1287 178.348 72.6236C175.502 81.1185 174.494 83.6 174.346 83.779L174.921 85.6108L173.677 87.7461L174.739 90.8847L174.159 95.377L177.657 101.887L176.698 105.084L173.489 97.9611L173.904 101.05L174.658 102.44L175.93 107.702L177.677 110.29L179.071 113.75L179.296 117.974L181.006 114.788L182.017 112.902L182.05 111.53L181.567 111.272L181.964 110.242L180.603 108.605L179.554 106.821C181.81 108.107 184.626 109.802 184.945 110.935C185.609 113.293 180.233 116.228 180.437 120.008C180.497 121.121 180.642 122.287 181.188 122.89L183.981 125.2L183.976 131.524C185.351 131.758 187.409 132.556 184.639 133.881L186.142 139.645L187.248 144.628L185.605 145.981C186.963 147.708 189.353 151.432 188.039 152.515L186.576 151.757L186.439 155.712L182.448 154.219L183.78 152.609L180.811 149.249L177.89 141.408L180.985 153.461L183.066 157.895C183.065 158.949 182.815 160.851 181.822 160.03C180.83 159.209 180.08 157.082 179.83 156.121C179.816 155.507 179.415 154.603 177.923 155.9C176.431 157.198 176.176 158.223 176.235 158.574Z" fill="#B3E0B9"/>
</g>
</svg>
