<svg width="98" height="100" viewBox="0 0 98 100" fill="none" xmlns="http://www.w3.org/2000/svg">
<path d="M84.1263 85.6491C102.601 66.9862 102.601 36.7277 84.1263 18.0648C65.652 -0.598086 35.6991 -0.59809 17.2247 18.0648C-1.24964 36.7277 -1.24964 66.9862 17.2247 85.6491C35.6991 104.312 65.652 104.312 84.1263 85.6491Z" fill="#FF6C6C"/>
<path d="M50.686 4.06067V99.6535C76.7749 99.6535 97.9998 78.2121 97.9998 51.857C97.9998 25.5019 76.7749 4.06067 50.686 4.06067Z" fill="#E63950"/>
<path d="M55.8482 83.177C72.9703 80.2825 84.5278 63.9141 81.6625 46.6171C78.7972 29.3202 62.5942 17.6447 45.4721 20.5392C28.35 23.4337 16.7925 39.8021 19.6578 57.0991C22.5231 74.396 38.7261 86.0715 55.8482 83.177Z" fill="#F0F7FF"/>
<path d="M50.686 20.0934V83.6204C68.0235 83.6204 82.1288 69.3712 82.1288 51.8568C82.1288 34.3426 68.0235 20.0934 50.686 20.0934Z" fill="#DFE7F4"/>
<path d="M64.5661 59.0157C68.4705 51.275 65.4239 41.8024 57.7614 37.8582C50.0988 33.914 40.7219 36.9917 36.8176 44.7324C32.9132 52.4732 35.9598 61.9457 43.6223 65.8899C51.2849 69.8342 60.6618 66.7565 64.5661 59.0157Z" fill="#FF6C6C"/>
<path d="M50.686 36.1265V67.5875C59.2724 67.5875 66.2578 60.5309 66.2578 51.857C66.2578 43.183 59.2724 36.1265 50.686 36.1265Z" fill="#E63950"/>
<path d="M35.0455 15.5486L21.143 1.50427C20.4514 0.805144 19.4548 0.509694 18.4988 0.719955C17.5428 0.930216 16.7582 1.61734 16.4164 2.54358L13.5709 10.2561L14.3837 15.1842L9.50536 14.3631L1.87097 17.2375C0.954087 17.5827 0.273903 18.3753 0.065765 19.3411C-0.142181 20.3068 0.150093 21.3134 0.84216 22.0123L14.7446 36.0566C15.2886 36.6063 16.0218 36.9074 16.7773 36.9074C16.9477 36.9074 17.1192 36.8921 17.2902 36.8609L31.034 34.344C32.213 34.1279 33.1361 33.1955 33.3499 32.0044L35.8415 18.1203C36.0095 17.1833 35.7123 16.2222 35.0455 15.5486Z" fill="#29376D"/>
<path d="M52.719 49.8033L13.571 10.256L12.4672 13.248L9.50537 14.363L48.6534 53.9106C49.2148 54.4777 49.9506 54.7611 50.6861 54.7611C51.4219 54.7611 52.1577 54.4775 52.7188 53.9106C53.8417 52.7764 53.8417 50.9375 52.719 49.8033Z" fill="#47568C"/>
</svg>
