<svg width="33" height="24" viewBox="0 0 33 24" fill="none" xmlns="http://www.w3.org/2000/svg">
<path d="M30.4974 0.85968H3.13922C2.53457 0.85968 1.95468 1.09988 1.52713 1.52743C1.09957 1.95499 0.859375 2.53487 0.859375 3.13953V21.3783C0.859375 21.983 1.09957 22.5629 1.52713 22.9904C1.95468 23.418 2.53457 23.6582 3.13922 23.6582H30.4974C31.1021 23.6582 31.6819 23.418 32.1095 22.9904C32.5371 22.5629 32.7772 21.983 32.7772 21.3783V3.13953C32.7772 2.53487 32.5371 1.95499 32.1095 1.52743C31.6819 1.09988 31.1021 0.85968 30.4974 0.85968ZM27.9896 3.13953L16.8183 10.8682L5.64706 3.13953H27.9896ZM3.13922 21.3783V4.17686L16.1686 13.1937C16.3594 13.326 16.5861 13.397 16.8183 13.397C17.0506 13.397 17.2773 13.326 17.4681 13.1937L30.4974 4.17686V21.3783H3.13922Z" fill="black"/>
</svg>
