<svg width="19" height="18" viewBox="0 0 19 18" fill="none" xmlns="http://www.w3.org/2000/svg">
<path fill-rule="evenodd" clip-rule="evenodd" d="M9.67922 0.807617C4.80583 0.807617 0.885132 4.72831 0.885132 9.60171C0.885132 13.4858 3.41343 16.7835 6.89442 17.9561C7.33413 18.0294 7.4807 17.7729 7.4807 17.5164C7.4807 17.2965 7.4807 16.7469 7.4807 16.0141C5.02568 16.5637 4.51269 14.8415 4.51269 14.8415C4.10963 13.8155 3.52336 13.559 3.52336 13.559C2.71723 13.0094 3.59664 13.0094 3.59664 13.0094C4.47605 13.0827 4.9524 13.9255 4.9524 13.9255C5.72188 15.2812 7.00435 14.8782 7.51734 14.6583C7.59062 14.072 7.81048 13.7056 8.06697 13.4858C6.12494 13.2659 4.07299 12.4964 4.07299 9.12536C4.07299 8.17267 4.40277 7.36654 4.98904 6.78027C4.91576 6.56042 4.58598 5.68101 5.06232 4.43518C5.06232 4.43518 5.79516 4.21533 7.4807 5.35123C8.1769 5.16802 8.94638 5.05809 9.67922 5.05809C10.4121 5.05809 11.1815 5.16802 11.8777 5.35123C13.5633 4.21533 14.2961 4.43518 14.2961 4.43518C14.7725 5.64437 14.4793 6.52377 14.3694 6.78027C14.919 7.40318 15.2854 8.17267 15.2854 9.12536C15.2854 12.4964 13.2335 13.2293 11.2548 13.4491C11.5846 13.7056 11.8411 14.2552 11.8411 15.0614C11.8411 16.2339 11.8411 17.1866 11.8411 17.4797C11.8411 17.6996 11.9877 17.9927 12.464 17.9194C15.945 16.7835 18.4733 13.4858 18.4733 9.60171C18.4733 4.72831 14.5526 0.807617 9.67922 0.807617Z" fill="#141318"/>
</svg>
