<svg width="16" height="15" viewBox="0 0 16 15" fill="none" xmlns="http://www.w3.org/2000/svg">
<path d="M11 7.5C11 5.84315 9.65685 4.5 8 4.5C6.34315 4.5 5 5.84315 5 7.5C5 9.15685 6.34315 10.5 8 10.5C9.65685 10.5 11 9.15685 11 7.5ZM11 7.5V8.625C11 9.66053 11.8395 10.5 12.875 10.5C13.9105 10.5 14.75 9.66053 14.75 8.625V7.5C14.75 3.77208 11.7279 0.75 8 0.75C4.27208 0.75 1.25 3.77208 1.25 7.5C1.25 11.2279 4.27208 14.25 8 14.25M11.375 13.3457C10.31 13.9605 9.14717 14.2522 7.99997 14.2511" stroke="#141318" stroke-width="1.5" stroke-linecap="round" stroke-linejoin="round"/>
</svg>
