<svg width="20" height="20" viewBox="0 0 20 20" fill="none" xmlns="http://www.w3.org/2000/svg">
<path d="M9.8567 2.4642C12.3114 2.4642 12.602 2.47339 13.5717 2.51761C14.1548 2.52474 14.7323 2.6318 15.2791 2.83412C15.6757 2.98706 16.0358 3.22134 16.3364 3.52188C16.6369 3.82243 16.8712 4.18257 17.0241 4.57914C17.2264 5.12598 17.3335 5.70347 17.3406 6.2865C17.3844 7.25619 17.394 7.54688 17.394 10.0015C17.394 12.4562 17.3849 12.7469 17.3406 13.7166C17.3335 14.2996 17.2264 14.8771 17.0241 15.4239C16.8712 15.8205 16.6369 16.1807 16.3364 16.4812C16.0358 16.7817 15.6757 17.016 15.2791 17.169C14.7323 17.3713 14.1548 17.4783 13.5717 17.4855C12.6025 17.5293 12.3118 17.5389 9.8567 17.5389C7.4016 17.5389 7.11091 17.5297 6.14165 17.4855C5.55862 17.4783 4.98113 17.3713 4.43429 17.169C4.03773 17.016 3.67758 16.7817 3.37704 16.4812C3.0765 16.1807 2.84221 15.8205 2.68928 15.4239C2.48695 14.8771 2.37989 14.2996 2.37276 13.7166C2.32898 12.7469 2.31935 12.4562 2.31935 10.0015C2.31935 7.54688 2.32854 7.25619 2.37276 6.2865C2.37989 5.70347 2.48695 5.12598 2.68928 4.57914C2.84221 4.18257 3.0765 3.82243 3.37704 3.52188C3.67758 3.22134 4.03773 2.98706 4.43429 2.83412C4.98113 2.6318 5.55862 2.52474 6.14165 2.51761C7.11135 2.47383 7.40204 2.4642 9.8567 2.4642ZM9.8567 0.807617C7.36132 0.807617 7.04699 0.818124 6.06635 0.862778C5.30331 0.877955 4.54838 1.02243 3.83365 1.29006C3.22053 1.52106 2.6652 1.88306 2.2064 2.35081C1.73823 2.80977 1.37592 3.36542 1.14477 3.97893C0.877145 4.69366 0.732671 5.4486 0.717493 6.21164C0.673715 7.1914 0.663208 7.50573 0.663208 10.0011C0.663208 12.4965 0.673715 12.8108 0.718369 13.7914C0.733546 14.5545 0.878021 15.3094 1.14565 16.0242C1.37654 16.6376 1.73855 17.1932 2.2064 17.6523C2.66545 18.1201 3.22109 18.4821 3.83452 18.713C4.54925 18.9807 5.30419 19.1251 6.06723 19.1403C7.04787 19.1841 7.36088 19.1955 9.85757 19.1955C12.3543 19.1955 12.6673 19.185 13.6479 19.1403C14.411 19.1251 15.1659 18.9807 15.8806 18.713C16.4911 18.4764 17.0456 18.1149 17.5084 17.6518C17.9713 17.1886 18.3324 16.634 18.5686 16.0233C18.8363 15.3085 18.9807 14.5536 18.9959 13.7906C19.0397 12.8108 19.0502 12.4965 19.0502 10.0011C19.0502 7.50573 19.0397 7.1914 18.995 6.21076C18.9798 5.44772 18.8354 4.69278 18.5677 3.97806C18.3369 3.36462 17.9748 2.80898 17.507 2.34993C17.0479 1.88208 16.4923 1.52007 15.8789 1.28918C15.1641 1.02155 14.4092 0.87708 13.6462 0.861903C12.6664 0.818124 12.3521 0.807617 9.8567 0.807617Z" fill="#141318"/>
<path d="M9.85853 5.28174C8.92479 5.28174 8.01202 5.55862 7.23564 6.07738C6.45926 6.59614 5.85415 7.33347 5.49682 8.19614C5.1395 9.0588 5.046 10.0081 5.22817 10.9238C5.41033 11.8396 5.85997 12.6809 6.52022 13.3411C7.18048 14.0014 8.02169 14.451 8.93749 14.6332C9.85329 14.8153 10.8025 14.7218 11.6652 14.3645C12.5279 14.0072 13.2652 13.4021 13.784 12.6257C14.3027 11.8493 14.5796 10.9366 14.5796 10.0028C14.5796 8.75071 14.0822 7.54988 13.1968 6.66451C12.3115 5.77914 11.1106 5.28174 9.85853 5.28174ZM9.85853 13.0673C9.25243 13.0673 8.65994 12.8876 8.15599 12.5508C7.65203 12.2141 7.25925 11.7355 7.0273 11.1755C6.79536 10.6156 6.73467 9.99941 6.85292 9.40496C6.97116 8.81051 7.26303 8.26447 7.6916 7.83589C8.12018 7.40731 8.66622 7.11544 9.26067 6.9972C9.85513 6.87896 10.4713 6.93964 11.0313 7.17159C11.5912 7.40353 12.0698 7.79632 12.4066 8.30027C12.7433 8.80422 12.923 9.39671 12.923 10.0028C12.923 10.8156 12.6002 11.595 12.0255 12.1697C11.4508 12.7444 10.6713 13.0673 9.85853 13.0673Z" fill="#141318"/>
<path d="M14.7652 6.19765C15.3745 6.19765 15.8684 5.70372 15.8684 5.09443C15.8684 4.48514 15.3745 3.99121 14.7652 3.99121C14.1559 3.99121 13.662 4.48514 13.662 5.09443C13.662 5.70372 14.1559 6.19765 14.7652 6.19765Z" fill="#141318"/>
</svg>
