<svg width="24" height="31" viewBox="0 0 24 31" fill="none" xmlns="http://www.w3.org/2000/svg">
<path d="M12.182 30.3543C10.0639 28.5476 8.10061 26.5669 6.31267 24.433C3.62956 21.2283 0.443361 16.4558 0.443361 11.9079C0.442197 9.58526 1.13008 7.31448 2.41996 5.38294C3.70985 3.4514 5.54374 1.94593 7.68955 1.05705C9.83537 0.168165 12.1966 -0.06417 14.4746 0.389446C16.7525 0.843062 18.8446 1.96224 20.4862 3.60534C21.5792 4.69344 22.4455 5.9875 23.035 7.41263C23.6245 8.83776 23.9255 10.3657 23.9206 11.9079C23.9206 16.4558 20.7344 21.2283 18.0513 24.433C16.2633 26.5669 14.3001 28.5476 12.182 30.3543ZM12.182 6.87706C10.8477 6.87706 9.5681 7.40709 8.62464 8.35055C7.68117 9.29402 7.15114 10.5736 7.15114 11.9079C7.15114 13.2421 7.68117 14.5218 8.62464 15.4652C9.5681 16.4087 10.8477 16.9387 12.182 16.9387C13.5162 16.9387 14.7958 16.4087 15.7393 15.4652C16.6828 14.5218 17.2128 13.2421 17.2128 11.9079C17.2128 10.5736 16.6828 9.29402 15.7393 8.35055C14.7958 7.40709 13.5162 6.87706 12.182 6.87706Z" fill="black"/>
</svg>
