<svg width="532" height="634" viewBox="0 0 532 634" fill="none" xmlns="http://www.w3.org/2000/svg">
<rect width="532" height="634" rx="39" fill="url(#paint0_linear_21_15)"/>
<g filter="url(#filter0_b_21_15)">
<rect y="388.129" width="467.899" height="293.066" rx="22" transform="rotate(-51.1446 0 388.129)" fill="url(#paint1_linear_21_15)"/>
<rect x="1.40609" y="387.978" width="465.899" height="291.066" rx="21" transform="rotate(-51.1446 1.40609 387.978)" stroke="#FEE2DF" stroke-width="2"/>
</g>
<rect x="48.3958" y="375.762" width="45.7961" height="35.7338" rx="2" transform="rotate(-51.1446 48.3958 375.762)" fill="#FFE7DC" stroke="#F6E2D7" stroke-width="2"/>
<mask id="mask0_21_15" style="mask-type:alpha" maskUnits="userSpaceOnUse" x="48" y="339" width="58" height="60">
<rect x="48.3958" y="375.762" width="45.7961" height="35.7338" rx="2" transform="rotate(-51.1446 48.3958 375.762)" fill="#FFE7DC" stroke="#F6E2D7" stroke-width="2"/>
</mask>
<g mask="url(#mask0_21_15)">
<path d="M77.4272 360.185C71.5321 357.581 65.3077 357.496 61.1929 358.283C62.6452 364.442 65.0676 369.122 67.9897 372.642M77.4272 360.185L88.9326 345.904M77.4272 360.185C80.6676 361.617 83.8086 363.809 86.4449 367.036M86.4449 367.036C89.3984 370.651 91.7186 375.564 92.8357 382.16C88.7959 382.811 82.4944 382.471 76.4679 379.42M86.4449 367.036L97.7479 353.006M67.9897 372.642L57.4644 385.968M67.9897 372.642C70.5394 375.714 73.4696 377.903 76.4679 379.42M76.4679 379.42L65.79 392.675" stroke="#FFC1A4" stroke-width="3"/>
</g>
<path d="M274.805 124.71L268.144 111.684L270.599 108.636L278.593 125.911L276.968 127.928L274.805 124.71ZM263.453 117.506L275.219 124.682L277.887 126.787L276.336 128.712L261.13 120.39L263.453 117.506ZM275.571 102.464L287.006 115.468L284.851 118.142L273.424 105.129L275.571 102.464ZM293.009 100.768C292.731 100.454 292.438 100.263 292.131 100.196C291.823 100.118 291.507 100.124 291.183 100.215C290.858 100.294 290.536 100.42 290.215 100.594C289.9 100.761 289.594 100.936 289.297 101.118C288.737 101.439 288.157 101.735 287.559 102.005C286.965 102.269 286.36 102.459 285.745 102.575C285.123 102.687 284.516 102.674 283.924 102.538C283.325 102.397 282.752 102.075 282.203 101.573C281.58 101.001 281.161 100.357 280.945 99.6416C280.729 98.9259 280.673 98.193 280.775 97.443C280.877 96.682 281.094 95.9445 281.429 95.2307C281.768 94.5108 282.176 93.8667 282.654 93.2986C283.333 92.481 284.099 91.8845 284.954 91.5092C285.802 91.129 286.677 91.0014 287.579 91.1265C288.481 91.2406 289.344 91.6504 290.17 92.356L288.038 95.0025C287.656 94.6547 287.268 94.427 286.873 94.3195C286.477 94.2011 286.089 94.215 285.711 94.3613C285.331 94.4967 284.966 94.7694 284.615 95.1793C284.32 95.5334 284.094 95.9328 283.936 96.3776C283.777 96.8114 283.722 97.2535 283.77 97.7039C283.818 98.1433 284.011 98.5503 284.352 98.9248C284.598 99.2038 284.877 99.3628 285.186 99.4017C285.501 99.4345 285.822 99.3971 286.15 99.2897C286.482 99.1761 286.803 99.0332 287.112 98.861C287.42 98.6778 287.697 98.5147 287.943 98.3715C288.516 98.0209 289.108 97.7154 289.719 97.4552C290.335 97.1889 290.952 97.0141 291.571 96.9308C292.184 96.8426 292.792 96.8855 293.394 97.0596C293.99 97.2288 294.568 97.5694 295.129 98.0813C295.76 98.6801 296.191 99.3282 296.422 100.026C296.646 100.718 296.712 101.433 296.619 102.171C296.52 102.904 296.306 103.619 295.975 104.316C295.644 105.013 295.234 105.66 294.742 106.257C294.201 106.904 293.6 107.439 292.94 107.86C292.279 108.281 291.593 108.56 290.88 108.698C290.16 108.831 289.438 108.801 288.711 108.607C287.983 108.402 287.28 108.011 286.601 107.434L288.764 104.767C289.116 105.09 289.464 105.325 289.807 105.472C290.149 105.607 290.488 105.659 290.824 105.629C291.165 105.592 291.494 105.476 291.812 105.281C292.128 105.074 292.439 104.788 292.744 104.422C293.034 104.063 293.258 103.672 293.418 103.249C293.578 102.827 293.635 102.401 293.589 101.972C293.537 101.539 293.344 101.138 293.009 100.768ZM296.18 81.8139L302.75 95.925L300.383 98.8635L292.815 81.0594L294.33 79.1795L296.18 81.8139ZM307.911 89.5187L295.441 82.1518L293.396 80.3384L294.815 78.5772L310.124 86.7718L307.911 89.5187ZM303.509 84.8587L305.352 86.9605L299.845 93.7957L298.002 91.6939L303.509 84.8587Z" fill="#FDFFFF"/>
<path d="M160.353 395.935L171.463 404.886L169.987 406.719L161.051 399.52L159.784 402.977L158.271 401.757L160.175 396.156L160.353 395.935ZM180.463 390.726L181.923 391.903L175.944 399.325L174.689 398.314L173.661 391.542C173.533 390.787 173.399 390.165 173.259 389.675C173.118 389.186 172.955 388.791 172.77 388.492C172.584 388.183 172.367 387.929 172.118 387.729C171.769 387.447 171.409 387.266 171.039 387.185C170.668 387.095 170.307 387.113 169.954 387.239C169.597 387.361 169.275 387.599 168.99 387.954C168.659 388.365 168.47 388.781 168.423 389.203C168.375 389.625 168.452 390.033 168.652 390.428C168.847 390.82 169.144 391.176 169.545 391.499L168.068 393.332C167.424 392.813 166.955 392.192 166.659 391.469C166.359 390.742 166.276 389.973 166.411 389.163C166.541 388.348 166.922 387.547 167.555 386.761C168.152 386.021 168.782 385.493 169.447 385.176C170.112 384.859 170.781 384.749 171.454 384.848C172.131 384.942 172.781 385.24 173.405 385.743C173.75 386.02 174.047 386.352 174.297 386.737C174.546 387.122 174.757 387.556 174.93 388.037C175.101 388.509 175.244 389.022 175.359 389.574C175.469 390.123 175.562 390.703 175.637 391.316L176.346 395.837L180.463 390.726ZM179.824 381.48L180.706 380.385C181.049 379.959 181.259 379.547 181.337 379.15C181.419 378.748 181.385 378.374 181.237 378.029C181.089 377.683 180.847 377.376 180.513 377.107C180.163 376.825 179.813 376.647 179.462 376.574C179.111 376.491 178.764 376.522 178.423 376.665C178.086 376.803 177.762 377.065 177.452 377.45C177.191 377.774 177.02 378.122 176.939 378.491C176.857 378.852 176.875 379.204 176.99 379.548C177.101 379.888 177.319 380.189 177.643 380.451L176.16 382.291C175.572 381.817 175.175 381.242 174.968 380.565C174.76 379.888 174.742 379.179 174.912 378.439C175.082 377.689 175.436 376.979 175.975 376.31C176.551 375.595 177.172 375.068 177.84 374.727C178.506 374.378 179.192 374.241 179.9 374.318C180.607 374.395 181.306 374.711 181.995 375.266C182.31 375.519 182.57 375.85 182.776 376.259C182.982 376.667 183.103 377.124 183.139 377.629C183.169 378.131 183.095 378.664 182.915 379.23C182.73 379.792 182.409 380.356 181.952 380.924L180.843 382.301L179.824 381.48ZM181.253 382.632L180.249 381.823L181.358 380.446C181.881 379.797 182.402 379.306 182.922 378.972C183.446 378.634 183.958 378.428 184.46 378.355C184.956 378.279 185.428 378.311 185.873 378.453C186.323 378.59 186.739 378.812 187.119 379.118C187.636 379.534 188.022 380 188.276 380.514C188.53 381.019 188.659 381.554 188.664 382.119C188.669 382.683 188.559 383.25 188.334 383.821C188.112 384.387 187.787 384.936 187.358 385.468C186.974 385.944 186.54 386.348 186.057 386.677C185.574 387.007 185.065 387.24 184.528 387.377C183.987 387.509 183.439 387.52 182.886 387.408C182.331 387.287 181.795 387.018 181.278 386.602L182.754 384.769C183.084 385.034 183.437 385.193 183.813 385.245C184.188 385.288 184.559 385.227 184.925 385.063C185.296 384.893 185.628 384.626 185.922 384.261C186.233 383.876 186.432 383.489 186.52 383.099C186.607 382.71 186.576 382.334 186.426 381.971C186.28 381.602 186.016 381.265 185.636 380.958C185.205 380.611 184.788 380.413 184.385 380.364C183.981 380.315 183.591 380.394 183.215 380.601C182.834 380.804 182.474 381.116 182.135 381.537L181.253 382.632ZM195.164 367.387L196.625 368.564L190.192 376.549L189.04 375.721L185.404 364.917L186.587 363.449L188.029 367.232L190.22 373.524L195.164 367.387ZM186.924 363.031L197.996 371.951L196.52 373.784L185.447 364.864L186.924 363.031ZM217.19 340.047L218.65 341.223L212.217 349.209L211.066 348.381L207.43 337.577L208.612 336.109L210.054 339.892L212.246 346.184L217.19 340.047ZM208.949 335.691L220.022 344.611L218.545 346.444L207.473 337.523L208.949 335.691ZM219.905 334.218L218.371 335.39L213.289 330.304L218.098 324.335L219.649 325.584L216.065 330.033L218.535 332.525C218.573 332.271 218.666 331.953 218.814 331.571C218.958 331.185 219.187 330.797 219.502 330.406C219.922 329.884 220.384 329.487 220.888 329.215C221.39 328.934 221.92 328.78 222.477 328.753C223.029 328.721 223.597 328.815 224.181 329.035C224.76 329.25 225.336 329.589 225.909 330.05C226.421 330.463 226.838 330.925 227.162 331.436C227.49 331.943 227.703 332.482 227.802 333.055C227.9 333.628 227.862 334.22 227.687 334.831C227.511 335.434 227.174 336.044 226.676 336.663C226.304 337.124 225.881 337.515 225.406 337.834C224.93 338.145 224.426 338.361 223.893 338.483C223.354 338.601 222.808 338.605 222.254 338.493C221.696 338.377 221.148 338.128 220.611 337.746L222.057 335.951C222.454 336.196 222.84 336.344 223.216 336.396C223.591 336.439 223.949 336.384 224.289 336.232C224.629 336.08 224.936 335.834 225.21 335.494C225.459 335.185 225.62 334.876 225.693 334.567C225.762 334.254 225.753 333.942 225.669 333.632C225.584 333.312 225.43 333.005 225.209 332.709C224.991 332.408 224.712 332.121 224.373 331.848C224.048 331.586 223.717 331.39 223.379 331.26C223.045 331.125 222.711 331.061 222.379 331.069C222.051 331.072 221.733 331.155 221.426 331.317C221.115 331.476 220.828 331.717 220.567 332.042C220.216 332.478 220.009 332.864 219.948 333.199C219.891 333.529 219.877 333.869 219.905 334.218ZM225.334 315.212L225.518 314.984L227.016 316.191L226.912 316.32C226.385 316.974 226.031 317.621 225.85 318.261C225.673 318.896 225.639 319.509 225.749 320.099C225.859 320.689 226.091 321.252 226.445 321.788C226.798 322.315 227.241 322.793 227.773 323.222L229.514 324.625C229.955 324.98 230.385 325.246 230.802 325.424C231.214 325.597 231.604 325.689 231.971 325.701C232.337 325.703 232.67 325.637 232.97 325.503C233.271 325.368 233.527 325.17 233.74 324.906C233.96 324.632 234.105 324.339 234.173 324.026C234.236 323.709 234.229 323.39 234.153 323.07C234.077 322.749 233.932 322.436 233.719 322.13C233.505 321.824 233.234 321.539 232.904 321.273C232.59 321.02 232.263 320.824 231.924 320.684C231.584 320.536 231.248 320.454 230.918 320.438C230.583 320.419 230.265 320.476 229.964 320.61C229.663 320.735 229.394 320.945 229.157 321.239C228.863 321.604 228.681 322.006 228.613 322.444C228.548 322.877 228.582 323.297 228.714 323.704C228.845 324.102 229.059 324.433 229.356 324.697L228.564 325.213C228.125 324.793 227.785 324.348 227.545 323.878C227.309 323.404 227.171 322.921 227.132 322.429C227.093 321.938 227.152 321.455 227.309 320.98C227.465 320.495 227.721 320.032 228.077 319.591C228.51 319.054 228.987 318.669 229.508 318.437C230.029 318.205 230.569 318.101 231.127 318.124C231.684 318.138 232.237 318.261 232.785 318.494C233.333 318.718 233.847 319.023 234.329 319.411C234.861 319.84 235.293 320.322 235.623 320.855C235.949 321.385 236.157 321.946 236.249 322.538C236.345 323.125 236.309 323.719 236.142 324.321C235.979 324.917 235.671 325.497 235.218 326.059C234.74 326.653 234.199 327.09 233.595 327.373C232.996 327.651 232.365 327.79 231.703 327.792C231.045 327.789 230.388 327.661 229.731 327.407C229.074 327.154 228.454 326.792 227.871 326.323L227.11 325.71C226.269 325.032 225.561 324.286 224.987 323.473C224.408 322.656 224.01 321.795 223.793 320.893C223.579 319.985 223.59 319.053 223.825 318.097C224.055 317.137 224.558 316.176 225.334 315.212ZM235.378 302.885L236.382 303.693L242.885 316.231L241.329 318.163L235.276 306L230.657 311.734L229.197 310.558L235.378 302.885ZM269.87 276.555C270.56 277.11 271.011 277.738 271.226 278.437C271.44 279.136 271.446 279.86 271.244 280.609C271.041 281.348 270.662 282.063 270.107 282.752C269.551 283.442 268.932 283.967 268.248 284.328C267.56 284.684 266.851 284.832 266.122 284.772C265.393 284.711 264.684 284.403 263.995 283.848C263.538 283.48 263.197 283.059 262.97 282.583C262.737 282.104 262.618 281.593 262.61 281.052C262.602 280.502 262.702 279.947 262.91 279.388C263.123 278.823 263.441 278.277 263.866 277.75C264.43 277.05 265.063 276.528 265.767 276.184C266.471 275.84 267.178 275.694 267.887 275.748C268.601 275.796 269.262 276.065 269.87 276.555ZM268.296 278.322C267.926 278.024 267.54 277.838 267.139 277.766C266.738 277.693 266.351 277.733 265.978 277.884C265.605 278.035 265.274 278.291 264.984 278.651C264.69 279.016 264.511 279.394 264.446 279.785C264.382 280.176 264.428 280.56 264.584 280.937C264.745 281.309 265.01 281.644 265.38 281.942C265.755 282.244 266.139 282.432 266.531 282.505C266.918 282.575 267.293 282.53 267.656 282.37C268.018 282.211 268.348 281.946 268.647 281.576C268.945 281.206 269.131 280.83 269.206 280.446C269.28 280.063 269.242 279.69 269.092 279.327C268.937 278.959 268.671 278.624 268.296 278.322ZM264.527 272.664C265.08 273.11 265.453 273.653 265.647 274.294C265.845 274.93 265.862 275.604 265.698 276.317C265.529 277.025 265.181 277.706 264.654 278.36C264.123 279.019 263.528 279.509 262.868 279.83C262.207 280.142 261.542 280.271 260.875 280.218C260.211 280.16 259.603 279.908 259.05 279.463C258.391 278.932 257.952 278.34 257.734 277.688C257.514 277.026 257.492 276.343 257.666 275.639C257.84 274.935 258.193 274.254 258.724 273.595C259.255 272.936 259.846 272.446 260.496 272.126C261.147 271.806 261.817 271.685 262.506 271.764C263.194 271.833 263.868 272.133 264.527 272.664ZM263.111 274.546C262.782 274.281 262.44 274.114 262.085 274.046C261.73 273.968 261.387 273.989 261.057 274.108C260.727 274.226 260.434 274.446 260.176 274.765C259.919 275.084 259.765 275.416 259.714 275.759C259.663 276.103 259.711 276.438 259.857 276.765C260.003 277.092 260.249 277.394 260.593 277.672C260.933 277.945 261.281 278.121 261.636 278.198C261.987 278.272 262.327 278.249 262.657 278.13C262.991 278.006 263.286 277.785 263.544 277.465C263.801 277.146 263.953 276.812 263.999 276.465C264.045 276.117 263.994 275.78 263.848 275.453C263.697 275.122 263.451 274.82 263.111 274.546ZM275.312 273.022L275.434 272.87C275.998 272.171 276.376 271.514 276.57 270.901C276.762 270.278 276.806 269.695 276.701 269.15C276.596 268.606 276.369 268.093 276.021 267.612C275.673 267.131 275.238 266.68 274.716 266.259L272.807 264.722C272.356 264.358 271.921 264.088 271.504 263.91C271.086 263.724 270.693 263.625 270.326 263.614C269.958 263.593 269.626 263.647 269.33 263.776C269.038 263.9 268.789 264.089 268.585 264.343C268.36 264.622 268.222 264.924 268.169 265.249C268.115 265.565 268.136 265.887 268.231 266.214C268.325 266.533 268.485 266.849 268.708 267.163C268.931 267.468 269.204 267.751 269.529 268.012C269.833 268.257 270.156 268.459 270.497 268.617C270.837 268.765 271.175 268.854 271.512 268.882C271.848 268.911 272.17 268.865 272.476 268.744C272.782 268.623 273.056 268.413 273.297 268.114C273.526 267.83 273.683 267.526 273.768 267.202C273.849 266.874 273.867 266.545 273.822 266.217C273.778 265.888 273.679 265.579 273.528 265.29C273.376 265.001 273.183 264.753 272.948 264.547L273.724 264.019C274.11 264.329 274.425 264.717 274.669 265.181C274.913 265.636 275.075 266.131 275.155 266.664C275.235 267.187 275.215 267.711 275.095 268.233C274.979 268.75 274.746 269.226 274.395 269.662C273.97 270.19 273.495 270.577 272.971 270.823C272.445 271.06 271.902 271.174 271.341 271.165C270.784 271.151 270.229 271.03 269.676 270.802C269.124 270.575 268.602 270.263 268.11 269.867C267.578 269.438 267.144 268.954 266.808 268.416C266.472 267.878 266.252 267.312 266.146 266.717C266.035 266.117 266.059 265.518 266.216 264.917C266.373 264.308 266.678 263.722 267.131 263.159C267.613 262.561 268.152 262.13 268.749 261.866C269.346 261.603 269.974 261.482 270.634 261.504C271.294 261.525 271.958 261.676 272.627 261.956C273.296 262.236 273.943 262.627 274.566 263.129L275.213 263.65C275.867 264.177 276.451 264.744 276.965 265.351C277.475 265.953 277.882 266.595 278.187 267.275C278.49 267.946 278.666 268.652 278.713 269.392C278.759 270.123 278.645 270.883 278.368 271.672C278.091 272.452 277.622 273.253 276.96 274.074L276.825 274.242L275.312 273.022ZM277 251.142L288.111 260.093L286.634 261.925L277.699 254.727L276.432 258.183L274.918 256.964L276.823 251.362L277 251.142ZM291.941 242.107L293.751 243.565C294.618 244.263 295.289 244.946 295.763 245.613C296.237 246.27 296.535 246.912 296.658 247.537C296.781 248.163 296.752 248.77 296.57 249.359C296.392 249.944 296.082 250.509 295.641 251.057C295.29 251.493 294.907 251.854 294.494 252.139C294.084 252.419 293.639 252.613 293.16 252.72C292.681 252.827 292.168 252.836 291.621 252.747C291.073 252.648 290.489 252.445 289.868 252.137C289.251 251.824 288.595 251.387 287.9 250.828L286.09 249.369C285.218 248.667 284.553 247.989 284.093 247.334C283.629 246.676 283.338 246.036 283.22 245.414C283.097 244.788 283.127 244.186 283.31 243.606C283.497 243.021 283.811 242.454 284.252 241.907C284.607 241.466 284.99 241.105 285.4 240.825C285.808 240.535 286.248 240.338 286.718 240.231C287.192 240.12 287.7 240.112 288.243 240.206C288.785 240.291 289.364 240.491 289.981 240.804C290.593 241.113 291.247 241.547 291.941 242.107ZM292.533 245.606L290.191 243.719C289.75 243.364 289.342 243.077 288.966 242.858C288.586 242.635 288.238 242.48 287.923 242.394C287.607 242.298 287.316 242.264 287.051 242.293C286.78 242.318 286.537 242.397 286.32 242.532C286.097 242.662 285.892 242.844 285.705 243.077C285.476 243.361 285.327 243.659 285.259 243.972C285.186 244.281 285.207 244.608 285.323 244.952C285.439 245.296 285.659 245.665 285.984 246.061C286.308 246.448 286.747 246.863 287.299 247.309L289.641 249.196C290.088 249.555 290.501 249.846 290.881 250.069C291.262 250.292 291.615 250.451 291.94 250.546C292.26 250.636 292.556 250.674 292.827 250.658C293.098 250.634 293.344 250.556 293.566 250.426C293.792 250.291 293.997 250.109 294.181 249.881C294.414 249.592 294.564 249.291 294.632 248.978C294.701 248.665 294.674 248.334 294.554 247.986C294.428 247.634 294.198 247.26 293.863 246.866C293.529 246.471 293.086 246.051 292.533 245.606ZM312.042 207.645L323.153 216.596L321.676 218.428L312.741 211.23L311.474 214.686L309.96 213.467L311.864 207.865L312.042 207.645ZM320.554 197.08L331.664 206.03L330.188 207.863L321.252 200.664L319.985 204.121L318.472 202.902L320.376 197.3L320.554 197.08ZM329.065 186.514L340.176 195.465L338.699 197.298L329.764 190.099L328.497 193.555L326.983 192.336L328.887 186.735L329.065 186.514ZM349.175 181.305L350.635 182.482L344.656 189.904L343.401 188.893L342.373 182.121C342.246 181.366 342.112 180.744 341.971 180.254C341.83 179.765 341.668 179.37 341.482 179.071C341.296 178.762 341.079 178.508 340.831 178.307C340.481 178.026 340.121 177.844 339.751 177.764C339.38 177.674 339.019 177.692 338.667 177.818C338.309 177.94 337.988 178.178 337.702 178.533C337.371 178.944 337.182 179.36 337.135 179.782C337.088 180.204 337.164 180.612 337.364 181.007C337.559 181.398 337.857 181.755 338.257 182.078L336.781 183.911C336.137 183.392 335.667 182.771 335.372 182.048C335.071 181.321 334.988 180.552 335.123 179.741C335.253 178.926 335.635 178.126 336.268 177.34C336.864 176.6 337.495 176.071 338.16 175.754C338.825 175.437 339.494 175.328 340.166 175.427C340.843 175.521 341.494 175.819 342.117 176.321C342.462 176.599 342.759 176.931 343.009 177.316C343.259 177.701 343.47 178.134 343.642 178.616C343.813 179.088 343.956 179.601 344.072 180.153C344.181 180.702 344.274 181.282 344.349 181.894L345.058 186.416L349.175 181.305Z" fill="#FFF6F2"/>
<path d="M188.769 509.516C172.856 496.696 170.349 473.403 183.168 457.49L399.509 188.948C412.329 173.035 435.622 170.528 451.535 183.348L489.351 213.813C491.501 215.545 491.84 218.693 490.108 220.843L233.616 539.224C231.884 541.374 228.736 541.713 226.585 539.981L188.769 509.516Z" fill="#37C3E3"/>
<path d="M226.029 503.35L222.477 507.759L224.097 510.382L222.643 512.187L215.459 500.056L217.02 498.118L230.391 502.57L228.937 504.375L226.029 503.35ZM224.346 502.774L218.068 500.572L221.556 506.237L224.346 502.774ZM221.929 490.662L232.878 499.483L231.519 501.169L220.57 492.349L221.929 490.662ZM223.931 489.055C223.645 488.825 223.487 488.535 223.459 488.187C223.43 487.839 223.547 487.502 223.809 487.177C224.072 486.851 224.376 486.665 224.722 486.619C225.077 486.563 225.397 486.65 225.683 486.88C225.969 487.111 226.117 487.401 226.128 487.751C226.147 488.092 226.025 488.424 225.763 488.75C225.5 489.075 225.201 489.265 224.864 489.32C224.528 489.374 224.217 489.286 223.931 489.055ZM227.848 489.039L236 495.607L234.641 497.293L226.489 490.726L227.848 489.039ZM232.428 483.141C233.278 482.086 234.263 481.439 235.381 481.202C236.49 480.956 237.59 481.135 238.682 481.738L237.24 483.529C236.647 483.214 236.053 483.134 235.457 483.288C234.859 483.425 234.33 483.779 233.869 484.351C233.344 485.002 233.139 485.731 233.253 486.539C233.357 487.338 233.853 488.096 234.741 488.811C235.629 489.526 236.479 489.853 237.292 489.793C238.106 489.732 238.774 489.377 239.299 488.726C239.76 488.154 239.993 487.561 239.999 486.948C240.013 486.325 239.804 485.757 239.37 485.245L240.812 483.455C241.634 484.393 242.048 485.434 242.054 486.578C242.06 487.721 241.638 488.821 240.788 489.876C240.152 490.665 239.42 491.23 238.592 491.572C237.772 491.903 236.907 491.987 235.998 491.824C235.088 491.661 234.204 491.233 233.346 490.542C232.498 489.859 231.897 489.09 231.544 488.236C231.191 487.382 231.089 486.52 231.238 485.648C231.396 484.766 231.792 483.931 232.428 483.141ZM239.164 474.78C239.935 473.823 240.797 473.257 241.752 473.082C242.704 472.89 243.641 473.059 244.563 473.59L243.276 475.188C242.776 474.9 242.266 474.806 241.745 474.907C241.223 474.99 240.755 475.289 240.342 475.801C240 476.226 239.837 476.639 239.854 477.043C239.868 477.429 240.048 477.761 240.393 478.039C240.65 478.246 240.925 478.329 241.218 478.288C241.51 478.248 241.801 478.14 242.088 477.965C242.383 477.78 242.772 477.499 243.254 477.123C243.885 476.623 244.425 476.245 244.875 475.989C245.333 475.724 245.832 475.589 246.372 475.585C246.91 475.563 247.455 475.774 248.008 476.219C248.688 476.768 249.03 477.474 249.033 478.339C249.044 479.193 248.696 480.059 247.989 480.937C247.17 481.953 246.27 482.586 245.288 482.836C244.314 483.076 243.351 482.918 242.399 482.363L243.723 480.721C244.206 481.029 244.725 481.122 245.279 480.999C245.834 480.877 246.337 480.534 246.79 479.972C247.116 479.567 247.267 479.168 247.242 478.775C247.216 478.363 247.04 478.026 246.715 477.764C246.429 477.533 246.13 477.439 245.82 477.482C245.509 477.524 245.202 477.643 244.899 477.838C244.585 478.025 244.193 478.31 243.721 478.694C243.106 479.175 242.578 479.547 242.138 479.811C241.706 480.064 241.23 480.201 240.709 480.221C240.187 480.223 239.66 480.01 239.127 479.581C238.437 479.024 238.086 478.319 238.075 477.464C238.062 476.592 238.425 475.697 239.164 474.78ZM255.642 454.538L261.971 463.37L260.469 465.234L252.545 462.168L257.203 469.288L255.713 471.137L245.737 466.833L247.107 465.132L254.958 468.895L250.004 461.536L251.434 459.761L259.702 463.006L254.355 456.136L255.642 454.538ZM254.128 451.571C253.842 451.341 253.685 451.052 253.656 450.703C253.628 450.355 253.745 450.018 254.007 449.693C254.269 449.367 254.574 449.181 254.92 449.135C255.274 449.079 255.594 449.166 255.88 449.396C256.166 449.627 256.315 449.917 256.325 450.267C256.344 450.608 256.222 450.94 255.96 451.266C255.698 451.592 255.398 451.781 255.062 451.836C254.725 451.89 254.414 451.802 254.128 451.571ZM258.045 451.555L266.198 458.123L264.839 459.81L256.686 453.242L258.045 451.555ZM258.371 445.426L269.32 454.247L267.961 455.934L257.012 447.113L258.371 445.426ZM261.494 441.551L272.442 450.371L271.084 452.058L260.135 443.237L261.494 441.551ZM268.584 438.261C269.18 437.521 269.871 437.037 270.657 436.808C271.444 436.579 272.225 436.599 273.001 436.867L271.107 435.341L272.466 433.654L280.619 440.222L279.26 441.909L277.366 440.383C277.793 441.085 277.978 441.844 277.922 442.661C277.866 443.477 277.54 444.256 276.944 444.996C276.372 445.706 275.692 446.207 274.903 446.499C274.123 446.781 273.29 446.826 272.404 446.633C271.519 446.44 270.647 445.998 269.789 445.306C268.94 444.623 268.328 443.869 267.951 443.045C267.574 442.221 267.44 441.397 267.55 440.575C267.667 439.742 268.012 438.971 268.584 438.261ZM270.481 438.935C269.877 439.685 269.634 440.481 269.752 441.324C269.868 442.15 270.345 442.9 271.183 443.575C272.022 444.251 272.861 444.561 273.702 444.507C274.541 444.434 275.263 444.023 275.867 443.274C276.248 442.8 276.481 442.289 276.566 441.739C276.641 441.182 276.564 440.631 276.335 440.089C276.105 439.546 275.719 439.056 275.176 438.619C274.644 438.19 274.088 437.921 273.509 437.812C272.919 437.695 272.365 437.737 271.846 437.937C271.318 438.129 270.862 438.462 270.481 438.935ZM282.296 421.18C283.075 420.214 284 419.691 285.073 419.611C286.153 419.522 287.26 419.934 288.395 420.848L293.144 424.674L291.785 426.361L287.213 422.678C286.503 422.106 285.813 421.842 285.142 421.887C284.461 421.925 283.871 422.254 283.37 422.875C282.838 423.536 282.625 424.235 282.731 424.971C282.835 425.689 283.292 426.375 284.101 427.026L288.436 430.519L287.077 432.205L282.505 428.522C281.795 427.95 281.104 427.687 280.434 427.732C279.753 427.769 279.162 428.098 278.662 428.72C278.129 429.381 277.916 430.079 278.023 430.815C278.127 431.534 278.584 432.219 279.392 432.871L283.728 436.363L282.369 438.05L274.216 431.482L275.575 429.795L277.277 431.166C276.852 430.482 276.676 429.771 276.75 429.034C276.823 428.296 277.123 427.602 277.647 426.951C278.195 426.27 278.836 425.818 279.569 425.595C280.309 425.362 281.087 425.387 281.901 425.668C281.48 424.939 281.307 424.174 281.383 423.373C281.459 422.572 281.763 421.841 282.296 421.18Z" fill="#E6EAFB"/>
<path d="M407.815 260.587L406.648 259.647L408.633 257.183L416.33 263.384L415.276 264.692L408.746 259.431L407.815 260.587ZM413.566 258.826C414.794 259.816 415.933 260.373 416.982 260.499C418.023 260.62 418.954 260.171 419.774 259.153C420.594 258.136 420.83 257.128 420.484 256.13C420.138 255.131 419.354 254.141 418.133 253.157C416.919 252.179 415.791 251.63 414.749 251.51C413.7 251.384 412.766 251.83 411.946 252.847C411.126 253.865 410.886 254.87 411.225 255.862C411.564 256.854 412.345 257.842 413.566 258.826ZM417.131 254.4C418.018 255.114 418.61 255.771 418.907 256.369C419.203 256.968 419.1 257.58 418.597 258.205C418.087 258.837 417.508 259.072 416.86 258.909C416.212 258.747 415.445 258.308 414.558 257.594C413.679 256.886 413.094 256.235 412.805 255.642C412.515 255.049 412.625 254.437 413.135 253.804C413.638 253.179 414.214 252.948 414.862 253.111C415.503 253.267 416.259 253.697 417.131 254.4ZM415.635 243.18L425.457 255.982L424.482 257.192L414.66 244.39L415.635 243.18ZM420.677 241.742C421.087 241.233 421.529 240.87 422.004 240.653C422.471 240.43 422.934 240.354 423.393 240.424C423.858 240.486 424.283 240.673 424.668 240.983C425.155 241.376 425.451 241.842 425.555 242.381C425.658 242.908 425.543 243.445 425.211 243.992L425.265 244.036C425.845 243.628 426.408 243.398 426.953 243.346C427.497 243.281 428.035 243.462 428.565 243.889C429.212 244.41 429.566 245.049 429.628 245.806C429.682 246.557 429.387 247.332 428.743 248.132C428.081 248.953 427.341 249.448 426.523 249.615C425.698 249.777 424.845 249.564 423.965 248.975L424.957 247.743C425.429 248.05 425.903 248.175 426.382 248.117C426.853 248.053 427.273 247.792 427.642 247.334C427.987 246.905 428.138 246.488 428.094 246.081C428.056 245.667 427.859 245.316 427.503 245.029C427.074 244.684 426.612 244.587 426.118 244.74C425.629 244.886 425.133 245.271 424.629 245.896L424.392 246.191L423.367 245.365L423.604 245.071C424.573 243.898 424.647 242.98 423.826 242.319C423.47 242.032 423.102 241.915 422.723 241.969C422.344 242.023 422.002 242.24 421.697 242.617C421.393 242.995 421.255 243.405 421.282 243.847C421.303 244.283 421.51 244.702 421.905 245.104L420.922 246.325C420.207 245.665 419.827 244.94 419.781 244.148C419.729 243.35 420.027 242.548 420.677 241.742ZM427.836 241.113C429.064 242.102 430.203 242.66 431.252 242.786C432.293 242.906 433.224 242.458 434.044 241.44C434.864 240.423 435.1 239.415 434.754 238.416C434.407 237.418 433.624 236.427 432.403 235.444C431.189 234.466 430.061 233.917 429.019 233.797C427.97 233.671 427.036 234.116 426.216 235.134C425.396 236.151 425.156 237.156 425.495 238.149C425.834 239.141 426.614 240.129 427.836 241.113ZM431.401 236.687C432.288 237.401 432.88 238.057 433.177 238.656C433.473 239.255 433.37 239.866 432.866 240.492C432.357 241.124 431.778 241.359 431.13 241.196C430.482 241.034 429.715 240.595 428.828 239.881C427.949 239.172 427.364 238.522 427.075 237.929C426.785 237.336 426.895 236.724 427.404 236.091C427.908 235.466 428.484 235.235 429.132 235.398C429.773 235.554 430.529 235.984 431.401 236.687Z" fill="#F5EFFE"/>
<path d="M388.377 242.16C389.03 241.35 389.777 240.843 390.62 240.638C391.463 240.434 392.311 240.521 393.166 240.902L392.255 242.032C391.731 241.867 391.216 241.863 390.709 242.02C390.201 242.165 389.749 242.484 389.353 242.976C389.036 243.369 388.849 243.799 388.792 244.266C388.739 244.727 388.82 245.193 389.036 245.665C389.251 246.125 389.598 246.549 390.078 246.935C390.551 247.317 391.039 247.566 391.541 247.682C392.041 247.788 392.511 247.765 392.95 247.616C393.394 247.46 393.774 247.186 394.09 246.793C394.487 246.301 394.705 245.794 394.746 245.272C394.785 244.738 394.671 244.236 394.404 243.764L395.315 242.633C395.869 243.387 396.135 244.198 396.115 245.065C396.088 245.927 395.749 246.763 395.096 247.573C394.594 248.196 394.01 248.634 393.343 248.888C392.67 249.137 391.976 249.189 391.26 249.044C390.539 248.894 389.851 248.555 389.197 248.028C388.543 247.501 388.069 246.904 387.775 246.236C387.475 245.562 387.375 244.871 387.475 244.16C387.574 243.449 387.875 242.783 388.377 242.16ZM394.92 237.003C395.297 236.535 395.733 236.229 396.23 236.085C396.726 235.941 397.22 235.953 397.71 236.122L396.514 235.158L397.372 234.093L402.521 238.241L401.663 239.306L400.467 238.343C400.736 238.786 400.853 239.265 400.818 239.781C400.782 240.297 400.577 240.789 400.2 241.256C399.839 241.705 399.409 242.021 398.911 242.206C398.418 242.384 397.892 242.412 397.333 242.29C396.774 242.168 396.223 241.889 395.681 241.452C395.145 241.021 394.758 240.545 394.52 240.024C394.282 239.504 394.198 238.984 394.267 238.464C394.341 237.938 394.559 237.451 394.92 237.003ZM396.118 237.428C395.737 237.902 395.583 238.405 395.658 238.937C395.731 239.459 396.032 239.932 396.562 240.359C397.091 240.786 397.622 240.982 398.153 240.947C398.683 240.902 399.138 240.642 399.52 240.169C399.761 239.87 399.908 239.547 399.962 239.199C400.009 238.847 399.96 238.5 399.815 238.157C399.67 237.814 399.426 237.505 399.084 237.229C398.747 236.958 398.396 236.788 398.03 236.719C397.658 236.645 397.308 236.672 396.981 236.798C396.647 236.919 396.359 237.129 396.118 237.428ZM400.791 229.715C401.152 229.267 401.579 228.954 402.072 228.775C402.57 228.591 403.099 228.56 403.658 228.681C404.217 228.803 404.765 229.08 405.301 229.512C405.843 229.948 406.233 230.427 406.471 230.947C406.709 231.468 406.791 231.991 406.717 232.517C406.647 233.036 406.432 233.52 406.071 233.969C405.694 234.436 405.258 234.742 404.761 234.887C404.265 235.031 403.774 235.016 403.288 234.84L406.933 237.776L406.075 238.842L398.477 232.721L399.336 231.656L400.532 232.619C400.257 232.182 400.138 231.706 400.173 231.19C400.209 230.674 400.414 230.183 400.791 229.715ZM401.462 230.795C401.221 231.094 401.077 231.42 401.029 231.772C400.976 232.119 401.025 232.467 401.176 232.815C401.321 233.157 401.561 233.464 401.898 233.735C402.241 234.011 402.595 234.184 402.961 234.253C403.326 234.321 403.676 234.295 404.01 234.174C404.338 234.047 404.622 233.835 404.863 233.536C405.245 233.062 405.401 232.562 405.333 232.034C405.259 231.502 404.957 231.022 404.427 230.596C403.904 230.174 403.374 229.984 402.838 230.024C402.302 230.065 401.843 230.322 401.462 230.795ZM409.942 227.136L410.867 227.881L410.34 228.535C409.898 229.084 409.431 229.396 408.939 229.471C408.445 229.536 407.89 229.32 407.273 228.823L404.75 226.79L404.155 227.529L403.249 226.798L403.844 226.06L402.563 225.029L403.429 223.954L404.709 224.985L405.711 223.743L406.617 224.473L405.616 225.716L408.158 227.763C408.45 227.999 408.695 228.109 408.893 228.094C409.095 228.072 409.307 227.924 409.528 227.65L409.942 227.136ZM412.779 219.732C412.953 219.872 413.096 220.008 413.206 220.138L410.014 224.1C410.559 224.508 411.069 224.678 411.546 224.61C412.022 224.541 412.423 224.305 412.749 223.9C413.036 223.545 413.186 223.173 413.201 222.784C413.221 222.39 413.104 222.044 412.85 221.747L413.769 220.607C414.075 220.966 414.28 221.368 414.385 221.812C414.49 222.256 414.483 222.718 414.364 223.197C414.238 223.671 414.002 224.123 413.656 224.553C413.255 225.052 412.792 225.409 412.269 225.624C411.751 225.834 411.205 225.887 410.631 225.784C410.057 225.68 409.498 225.41 408.956 224.974C408.421 224.542 408.041 224.057 407.818 223.518C407.595 222.978 407.531 222.433 407.625 221.883C407.724 221.326 407.975 220.798 408.376 220.3C408.783 219.795 409.243 219.441 409.756 219.238C410.267 219.024 410.787 218.965 411.315 219.062C411.842 219.147 412.33 219.371 412.779 219.732ZM411.885 220.784C411.559 220.5 411.23 220.334 410.901 220.284C410.57 220.223 410.261 220.262 409.975 220.401C409.687 220.528 409.438 220.723 409.227 220.985C408.89 221.402 408.737 221.854 408.767 222.34C408.796 222.826 409.05 223.282 409.529 223.709L411.885 220.784ZM413.223 216.483C413.027 216.038 412.963 215.575 413.031 215.096C413.093 214.611 413.294 214.157 413.636 213.733L414.794 214.667L414.538 214.985C414.162 215.452 413.973 215.922 413.973 216.394C413.972 216.855 414.232 217.296 414.756 217.718L417.363 219.818L416.505 220.883L411.356 216.735L412.214 215.67L413.223 216.483ZM415.735 211.165C416.222 210.561 416.767 210.204 417.369 210.093C417.971 209.972 418.562 210.079 419.145 210.414L418.332 211.423C418.016 211.241 417.694 211.182 417.365 211.246C417.035 211.298 416.74 211.487 416.479 211.811C416.263 212.079 416.16 212.34 416.171 212.595C416.18 212.839 416.293 213.048 416.511 213.224C416.673 213.354 416.847 213.407 417.032 213.381C417.217 213.356 417.4 213.288 417.582 213.177C417.768 213.06 418.014 212.883 418.318 212.645C418.717 212.329 419.058 212.091 419.342 211.929C419.631 211.761 419.946 211.676 420.287 211.674C420.627 211.66 420.972 211.794 421.321 212.075C421.75 212.421 421.966 212.867 421.968 213.413C421.975 213.953 421.755 214.5 421.309 215.054C420.792 215.696 420.223 216.096 419.603 216.254C418.988 216.405 418.379 216.306 417.778 215.955L418.614 214.918C418.919 215.112 419.247 215.171 419.597 215.094C419.947 215.016 420.266 214.8 420.552 214.445C420.757 214.189 420.853 213.937 420.837 213.688C420.821 213.428 420.709 213.216 420.504 213.05C420.323 212.905 420.135 212.845 419.939 212.872C419.742 212.899 419.548 212.974 419.357 213.097C419.159 213.215 418.911 213.395 418.613 213.638C418.224 213.941 417.891 214.176 417.613 214.343C417.34 214.503 417.04 214.589 416.711 214.602C416.381 214.603 416.048 214.469 415.712 214.198C415.276 213.846 415.054 213.401 415.047 212.861C415.039 212.31 415.268 211.745 415.735 211.165Z" fill="#FFF6F2"/>
<path d="M202.071 473.42C202.723 472.61 203.471 472.103 204.314 471.898C205.156 471.694 206.005 471.782 206.86 472.162L205.949 473.293C205.424 473.127 204.909 473.123 204.403 473.28C203.895 473.426 203.443 473.745 203.046 474.237C202.73 474.629 202.543 475.059 202.485 475.526C202.432 475.987 202.514 476.453 202.73 476.925C202.944 477.386 203.291 477.809 203.771 478.195C204.244 478.577 204.732 478.826 205.234 478.943C205.735 479.048 206.205 479.026 206.644 478.876C207.088 478.72 207.468 478.446 207.784 478.054C208.18 477.561 208.399 477.054 208.439 476.532C208.479 475.999 208.365 475.496 208.098 475.024L209.009 473.894C209.562 474.648 209.829 475.458 209.808 476.325C209.782 477.187 209.442 478.023 208.79 478.833C208.288 479.456 207.703 479.894 207.037 480.148C206.364 480.397 205.669 480.449 204.954 480.304C204.232 480.154 203.544 479.816 202.89 479.289C202.236 478.762 201.762 478.164 201.468 477.496C201.168 476.823 201.068 476.131 201.168 475.42C201.268 474.71 201.569 474.043 202.071 473.42ZM208.614 468.263C208.99 467.796 209.427 467.49 209.923 467.345C210.42 467.201 210.913 467.213 211.404 467.382L210.207 466.419L211.066 465.353L216.215 469.501L215.356 470.567L214.16 469.603C214.43 470.046 214.547 470.526 214.511 471.042C214.476 471.558 214.27 472.049 213.894 472.516C213.532 472.965 213.103 473.281 212.605 473.466C212.112 473.644 211.586 473.672 211.026 473.551C210.467 473.429 209.916 473.149 209.374 472.713C208.839 472.281 208.452 471.805 208.214 471.284C207.976 470.764 207.891 470.244 207.96 469.724C208.035 469.199 208.252 468.711 208.614 468.263ZM209.812 468.689C209.43 469.162 209.277 469.665 209.351 470.198C209.424 470.719 209.726 471.193 210.255 471.619C210.785 472.046 211.315 472.242 211.846 472.208C212.376 472.162 212.832 471.902 213.213 471.429C213.454 471.13 213.601 470.807 213.655 470.46C213.703 470.108 213.654 469.76 213.509 469.417C213.364 469.074 213.12 468.765 212.777 468.489C212.441 468.218 212.09 468.048 211.724 467.979C211.352 467.906 211.002 467.932 210.674 468.058C210.34 468.18 210.053 468.39 209.812 468.689ZM214.038 463.729C213.842 463.284 213.778 462.821 213.846 462.342C213.908 461.857 214.109 461.403 214.451 460.979L215.609 461.913L215.353 462.231C214.977 462.698 214.789 463.168 214.788 463.64C214.787 464.101 215.048 464.542 215.571 464.964L218.178 467.064L217.32 468.13L212.171 463.981L213.029 462.916L214.038 463.729ZM216.851 458.038C217.228 457.57 217.664 457.265 218.161 457.12C218.657 456.976 219.148 456.991 219.634 457.166L216.671 454.78L217.537 453.705L224.452 459.276L223.586 460.351L222.39 459.387C222.665 459.824 222.785 460.301 222.749 460.817C222.714 461.332 222.508 461.824 222.131 462.291C221.77 462.74 221.34 463.056 220.842 463.241C220.349 463.419 219.823 463.447 219.264 463.325C218.705 463.203 218.154 462.924 217.612 462.488C217.076 462.056 216.689 461.58 216.451 461.059C216.213 460.539 216.129 460.019 216.198 459.499C216.272 458.973 216.49 458.486 216.851 458.038ZM218.049 458.463C217.668 458.937 217.514 459.44 217.589 459.972C217.662 460.494 217.963 460.968 218.493 461.394C219.022 461.821 219.553 462.017 220.084 461.982C220.614 461.937 221.069 461.677 221.451 461.204C221.692 460.905 221.839 460.582 221.893 460.234C221.94 459.882 221.891 459.535 221.746 459.192C221.601 458.849 221.358 458.54 221.015 458.264C220.678 457.993 220.327 457.823 219.961 457.754C219.589 457.68 219.239 457.707 218.912 457.833C218.578 457.954 218.29 458.164 218.049 458.463ZM225.023 445.063L231.621 450.378L230.755 451.453L227.792 449.066L225.293 452.169L228.255 454.555L227.397 455.621L220.8 450.306L221.658 449.24L224.424 451.469L226.923 448.366L224.157 446.138L225.023 445.063ZM233.769 441.935C233.943 442.076 234.086 442.211 234.196 442.341L231.004 446.304C231.549 446.711 232.06 446.881 232.536 446.813C233.012 446.745 233.413 446.508 233.739 446.103C234.026 445.748 234.176 445.376 234.191 444.988C234.211 444.593 234.094 444.247 233.841 443.95L234.759 442.81C235.065 443.17 235.271 443.571 235.375 444.015C235.48 444.459 235.473 444.921 235.354 445.4C235.228 445.874 234.992 446.327 234.646 446.756C234.245 447.255 233.782 447.612 233.259 447.827C232.741 448.037 232.195 448.09 231.621 447.987C231.047 447.884 230.488 447.614 229.946 447.177C229.411 446.745 229.031 446.26 228.808 445.721C228.585 445.181 228.521 444.637 228.615 444.086C228.714 443.529 228.965 443.001 229.366 442.503C229.773 441.998 230.233 441.644 230.746 441.441C231.257 441.227 231.777 441.168 232.305 441.265C232.832 441.35 233.32 441.574 233.769 441.935ZM232.875 442.987C232.549 442.704 232.221 442.537 231.891 442.487C231.56 442.426 231.251 442.465 230.965 442.604C230.677 442.732 230.428 442.926 230.217 443.188C229.881 443.605 229.727 444.057 229.757 444.543C229.786 445.029 230.04 445.486 230.519 445.912L232.875 442.987ZM233.944 436.821C234.321 436.353 234.757 436.048 235.253 435.903C235.75 435.759 236.243 435.771 236.734 435.94L235.538 434.976L236.396 433.911L241.545 438.059L240.687 439.124L239.491 438.161C239.76 438.604 239.877 439.084 239.842 439.599C239.806 440.115 239.6 440.607 239.224 441.074C238.863 441.523 238.433 441.839 237.935 442.024C237.442 442.202 236.916 442.23 236.357 442.108C235.797 441.986 235.247 441.707 234.705 441.27C234.169 440.839 233.782 440.363 233.544 439.842C233.306 439.322 233.221 438.802 233.291 438.282C233.365 437.756 233.583 437.269 233.944 436.821ZM235.142 437.246C234.761 437.72 234.607 438.223 234.682 438.755C234.755 439.277 235.056 439.751 235.586 440.177C236.115 440.604 236.645 440.8 237.177 440.765C237.706 440.72 238.162 440.46 238.544 439.987C238.784 439.688 238.932 439.365 238.985 439.017C239.033 438.665 238.984 438.318 238.839 437.975C238.694 437.632 238.45 437.323 238.108 437.047C237.771 436.776 237.42 436.606 237.054 436.537C236.682 436.463 236.332 436.49 236.004 436.616C235.67 436.737 235.383 436.947 235.142 437.246ZM239.1 430.421C239.476 429.954 239.912 429.648 240.409 429.504C240.905 429.359 241.396 429.375 241.882 429.55L238.919 427.164L239.785 426.089L246.7 431.66L245.835 432.734L244.638 431.771C244.913 432.208 245.033 432.684 244.997 433.2C244.962 433.716 244.756 434.208 244.379 434.675C244.018 435.123 243.588 435.44 243.09 435.624C242.598 435.803 242.071 435.831 241.512 435.709C240.953 435.587 240.402 435.308 239.86 434.871C239.324 434.44 238.937 433.963 238.699 433.443C238.461 432.922 238.377 432.402 238.446 431.883C238.52 431.357 238.738 430.87 239.1 430.421ZM240.297 430.847C239.916 431.321 239.763 431.824 239.837 432.356C239.91 432.877 240.211 433.351 240.741 433.778C241.271 434.204 241.801 434.4 242.332 434.366C242.862 434.32 243.318 434.061 243.699 433.587C243.94 433.288 244.087 432.965 244.141 432.618C244.188 432.266 244.139 431.918 243.994 431.576C243.849 431.233 243.606 430.923 243.263 430.647C242.927 430.376 242.575 430.206 242.21 430.138C241.838 430.064 241.488 430.09 241.16 430.217C240.826 430.338 240.538 430.548 240.297 430.847ZM248.838 423.23C249.012 423.37 249.155 423.506 249.266 423.636L246.074 427.598C246.618 428.006 247.129 428.176 247.605 428.108C248.081 428.039 248.482 427.803 248.809 427.398C249.095 427.043 249.245 426.671 249.26 426.282C249.28 425.888 249.164 425.542 248.91 425.245L249.828 424.105C250.134 424.464 250.34 424.866 250.444 425.31C250.549 425.754 250.542 426.215 250.423 426.695C250.298 427.169 250.062 427.621 249.715 428.051C249.314 428.55 248.852 428.907 248.329 429.122C247.811 429.332 247.265 429.385 246.69 429.281C246.116 429.178 245.558 428.908 245.016 428.472C244.48 428.04 244.1 427.555 243.877 427.015C243.654 426.476 243.59 425.931 243.684 425.381C243.784 424.824 244.034 424.296 244.436 423.798C244.842 423.293 245.302 422.939 245.815 422.736C246.327 422.522 246.846 422.463 247.375 422.56C247.902 422.645 248.389 422.869 248.838 423.23ZM247.944 424.282C247.618 423.998 247.29 423.832 246.96 423.782C246.629 423.721 246.32 423.76 246.034 423.899C245.746 424.026 245.497 424.221 245.286 424.483C244.95 424.9 244.796 425.352 244.826 425.838C244.856 426.324 245.109 426.78 245.588 427.207L247.944 424.282ZM249.282 419.981C249.087 419.536 249.023 419.073 249.09 418.594C249.152 418.109 249.353 417.655 249.695 417.231L250.854 418.165L250.598 418.483C250.221 418.95 250.033 419.42 250.032 419.892C250.031 420.353 250.292 420.794 250.815 421.216L253.422 423.316L252.564 424.381L247.415 420.233L248.273 419.168L249.282 419.981Z" fill="#FFF6F2"/>
<g filter="url(#filter1_b_21_15)">
<rect x="354.279" y="95.0459" width="448.142" height="280.691" rx="22" transform="rotate(68.0335 354.279 95.0459)" fill="#082F37"/>
<rect x="353.726" y="96.3474" width="446.142" height="278.691" rx="21" transform="rotate(68.0335 353.726 96.3474)" stroke="white" stroke-width="2"/>
</g>
<mask id="mask1_21_15" style="mask-type:alpha" maskUnits="userSpaceOnUse" x="100" y="101" width="416" height="509">
<rect x="353.726" y="96.3474" width="446.142" height="278.691" rx="21" transform="rotate(68.0335 353.726 96.3474)" fill="white" fill-opacity="0.1" stroke="white" stroke-width="2"/>
</mask>
<g mask="url(#mask1_21_15)">
<g filter="url(#filter2_f_21_15)">
<rect x="513.549" y="408.239" width="249.357" height="332.894" transform="rotate(78.6409 513.549 408.239)" fill="#1E882C"/>
</g>
</g>
<rect x="341.999" y="141.346" width="43.7779" height="34.1405" rx="2" transform="rotate(68.0335 341.999 141.346)" fill="#FFE7DC" stroke="#F6E2D7" stroke-width="2"/>
<mask id="mask2_21_15" style="mask-type:alpha" maskUnits="userSpaceOnUse" x="309" y="140" width="50" height="56">
<rect x="341.999" y="141.346" width="43.7779" height="34.1405" rx="2" transform="rotate(68.0335 341.999 141.346)" fill="#FFE7DC" stroke="#F6E2D7" stroke-width="2"/>
</mask>
<g mask="url(#mask2_21_15)">
<path d="M341.492 172.841C346.422 169.128 349.4 163.963 350.664 160.154C344.835 158.493 339.791 158.333 335.482 159.133M341.492 172.841L348.063 189.131M341.492 172.841C338.782 174.883 335.482 176.486 331.553 177.184M331.553 177.184C327.151 177.965 321.959 177.612 315.922 175.466C317.263 171.784 320.49 166.673 325.855 163.058M331.553 177.184L338.008 193.187M335.482 159.133L329.254 144.109M335.482 159.133C331.723 159.831 328.524 161.259 325.855 163.058M325.855 163.058L319.757 147.939" stroke="#FFC1A4" stroke-width="3"/>
</g>
<path d="M445.201 447.22L459.822 447.755L461.286 451.385L442.306 449.942L441.338 447.54L445.201 447.22ZM457.025 440.821L445.024 447.595L441.885 448.899L440.961 446.606L455.64 437.387L457.025 440.821ZM464.251 458.734L447.322 462.378L446.038 459.194L462.971 455.561L464.251 458.734ZM457.23 474.787C457.641 474.697 457.95 474.535 458.158 474.299C458.376 474.068 458.525 473.789 458.604 473.462C458.693 473.14 458.74 472.797 458.745 472.432C458.752 472.075 458.749 471.723 458.735 471.375C458.727 470.729 458.752 470.079 458.808 469.425C458.867 468.778 458.996 468.157 459.194 467.563C459.4 466.966 459.707 466.442 460.114 465.991C460.529 465.538 461.09 465.194 461.796 464.959C462.599 464.695 463.365 464.642 464.095 464.803C464.826 464.963 465.493 465.271 466.098 465.726C466.713 466.186 467.251 466.735 467.711 467.375C468.174 468.022 468.537 468.693 468.8 469.387C469.183 470.378 469.33 471.338 469.242 472.267C469.16 473.193 468.845 474.019 468.296 474.746C467.757 475.478 466.978 476.032 465.959 476.409L464.688 473.257C465.178 473.093 465.566 472.865 465.852 472.573C466.149 472.285 466.325 471.94 466.382 471.538C466.449 471.14 466.389 470.688 466.202 470.183C466.037 469.752 465.799 469.36 465.487 469.005C465.186 468.655 464.827 468.391 464.41 468.214C464.003 468.041 463.553 468.012 463.06 468.126C462.697 468.206 462.422 468.371 462.237 468.623C462.055 468.882 461.931 469.18 461.865 469.518C461.803 469.864 461.771 470.213 461.77 470.567C461.78 470.926 461.788 471.247 461.793 471.531C461.819 472.203 461.797 472.869 461.727 473.529C461.659 474.197 461.511 474.821 461.282 475.402C461.06 475.98 460.726 476.489 460.281 476.93C459.842 477.368 459.263 477.707 458.543 477.947C457.712 478.206 456.936 478.267 456.215 478.128C455.501 477.986 454.844 477.695 454.245 477.255C453.653 476.811 453.134 476.275 452.687 475.647C452.24 475.018 451.875 474.344 451.593 473.624C451.292 472.835 451.118 472.05 451.073 471.268C451.027 470.487 451.117 469.751 451.345 469.061C451.579 468.368 451.958 467.752 452.482 467.212C453.016 466.677 453.7 466.254 454.535 465.942L455.808 469.131C455.354 469.28 454.98 469.469 454.685 469.698C454.4 469.931 454.189 470.201 454.052 470.509C453.918 470.824 453.858 471.168 453.874 471.541C453.9 471.918 453.998 472.329 454.169 472.774C454.342 473.202 454.573 473.588 454.864 473.934C455.156 474.28 455.499 474.537 455.896 474.706C456.3 474.872 456.745 474.899 457.23 474.787ZM472.233 486.796L456.71 485.653L455.298 482.153L474.533 484.226L475.436 486.465L472.233 486.796ZM459.787 493.282L472.299 485.986L474.879 485.084L475.725 487.182L461.107 496.553L459.787 493.282ZM466.002 491.71L463.268 492.295L459.985 484.155L462.719 483.57L466.002 491.71Z" fill="#FDFFFF"/>
<path d="M270.566 220.077L257.335 225.414L256.454 223.232L267.096 218.94L264.696 216.148L266.498 215.421L270.46 219.815L270.566 220.077ZM265.31 240.175L263.571 240.877L260.006 232.037L261.5 231.435L267.914 233.839C268.635 234.096 269.244 234.282 269.74 234.398C270.236 234.514 270.66 234.564 271.012 234.548C271.372 234.536 271.7 234.471 271.996 234.351C272.412 234.183 272.746 233.957 272.997 233.674C273.256 233.394 273.416 233.069 273.478 232.7C273.546 232.329 273.495 231.932 273.324 231.509C273.127 231.02 272.856 230.652 272.51 230.406C272.165 230.159 271.771 230.026 271.329 230.008C270.892 229.988 270.435 230.074 269.958 230.266L269.078 228.083C269.845 227.774 270.616 227.667 271.391 227.761C272.172 227.853 272.884 228.156 273.526 228.669C274.175 229.18 274.687 229.903 275.065 230.839C275.42 231.72 275.574 232.529 275.527 233.264C275.48 233.999 275.249 234.636 274.834 235.175C274.422 235.721 273.845 236.143 273.103 236.443C272.692 236.608 272.258 236.706 271.8 236.737C271.341 236.767 270.86 236.74 270.356 236.655C269.86 236.575 269.343 236.45 268.804 236.281C268.272 236.11 267.72 235.907 267.149 235.675L262.855 234.089L265.31 240.175ZM273.695 244.125L274.221 245.429C274.426 245.937 274.683 246.321 274.992 246.582C275.303 246.85 275.646 247.003 276.019 247.042C276.393 247.081 276.779 247.02 277.178 246.859C277.594 246.691 277.92 246.472 278.155 246.201C278.398 245.935 278.541 245.618 278.582 245.25C278.626 244.888 278.555 244.478 278.37 244.019C278.214 243.633 277.994 243.314 277.711 243.064C277.435 242.817 277.119 242.66 276.763 242.593C276.412 242.524 276.043 242.567 275.657 242.723L274.773 240.531C275.473 240.249 276.169 240.182 276.861 240.331C277.553 240.481 278.181 240.81 278.745 241.32C279.317 241.833 279.764 242.488 280.085 243.285C280.428 244.137 280.586 244.936 280.558 245.685C280.538 246.437 280.323 247.103 279.911 247.683C279.499 248.264 278.883 248.719 278.062 249.051C277.687 249.202 277.272 249.267 276.814 249.248C276.357 249.229 275.9 249.112 275.441 248.897C274.988 248.679 274.558 248.354 274.152 247.921C273.752 247.486 273.415 246.93 273.143 246.254L272.482 244.615L273.695 244.125ZM271.992 244.812L273.188 244.33L273.849 245.969C274.161 246.742 274.336 247.436 274.374 248.053C274.414 248.675 274.344 249.223 274.163 249.697C273.988 250.167 273.729 250.563 273.388 250.883C273.049 251.209 272.654 251.464 272.201 251.646C271.585 251.895 270.99 252.005 270.417 251.976C269.853 251.951 269.323 251.803 268.827 251.533C268.332 251.262 267.89 250.889 267.502 250.414C267.116 249.945 266.796 249.393 266.54 248.759C266.311 248.192 266.17 247.617 266.118 247.034C266.065 246.451 266.11 245.893 266.253 245.358C266.401 244.821 266.659 244.338 267.026 243.909C267.402 243.483 267.898 243.146 268.514 242.898L269.395 245.081C269.002 245.239 268.691 245.469 268.463 245.772C268.242 246.079 268.115 246.432 268.079 246.833C268.047 247.239 268.118 247.659 268.293 248.094C268.479 248.553 268.72 248.916 269.017 249.182C269.313 249.448 269.657 249.604 270.048 249.65C270.441 249.702 270.864 249.637 271.317 249.454C271.83 249.247 272.206 248.98 272.446 248.651C272.686 248.323 272.807 247.944 272.809 247.515C272.817 247.084 272.721 246.617 272.518 246.116L271.992 244.812ZM278.52 264.39L276.781 265.091L272.946 255.582L274.23 254.98L285.436 257.073L286.141 258.821L282.135 258.236L275.572 257.081L278.52 264.39ZM286.341 259.319L273.155 264.637L272.275 262.455L285.461 257.136L286.341 259.319ZM291.653 296.95L289.914 297.651L286.079 288.142L287.363 287.539L298.568 289.632L299.273 291.38L295.268 290.795L288.705 289.641L291.653 296.95ZM299.474 291.879L286.288 297.197L285.408 295.015L298.594 289.696L299.474 291.879ZM295.419 302.162L295.144 300.252L302.062 298.293L304.929 305.403L303.082 306.148L300.945 300.85L297.565 301.792C297.769 301.948 298.001 302.184 298.262 302.5C298.529 302.814 298.756 303.203 298.944 303.668C299.194 304.29 299.316 304.887 299.308 305.459C299.308 306.034 299.185 306.572 298.937 307.072C298.695 307.57 298.337 308.02 297.86 308.422C297.39 308.823 296.814 309.161 296.131 309.436C295.521 309.682 294.914 309.821 294.31 309.854C293.708 309.894 293.133 309.817 292.585 309.624C292.036 309.431 291.538 309.109 291.089 308.658C290.649 308.211 290.281 307.619 289.984 306.882C289.762 306.333 289.627 305.773 289.58 305.202C289.541 304.635 289.598 304.089 289.751 303.564C289.91 303.036 290.174 302.558 290.541 302.129C290.915 301.698 291.399 301.341 291.994 301.059L292.856 303.196C292.45 303.423 292.132 303.688 291.903 303.991C291.683 304.298 291.556 304.637 291.523 305.008C291.49 305.379 291.556 305.767 291.719 306.172C291.867 306.54 292.059 306.831 292.293 307.046C292.533 307.258 292.809 307.403 293.121 307.48C293.441 307.562 293.785 307.578 294.151 307.528C294.52 307.485 294.906 307.382 295.311 307.218C295.697 307.063 296.03 306.869 296.308 306.637C296.589 306.411 296.807 306.151 296.962 305.857C297.12 305.569 297.202 305.251 297.21 304.904C297.223 304.555 297.152 304.187 296.996 303.801C296.787 303.281 296.551 302.913 296.288 302.697C296.027 302.486 295.738 302.308 295.419 302.162ZM309.366 316.168L309.476 316.44L307.692 317.159L307.63 317.005C307.315 316.226 306.923 315.602 306.453 315.132C305.985 314.668 305.466 314.34 304.897 314.148C304.329 313.956 303.724 313.884 303.083 313.932C302.451 313.983 301.818 314.137 301.184 314.393L299.11 315.229C298.585 315.441 298.143 315.686 297.785 315.964C297.433 316.239 297.162 316.534 296.973 316.849C296.793 317.168 296.688 317.491 296.659 317.818C296.629 318.146 296.678 318.467 296.805 318.781C296.936 319.107 297.122 319.376 297.362 319.588C297.608 319.798 297.89 319.948 298.207 320.037C298.524 320.127 298.868 320.153 299.239 320.116C299.61 320.079 299.991 319.981 300.384 319.822C300.758 319.671 301.089 319.482 301.376 319.254C301.672 319.029 301.907 318.777 302.081 318.496C302.262 318.212 302.366 317.907 302.396 317.579C302.434 317.255 302.382 316.918 302.241 316.567C302.065 316.133 301.803 315.779 301.454 315.505C301.108 315.238 300.724 315.062 300.305 314.979C299.893 314.899 299.5 314.924 299.124 315.055L299.06 314.112C299.641 313.934 300.195 313.854 300.722 313.873C301.252 313.898 301.741 314.014 302.188 314.219C302.636 314.425 303.029 314.712 303.368 315.081C303.715 315.453 303.994 315.902 304.206 316.428C304.464 317.068 304.567 317.672 304.516 318.24C304.464 318.808 304.292 319.331 304 319.807C303.716 320.286 303.339 320.709 302.868 321.074C302.406 321.443 301.889 321.743 301.315 321.974C300.681 322.23 300.05 322.372 299.423 322.4C298.802 322.426 298.21 322.335 297.649 322.126C297.089 321.923 296.588 321.603 296.144 321.164C295.703 320.731 295.347 320.18 295.077 319.51C294.792 318.803 294.673 318.117 294.721 317.452C294.771 316.793 294.957 316.174 295.278 315.596C295.601 315.023 296.034 314.511 296.575 314.061C297.117 313.611 297.735 313.246 298.429 312.966L299.335 312.601C300.337 312.196 301.333 311.942 302.323 311.838C303.319 311.731 304.264 311.803 305.158 312.053C306.055 312.309 306.863 312.772 307.583 313.444C308.309 314.113 308.903 315.021 309.366 316.168ZM315.233 330.948L314.037 331.43L299.92 330.995L298.992 328.695L312.562 329.339L309.808 322.511L311.547 321.809L315.233 330.948ZM321.406 373.899C320.585 374.23 319.817 374.319 319.102 374.165C318.387 374.011 317.752 373.664 317.196 373.122C316.65 372.585 316.211 371.905 315.879 371.084C315.548 370.263 315.392 369.466 315.41 368.694C315.434 367.919 315.651 367.228 316.059 366.621C316.467 366.014 317.081 365.545 317.903 365.214C318.446 364.995 318.981 364.902 319.507 364.935C320.039 364.966 320.543 365.111 321.019 365.368C321.503 365.629 321.938 365.987 322.325 366.441C322.715 366.902 323.036 367.446 323.289 368.074C323.626 368.908 323.772 369.715 323.73 370.498C323.687 371.28 323.47 371.968 323.078 372.561C322.688 373.161 322.13 373.607 321.406 373.899ZM320.63 371.664C321.071 371.486 321.421 371.239 321.68 370.924C321.939 370.609 322.093 370.252 322.143 369.853C322.193 369.454 322.131 369.04 321.958 368.611C321.783 368.177 321.54 367.836 321.23 367.589C320.92 367.342 320.562 367.195 320.157 367.148C319.754 367.107 319.332 367.175 318.892 367.353C318.445 367.533 318.094 367.776 317.838 368.083C317.589 368.387 317.445 368.736 317.408 369.13C317.37 369.525 317.44 369.942 317.618 370.383C317.796 370.824 318.034 371.17 318.332 371.422C318.63 371.674 318.975 371.823 319.365 371.869C319.762 371.912 320.184 371.844 320.63 371.664ZM327.408 371.131C326.749 371.396 326.093 371.457 325.439 371.314C324.787 371.177 324.19 370.863 323.648 370.373C323.112 369.88 322.687 369.244 322.373 368.465C322.056 367.68 321.919 366.921 321.96 366.189C322.01 365.459 322.221 364.816 322.593 364.259C322.967 363.708 323.484 363.3 324.142 363.034C324.927 362.718 325.657 362.623 326.333 362.75C327.018 362.881 327.625 363.195 328.155 363.69C328.685 364.185 329.108 364.825 329.424 365.61C329.741 366.395 329.88 367.15 329.843 367.874C329.805 368.598 329.584 369.242 329.179 369.806C328.783 370.373 328.192 370.814 327.408 371.131ZM326.455 368.977C326.847 368.819 327.16 368.602 327.392 368.326C327.633 368.053 327.782 367.744 327.839 367.398C327.896 367.052 327.848 366.689 327.695 366.308C327.541 365.928 327.327 365.632 327.052 365.42C326.777 365.208 326.461 365.086 326.104 365.054C325.748 365.023 325.364 365.09 324.953 365.255C324.549 365.418 324.226 365.636 323.985 365.909C323.75 366.179 323.604 366.487 323.547 366.833C323.492 367.185 323.542 367.551 323.695 367.932C323.849 368.312 324.066 368.607 324.347 368.817C324.628 369.026 324.947 369.147 325.304 369.178C325.667 369.208 326.05 369.141 326.455 368.977ZM321.837 380.373L321.91 380.554C322.246 381.387 322.635 382.037 323.076 382.505C323.526 382.977 324.014 383.299 324.541 383.473C325.067 383.647 325.625 383.699 326.215 383.63C326.805 383.56 327.411 383.4 328.033 383.149L330.306 382.232C330.843 382.016 331.291 381.768 331.649 381.49C332.016 381.216 332.294 380.922 332.483 380.607C332.68 380.295 332.795 379.979 332.826 379.657C332.86 379.342 332.817 379.033 332.695 378.731C332.561 378.399 332.365 378.13 332.107 377.926C331.857 377.725 331.566 377.586 331.233 377.509C330.909 377.437 330.555 377.421 330.172 377.463C329.798 377.509 329.417 377.61 329.031 377.766C328.668 377.912 328.335 378.096 328.031 378.316C327.736 378.541 327.493 378.793 327.304 379.073C327.115 379.353 326.999 379.656 326.955 379.982C326.912 380.309 326.961 380.65 327.105 381.007C327.242 381.345 327.43 381.63 327.672 381.863C327.919 382.093 328.197 382.269 328.505 382.39C328.814 382.511 329.132 382.576 329.458 382.585C329.785 382.594 330.095 382.546 330.39 382.441L330.472 383.376C330.013 383.561 329.522 383.647 328.997 383.634C328.481 383.625 327.97 383.525 327.465 383.336C326.969 383.15 326.522 382.877 326.125 382.518C325.73 382.165 325.427 381.729 325.218 381.21C324.965 380.582 324.858 379.979 324.899 379.401C324.948 378.826 325.113 378.296 325.395 377.811C325.679 377.331 326.055 376.906 326.523 376.535C326.991 376.163 327.518 375.86 328.103 375.623C328.737 375.368 329.371 375.224 330.004 375.193C330.638 375.163 331.24 375.246 331.811 375.444C332.389 375.639 332.901 375.952 333.348 376.383C333.804 376.816 334.167 377.368 334.437 378.039C334.725 378.751 334.838 379.432 334.777 380.081C334.716 380.731 334.515 381.338 334.175 381.904C333.834 382.469 333.379 382.976 332.808 383.424C332.238 383.872 331.581 384.245 330.838 384.545L330.069 384.855C329.29 385.169 328.51 385.403 327.729 385.557C326.955 385.708 326.196 385.75 325.454 385.685C324.72 385.623 324.018 385.432 323.349 385.112C322.688 384.796 322.08 384.325 321.526 383.699C320.98 383.077 320.51 382.277 320.115 381.299L320.035 381.1L321.837 380.373ZM340.118 392.514L326.886 397.851L326.006 395.669L336.648 391.376L334.248 388.585L336.05 387.858L340.012 392.252L340.118 392.514ZM340.723 409.964L338.567 410.833C337.535 411.25 336.612 411.503 335.798 411.592C334.993 411.685 334.288 411.633 333.682 411.435C333.075 411.237 332.559 410.915 332.134 410.469C331.711 410.029 331.367 409.483 331.104 408.831C330.895 408.312 330.767 407.802 330.719 407.302C330.674 406.807 330.722 406.325 330.862 405.854C331.002 405.383 331.244 404.931 331.589 404.497C331.942 404.067 332.404 403.656 332.976 403.264C333.55 402.878 334.251 402.518 335.078 402.184L337.234 401.315C338.272 400.896 339.189 400.645 339.985 400.563C340.786 400.479 341.487 400.537 342.087 400.737C342.693 400.935 343.205 401.255 343.622 401.697C344.042 402.146 344.383 402.696 344.646 403.348C344.858 403.873 344.986 404.383 345.031 404.878C345.085 405.375 345.043 405.856 344.906 406.318C344.772 406.786 344.532 407.234 344.185 407.662C343.847 408.093 343.39 408.502 342.816 408.888C342.247 409.272 341.55 409.63 340.723 409.964ZM337.379 408.775L340.168 407.65C340.693 407.438 341.143 407.221 341.517 407C341.897 406.777 342.202 406.549 342.431 406.316C342.669 406.087 342.84 405.849 342.944 405.603C343.055 405.355 343.104 405.104 343.092 404.849C343.087 404.591 343.028 404.324 342.916 404.046C342.78 403.708 342.591 403.433 342.351 403.221C342.118 403.006 341.822 402.865 341.465 402.799C341.108 402.732 340.678 402.744 340.174 402.835C339.679 402.93 339.102 403.11 338.444 403.375L335.655 404.5C335.123 404.714 334.667 404.933 334.287 405.157C333.907 405.38 333.596 405.611 333.355 405.849C333.12 406.084 332.943 406.324 332.824 406.568C332.714 406.817 332.661 407.069 332.667 407.327C332.675 407.59 332.734 407.858 332.843 408.13C332.982 408.474 333.171 408.752 333.411 408.964C333.651 409.176 333.953 409.314 334.316 409.379C334.685 409.44 335.123 409.422 335.63 409.322C336.138 409.223 336.721 409.04 337.379 408.775ZM361.012 444.315L347.78 449.652L346.9 447.47L357.541 443.178L355.141 440.386L356.944 439.659L360.906 444.053L361.012 444.315ZM366.087 456.898L352.855 462.235L351.975 460.052L362.616 455.76L360.216 452.969L362.019 452.242L365.981 456.635L366.087 456.898ZM371.162 469.48L357.93 474.817L357.05 472.634L367.691 468.342L365.291 465.551L367.094 464.824L371.056 469.217L371.162 469.48ZM365.906 489.578L364.167 490.279L360.602 481.44L362.096 480.837L368.51 483.241C369.231 483.498 369.84 483.684 370.336 483.8C370.832 483.916 371.256 483.966 371.607 483.951C371.968 483.939 372.296 483.873 372.591 483.754C373.008 483.586 373.342 483.36 373.592 483.076C373.851 482.796 374.012 482.472 374.074 482.103C374.142 481.732 374.09 481.335 373.92 480.912C373.722 480.423 373.451 480.055 373.106 479.808C372.761 479.561 372.367 479.429 371.924 479.411C371.488 479.39 371.031 479.476 370.554 479.669L369.674 477.486C370.44 477.177 371.211 477.069 371.987 477.164C372.768 477.256 373.48 477.558 374.122 478.071C374.77 478.582 375.283 479.305 375.66 480.241C376.016 481.123 376.17 481.931 376.123 482.666C376.075 483.402 375.844 484.039 375.43 484.578C375.018 485.123 374.441 485.546 373.698 485.845C373.288 486.011 372.853 486.109 372.395 486.139C371.937 486.169 371.456 486.142 370.951 486.058C370.456 485.977 369.938 485.852 369.4 485.683C368.867 485.512 368.316 485.31 367.744 485.077L363.451 483.492L365.906 489.578Z" fill="#FFF6F2"/>
<path d="M163.178 196.806C182.129 189.163 203.689 198.329 211.333 217.28L333.711 520.688C341.355 539.639 332.189 561.199 313.238 568.842L271.748 585.577C269.187 586.61 266.274 585.371 265.241 582.81L118.922 220.048C117.889 217.487 119.128 214.574 121.689 213.541L163.178 196.806Z" fill="#B3E0B9"/>
<path d="M151.02 229.831L148.902 224.58L145.822 224.716L144.955 222.567L159.049 222.208L159.98 224.517L149.575 234.02L148.707 231.87L151.02 229.831ZM152.343 228.642L157.326 224.235L150.68 224.519L152.343 228.642ZM164.097 232.437L151.057 237.696L150.247 235.688L163.286 230.428L164.097 232.437ZM164.523 234.968C164.864 234.831 165.193 234.835 165.511 234.979C165.829 235.124 166.067 235.391 166.223 235.778C166.379 236.166 166.393 236.522 166.265 236.847C166.141 237.184 165.909 237.421 165.568 237.558C165.228 237.696 164.902 237.684 164.591 237.522C164.285 237.373 164.053 237.104 163.897 236.716C163.741 236.329 163.721 235.975 163.837 235.655C163.954 235.334 164.183 235.106 164.523 234.968ZM162.628 238.396L152.919 242.312L152.109 240.303L161.818 236.387L162.628 238.396ZM165.544 245.27C166.051 246.527 166.136 247.702 165.798 248.794C165.472 249.882 164.779 250.755 163.72 251.415L162.86 249.283C163.424 248.919 163.783 248.439 163.939 247.844C164.112 247.255 164.06 246.62 163.786 245.939C163.473 245.163 162.936 244.629 162.176 244.335C161.427 244.036 160.524 244.099 159.467 244.526C158.409 244.952 157.709 245.535 157.365 246.275C157.022 247.014 157.006 247.772 157.319 248.547C157.594 249.228 157.997 249.721 158.53 250.025C159.067 250.341 159.665 250.435 160.323 250.306L161.183 252.438C159.963 252.698 158.852 252.552 157.851 252C156.85 251.447 156.096 250.543 155.589 249.286C155.21 248.346 155.073 247.432 155.178 246.542C155.289 245.665 155.637 244.868 156.223 244.154C156.809 243.44 157.613 242.876 158.635 242.464C159.645 242.057 160.609 241.907 161.527 242.015C162.444 242.123 163.248 242.454 163.936 243.01C164.629 243.577 165.165 244.331 165.544 245.27ZM169.561 255.229C170.02 256.368 170.094 257.397 169.781 258.315C169.485 259.24 168.881 259.976 167.967 260.522L167.2 258.619C167.695 258.323 168.026 257.924 168.191 257.42C168.373 256.923 168.341 256.369 168.095 255.758C167.891 255.253 167.609 254.91 167.248 254.727C166.905 254.552 166.527 254.547 166.116 254.713C165.81 254.836 165.604 255.035 165.497 255.311C165.389 255.586 165.342 255.892 165.355 256.229C165.372 256.577 165.428 257.053 165.521 257.657C165.65 258.452 165.717 259.108 165.721 259.625C165.729 260.154 165.604 260.656 165.344 261.129C165.101 261.61 164.65 261.983 163.992 262.248C163.182 262.575 162.398 262.529 161.642 262.11C160.891 261.703 160.304 260.977 159.882 259.931C159.394 258.721 159.281 257.627 159.541 256.648C159.807 255.68 160.414 254.916 161.362 254.356L162.151 256.312C161.646 256.584 161.312 256.992 161.149 257.536C160.986 258.079 161.04 258.686 161.31 259.356C161.504 259.837 161.779 260.163 162.135 260.334C162.507 260.512 162.887 260.522 163.274 260.366C163.615 260.229 163.842 260.014 163.957 259.722C164.071 259.43 164.117 259.104 164.095 258.744C164.085 258.38 164.027 257.898 163.922 257.298C163.802 256.527 163.734 255.885 163.719 255.372C163.708 254.871 163.82 254.389 164.057 253.925C164.309 253.468 164.753 253.111 165.387 252.855C166.209 252.524 166.996 252.562 167.748 252.969C168.516 253.383 169.12 254.136 169.561 255.229ZM179.201 279.484L168.404 280.704L167.509 278.484L174.049 273.06L165.561 273.656L164.673 271.453L173.295 264.841L174.112 266.867L166.999 271.887L175.839 271.149L176.692 273.264L169.828 278.9L178.433 277.581L179.201 279.484ZM182.529 279.608C182.87 279.471 183.199 279.475 183.517 279.62C183.835 279.765 184.072 280.031 184.228 280.418C184.385 280.806 184.399 281.162 184.27 281.487C184.147 281.824 183.914 282.061 183.574 282.199C183.233 282.336 182.907 282.324 182.596 282.163C182.29 282.013 182.059 281.744 181.902 281.357C181.746 280.969 181.726 280.615 181.843 280.295C181.96 279.975 182.188 279.746 182.529 279.608ZM180.634 283.036L170.925 286.952L170.114 284.943L179.823 281.027L180.634 283.036ZM185.826 286.309L172.786 291.568L171.976 289.559L185.015 284.3L185.826 286.309ZM187.687 290.924L174.648 296.184L173.838 294.175L186.877 288.916L187.687 290.924ZM187.103 298.719C187.458 299.6 187.544 300.44 187.36 301.238C187.177 302.035 186.779 302.708 186.167 303.256L188.422 302.346L189.232 304.355L179.523 308.271L178.713 306.262L180.969 305.352C180.148 305.383 179.394 305.175 178.709 304.727C178.023 304.28 177.502 303.616 177.147 302.735C176.806 301.889 176.7 301.051 176.829 300.22C176.963 299.401 177.33 298.652 177.931 297.973C178.531 297.294 179.342 296.748 180.364 296.336C181.374 295.928 182.331 295.761 183.234 295.834C184.138 295.906 184.922 296.191 185.587 296.688C186.256 297.196 186.762 297.873 187.103 298.719ZM185.589 300.047C185.229 299.154 184.652 298.553 183.859 298.245C183.082 297.944 182.194 297.995 181.196 298.397C180.197 298.8 179.517 299.382 179.154 300.143C178.808 300.911 178.815 301.741 179.175 302.634C179.403 303.198 179.736 303.651 180.174 303.993C180.625 304.33 181.143 304.531 181.728 304.595C182.314 304.659 182.93 304.561 183.576 304.3C184.211 304.045 184.717 303.69 185.094 303.238C185.483 302.78 185.717 302.276 185.795 301.725C185.885 301.17 185.817 300.61 185.589 300.047ZM195.331 319.018C195.796 320.169 195.801 321.232 195.347 322.208C194.899 323.194 193.999 323.96 192.648 324.505L186.992 326.787L186.181 324.778L191.626 322.582C192.472 322.241 193.039 321.766 193.326 321.158C193.626 320.546 193.626 319.87 193.327 319.13C193.01 318.343 192.504 317.816 191.809 317.55C191.131 317.291 190.31 317.356 189.347 317.744L184.184 319.826L183.374 317.818L188.819 315.622C189.665 315.28 190.231 314.806 190.519 314.198C190.818 313.586 190.819 312.91 190.52 312.17C190.203 311.383 189.697 310.856 189.002 310.59C188.324 310.331 187.503 310.395 186.54 310.784L181.377 312.866L180.567 310.858L190.276 306.941L191.086 308.95L189.06 309.768C189.864 309.73 190.57 309.923 191.178 310.347C191.786 310.771 192.247 311.371 192.559 312.146C192.886 312.957 192.968 313.736 192.806 314.485C192.648 315.245 192.248 315.912 191.605 316.485C192.447 316.473 193.199 316.696 193.862 317.152C194.524 317.609 195.014 318.231 195.331 319.018Z" fill="#141318"/>
<path d="M269.905 494.538L271.294 493.977L272.477 496.912L263.311 500.609L262.683 499.051L270.46 495.914L269.905 494.538ZM268.638 500.417C267.175 501.007 266.133 501.73 265.512 502.584C264.899 503.435 264.837 504.466 265.325 505.678C265.814 506.89 266.579 507.588 267.619 507.772C268.66 507.956 269.907 507.755 271.361 507.169C272.807 506.586 273.836 505.869 274.449 505.018C275.07 504.163 275.137 503.13 274.648 501.918C274.159 500.706 273.399 500.007 272.367 499.819C271.335 499.631 270.092 499.831 268.638 500.417ZM270.764 505.689C269.708 506.115 268.847 506.311 268.179 506.278C267.512 506.246 267.028 505.857 266.728 505.113C266.424 504.36 266.501 503.74 266.959 503.253C267.417 502.767 268.174 502.31 269.23 501.884C270.277 501.462 271.13 501.269 271.789 501.305C272.448 501.341 272.929 501.736 273.233 502.489C273.533 503.233 273.454 503.849 272.996 504.335C272.547 504.819 271.803 505.27 270.764 505.689ZM281.29 509.852L265.324 512.186L264.742 510.745L280.709 508.411L281.29 509.852ZM280.087 514.956C280.332 515.561 280.433 516.124 280.391 516.644C280.358 517.161 280.199 517.603 279.914 517.969C279.633 518.344 279.263 518.624 278.804 518.809C278.224 519.043 277.673 519.074 277.151 518.903C276.641 518.736 276.228 518.374 275.913 517.817L275.848 517.843C275.921 518.548 275.847 519.152 275.627 519.653C275.419 520.16 274.999 520.541 274.367 520.795C273.596 521.106 272.866 521.104 272.175 520.789C271.493 520.47 270.96 519.835 270.576 518.883C270.181 517.904 270.11 517.017 270.363 516.221C270.624 515.421 271.226 514.781 272.169 514.3L272.761 515.767C272.263 516.028 271.922 516.382 271.74 516.828C271.566 517.27 271.589 517.764 271.809 518.31C272.015 518.82 272.306 519.156 272.683 519.316C273.063 519.485 273.465 519.483 273.889 519.312C274.4 519.106 274.709 518.75 274.817 518.244C274.928 517.746 274.834 517.125 274.533 516.381L274.392 516.03L275.612 515.538L275.754 515.888C276.306 517.306 277.07 517.818 278.049 517.423C278.473 517.252 278.754 516.988 278.891 516.631C279.029 516.273 279.007 515.869 278.825 515.419C278.644 514.969 278.353 514.649 277.954 514.457C277.564 514.263 277.097 514.24 276.553 514.389L275.966 512.934C276.891 512.632 277.71 512.654 278.423 513C279.145 513.343 279.7 513.995 280.087 514.956ZM277.147 521.512C275.684 522.102 274.642 522.824 274.02 523.679C273.407 524.53 273.345 525.561 273.834 526.773C274.323 527.985 275.087 528.683 276.128 528.867C277.168 529.051 278.416 528.85 279.87 528.264C281.315 527.681 282.344 526.964 282.957 526.112C283.579 525.258 283.645 524.225 283.156 523.013C282.668 521.801 281.907 521.101 280.875 520.914C279.844 520.726 278.601 520.926 277.147 521.512ZM279.273 526.783C278.217 527.209 277.355 527.406 276.688 527.373C276.02 527.34 275.537 526.952 275.236 526.208C274.933 525.454 275.01 524.835 275.467 524.348C275.925 523.861 276.682 523.405 277.738 522.979C278.786 522.557 279.639 522.364 280.297 522.4C280.956 522.436 281.437 522.831 281.741 523.584C282.041 524.328 281.963 524.944 281.505 525.43C281.055 525.913 280.311 526.364 279.273 526.783Z" fill="#141318"/>
<path d="M294.58 487.113C294.969 488.077 295.047 488.977 294.815 489.813C294.582 490.648 294.092 491.346 293.343 491.907L292.8 490.561C293.2 490.184 293.455 489.736 293.565 489.217C293.686 488.702 293.628 488.152 293.391 487.566C293.203 487.099 292.918 486.726 292.539 486.448C292.162 486.177 291.715 486.021 291.198 485.979C290.692 485.942 290.153 486.039 289.581 486.269C289.017 486.496 288.562 486.801 288.216 487.182C287.88 487.568 287.67 487.989 287.587 488.445C287.506 488.909 287.56 489.375 287.749 489.842C287.985 490.428 288.321 490.866 288.758 491.156C289.204 491.45 289.698 491.596 290.241 491.593L290.784 492.94C289.856 493.055 289.018 492.893 288.271 492.452C287.531 492.009 286.967 491.305 286.578 490.34C286.279 489.598 286.181 488.874 286.284 488.168C286.395 487.459 286.688 486.828 287.164 486.274C287.646 485.717 288.277 485.281 289.056 484.967C289.835 484.653 290.588 484.53 291.315 484.599C292.049 484.666 292.702 484.916 293.273 485.349C293.845 485.783 294.28 486.371 294.58 487.113ZM295.893 495.34C296.117 495.896 296.171 496.426 296.055 496.93C295.939 497.434 295.688 497.859 295.301 498.205L296.726 497.63L297.238 498.899L291.106 501.372L290.594 500.104L292.018 499.529C291.5 499.548 291.024 499.417 290.591 499.134C290.158 498.852 289.829 498.432 289.605 497.876C289.389 497.342 289.322 496.812 289.404 496.288C289.489 495.77 289.721 495.297 290.1 494.868C290.479 494.439 290.991 494.095 291.636 493.834C292.275 493.577 292.879 493.471 293.449 493.517C294.02 493.563 294.515 493.743 294.935 494.057C295.358 494.378 295.677 494.806 295.893 495.34ZM294.937 496.178C294.709 495.614 294.345 495.235 293.844 495.04C293.353 494.85 292.792 494.882 292.162 495.137C291.531 495.391 291.101 495.758 290.872 496.239C290.654 496.724 290.658 497.248 290.886 497.812C291.029 498.168 291.24 498.454 291.517 498.67C291.801 498.883 292.128 499.01 292.498 499.051C292.868 499.091 293.257 499.029 293.665 498.865C294.066 498.703 294.386 498.479 294.624 498.193C294.87 497.905 295.017 497.586 295.067 497.238C295.124 496.888 295.08 496.534 294.937 496.178ZM299.393 504.018C299.608 504.552 299.674 505.078 299.589 505.595C299.507 506.12 299.277 506.597 298.898 507.025C298.519 507.454 298.01 507.798 297.372 508.055C296.727 508.315 296.119 508.422 295.548 508.377C294.978 508.331 294.481 508.147 294.058 507.826C293.638 507.512 293.321 507.088 293.105 506.554C292.881 505.998 292.826 505.468 292.942 504.964C293.058 504.46 293.311 504.039 293.701 503.7L289.361 505.451L288.849 504.182L297.897 500.533L298.408 501.801L296.984 502.376C297.499 502.349 297.973 502.477 298.407 502.76C298.84 503.042 299.168 503.462 299.393 504.018ZM298.123 504.077C297.979 503.721 297.765 503.437 297.481 503.224C297.204 503.007 296.877 502.881 296.499 502.843C296.129 502.803 295.744 502.863 295.343 503.025C294.935 503.189 294.612 503.415 294.374 503.7C294.135 503.986 293.988 504.305 293.931 504.655C293.881 505.003 293.928 505.355 294.072 505.711C294.299 506.275 294.66 506.656 295.154 506.854C295.655 507.048 296.221 507.018 296.852 506.764C297.475 506.513 297.899 506.143 298.125 505.655C298.351 505.167 298.35 504.641 298.123 504.077ZM297.184 513.265L296.082 513.71L295.768 512.931C295.504 512.278 295.46 511.718 295.634 511.251C295.818 510.788 296.277 510.409 297.012 510.113L300.017 508.901L299.662 508.022L300.742 507.586L301.096 508.465L302.621 507.85L303.137 509.13L301.612 509.745L302.209 511.225L301.13 511.661L300.533 510.181L297.506 511.402C297.157 511.542 296.941 511.703 296.859 511.883C296.779 512.07 296.805 512.327 296.937 512.653L297.184 513.265ZM302.265 519.352C302.058 519.436 301.87 519.494 301.702 519.527L299.799 514.809C299.177 515.085 298.78 515.448 298.607 515.897C298.435 516.346 298.446 516.812 298.64 517.294C298.811 517.717 299.062 518.03 299.394 518.233C299.729 518.443 300.088 518.509 300.471 518.432L301.019 519.79C300.555 519.882 300.104 519.865 299.666 519.74C299.227 519.615 298.828 519.384 298.467 519.046C298.114 518.706 297.834 518.279 297.628 517.768C297.389 517.174 297.302 516.596 297.369 516.035C297.439 515.48 297.659 514.978 298.029 514.526C298.399 514.075 298.907 513.719 299.552 513.459C300.19 513.202 300.799 513.107 301.378 513.175C301.958 513.243 302.465 513.453 302.9 513.804C303.338 514.162 303.676 514.638 303.916 515.231C304.158 515.832 304.243 516.406 304.17 516.953C304.108 517.504 303.906 517.987 303.564 518.401C303.232 518.819 302.799 519.136 302.265 519.352ZM301.782 518.059C302.189 517.912 302.495 517.707 302.699 517.443C302.913 517.184 303.03 516.896 303.048 516.578C303.077 516.264 303.029 515.951 302.903 515.64C302.703 515.143 302.383 514.789 301.944 514.577C301.505 514.366 300.983 514.366 300.377 514.575L301.782 518.059ZM304.885 521.324C305.37 521.37 305.805 521.54 306.19 521.833C306.583 522.123 306.881 522.52 307.085 523.024L305.705 523.581L305.552 523.203C305.328 522.646 305.01 522.253 304.597 522.022C304.196 521.796 303.683 521.809 303.06 522.06L299.955 523.312L299.443 522.044L305.575 519.57L306.087 520.839L304.885 521.324ZM308.303 526.11C308.594 526.829 308.64 527.479 308.443 528.059C308.256 528.643 307.874 529.108 307.297 529.453L306.812 528.251C307.125 528.064 307.334 527.812 307.438 527.494C307.553 527.18 307.533 526.83 307.377 526.444C307.249 526.125 307.071 525.908 306.843 525.793C306.626 525.682 306.387 525.679 306.128 525.784C305.935 525.862 305.804 525.988 305.737 526.162C305.669 526.336 305.639 526.529 305.647 526.741C305.658 526.961 305.693 527.262 305.752 527.643C305.834 528.145 305.876 528.56 305.878 528.886C305.884 529.221 305.804 529.537 305.64 529.836C305.487 530.14 305.202 530.375 304.787 530.543C304.275 530.75 303.78 530.72 303.302 530.456C302.828 530.199 302.457 529.74 302.191 529.08C301.882 528.316 301.811 527.624 301.975 527.006C302.143 526.395 302.526 525.912 303.125 525.559L303.624 526.794C303.305 526.966 303.094 527.223 302.991 527.567C302.888 527.91 302.922 528.293 303.092 528.716C303.215 529.02 303.389 529.226 303.613 529.334C303.848 529.446 304.088 529.453 304.333 529.354C304.548 529.268 304.692 529.132 304.764 528.948C304.836 528.763 304.865 528.557 304.851 528.33C304.845 528.1 304.808 527.795 304.742 527.417C304.666 526.93 304.623 526.524 304.614 526.2C304.607 525.884 304.678 525.579 304.827 525.286C304.987 524.998 305.267 524.772 305.667 524.611C306.187 524.401 306.684 524.425 307.158 524.682C307.643 524.944 308.025 525.42 308.303 526.11Z" fill="#141318" fill-opacity="0.8"/>
<path d="M182.618 214.074C183.007 215.039 183.086 215.939 182.853 216.774C182.621 217.61 182.131 218.308 181.382 218.869L180.839 217.522C181.239 217.145 181.494 216.697 181.604 216.178C181.724 215.664 181.666 215.114 181.43 214.528C181.241 214.06 180.957 213.687 180.578 213.409C180.201 213.138 179.754 212.982 179.237 212.941C178.73 212.904 178.191 213 177.62 213.231C177.056 213.458 176.601 213.762 176.254 214.144C175.918 214.529 175.709 214.95 175.625 215.407C175.545 215.87 175.599 216.336 175.787 216.803C176.024 217.39 176.36 217.828 176.796 218.118C177.243 218.412 177.737 218.557 178.279 218.554L178.822 219.901C177.894 220.017 177.057 219.854 176.31 219.414C175.57 218.97 175.006 218.266 174.617 217.302C174.317 216.56 174.22 215.836 174.323 215.13C174.434 214.421 174.727 213.789 175.202 213.235C175.685 212.678 176.316 212.243 177.095 211.929C177.874 211.614 178.627 211.492 179.353 211.561C180.087 211.627 180.74 211.877 181.312 212.311C181.884 212.744 182.319 213.332 182.618 214.074ZM183.931 222.301C184.156 222.858 184.21 223.388 184.094 223.892C183.978 224.396 183.727 224.821 183.34 225.166L184.764 224.592L185.276 225.86L179.144 228.334L178.632 227.065L180.057 226.491C179.539 226.51 179.063 226.378 178.63 226.096C178.197 225.813 177.868 225.394 177.643 224.837C177.428 224.303 177.361 223.774 177.443 223.249C177.527 222.732 177.759 222.259 178.138 221.83C178.517 221.401 179.03 221.056 179.675 220.796C180.313 220.539 180.917 220.433 181.488 220.479C182.059 220.525 182.554 220.704 182.974 221.018C183.397 221.339 183.716 221.767 183.931 222.301ZM182.975 223.14C182.748 222.576 182.384 222.196 181.882 222.002C181.392 221.812 180.831 221.844 180.2 222.098C179.57 222.352 179.14 222.72 178.911 223.2C178.693 223.685 178.697 224.21 178.924 224.774C179.068 225.13 179.278 225.416 179.555 225.632C179.84 225.845 180.167 225.972 180.537 226.012C180.907 226.053 181.296 225.991 181.704 225.826C182.105 225.665 182.424 225.441 182.663 225.155C182.908 224.866 183.056 224.548 183.105 224.2C183.162 223.849 183.119 223.496 182.975 223.14ZM185.245 229.248C185.729 229.294 186.164 229.463 186.55 229.756C186.943 230.047 187.241 230.444 187.445 230.948L186.065 231.505L185.912 231.127C185.688 230.57 185.369 230.177 184.957 229.946C184.556 229.72 184.043 229.732 183.42 229.984L180.315 231.236L179.803 229.968L185.935 227.494L186.447 228.763L185.245 229.248ZM188.843 234.479C189.067 235.035 189.122 235.565 189.006 236.069C188.89 236.573 188.637 236.994 188.247 237.333L191.775 235.91L192.291 237.189L184.056 240.511L183.54 239.231L184.964 238.657C184.449 238.684 183.974 238.556 183.541 238.273C183.108 237.991 182.779 237.571 182.555 237.015C182.34 236.481 182.273 235.951 182.354 235.426C182.439 234.909 182.671 234.436 183.05 234.007C183.429 233.578 183.941 233.234 184.587 232.973C185.225 232.716 185.829 232.61 186.4 232.656C186.97 232.702 187.466 232.882 187.885 233.196C188.308 233.517 188.627 233.944 188.843 234.479ZM187.887 235.317C187.66 234.753 187.295 234.374 186.794 234.179C186.303 233.989 185.743 234.021 185.112 234.275C184.481 234.53 184.052 234.897 183.823 235.378C183.604 235.863 183.609 236.387 183.836 236.951C183.98 237.307 184.19 237.593 184.467 237.809C184.751 238.022 185.079 238.149 185.449 238.19C185.819 238.23 186.208 238.168 186.616 238.004C187.016 237.842 187.336 237.618 187.574 237.332C187.82 237.043 187.968 236.725 188.017 236.377C188.074 236.027 188.031 235.673 187.887 235.317ZM196.187 247.939L188.33 251.108L187.814 249.828L191.342 248.405L189.851 244.71L186.324 246.133L185.812 244.865L193.669 241.695L194.18 242.964L190.886 244.293L192.377 247.988L195.671 246.659L196.187 247.939ZM194.655 257.1C194.447 257.183 194.259 257.242 194.091 257.275L192.188 252.556C191.566 252.833 191.169 253.196 190.997 253.645C190.824 254.094 190.835 254.56 191.03 255.042C191.2 255.465 191.452 255.778 191.783 255.98C192.118 256.19 192.477 256.257 192.86 256.18L193.408 257.538C192.945 257.63 192.494 257.613 192.055 257.488C191.617 257.363 191.217 257.132 190.857 256.794C190.503 256.454 190.224 256.027 190.017 255.515C189.778 254.922 189.691 254.344 189.758 253.782C189.828 253.228 190.048 252.725 190.418 252.274C190.788 251.823 191.296 251.467 191.941 251.207C192.579 250.949 193.188 250.855 193.768 250.923C194.347 250.991 194.854 251.201 195.289 251.551C195.727 251.91 196.066 252.386 196.305 252.979C196.547 253.58 196.632 254.154 196.56 254.701C196.497 255.252 196.295 255.735 195.953 256.149C195.622 256.567 195.189 256.884 194.655 257.1ZM194.172 255.806C194.578 255.66 194.884 255.454 195.088 255.191C195.303 254.932 195.419 254.643 195.438 254.325C195.466 254.012 195.418 253.699 195.292 253.388C195.092 252.891 194.772 252.536 194.333 252.325C193.894 252.114 193.372 252.113 192.767 252.323L194.172 255.806ZM199.034 259.746C199.259 260.303 199.313 260.833 199.197 261.337C199.081 261.841 198.83 262.266 198.443 262.611L199.868 262.037L200.38 263.306L194.248 265.779L193.736 264.51L195.16 263.936C194.642 263.955 194.166 263.823 193.733 263.541C193.3 263.258 192.971 262.839 192.747 262.282C192.531 261.748 192.464 261.219 192.546 260.694C192.631 260.177 192.863 259.704 193.242 259.275C193.621 258.846 194.133 258.501 194.778 258.241C195.416 257.984 196.021 257.878 196.591 257.924C197.162 257.97 197.657 258.15 198.077 258.463C198.5 258.784 198.819 259.212 199.034 259.746ZM198.079 260.585C197.851 260.021 197.487 259.642 196.986 259.447C196.495 259.257 195.934 259.289 195.304 259.543C194.673 259.797 194.243 260.165 194.014 260.645C193.796 261.13 193.8 261.655 194.028 262.219C194.171 262.575 194.382 262.861 194.659 263.077C194.943 263.29 195.27 263.417 195.64 263.457C196.01 263.498 196.399 263.436 196.807 263.271C197.208 263.11 197.527 262.886 197.766 262.6C198.012 262.311 198.159 261.993 198.209 261.645C198.266 261.294 198.222 260.941 198.079 260.585ZM202.108 267.367C202.333 267.924 202.387 268.454 202.271 268.958C202.155 269.462 201.902 269.883 201.513 270.221L205.041 268.798L205.557 270.078L197.321 273.4L196.805 272.12L198.23 271.546C197.714 271.572 197.24 271.444 196.807 271.162C196.374 270.879 196.045 270.46 195.821 269.903C195.605 269.369 195.538 268.84 195.62 268.315C195.705 267.798 195.936 267.325 196.316 266.896C196.695 266.467 197.207 266.122 197.852 265.862C198.49 265.605 199.095 265.499 199.665 265.545C200.236 265.591 200.731 265.771 201.151 266.084C201.574 266.405 201.893 266.833 202.108 267.367ZM201.153 268.206C200.925 267.642 200.561 267.263 200.06 267.068C199.569 266.878 199.008 266.91 198.378 267.164C197.747 267.419 197.317 267.786 197.088 268.266C196.87 268.751 196.874 269.276 197.102 269.84C197.245 270.196 197.456 270.482 197.733 270.698C198.017 270.911 198.344 271.038 198.714 271.078C199.084 271.119 199.473 271.057 199.881 270.892C200.282 270.731 200.601 270.507 200.84 270.221C201.086 269.932 201.233 269.614 201.283 269.266C201.34 268.915 201.296 268.562 201.153 268.206ZM203.64 279.376C203.432 279.46 203.244 279.518 203.076 279.551L201.173 274.833C200.551 275.109 200.154 275.472 199.982 275.921C199.809 276.371 199.82 276.836 200.015 277.319C200.185 277.741 200.437 278.054 200.768 278.257C201.103 278.467 201.462 278.533 201.845 278.456L202.393 279.814C201.93 279.906 201.479 279.89 201.04 279.765C200.602 279.64 200.202 279.408 199.842 279.071C199.489 278.73 199.209 278.304 199.002 277.792C198.763 277.198 198.677 276.62 198.743 276.059C198.813 275.504 199.033 275.002 199.403 274.55C199.773 274.099 200.281 273.744 200.926 273.483C201.564 273.226 202.173 273.131 202.753 273.199C203.332 273.267 203.839 273.477 204.274 273.828C204.712 274.186 205.051 274.662 205.29 275.255C205.532 275.856 205.617 276.43 205.545 276.977C205.482 277.529 205.28 278.011 204.938 278.425C204.607 278.844 204.174 279.161 203.64 279.376ZM203.157 278.083C203.563 277.936 203.869 277.731 204.073 277.467C204.288 277.208 204.404 276.92 204.423 276.602C204.451 276.288 204.403 275.976 204.277 275.664C204.077 275.167 203.757 274.813 203.318 274.602C202.879 274.39 202.357 274.39 201.752 274.599L203.157 278.083ZM206.259 281.348C206.744 281.394 207.179 281.564 207.565 281.857C207.958 282.147 208.256 282.544 208.459 283.049L207.079 283.605L206.927 283.227C206.702 282.67 206.384 282.277 205.972 282.046C205.57 281.82 205.058 281.833 204.434 282.084L201.329 283.337L200.818 282.068L206.95 279.595L207.461 280.863L206.259 281.348Z" fill="#141318" fill-opacity="0.8"/>
<defs>
<filter id="filter0_b_21_15" x="-11.0668" y="12.6946" width="543.893" height="570.358" filterUnits="userSpaceOnUse" color-interpolation-filters="sRGB">
<feFlood flood-opacity="0" result="BackgroundImageFix"/>
<feGaussianBlur in="BackgroundImageFix" stdDeviation="10"/>
<feComposite in2="SourceAlpha" operator="in" result="effect1_backgroundBlur_21_15"/>
<feBlend mode="normal" in="SourceGraphic" in2="effect1_backgroundBlur_21_15" result="shape"/>
</filter>
<filter id="filter1_b_21_15" x="66.5923" y="67.6724" width="482.695" height="575.351" filterUnits="userSpaceOnUse" color-interpolation-filters="sRGB">
<feFlood flood-opacity="0" result="BackgroundImageFix"/>
<feGaussianBlur in="BackgroundImageFix" stdDeviation="17"/>
<feComposite in2="SourceAlpha" operator="in" result="effect1_backgroundBlur_21_15"/>
<feBlend mode="normal" in="SourceGraphic" in2="effect1_backgroundBlur_21_15" result="shape"/>
</filter>
<filter id="filter2_f_21_15" x="31.175" y="252.239" width="687.486" height="622.038" filterUnits="userSpaceOnUse" color-interpolation-filters="sRGB">
<feFlood flood-opacity="0" result="BackgroundImageFix"/>
<feBlend mode="normal" in="SourceGraphic" in2="BackgroundImageFix" result="shape"/>
<feGaussianBlur stdDeviation="78" result="effect1_foregroundBlur_21_15"/>
</filter>
<linearGradient id="paint0_linear_21_15" x1="601.5" y1="683.5" x2="-49.4608" y2="-35.8472" gradientUnits="userSpaceOnUse">
<stop offset="0.215755" stop-color="#B3E0B9"/>
<stop offset="1" stop-color="#B3E0B9" stop-opacity="0"/>
</linearGradient>
<linearGradient id="paint1_linear_21_15" x1="-205.156" y1="483.953" x2="870.718" y2="569.364" gradientUnits="userSpaceOnUse">
<stop offset="0.222996" stop-color="#3F4150"/>
<stop offset="0.638995" stop-color="#1E1E1F"/>
</linearGradient>
</defs>
</svg>
