<svg width="64" height="64" viewBox="0 0 64 64" fill="none" xmlns="http://www.w3.org/2000/svg">
<circle cx="31.9996" cy="32.2589" r="31.6598" fill="#B3E0B9"/>
<path d="M44.8343 48.9364H44.6162C19.4073 47.4868 15.828 26.2163 15.3276 19.7249C15.2873 19.2202 15.347 18.7124 15.5032 18.2308C15.6595 17.7492 15.9092 17.3032 16.2381 16.9182C16.5671 16.5333 16.9687 16.217 17.4201 15.9876C17.8714 15.7581 18.3636 15.62 18.8684 15.5811H25.9372C26.4511 15.5806 26.9533 15.7344 27.3787 16.0226C27.8042 16.3108 28.1333 16.7202 28.3234 17.1976L30.2734 21.9956C30.4611 22.462 30.5077 22.9733 30.4074 23.4659C30.307 23.9586 30.0642 24.4109 29.7089 24.7667L26.9764 27.5249C27.4032 29.9505 28.5648 32.1865 30.3041 33.9303C32.0433 35.6742 34.2762 36.8417 36.7007 37.2749L39.4846 34.5167C39.8457 34.1654 40.3023 33.9281 40.7974 33.8346C41.2924 33.7411 41.8041 33.7954 42.2685 33.9907L47.105 35.9279C47.5752 36.124 47.9764 36.4557 48.2574 36.8806C48.5384 37.3056 48.6866 37.8046 48.683 38.314V45.0877C48.683 46.1085 48.2775 47.0874 47.5557 47.8092C46.8339 48.5309 45.855 48.9364 44.8343 48.9364ZM19.1763 18.1469C18.8361 18.1469 18.5098 18.2821 18.2692 18.5227C18.0286 18.7633 17.8934 19.0896 17.8934 19.4298V19.5324C18.4836 27.1272 22.2681 45.0877 44.7573 46.3706C44.9258 46.3811 45.0948 46.3581 45.2544 46.3031C45.4141 46.2481 45.5613 46.1621 45.6876 46.05C45.814 45.938 45.9169 45.8021 45.9907 45.6502C46.0644 45.4983 46.1074 45.3333 46.1172 45.1647V38.314L41.2807 36.3769L37.5987 40.0331L36.9829 39.9562C25.8217 38.5578 24.3079 27.3966 24.3079 27.2811L24.231 26.6653L27.8744 22.9834L25.95 18.1469H19.1763Z" fill="black"/>
</svg>
