<svg width="19" height="20" viewBox="0 0 19 20" fill="none" xmlns="http://www.w3.org/2000/svg">
<path d="M6.996 4.60059H2.795C1.804 4.60059 1 5.40459 1 6.39559V17.2066C1 18.1966 1.804 19.0006 2.795 19.0006H9.942C10.933 19.0006 11.737 18.1966 11.737 17.2056V16.4426" stroke="black" stroke-width="1.5" stroke-linecap="round" stroke-linejoin="round"/>
<path d="M6.29408 14.9754L12.8031 16.7294C13.8721 17.0174 14.9711 16.3824 15.2561 15.3134L17.9321 5.26938C18.2141 4.20938 17.5791 3.10938 16.5201 2.82338L10.0111 1.06938C8.94213 0.78138 7.84313 1.41638 7.55813 2.48538L4.88208 12.5294C4.59908 13.5944 5.23008 14.6884 6.29408 14.9754Z" stroke="black" stroke-width="1.5" stroke-linecap="round" stroke-linejoin="round"/>
<path d="M8.40039 15.5396L12.1204 1.63965" stroke="black" stroke-width="1.5" stroke-linecap="round" stroke-linejoin="round"/>
</svg>
