<svg width="21" height="20" viewBox="0 0 21 20" fill="none" xmlns="http://www.w3.org/2000/svg">
<path d="M4.75 7H2.5" stroke="black" stroke-width="1.5" stroke-linecap="round" stroke-linejoin="round"/>
<path d="M4.75 13H2.5" stroke="black" stroke-width="1.5" stroke-linecap="round" stroke-linejoin="round"/>
<path d="M4.75 10H1" stroke="black" stroke-width="1.5" stroke-linecap="round" stroke-linejoin="round"/>
<path d="M4.63672 3.63604C5.89539 2.37737 7.49904 1.5202 9.24483 1.17294C10.9907 0.825669 12.8003 1.0039 14.4448 1.68509C16.0893 2.36628 17.4949 3.51983 18.4839 4.99987C19.4728 6.47991 20.0006 8.22 20.0006 10C20.0006 11.78 19.4728 13.5201 18.4839 15.0001C17.4949 16.4802 16.0893 17.6337 14.4448 18.3149C12.8003 18.9961 10.9907 19.1743 9.24483 18.8271C7.49904 18.4798 5.89539 17.6226 4.63672 16.364" stroke="black" stroke-width="1.5" stroke-linecap="round" stroke-linejoin="round"/>
<path d="M8.5791 7.38177L9.49279 9.6206C9.59149 9.8626 9.59159 10.1337 9.49279 10.3757L8.578 12.6182C8.50003 12.8093 8.48311 13.0199 8.52956 13.221C8.576 13.4221 8.68354 13.6039 8.83742 13.7415C8.99129 13.879 9.18399 13.9656 9.38899 13.9893C9.59399 14.013 9.80139 13.9727 9.98259 13.8739L15.4791 10.8777C15.6369 10.7916 15.7685 10.6647 15.8603 10.5102C15.952 10.3557 16.0004 10.1793 16.0004 9.9997C16.0004 9.82 15.952 9.6436 15.8603 9.4891C15.7685 9.3346 15.6369 9.2077 15.4791 9.1217L9.98369 6.12592C9.80239 6.02712 9.59509 5.98681 9.38999 6.01054C9.18499 6.03426 8.99229 6.12086 8.83841 6.25844C8.68454 6.39602 8.57701 6.57785 8.53058 6.77898C8.48415 6.9801 8.5011 7.19066 8.5791 7.38177Z" stroke="black" stroke-width="1.5" stroke-linecap="round" stroke-linejoin="round"/>
<path d="M15 10H10" stroke="black" stroke-width="1.5" stroke-linecap="round" stroke-linejoin="round"/>
</svg>
