<svg width="20" height="20" viewBox="0 0 20 20" fill="none" xmlns="http://www.w3.org/2000/svg">
<path d="M14 1H6C3.23858 1 1 3.23858 1 6V14C1 16.7614 3.23858 19 6 19H14C16.7614 19 19 16.7614 19 14V6C19 3.23858 16.7614 1 14 1Z" stroke="#141318" stroke-width="1.5" stroke-miterlimit="10"/>
<path d="M13 1V6.5" stroke="#141318" stroke-width="1.5" stroke-linecap="round" stroke-linejoin="round"/>
<path d="M13 10.5V19" stroke="#141318" stroke-width="1.5" stroke-linecap="round" stroke-linejoin="round"/>
<path d="M14.9492 8.94922L19.0002 13.0002" stroke="#141318" stroke-width="1.5" stroke-linecap="round" stroke-linejoin="round"/>
<path d="M13 10.5C14.1046 10.5 15 9.6046 15 8.5C15 7.39543 14.1046 6.5 13 6.5C11.8954 6.5 11 7.39543 11 8.5C11 9.6046 11.8954 10.5 13 10.5Z" stroke="#141318" stroke-width="1.5" stroke-miterlimit="10"/>
<path d="M11.05 8.94531L7 13.0003L4 10.0003L1 13.0003" stroke="#141318" stroke-width="1.5" stroke-linecap="round" stroke-linejoin="round"/>
</svg>
