<svg width="16" height="13" viewBox="0 0 16 13" fill="none" xmlns="http://www.w3.org/2000/svg">
<path d="M15.4238 1.90556C14.8551 2.1583 14.2549 2.31627 13.623 2.41104C14.2549 2.03193 14.7603 1.43167 14.9815 0.705036C14.3812 1.05256 13.7178 1.3053 12.9912 1.46326C12.4225 0.863 11.6011 0.483887 10.7165 0.483887C9.01047 0.483887 7.62039 1.87397 7.62039 3.57998C7.62039 3.83272 7.65198 4.05387 7.71516 4.27502C5.15615 4.14865 2.84988 2.91653 1.30184 1.02096C1.0491 1.49485 0.891132 2.00034 0.891132 2.56901C0.891132 3.64316 1.42821 4.59094 2.28121 5.15961C1.77573 5.12802 1.30184 5.00165 0.859539 4.7805V4.81209C0.859539 6.32854 1.93369 7.59225 3.35537 7.87659C3.10262 7.93977 2.81829 7.97137 2.53395 7.97137C2.3444 7.97137 2.12325 7.93977 1.93369 7.90818C2.3444 9.1403 3.48174 10.0565 4.84022 10.0565C3.76607 10.8779 2.43918 11.3834 0.98591 11.3834C0.733168 11.3834 0.480427 11.3834 0.259277 11.3518C1.64936 12.2364 3.26059 12.7419 5.02978 12.7419C10.7481 12.7419 13.8757 8.00296 13.8757 3.8959C13.8757 3.76953 13.8757 3.61157 13.8757 3.4852C14.476 3.07449 15.0131 2.53742 15.4238 1.90556Z" fill="#141318"/>
</svg>
