<svg width="46" height="46" viewBox="0 0 46 46" fill="none" xmlns="http://www.w3.org/2000/svg">
<g clip-path="url(#clip0_104_1807)">
<path d="M39.1531 24.5909H35.666C36.0215 25.564 36.2156 26.6142 36.2156 27.7088V40.8881C36.2156 41.3445 36.1362 41.7825 35.9917 42.1899H41.7567C43.9102 42.1899 45.6621 40.4379 45.6621 38.2845V31.0999C45.6622 27.5108 42.7422 24.5909 39.1531 24.5909Z" fill="#141318"/>
<path d="M10.0188 27.7089C10.0188 26.6143 10.213 25.5641 10.5685 24.591H7.08134C3.49223 24.591 0.572266 27.511 0.572266 31.1001V38.2847C0.572266 40.4381 2.32419 42.1901 4.47771 42.1901H10.2428C10.0983 41.7826 10.0188 41.3446 10.0188 40.8882V27.7089Z" fill="#141318"/>
<path d="M27.1061 21.2001H19.1341C15.545 21.2001 12.625 24.1201 12.625 27.7092V40.8885C12.625 41.6074 13.2078 42.1903 13.9268 42.1903H32.3134C33.0323 42.1903 33.6152 41.6075 33.6152 40.8885V27.7092C33.6152 24.1201 30.6952 21.2001 27.1061 21.2001Z" fill="#141318"/>
<path d="M23.117 3.94061C18.8007 3.94061 15.2891 7.45222 15.2891 11.7687C15.2891 14.6965 16.905 17.2535 19.2915 18.596C20.4234 19.2327 21.7284 19.5966 23.117 19.5966C24.5057 19.5966 25.8107 19.2327 26.9426 18.596C29.3291 17.2535 30.945 14.6964 30.945 11.7687C30.945 7.4523 27.4334 3.94061 23.117 3.94061Z" fill="#141318"/>
<path d="M9.37284 11.2372C6.14473 11.2372 3.51855 13.8634 3.51855 17.0915C3.51855 20.3196 6.14473 22.9458 9.37284 22.9458C10.1917 22.9458 10.9714 22.7762 11.6798 22.4713C12.9044 21.9441 13.9142 21.0107 14.5391 19.8416C14.9776 19.0211 15.2271 18.085 15.2271 17.0915C15.2271 13.8635 12.601 11.2372 9.37284 11.2372Z" fill="#141318"/>
<path d="M36.8641 11.2372C33.6359 11.2372 31.0098 13.8634 31.0098 17.0915C31.0098 18.0851 31.2593 19.0212 31.6978 19.8416C32.3227 21.0108 33.3325 21.9441 34.5571 22.4713C35.2655 22.7762 36.0452 22.9458 36.8641 22.9458C40.0922 22.9458 42.7183 20.3196 42.7183 17.0915C42.7183 13.8634 40.0922 11.2372 36.8641 11.2372Z" fill="#141318"/>
</g>
<defs>
<clipPath id="clip0_104_1807">
<rect width="45.0905" height="45.0905" fill="white" transform="translate(0.573242 0.520264)"/>
</clipPath>
</defs>
</svg>
