<svg width="46" height="46" viewBox="0 0 46 46" fill="none" xmlns="http://www.w3.org/2000/svg">
<g clip-path="url(#clip0_104_1848)">
<path d="M22.4425 22.2406C25.4265 22.2406 28.0104 21.1704 30.1216 19.0588C32.2328 16.9476 33.303 14.3644 33.303 11.3801C33.303 8.39685 32.2328 5.81331 30.1212 3.70141C28.0097 1.59055 25.4261 0.520325 22.4425 0.520325C19.4582 0.520325 16.875 1.59055 14.7638 3.70176C12.6526 5.81297 11.582 8.3965 11.582 11.3801C11.582 14.3644 12.6526 16.948 14.7642 19.0592C16.8757 21.1701 19.4592 22.2406 22.4425 22.2406Z" fill="#141318"/>
<path d="M41.4441 35.1927C41.3832 34.3141 41.26 33.3557 41.0787 32.3436C40.8957 31.324 40.6601 30.36 40.378 29.479C40.0866 28.5684 39.6903 27.6692 39.2004 26.8074C38.692 25.913 38.0947 25.1341 37.4246 24.4932C36.7239 23.8228 35.8659 23.2837 34.8738 22.8905C33.8851 22.4993 32.7894 22.3012 31.6173 22.3012C31.157 22.3012 30.7119 22.49 29.8522 23.0498C29.3231 23.3948 28.7042 23.7939 28.0134 24.2352C27.4228 24.6116 26.6226 24.9642 25.6343 25.2834C24.67 25.5955 23.6909 25.7537 22.7246 25.7537C21.7583 25.7537 20.7795 25.5955 19.8142 25.2834C18.8269 24.9645 18.0267 24.6119 17.4368 24.2356C16.7525 23.7983 16.1333 23.3993 15.5963 23.0494C14.7376 22.4897 14.2921 22.3008 13.8318 22.3008C12.6595 22.3008 11.5641 22.4993 10.5758 22.8908C9.58432 23.2833 8.72601 23.8224 8.02456 24.4936C7.35477 25.1348 6.75722 25.9133 6.24946 26.8074C5.75993 27.6692 5.36362 28.5681 5.0719 29.4794C4.79015 30.3604 4.5545 31.324 4.37149 32.3436C4.19019 33.3543 4.06704 34.3131 4.00615 35.1938C3.94629 36.0566 3.91602 36.952 3.91602 37.8564C3.91602 40.2102 4.66424 42.1157 6.13972 43.5209C7.59696 44.9077 9.52515 45.6112 11.8699 45.6112H33.5813C35.9261 45.6112 37.8536 44.908 39.3112 43.5209C40.787 42.1167 41.5352 40.2109 41.5352 37.8561C41.5349 36.9475 41.5043 36.0514 41.4441 35.1927Z" fill="#141318"/>
</g>
<defs>
<clipPath id="clip0_104_1848">
<rect width="45.0905" height="45.0907" fill="white" transform="translate(0.217773 0.520325)"/>
</clipPath>
</defs>
</svg>
