<svg width="46" height="46" viewBox="0 0 46 46" fill="none" xmlns="http://www.w3.org/2000/svg">
<g clip-path="url(#clip0_104_1772)">
<path d="M14.074 5.55292C9.5358 5.55292 5.84375 9.46751 5.84375 14.2792C5.84375 19.0908 9.5358 23.0054 14.074 23.0054C18.6122 23.0054 22.3043 19.0908 22.3043 14.2792C22.3043 9.46751 18.6123 5.55292 14.074 5.55292Z" fill="#141318"/>
<path d="M32.79 6.80115C32.7715 6.80115 32.7526 6.80124 32.734 6.80132C30.8295 6.81709 29.0505 7.62123 27.7249 9.0658C26.4226 10.4848 25.7145 12.3569 25.7307 14.337C25.7471 16.3171 26.4861 18.1772 27.8116 19.5746C29.1476 20.9829 30.9173 21.7563 32.8007 21.7563C32.8196 21.7563 32.8386 21.7562 32.8576 21.7561C34.7621 21.7404 36.5411 20.9361 37.8667 19.4917C39.169 18.0726 39.8772 16.2006 39.8609 14.2204C39.827 10.117 36.6605 6.80115 32.79 6.80115Z" fill="#141318"/>
<path d="M33.1354 23.1854H32.452C29.2692 23.1854 26.3648 24.3954 24.1719 26.3787C24.7205 26.7996 25.2428 27.2585 25.7377 27.7534C27.1979 29.2136 28.3445 30.915 29.1459 32.8102C29.8681 34.517 30.2802 36.3153 30.3762 38.1674H45.4877V35.5368C45.4877 28.7266 39.9465 23.1854 33.1354 23.1854Z" fill="#141318"/>
<path d="M27.7282 38.1674C27.479 34.1524 25.4437 30.6209 22.4063 28.3575C20.1967 26.7107 17.456 25.7358 14.4873 25.7358H13.6647C6.33663 25.7359 0.396484 31.6759 0.396484 39.004V40.5786H27.7546V39.004C27.7546 38.7231 27.7458 38.4439 27.7282 38.1674Z" fill="#141318"/>
</g>
<defs>
<clipPath id="clip0_104_1772">
<rect width="45.0905" height="45.0905" fill="white" transform="translate(0.396484 0.520325)"/>
</clipPath>
</defs>
</svg>
